<svg width="14" height="13" viewBox="0 0 14 13" fill="none" xmlns="http://www.w3.org/2000/svg">
<path d="M12.375 4.53124L8.95309 4.03905L7.40621 0.921861C7.1484 0.382798 6.35152 0.359361 6.07027 0.921861L4.54684 4.03905L1.10152 4.53124C0.492149 4.62499 0.257773 5.37499 0.703086 5.8203L3.16402 8.23436L2.57809 11.6328C2.48434 12.2422 3.14059 12.7109 3.67965 12.4297L6.74996 10.8125L9.79684 12.4297C10.3359 12.7109 10.9921 12.2422 10.8984 11.6328L10.3125 8.23436L12.7734 5.8203C13.2187 5.37499 12.9843 4.62499 12.375 4.53124ZM9.09371 7.83592L9.65621 11.0703L6.74996 9.54686L3.82027 11.0703L4.38277 7.83592L2.01559 5.53905L5.2734 5.0703L6.74996 2.11717L8.20309 5.0703L11.4609 5.53905L9.09371 7.83592Z" fill="#FF8DA9"/>
<path d="M12.375 4.53124L8.95309 4.03905L7.40621 0.921861C7.1484 0.382798 6.35152 0.359361 6.07027 0.921861L4.54684 4.03905L1.10152 4.53124C0.492149 4.62499 0.257773 5.37499 0.703086 5.8203L3.16402 8.23436L2.57809 11.6328C2.48434 12.2422 3.14059 12.7109 3.67965 12.4297L6.74996 10.8125L9.79684 12.4297C10.3359 12.7109 10.9921 12.2422 10.8984 11.6328L10.3125 8.23436L12.7734 5.8203C13.2187 5.37499 12.9843 4.62499 12.375 4.53124ZM9.09371 7.83592L9.65621 11.0703L6.74996 9.54686L3.82027 11.0703L4.38277 7.83592L2.01559 5.53905L5.2734 5.0703L6.74996 2.11717L8.20309 5.0703L11.4609 5.53905L9.09371 7.83592Z" fill="url(#paint0_linear)" fill-opacity="0.2"/>
<defs>
<linearGradient id="paint0_linear" x1="6.73824" y1="0.508728" x2="6.73824" y2="12.5133" gradientUnits="userSpaceOnUse">
<stop stop-color="#EC3CE5"/>
<stop offset="1" stop-color="#FF8DA9" stop-opacity="0"/>
</linearGradient>
</defs>
</svg>
