<svg width="1069" height="1046" viewBox="0 0 1069 1046" fill="none" xmlns="http://www.w3.org/2000/svg">
<rect width="1069" height="1043" rx="35" fill="url(#paint0_linear)"/>
<path d="M0 741C0 723.327 14.3269 709 32 709H1037C1054.67 709 1069 723.327 1069 741V1013.5C1069 1031.17 1054.67 1045.5 1037 1045.5H32C14.3269 1045.5 0 1031.17 0 1013.5V741Z" fill="#BDF4E3"/>
<rect x="204.556" y="402.432" width="749" height="411.568" fill="#F7C4DB"/>
<rect x="204.556" y="402.432" width="46" height="411.568" fill="#FEF2A8"/>
<rect x="204.556" y="266" width="749" height="86.4066" rx="20" fill="#FEF2A8"/>
<g filter="url(#filter0_d)">
<rect x="401" y="493.386" width="355" height="86.4066" rx="25" fill="white"/>
</g>
<rect x="908.556" y="402.432" width="45" height="411.568" fill="#FEF2A8"/>
<rect x="424.556" y="608.216" width="305" height="205.784" fill="#F4F8FC"/>
<rect x="424.556" y="608.216" width="9" height="205.784" fill="#C4C4C4"/>
<rect x="719.556" y="608.216" width="10" height="205.784" fill="#C4C4C4"/>
<rect x="569.556" y="618.448" width="9" height="195.552" fill="#E5E5E5"/>
<ellipse cx="558.056" cy="722.477" rx="5.5" ry="6.25311" fill="#C4C4C4"/>
<ellipse cx="591.056" cy="722.477" rx="5.5" ry="6.25311" fill="#C4C4C4"/>
<rect x="424.556" y="608.216" width="305" height="10.2324" fill="#C4C4C4"/>
<path d="M531.875 632.091H493.236C492.26 632.091 491.324 632.511 490.634 633.257C489.943 634.003 489.556 635.015 489.556 636.071C489.556 637.126 489.943 638.138 490.634 638.884C491.324 639.631 492.26 640.05 493.236 640.05H531.875C532.851 640.05 533.787 639.631 534.478 638.884C535.168 638.138 535.556 637.126 535.556 636.071C535.556 635.015 535.168 634.003 534.478 633.257C533.787 632.511 532.851 632.091 531.875 632.091V632.091Z" fill="white"/>
<path d="M479.986 630.954H467.126C466.179 630.954 465.271 631.433 464.601 632.286C463.932 633.139 463.556 634.296 463.556 635.502C463.556 636.708 463.932 637.865 464.601 638.718C465.271 639.571 466.179 640.05 467.126 640.05H479.986C480.933 640.05 481.841 639.571 482.51 638.718C483.18 637.865 483.556 636.708 483.556 635.502C483.556 634.296 483.18 633.139 482.51 632.286C481.841 631.433 480.933 630.954 479.986 630.954V630.954Z" fill="white"/>
<path d="M452.986 630.954H450.126C449.179 630.954 448.271 631.433 447.601 632.286C446.932 633.139 446.556 634.296 446.556 635.502C446.556 636.708 446.932 637.865 447.601 638.718C448.271 639.571 449.179 640.05 450.126 640.05H452.986C453.933 640.05 454.841 639.571 455.51 638.718C456.18 637.865 456.556 636.708 456.556 635.502C456.556 634.296 456.18 633.139 455.51 632.286C454.841 631.433 453.933 630.954 452.986 630.954V630.954Z" fill="white"/>
<g filter="url(#filter1_d)">
<path d="M697.088 334.855H745.717V440.937C745.717 454.366 734.831 465.252 721.403 465.252V465.252C707.974 465.252 697.088 454.366 697.088 440.937V334.855Z" fill="white"/>
</g>
<g filter="url(#filter2_d)">
<path d="M745.717 334.855H793.429V441.396C793.429 454.571 782.748 465.252 769.573 465.252V465.252C756.397 465.252 745.717 454.571 745.717 441.396V334.855Z" fill="#FF8DA9"/>
</g>
<g filter="url(#filter3_d)">
<path d="M793.429 334.855H842.058V440.937C842.058 454.366 831.172 465.252 817.743 465.252V465.252C804.315 465.252 793.429 454.366 793.429 440.937V334.855Z" fill="white"/>
</g>
<g filter="url(#filter4_d)">
<path d="M842.058 334.855H890.687V440.937C890.687 454.366 879.801 465.252 866.373 465.252V465.252C852.944 465.252 842.058 454.366 842.058 440.937V334.855Z" fill="#FF8DA9"/>
</g>
<g filter="url(#filter5_d)">
<path d="M890.688 334.855H939.317V440.937C939.317 454.366 928.431 465.252 915.002 465.252V465.252C901.574 465.252 890.688 454.366 890.688 440.937V334.855Z" fill="white"/>
</g>
<g filter="url(#filter6_d)">
<path d="M697.088 334.855H745.717V440.937C745.717 454.366 734.831 465.252 721.403 465.252V465.252C707.974 465.252 697.088 454.366 697.088 440.937V334.855Z" fill="white"/>
</g>
<g filter="url(#filter7_d)">
<path d="M745.717 334.855H793.429V441.396C793.429 454.571 782.748 465.252 769.573 465.252V465.252C756.397 465.252 745.717 454.571 745.717 441.396V334.855Z" fill="#FF8DA9"/>
</g>
<g filter="url(#filter8_d)">
<path d="M793.429 334.855H842.058V440.937C842.058 454.366 831.172 465.252 817.743 465.252V465.252C804.315 465.252 793.429 454.366 793.429 440.937V334.855Z" fill="white"/>
</g>
<g filter="url(#filter9_d)">
<path d="M842.058 334.855H890.687V440.937C890.687 454.366 879.801 465.252 866.373 465.252V465.252C852.944 465.252 842.058 454.366 842.058 440.937V334.855Z" fill="#FF8DA9"/>
</g>
<g filter="url(#filter10_d)">
<path d="M890.688 334.855H939.317V440.937C939.317 454.366 928.431 465.252 915.002 465.252V465.252C901.574 465.252 890.688 454.366 890.688 440.937V334.855Z" fill="white"/>
</g>
<g filter="url(#filter11_d)">
<path d="M406.229 334.855H454.858V440.937C454.858 454.366 443.972 465.252 430.544 465.252V465.252C417.115 465.252 406.229 454.366 406.229 440.937V334.855Z" fill="white"/>
</g>
<g filter="url(#filter12_d)">
<path d="M454.858 334.855H503.488V440.937C503.488 454.366 492.602 465.252 479.173 465.252V465.252C465.744 465.252 454.858 454.366 454.858 440.937V334.855Z" fill="#FF8DA9"/>
</g>
<g filter="url(#filter13_d)">
<path d="M503.488 334.855H552.117V440.937C552.117 454.366 541.231 465.252 527.802 465.252V465.252C514.374 465.252 503.488 454.366 503.488 440.937V334.855Z" fill="white"/>
</g>
<g filter="url(#filter14_d)">
<path d="M552.117 334.855H600.747V440.937C600.747 454.366 589.86 465.252 576.432 465.252V465.252C563.003 465.252 552.117 454.366 552.117 440.937V334.855Z" fill="#FF8DA9"/>
</g>
<g filter="url(#filter15_d)">
<path d="M600.747 334.855H649.376V440.937C649.376 454.366 638.49 465.252 625.061 465.252V465.252C611.633 465.252 600.747 454.366 600.747 440.937V334.855Z" fill="white"/>
</g>
<g filter="url(#filter16_d)">
<path d="M649.376 334.855H698.005V440.937C698.005 454.366 687.119 465.252 673.691 465.252V465.252C660.262 465.252 649.376 454.366 649.376 440.937V334.855Z" fill="#FF8DA9"/>
</g>
<g filter="url(#filter17_d)">
<path d="M969.137 334.855H939.317V442.682C939.317 455.147 949.422 465.252 961.887 465.252V465.252C975.634 465.252 986.189 453.066 984.226 439.46L969.137 334.855Z" fill="#FF8DA9"/>
</g>
<g filter="url(#filter18_d)">
<path d="M261.259 334.855H309.888V440.937C309.888 454.366 299.002 465.252 285.573 465.252V465.252C272.145 465.252 261.259 454.366 261.259 440.937V334.855Z" fill="#FF8DA9"/>
</g>
<g filter="url(#filter19_d)">
<path d="M309.888 334.855H358.517V440.937C358.517 454.366 347.631 465.252 334.203 465.252V465.252C320.774 465.252 309.888 454.366 309.888 440.937V334.855Z" fill="white"/>
</g>
<g filter="url(#filter20_d)">
<path d="M358.518 334.855H406.229V441.396C406.229 454.571 395.549 465.252 382.373 465.252V465.252C369.198 465.252 358.518 454.571 358.518 441.396V334.855Z" fill="#FF8DA9"/>
</g>
<g filter="url(#filter21_d)">
<path d="M182.809 334.855H212.629V442.682C212.629 455.147 202.524 465.252 190.059 465.252V465.252C176.312 465.252 165.758 453.066 167.721 439.46L182.809 334.855Z" fill="#FF8DA9"/>
</g>
<g filter="url(#filter22_d)">
<path d="M212.629 334.855H261.259V440.937C261.259 454.366 250.373 465.252 236.944 465.252V465.252C223.515 465.252 212.629 454.366 212.629 440.937V334.855Z" fill="white"/>
</g>
<path d="M697.088 334.855H745.717V413.093H697.088V334.855Z" fill="#FFFCEC"/>
<path d="M745.717 334.855H793.429V413.093H745.717V334.855Z" fill="#FF809E"/>
<path d="M793.429 334.855H842.059V413.093H793.429V334.855Z" fill="#FFFCEC"/>
<path d="M842.059 334.855H890.688V413.093H842.059V334.855Z" fill="#FF809E"/>
<path d="M890.688 334.855H939.317V413.093H890.688V334.855Z" fill="#FFFCEC"/>
<path d="M697.088 334.855H745.717V413.093H697.088V334.855Z" fill="#FFFCEC"/>
<path d="M745.717 334.855H793.429V413.093H745.717V334.855Z" fill="#FF809E"/>
<path d="M793.429 334.855H842.059V413.093H793.429V334.855Z" fill="#FFFCEC"/>
<path d="M842.059 334.855H890.688V413.093H842.059V334.855Z" fill="#FF809E"/>
<path d="M890.688 334.855H939.317V413.093H890.688V334.855Z" fill="#FFFCEC"/>
<path d="M406.229 334.855H454.859V413.093H406.229V334.855Z" fill="#FFFCEC"/>
<path d="M454.859 334.855H503.488V413.093H454.859V334.855Z" fill="#FF809E"/>
<path d="M503.488 334.855H552.118V413.093H503.488V334.855Z" fill="#FFFCEC"/>
<path d="M552.117 334.855H600.747V413.093H552.117V334.855Z" fill="#FF809E"/>
<path d="M600.747 334.855H649.376V413.093H600.747V334.855Z" fill="#FFFCEC"/>
<path d="M649.376 334.855H698.005V413.093H649.376V334.855Z" fill="#FF809E"/>
<path d="M261.259 334.855H309.888V413.093H261.259V334.855Z" fill="#FF809E"/>
<path d="M309.888 334.855H358.518V413.093H309.888V334.855Z" fill="#FFFCEC"/>
<path d="M358.518 334.855H406.229V413.093H358.518V334.855Z" fill="#FF809E"/>
<path d="M212.629 334.855H261.259V413.093H212.629V334.855Z" fill="#FFFCEC"/>
<g filter="url(#filter23_d)">
<path d="M182.81 334.855H212.63V413.615H172.717L182.81 334.855Z" fill="#FF809E"/>
</g>
<g filter="url(#filter24_d)">
<path d="M969.137 333.812H939.317V412.572H979.23L969.137 333.812Z" fill="#FF809E"/>
</g>
<path d="M85.7295 646.157H128.113V783.871H85.7295V646.157Z" fill="#D49C8D"/>
<path d="M179.862 815.559C181.762 811.917 182.842 807.78 182.842 803.388C182.842 788.835 171.044 777.037 156.491 777.037C155.592 777.037 154.704 777.083 153.827 777.173C148.267 762.565 134.14 752.182 117.58 752.182C101.665 752.182 87.9958 761.773 82.0196 775.488C76.6114 770.823 69.5744 767.996 61.8721 767.996C44.8219 767.996 31 781.818 31 798.868C31 805.02 32.8069 810.747 35.9071 815.56H179.862V815.559Z" fill="#78EAC4"/>
<path d="M150.359 583.87C153.59 577.373 155.417 570.057 155.417 562.308C155.417 535.525 133.705 513.812 106.921 513.812C80.1375 513.812 58.4253 535.525 58.4253 562.308C58.4253 570.057 60.2517 577.373 63.4827 583.87C52.1512 595.072 45.124 610.62 45.124 627.814C45.124 661.943 72.7915 689.611 106.921 689.611C141.051 689.611 168.718 661.943 168.718 627.814C168.718 610.62 161.691 595.072 150.359 583.87V583.87Z" fill="#78EAC4"/>
<path d="M150.359 583.87C153.59 577.373 155.417 570.057 155.417 562.308C155.417 535.525 133.705 513.812 106.921 513.812C88.2269 513.812 72.0134 524.396 63.9198 539.894C70.2956 532.973 79.4304 528.634 89.5828 528.634C108.85 528.634 124.471 544.254 124.471 563.522C124.471 569.096 123.157 574.361 120.832 579.034C128.984 587.093 134.039 598.278 134.039 610.648C134.039 635.202 114.135 655.105 89.5814 655.105C67.7049 655.105 49.5327 639.3 45.827 618.488C45.3663 621.53 45.124 624.643 45.124 627.814C45.124 661.943 72.7915 689.611 106.921 689.611C141.051 689.611 168.718 661.943 168.718 627.814C168.718 610.62 161.691 595.074 150.359 583.87V583.87Z" fill="#71AFC4"/>
<path d="M129.236 813.869C127.194 809.956 126.033 805.51 126.033 800.789C126.033 785.148 138.712 772.469 154.352 772.469C155.318 772.469 156.273 772.519 157.216 772.613C163.192 756.915 178.374 745.756 196.17 745.756C213.275 745.756 227.964 756.064 234.387 770.802C240.199 765.789 247.762 762.751 256.039 762.751C274.363 762.751 289.218 777.604 289.218 795.929C289.218 802.54 287.276 808.695 283.943 813.868H129.236V813.869Z" fill="#78EAC4"/>
<path d="M129.02 817.488C126.008 817.488 123.099 815.854 121.609 812.999C119.037 808.074 117.679 802.529 117.679 796.964C117.679 777.828 133.246 762.259 152.382 762.259C153.534 762.259 154.711 762.318 155.879 762.435C160.468 762.894 163.818 766.987 163.357 771.578C162.898 776.167 158.808 779.52 154.214 779.056C153.597 778.995 152.98 778.963 152.382 778.963C142.458 778.963 134.384 787.037 134.384 796.962C134.384 799.888 135.067 802.682 136.416 805.267C138.552 809.357 136.966 814.402 132.877 816.536C131.643 817.182 130.322 817.488 129.02 817.488V817.488Z" fill="#518699"/>
<path d="M89.4221 627.587C96.0486 627.587 101.42 622.215 101.42 615.589C101.42 608.962 96.0486 603.59 89.4221 603.59C82.7956 603.59 77.4238 608.962 77.4238 615.589C77.4238 622.215 82.7956 627.587 89.4221 627.587Z" fill="white"/>
<defs>
<filter id="filter0_d" x="397" y="493.386" width="363" height="94.4066" filterUnits="userSpaceOnUse" color-interpolation-filters="sRGB">
<feFlood flood-opacity="0" result="BackgroundImageFix"/>
<feColorMatrix in="SourceAlpha" type="matrix" values="0 0 0 0 0 0 0 0 0 0 0 0 0 0 0 0 0 0 127 0" result="hardAlpha"/>
<feOffset dy="4"/>
<feGaussianBlur stdDeviation="2"/>
<feColorMatrix type="matrix" values="0 0 0 0 1 0 0 0 0 0.554167 0 0 0 0 0.661167 0 0 0 0.1 0"/>
<feBlend mode="normal" in2="BackgroundImageFix" result="effect1_dropShadow"/>
<feBlend mode="normal" in="SourceGraphic" in2="effect1_dropShadow" result="shape"/>
</filter>
<filter id="filter1_d" x="693.088" y="334.855" width="56.6293" height="138.397" filterUnits="userSpaceOnUse" color-interpolation-filters="sRGB">
<feFlood flood-opacity="0" result="BackgroundImageFix"/>
<feColorMatrix in="SourceAlpha" type="matrix" values="0 0 0 0 0 0 0 0 0 0 0 0 0 0 0 0 0 0 127 0" result="hardAlpha"/>
<feOffset dy="4"/>
<feGaussianBlur stdDeviation="2"/>
<feColorMatrix type="matrix" values="0 0 0 0 1 0 0 0 0 0.554167 0 0 0 0 0.661167 0 0 0 0.1 0"/>
<feBlend mode="normal" in2="BackgroundImageFix" result="effect1_dropShadow"/>
<feBlend mode="normal" in="SourceGraphic" in2="effect1_dropShadow" result="shape"/>
</filter>
<filter id="filter2_d" x="741.717" y="334.855" width="55.7118" height="138.397" filterUnits="userSpaceOnUse" color-interpolation-filters="sRGB">
<feFlood flood-opacity="0" result="BackgroundImageFix"/>
<feColorMatrix in="SourceAlpha" type="matrix" values="0 0 0 0 0 0 0 0 0 0 0 0 0 0 0 0 0 0 127 0" result="hardAlpha"/>
<feOffset dy="4"/>
<feGaussianBlur stdDeviation="2"/>
<feColorMatrix type="matrix" values="0 0 0 0 1 0 0 0 0 0.554167 0 0 0 0 0.661167 0 0 0 0.1 0"/>
<feBlend mode="normal" in2="BackgroundImageFix" result="effect1_dropShadow"/>
<feBlend mode="normal" in="SourceGraphic" in2="effect1_dropShadow" result="shape"/>
</filter>
<filter id="filter3_d" x="789.429" y="334.855" width="56.6293" height="138.397" filterUnits="userSpaceOnUse" color-interpolation-filters="sRGB">
<feFlood flood-opacity="0" result="BackgroundImageFix"/>
<feColorMatrix in="SourceAlpha" type="matrix" values="0 0 0 0 0 0 0 0 0 0 0 0 0 0 0 0 0 0 127 0" result="hardAlpha"/>
<feOffset dy="4"/>
<feGaussianBlur stdDeviation="2"/>
<feColorMatrix type="matrix" values="0 0 0 0 1 0 0 0 0 0.554167 0 0 0 0 0.661167 0 0 0 0.1 0"/>
<feBlend mode="normal" in2="BackgroundImageFix" result="effect1_dropShadow"/>
<feBlend mode="normal" in="SourceGraphic" in2="effect1_dropShadow" result="shape"/>
</filter>
<filter id="filter4_d" x="838.058" y="334.855" width="56.6293" height="138.397" filterUnits="userSpaceOnUse" color-interpolation-filters="sRGB">
<feFlood flood-opacity="0" result="BackgroundImageFix"/>
<feColorMatrix in="SourceAlpha" type="matrix" values="0 0 0 0 0 0 0 0 0 0 0 0 0 0 0 0 0 0 127 0" result="hardAlpha"/>
<feOffset dy="4"/>
<feGaussianBlur stdDeviation="2"/>
<feColorMatrix type="matrix" values="0 0 0 0 1 0 0 0 0 0.554167 0 0 0 0 0.661167 0 0 0 0.1 0"/>
<feBlend mode="normal" in2="BackgroundImageFix" result="effect1_dropShadow"/>
<feBlend mode="normal" in="SourceGraphic" in2="effect1_dropShadow" result="shape"/>
</filter>
<filter id="filter5_d" x="886.688" y="334.855" width="56.6293" height="138.397" filterUnits="userSpaceOnUse" color-interpolation-filters="sRGB">
<feFlood flood-opacity="0" result="BackgroundImageFix"/>
<feColorMatrix in="SourceAlpha" type="matrix" values="0 0 0 0 0 0 0 0 0 0 0 0 0 0 0 0 0 0 127 0" result="hardAlpha"/>
<feOffset dy="4"/>
<feGaussianBlur stdDeviation="2"/>
<feColorMatrix type="matrix" values="0 0 0 0 1 0 0 0 0 0.554167 0 0 0 0 0.661167 0 0 0 0.1 0"/>
<feBlend mode="normal" in2="BackgroundImageFix" result="effect1_dropShadow"/>
<feBlend mode="normal" in="SourceGraphic" in2="effect1_dropShadow" result="shape"/>
</filter>
<filter id="filter6_d" x="693.088" y="334.855" width="56.6293" height="138.397" filterUnits="userSpaceOnUse" color-interpolation-filters="sRGB">
<feFlood flood-opacity="0" result="BackgroundImageFix"/>
<feColorMatrix in="SourceAlpha" type="matrix" values="0 0 0 0 0 0 0 0 0 0 0 0 0 0 0 0 0 0 127 0" result="hardAlpha"/>
<feOffset dy="4"/>
<feGaussianBlur stdDeviation="2"/>
<feColorMatrix type="matrix" values="0 0 0 0 1 0 0 0 0 0.554167 0 0 0 0 0.661167 0 0 0 0.1 0"/>
<feBlend mode="normal" in2="BackgroundImageFix" result="effect1_dropShadow"/>
<feBlend mode="normal" in="SourceGraphic" in2="effect1_dropShadow" result="shape"/>
</filter>
<filter id="filter7_d" x="741.717" y="334.855" width="55.7118" height="138.397" filterUnits="userSpaceOnUse" color-interpolation-filters="sRGB">
<feFlood flood-opacity="0" result="BackgroundImageFix"/>
<feColorMatrix in="SourceAlpha" type="matrix" values="0 0 0 0 0 0 0 0 0 0 0 0 0 0 0 0 0 0 127 0" result="hardAlpha"/>
<feOffset dy="4"/>
<feGaussianBlur stdDeviation="2"/>
<feColorMatrix type="matrix" values="0 0 0 0 1 0 0 0 0 0.554167 0 0 0 0 0.661167 0 0 0 0.1 0"/>
<feBlend mode="normal" in2="BackgroundImageFix" result="effect1_dropShadow"/>
<feBlend mode="normal" in="SourceGraphic" in2="effect1_dropShadow" result="shape"/>
</filter>
<filter id="filter8_d" x="789.429" y="334.855" width="56.6293" height="138.397" filterUnits="userSpaceOnUse" color-interpolation-filters="sRGB">
<feFlood flood-opacity="0" result="BackgroundImageFix"/>
<feColorMatrix in="SourceAlpha" type="matrix" values="0 0 0 0 0 0 0 0 0 0 0 0 0 0 0 0 0 0 127 0" result="hardAlpha"/>
<feOffset dy="4"/>
<feGaussianBlur stdDeviation="2"/>
<feColorMatrix type="matrix" values="0 0 0 0 1 0 0 0 0 0.554167 0 0 0 0 0.661167 0 0 0 0.1 0"/>
<feBlend mode="normal" in2="BackgroundImageFix" result="effect1_dropShadow"/>
<feBlend mode="normal" in="SourceGraphic" in2="effect1_dropShadow" result="shape"/>
</filter>
<filter id="filter9_d" x="838.058" y="334.855" width="56.6293" height="138.397" filterUnits="userSpaceOnUse" color-interpolation-filters="sRGB">
<feFlood flood-opacity="0" result="BackgroundImageFix"/>
<feColorMatrix in="SourceAlpha" type="matrix" values="0 0 0 0 0 0 0 0 0 0 0 0 0 0 0 0 0 0 127 0" result="hardAlpha"/>
<feOffset dy="4"/>
<feGaussianBlur stdDeviation="2"/>
<feColorMatrix type="matrix" values="0 0 0 0 1 0 0 0 0 0.554167 0 0 0 0 0.661167 0 0 0 0.1 0"/>
<feBlend mode="normal" in2="BackgroundImageFix" result="effect1_dropShadow"/>
<feBlend mode="normal" in="SourceGraphic" in2="effect1_dropShadow" result="shape"/>
</filter>
<filter id="filter10_d" x="886.688" y="334.855" width="56.6293" height="138.397" filterUnits="userSpaceOnUse" color-interpolation-filters="sRGB">
<feFlood flood-opacity="0" result="BackgroundImageFix"/>
<feColorMatrix in="SourceAlpha" type="matrix" values="0 0 0 0 0 0 0 0 0 0 0 0 0 0 0 0 0 0 127 0" result="hardAlpha"/>
<feOffset dy="4"/>
<feGaussianBlur stdDeviation="2"/>
<feColorMatrix type="matrix" values="0 0 0 0 1 0 0 0 0 0.554167 0 0 0 0 0.661167 0 0 0 0.1 0"/>
<feBlend mode="normal" in2="BackgroundImageFix" result="effect1_dropShadow"/>
<feBlend mode="normal" in="SourceGraphic" in2="effect1_dropShadow" result="shape"/>
</filter>
<filter id="filter11_d" x="402.229" y="334.855" width="56.6293" height="138.397" filterUnits="userSpaceOnUse" color-interpolation-filters="sRGB">
<feFlood flood-opacity="0" result="BackgroundImageFix"/>
<feColorMatrix in="SourceAlpha" type="matrix" values="0 0 0 0 0 0 0 0 0 0 0 0 0 0 0 0 0 0 127 0" result="hardAlpha"/>
<feOffset dy="4"/>
<feGaussianBlur stdDeviation="2"/>
<feColorMatrix type="matrix" values="0 0 0 0 1 0 0 0 0 0.554167 0 0 0 0 0.661167 0 0 0 0.1 0"/>
<feBlend mode="normal" in2="BackgroundImageFix" result="effect1_dropShadow"/>
<feBlend mode="normal" in="SourceGraphic" in2="effect1_dropShadow" result="shape"/>
</filter>
<filter id="filter12_d" x="450.858" y="334.855" width="56.6293" height="138.397" filterUnits="userSpaceOnUse" color-interpolation-filters="sRGB">
<feFlood flood-opacity="0" result="BackgroundImageFix"/>
<feColorMatrix in="SourceAlpha" type="matrix" values="0 0 0 0 0 0 0 0 0 0 0 0 0 0 0 0 0 0 127 0" result="hardAlpha"/>
<feOffset dy="4"/>
<feGaussianBlur stdDeviation="2"/>
<feColorMatrix type="matrix" values="0 0 0 0 1 0 0 0 0 0.554167 0 0 0 0 0.661167 0 0 0 0.1 0"/>
<feBlend mode="normal" in2="BackgroundImageFix" result="effect1_dropShadow"/>
<feBlend mode="normal" in="SourceGraphic" in2="effect1_dropShadow" result="shape"/>
</filter>
<filter id="filter13_d" x="499.488" y="334.855" width="56.6293" height="138.397" filterUnits="userSpaceOnUse" color-interpolation-filters="sRGB">
<feFlood flood-opacity="0" result="BackgroundImageFix"/>
<feColorMatrix in="SourceAlpha" type="matrix" values="0 0 0 0 0 0 0 0 0 0 0 0 0 0 0 0 0 0 127 0" result="hardAlpha"/>
<feOffset dy="4"/>
<feGaussianBlur stdDeviation="2"/>
<feColorMatrix type="matrix" values="0 0 0 0 1 0 0 0 0 0.554167 0 0 0 0 0.661167 0 0 0 0.1 0"/>
<feBlend mode="normal" in2="BackgroundImageFix" result="effect1_dropShadow"/>
<feBlend mode="normal" in="SourceGraphic" in2="effect1_dropShadow" result="shape"/>
</filter>
<filter id="filter14_d" x="548.117" y="334.855" width="56.6293" height="138.397" filterUnits="userSpaceOnUse" color-interpolation-filters="sRGB">
<feFlood flood-opacity="0" result="BackgroundImageFix"/>
<feColorMatrix in="SourceAlpha" type="matrix" values="0 0 0 0 0 0 0 0 0 0 0 0 0 0 0 0 0 0 127 0" result="hardAlpha"/>
<feOffset dy="4"/>
<feGaussianBlur stdDeviation="2"/>
<feColorMatrix type="matrix" values="0 0 0 0 1 0 0 0 0 0.554167 0 0 0 0 0.661167 0 0 0 0.1 0"/>
<feBlend mode="normal" in2="BackgroundImageFix" result="effect1_dropShadow"/>
<feBlend mode="normal" in="SourceGraphic" in2="effect1_dropShadow" result="shape"/>
</filter>
<filter id="filter15_d" x="596.747" y="334.855" width="56.6293" height="138.397" filterUnits="userSpaceOnUse" color-interpolation-filters="sRGB">
<feFlood flood-opacity="0" result="BackgroundImageFix"/>
<feColorMatrix in="SourceAlpha" type="matrix" values="0 0 0 0 0 0 0 0 0 0 0 0 0 0 0 0 0 0 127 0" result="hardAlpha"/>
<feOffset dy="4"/>
<feGaussianBlur stdDeviation="2"/>
<feColorMatrix type="matrix" values="0 0 0 0 1 0 0 0 0 0.554167 0 0 0 0 0.661167 0 0 0 0.1 0"/>
<feBlend mode="normal" in2="BackgroundImageFix" result="effect1_dropShadow"/>
<feBlend mode="normal" in="SourceGraphic" in2="effect1_dropShadow" result="shape"/>
</filter>
<filter id="filter16_d" x="645.376" y="334.855" width="56.6293" height="138.397" filterUnits="userSpaceOnUse" color-interpolation-filters="sRGB">
<feFlood flood-opacity="0" result="BackgroundImageFix"/>
<feColorMatrix in="SourceAlpha" type="matrix" values="0 0 0 0 0 0 0 0 0 0 0 0 0 0 0 0 0 0 127 0" result="hardAlpha"/>
<feOffset dy="4"/>
<feGaussianBlur stdDeviation="2"/>
<feColorMatrix type="matrix" values="0 0 0 0 1 0 0 0 0 0.554167 0 0 0 0 0.661167 0 0 0 0.1 0"/>
<feBlend mode="normal" in2="BackgroundImageFix" result="effect1_dropShadow"/>
<feBlend mode="normal" in="SourceGraphic" in2="effect1_dropShadow" result="shape"/>
</filter>
<filter id="filter17_d" x="935.317" y="334.855" width="53.1444" height="138.397" filterUnits="userSpaceOnUse" color-interpolation-filters="sRGB">
<feFlood flood-opacity="0" result="BackgroundImageFix"/>
<feColorMatrix in="SourceAlpha" type="matrix" values="0 0 0 0 0 0 0 0 0 0 0 0 0 0 0 0 0 0 127 0" result="hardAlpha"/>
<feOffset dy="4"/>
<feGaussianBlur stdDeviation="2"/>
<feColorMatrix type="matrix" values="0 0 0 0 1 0 0 0 0 0.554167 0 0 0 0 0.661167 0 0 0 0.1 0"/>
<feBlend mode="normal" in2="BackgroundImageFix" result="effect1_dropShadow"/>
<feBlend mode="normal" in="SourceGraphic" in2="effect1_dropShadow" result="shape"/>
</filter>
<filter id="filter18_d" x="257.259" y="334.855" width="56.6293" height="138.397" filterUnits="userSpaceOnUse" color-interpolation-filters="sRGB">
<feFlood flood-opacity="0" result="BackgroundImageFix"/>
<feColorMatrix in="SourceAlpha" type="matrix" values="0 0 0 0 0 0 0 0 0 0 0 0 0 0 0 0 0 0 127 0" result="hardAlpha"/>
<feOffset dy="4"/>
<feGaussianBlur stdDeviation="2"/>
<feColorMatrix type="matrix" values="0 0 0 0 1 0 0 0 0 0.554167 0 0 0 0 0.661167 0 0 0 0.1 0"/>
<feBlend mode="normal" in2="BackgroundImageFix" result="effect1_dropShadow"/>
<feBlend mode="normal" in="SourceGraphic" in2="effect1_dropShadow" result="shape"/>
</filter>
<filter id="filter19_d" x="305.888" y="334.855" width="56.6293" height="138.397" filterUnits="userSpaceOnUse" color-interpolation-filters="sRGB">
<feFlood flood-opacity="0" result="BackgroundImageFix"/>
<feColorMatrix in="SourceAlpha" type="matrix" values="0 0 0 0 0 0 0 0 0 0 0 0 0 0 0 0 0 0 127 0" result="hardAlpha"/>
<feOffset dy="4"/>
<feGaussianBlur stdDeviation="2"/>
<feColorMatrix type="matrix" values="0 0 0 0 1 0 0 0 0 0.554167 0 0 0 0 0.661167 0 0 0 0.1 0"/>
<feBlend mode="normal" in2="BackgroundImageFix" result="effect1_dropShadow"/>
<feBlend mode="normal" in="SourceGraphic" in2="effect1_dropShadow" result="shape"/>
</filter>
<filter id="filter20_d" x="354.518" y="334.855" width="55.7118" height="138.397" filterUnits="userSpaceOnUse" color-interpolation-filters="sRGB">
<feFlood flood-opacity="0" result="BackgroundImageFix"/>
<feColorMatrix in="SourceAlpha" type="matrix" values="0 0 0 0 0 0 0 0 0 0 0 0 0 0 0 0 0 0 127 0" result="hardAlpha"/>
<feOffset dy="4"/>
<feGaussianBlur stdDeviation="2"/>
<feColorMatrix type="matrix" values="0 0 0 0 1 0 0 0 0 0.554167 0 0 0 0 0.661167 0 0 0 0.1 0"/>
<feBlend mode="normal" in2="BackgroundImageFix" result="effect1_dropShadow"/>
<feBlend mode="normal" in="SourceGraphic" in2="effect1_dropShadow" result="shape"/>
</filter>
<filter id="filter21_d" x="163.485" y="334.855" width="53.1444" height="138.397" filterUnits="userSpaceOnUse" color-interpolation-filters="sRGB">
<feFlood flood-opacity="0" result="BackgroundImageFix"/>
<feColorMatrix in="SourceAlpha" type="matrix" values="0 0 0 0 0 0 0 0 0 0 0 0 0 0 0 0 0 0 127 0" result="hardAlpha"/>
<feOffset dy="4"/>
<feGaussianBlur stdDeviation="2"/>
<feColorMatrix type="matrix" values="0 0 0 0 1 0 0 0 0 0.554167 0 0 0 0 0.661167 0 0 0 0.1 0"/>
<feBlend mode="normal" in2="BackgroundImageFix" result="effect1_dropShadow"/>
<feBlend mode="normal" in="SourceGraphic" in2="effect1_dropShadow" result="shape"/>
</filter>
<filter id="filter22_d" x="208.629" y="334.855" width="56.6293" height="138.397" filterUnits="userSpaceOnUse" color-interpolation-filters="sRGB">
<feFlood flood-opacity="0" result="BackgroundImageFix"/>
<feColorMatrix in="SourceAlpha" type="matrix" values="0 0 0 0 0 0 0 0 0 0 0 0 0 0 0 0 0 0 127 0" result="hardAlpha"/>
<feOffset dy="4"/>
<feGaussianBlur stdDeviation="2"/>
<feColorMatrix type="matrix" values="0 0 0 0 1 0 0 0 0 0.554167 0 0 0 0 0.661167 0 0 0 0.1 0"/>
<feBlend mode="normal" in2="BackgroundImageFix" result="effect1_dropShadow"/>
<feBlend mode="normal" in="SourceGraphic" in2="effect1_dropShadow" result="shape"/>
</filter>
<filter id="filter23_d" x="168.717" y="334.855" width="47.9128" height="86.7595" filterUnits="userSpaceOnUse" color-interpolation-filters="sRGB">
<feFlood flood-opacity="0" result="BackgroundImageFix"/>
<feColorMatrix in="SourceAlpha" type="matrix" values="0 0 0 0 0 0 0 0 0 0 0 0 0 0 0 0 0 0 127 0" result="hardAlpha"/>
<feOffset dy="4"/>
<feGaussianBlur stdDeviation="2"/>
<feColorMatrix type="matrix" values="0 0 0 0 1 0 0 0 0 0.554167 0 0 0 0 0.661167 0 0 0 0.1 0"/>
<feBlend mode="normal" in2="BackgroundImageFix" result="effect1_dropShadow"/>
<feBlend mode="normal" in="SourceGraphic" in2="effect1_dropShadow" result="shape"/>
</filter>
<filter id="filter24_d" x="935.317" y="333.812" width="47.9128" height="86.7595" filterUnits="userSpaceOnUse" color-interpolation-filters="sRGB">
<feFlood flood-opacity="0" result="BackgroundImageFix"/>
<feColorMatrix in="SourceAlpha" type="matrix" values="0 0 0 0 0 0 0 0 0 0 0 0 0 0 0 0 0 0 127 0" result="hardAlpha"/>
<feOffset dy="4"/>
<feGaussianBlur stdDeviation="2"/>
<feColorMatrix type="matrix" values="0 0 0 0 1 0 0 0 0 0.554167 0 0 0 0 0.661167 0 0 0 0.1 0"/>
<feBlend mode="normal" in2="BackgroundImageFix" result="effect1_dropShadow"/>
<feBlend mode="normal" in="SourceGraphic" in2="effect1_dropShadow" result="shape"/>
</filter>
<linearGradient id="paint0_linear" x1="534.5" y1="0" x2="534.5" y2="1043" gradientUnits="userSpaceOnUse">
<stop stop-color="white"/>
<stop offset="1" stop-color="white" stop-opacity="0"/>
</linearGradient>
</defs>
</svg>
