<svg width="512" height="503" viewBox="0 0 512 503" fill="none" xmlns="http://www.w3.org/2000/svg">
<path d="M397.043 445.021H112.717C86.7933 445.021 65.7773 424.005 65.7773 398.081V258.6H443.983V398.08C443.983 424.005 422.967 445.021 397.043 445.021V445.021Z" fill="#A183E2"/>
<path d="M372.421 502.499V470.722C372.421 405.806 319.796 353.181 254.881 353.181C189.965 353.181 137.34 405.806 137.34 470.722V502.499H372.421Z" fill="#FEF2A8"/>
<path d="M303.644 458.612C294.496 450.227 300.595 408.708 300.595 408.708C292.883 403.17 284.127 398.994 274.677 396.537V437.46C262.249 447.191 250.263 448.057 238.849 437.46V395.668C228.568 397.806 219.021 401.945 210.644 407.675C210.644 407.675 215.218 448.701 208.357 457.849C201.496 466.997 177.18 461.66 177.18 461.66C176.692 465.197 176.42 468.802 176.42 472.473V502.498H333.34V472.473C333.34 468.538 333.034 464.677 332.475 460.898C332.475 460.899 312.792 466.998 303.644 458.612V458.612Z" fill="#8BB6EF"/>
<path d="M263.113 394.748C285.807 404.955 301.771 429.18 301.771 457.451V464.253C301.771 474.841 293.187 483.425 282.599 483.425H176.42V502.801H333.341V472.777C333.341 432.225 302.576 398.864 263.113 394.748V394.748Z" fill="#EEB6A8"/>
<path d="M332.436 460.911C331.624 461.158 312.596 466.818 303.644 458.612C302.919 457.947 302.29 457.073 301.746 456.029C301.755 456.503 301.771 456.974 301.771 457.45V464.252C301.771 474.84 293.188 483.424 282.599 483.424H176.42V502.498H333.341V472.77C333.34 468.738 333.023 464.78 332.436 460.911V460.911Z" fill="#8388EF"/>
<path d="M300.554 408.996C292.852 403.471 284.111 399.308 274.677 396.854V401.586C285.782 409.895 294.285 421.983 298.607 436.136C298.541 423.858 300.265 411.05 300.554 408.996V408.996Z" fill="#8388EF"/>
<path d="M176.42 478.127C173.107 478.127 170.42 475.441 170.42 472.127C170.42 425.556 208.309 387.667 254.88 387.667C258.193 387.667 260.88 390.353 260.88 393.667C260.88 396.98 258.193 399.667 254.88 399.667C214.925 399.667 182.42 432.173 182.42 472.127C182.42 475.441 179.733 478.127 176.42 478.127V478.127Z" fill="#D08372"/>
<path d="M458.996 326.821C470.304 308.526 464.64 284.529 446.346 273.221C428.051 261.913 404.054 267.577 392.746 285.871C381.438 304.166 387.102 328.163 405.397 339.471C423.691 350.779 447.689 345.115 458.996 326.821Z" fill="#D49C8D"/>
<path d="M117.367 326.94C128.674 308.646 123.01 284.648 104.716 273.341C86.4214 262.033 62.4239 267.697 51.1161 285.991C39.8084 304.286 45.4723 328.283 63.7668 339.591C82.0613 350.899 106.059 345.235 117.367 326.94Z" fill="#D49C8D"/>
<path d="M288.05 402.608H221.71C139.275 402.608 72.4473 335.781 72.4473 253.346C72.4473 170.911 139.274 104.083 221.71 104.083H288.049C370.484 104.083 437.311 170.91 437.311 253.346C437.312 335.78 370.485 402.608 288.05 402.608V402.608Z" fill="#D49C8D"/>
<path d="M288.05 104.732H268.909C335.74 104.732 389.918 158.909 389.918 225.741V236.018C389.918 302.849 335.74 357.027 268.909 357.027H193.457C129.501 357.027 77.1412 307.41 72.7532 244.57C72.5592 247.688 72.4482 250.828 72.4482 253.995C72.4482 336.43 139.275 403.257 221.711 403.257H288.05C370.486 403.257 437.313 336.43 437.313 253.995C437.312 171.559 370.485 104.732 288.05 104.732V104.732Z" fill="#C7758D"/>
<path d="M167.885 331.708C177.023 330.586 183.521 322.267 182.399 313.129C181.276 303.991 172.958 297.493 163.819 298.616C154.681 299.738 148.183 308.057 149.306 317.195C150.429 326.333 158.747 332.831 167.885 331.708Z" fill="#B3586B"/>
<path d="M360.15 318.972C362.267 310.018 356.724 301.043 347.77 298.926C338.815 296.81 329.841 302.353 327.724 311.307C325.607 320.261 331.15 329.236 340.105 331.353C349.059 333.469 358.034 327.926 360.15 318.972Z" fill="#B3586B"/>
<path d="M179.324 271.657C178.406 271.657 177.475 271.446 176.601 271C176.578 270.989 171.655 268.571 165.829 268.571C160.004 268.571 155.081 270.989 155.032 271.013C152.076 272.482 148.473 271.297 146.987 268.35C145.5 265.402 146.662 261.813 149.603 260.312C150.353 259.929 157.182 256.571 165.83 256.571C174.478 256.571 181.307 259.929 182.057 260.312C185.009 261.818 186.18 265.432 184.674 268.383C183.612 270.462 181.507 271.657 179.324 271.657V271.657Z" fill="#440A29"/>
<path d="M357.425 271.657C356.507 271.657 355.575 271.446 354.702 271C354.679 270.989 349.756 268.571 343.93 268.571C338.104 268.571 333.182 270.989 333.133 271.013C330.179 272.483 326.573 271.299 325.087 268.35C323.601 265.402 324.762 261.813 327.702 260.312C328.452 259.929 335.28 256.571 343.93 256.571C352.578 256.571 359.407 259.929 360.157 260.312C363.109 261.818 364.28 265.432 362.773 268.383C361.713 270.462 359.608 271.657 357.425 271.657V271.657Z" fill="#440A29"/>
<path d="M254.88 337.639C242.383 337.639 232.217 327.472 232.217 314.976C232.217 311.662 234.904 308.976 238.217 308.976C241.531 308.976 244.217 311.662 244.217 314.976C244.217 320.856 249 325.639 254.88 325.639C260.76 325.639 265.543 320.856 265.543 314.976C265.543 311.662 268.229 308.976 271.543 308.976C274.856 308.976 277.543 311.662 277.543 314.976C277.543 327.472 267.376 337.639 254.88 337.639Z" fill="#B3586B"/>
<path d="M424.281 313.017C442.105 301.983 457.383 285.008 459.327 255.956V238.443C459.327 141.454 380.702 62.828 283.712 62.828H226.049C129.06 62.828 50.4341 141.454 50.4341 238.443V255.956C51.6721 286.706 70.0621 303.115 83.0761 313.866C122.935 254.708 163.239 199.288 206.977 172.766C274.555 226.248 347.647 272.087 424.281 313.017V313.017Z" fill="#A183E2"/>
<path d="M161.407 135.004C158.175 135.004 155.003 133.44 153.076 130.548C150.014 125.952 151.257 119.743 155.853 116.681C157.866 115.34 162.599 112.427 166.105 111.002C171.221 108.922 177.054 111.386 179.134 116.502C181.213 121.618 178.751 127.452 173.635 129.531C172.195 130.116 168.856 132.051 166.944 133.325C165.238 134.46 163.312 135.004 161.407 135.004V135.004Z" fill="white"/>
<path d="M116.428 177.169C114.597 177.169 112.745 176.667 111.084 175.614C106.419 172.658 105.034 166.48 107.99 161.815C116.641 148.163 126.672 138.47 133.562 132.745C137.81 129.214 144.114 129.796 147.645 134.044C151.175 138.292 150.593 144.597 146.346 148.126C140.561 152.934 132.141 161.068 124.884 172.521C122.98 175.525 119.739 177.169 116.428 177.169Z" fill="white"/>
<path d="M367.424 234.589C364.111 234.589 361.424 231.902 361.424 228.589V216.313C361.424 213 364.111 210.313 367.424 210.313C370.738 210.313 373.424 213 373.424 216.313V228.589C373.424 231.902 370.738 234.589 367.424 234.589Z" fill="#7844C1"/>
<path d="M400.168 198.98C396.854 198.98 394.168 196.294 394.168 192.98V180.704C394.168 177.391 396.854 174.704 400.168 174.704C403.481 174.704 406.168 177.391 406.168 180.704V192.98C406.168 196.293 403.482 198.98 400.168 198.98Z" fill="#7844C1"/>
<path d="M412.8 249.564C409.486 249.564 406.8 246.878 406.8 243.564V231.288C406.8 227.975 409.486 225.288 412.8 225.288C416.114 225.288 418.8 227.975 418.8 231.288V243.564C418.8 246.877 416.114 249.564 412.8 249.564Z" fill="#7844C1"/>
<path d="M290.67 297.076C288.166 297.076 285.63 296.565 283.287 295.486C262.416 285.884 243.587 285.837 224.031 295.339C216.784 298.859 207.458 296.856 203.2 290.861C198.943 284.866 201.367 277.151 208.614 273.629C237.59 259.548 267.691 259.499 298.082 273.482C305.428 276.861 308.07 284.527 303.984 290.603C301.201 294.742 296.016 297.076 290.67 297.076Z" fill="#FFE266"/>
<path d="M158.208 251.866C123.354 251.866 95.0991 280.121 95.0991 314.975C95.0991 349.829 123.354 378.084 158.208 378.084C193.062 378.084 221.317 349.829 221.317 314.975C221.317 280.121 193.062 251.866 158.208 251.866ZM158.208 355.271C135.953 355.271 117.912 337.23 117.912 314.975C117.912 292.72 135.953 274.679 158.208 274.679C180.463 274.679 198.504 292.72 198.504 314.975C198.504 337.23 180.463 355.271 158.208 355.271Z" fill="#FFE266"/>
<path d="M348.798 251.866C313.944 251.866 285.689 280.121 285.689 314.975C285.689 349.829 313.944 378.084 348.798 378.084C383.652 378.084 411.907 349.829 411.907 314.975C411.907 280.121 383.652 251.866 348.798 251.866ZM348.798 355.271C326.543 355.271 308.502 337.23 308.502 314.975C308.502 292.72 326.543 274.679 348.798 274.679C371.053 274.679 389.094 292.72 389.094 314.975C389.094 337.23 371.053 355.271 348.798 355.271Z" fill="#FFE266"/>
<path d="M158.225 251.866C158.22 251.866 158.214 251.866 158.208 251.866C156.07 251.866 153.958 251.975 151.874 252.183C177.457 254.993 197.363 276.667 197.363 302.998C197.363 303.743 197.339 304.482 197.307 305.218C198.084 308.343 198.503 311.609 198.503 314.975C198.503 337.23 180.462 355.271 158.207 355.271C154.841 355.271 151.575 354.852 148.45 354.075C147.713 354.107 146.975 354.131 146.231 354.131C119.899 354.131 98.2251 334.225 95.4151 308.642C95.3111 309.683 95.2321 310.731 95.1791 311.786C95.1261 312.842 95.0981 313.905 95.0981 314.975C95.0981 349.829 123.353 378.084 158.207 378.084C193.061 378.084 221.316 349.829 221.316 314.975C221.317 280.127 193.071 251.875 158.225 251.866V251.866Z" fill="#EFAA66"/>
<path d="M348.838 251.867C348.825 251.867 348.811 251.866 348.798 251.866C346.66 251.866 344.548 251.975 342.464 252.183C368.047 254.993 387.953 276.667 387.953 302.998C387.953 303.743 387.928 304.482 387.897 305.218C388.674 308.343 389.093 311.609 389.093 314.974C389.093 337.229 371.052 355.27 348.797 355.27C345.432 355.27 342.165 354.851 339.041 354.074C338.304 354.105 337.565 354.13 336.821 354.13C310.49 354.13 288.815 334.224 286.005 308.641C285.797 310.724 285.688 312.836 285.688 314.974V314.993C285.699 349.838 313.949 378.083 348.797 378.083C383.651 378.083 411.906 349.828 411.906 314.974C411.907 280.135 383.674 251.889 348.838 251.867V251.867Z" fill="#EFAA66"/>
<path d="M58.671 5.7671L67.289 29.9991C67.658 31.0371 68.389 31.8591 69.31 32.2741L90.839 41.9741C93.881 43.3441 93.881 48.1911 90.839 49.5611L69.31 59.2611C68.388 59.6761 67.658 60.4981 67.289 61.5361L58.671 85.7681C57.454 89.1921 53.148 89.1921 51.93 85.7681L43.312 61.5361C42.943 60.4991 42.213 59.6761 41.291 59.2611L19.762 49.5611C16.72 48.1911 16.72 43.3441 19.762 41.9741L41.291 32.2741C42.213 31.8591 42.943 31.0371 43.312 29.9991L51.93 5.7671C53.148 2.3431 57.454 2.3431 58.671 5.7671V5.7671Z" fill="#CAB4EF"/>
<path d="M405.617 25.0572C407.279 14.7994 400.312 5.13579 390.054 3.47293C379.796 1.81006 370.133 8.77762 368.47 19.0354C366.807 29.2932 373.775 38.9568 384.032 40.6196C394.29 42.2825 403.954 35.315 405.617 25.0572Z" fill="#A183E2"/>
<path d="M7.969 146.487C12.3702 146.487 15.938 142.919 15.938 138.518C15.938 134.117 12.3702 130.549 7.969 130.549C3.56784 130.549 0 134.117 0 138.518C0 142.919 3.56784 146.487 7.969 146.487Z" fill="#A183E2"/>
<path d="M486.446 62.879L492.839 80.854C493.113 81.624 493.654 82.233 494.338 82.542L510.308 89.737C512.564 90.754 512.564 94.348 510.308 95.365L494.338 102.56C493.654 102.868 493.112 103.478 492.839 104.248L486.446 122.223C485.543 124.762 482.349 124.762 481.446 122.223L475.053 104.248C474.779 103.478 474.238 102.869 473.554 102.56L457.584 95.365C455.328 94.348 455.328 90.754 457.584 89.737L473.554 82.542C474.238 82.234 474.78 81.624 475.053 80.854L481.446 62.879C482.349 60.34 485.543 60.34 486.446 62.879V62.879Z" fill="#CAB4EF"/>
</svg>
