<svg width="1066" height="532" viewBox="0 0 1066 532" fill="none" xmlns="http://www.w3.org/2000/svg">
<path d="M3 373H285V388H3V373Z" fill="#C4C4C4"/>
<path d="M180 51H462V66H180V51Z" fill="#C4C4C4"/>
<path d="M180 51H804V66H180V51Z" fill="#C4C4C4"/>
<path d="M56 140H71V383H56V140Z" fill="#C4C4C4"/>
<path d="M1006 173H1021V356H1006V173Z" fill="#C4C4C4"/>
<path d="M883 35H898V194H883V35Z" fill="#C4C4C4"/>
<path fill-rule="evenodd" clip-rule="evenodd" d="M257 249H0V0H185H257H318V101H257V249Z" fill="#A183E2"/>
<rect x="447" width="72" height="379" fill="#CC9C9C"/>
<rect x="355" width="72" height="379" fill="#CC9C9C"/>
<rect x="539" width="164" height="176" fill="#FED2A4"/>
<rect x="541" y="203" width="164" height="179" fill="#FED2A4"/>
<rect x="739" width="327" height="100" fill="#6280CC"/>
<rect x="739" y="125" width="327" height="100" fill="#EF8BBD"/>
<rect x="739" y="332" width="327" height="50" fill="#FFE266"/>
<rect x="739" y="407" width="327" height="50" fill="#FFE266"/>
<rect x="739" y="482" width="327" height="50" fill="#FFE266"/>
<rect y="277" width="136" height="204" fill="#7AD0DF"/>
<rect x="160" y="278" width="136" height="204" fill="#D3E080"/>
<path d="M676.072 31.184C676.072 31.6 675.928 31.944 675.64 32.216C675.368 32.488 675.024 32.624 674.608 32.624H669.52C668.96 32.624 668.528 32.376 668.224 31.88C667.248 30.312 666.76 28.592 666.76 26.72C666.76 25.136 667.144 23.672 667.912 22.328C668.696 20.984 669.744 19.92 671.056 19.136C672.384 18.352 673.832 17.96 675.4 17.96C676.968 17.96 678.408 18.352 679.72 19.136C681.048 19.92 682.096 20.984 682.864 22.328C683.648 23.672 684.04 25.136 684.04 26.72C684.04 28.304 683.72 29.68 683.08 30.848C682.952 31.088 682.784 31.264 682.576 31.376C682.368 31.504 682.144 31.568 681.904 31.568C681.504 31.568 681.152 31.432 680.848 31.16C680.56 30.904 680.416 30.584 680.416 30.2C680.416 29.96 680.48 29.696 680.608 29.408C680.976 28.544 681.16 27.648 681.16 26.72C681.16 25.696 680.896 24.752 680.368 23.888C679.856 23.024 679.16 22.336 678.28 21.824C677.4 21.328 676.44 21.08 675.4 21.08C674.36 21.08 673.4 21.328 672.52 21.824C671.64 22.336 670.936 23.024 670.408 23.888C669.896 24.752 669.64 25.696 669.64 26.72C669.64 27.168 669.68 27.648 669.76 28.16C669.84 28.672 669.944 29.12 670.072 29.504H673.192V27.248C673.192 26.832 673.328 26.48 673.6 26.192C673.872 25.92 674.216 25.784 674.632 25.784C675.048 25.784 675.392 25.92 675.664 26.192C675.936 26.48 676.072 26.832 676.072 27.248V31.184ZM669.76 45.0149C669.76 45.4309 669.616 45.7749 669.328 46.0469C669.056 46.3349 668.736 46.4789 668.368 46.4789C667.968 46.4789 667.64 46.3349 667.384 46.0469C667.128 45.7749 667 45.4309 667 45.0149V36.9749C667 36.5589 667.136 36.2069 667.408 35.9189C667.696 35.6469 668.048 35.5109 668.464 35.5109H682.336C682.752 35.5109 683.096 35.6469 683.368 35.9189C683.656 36.2069 683.8 36.5589 683.8 36.9749V45.0149C683.8 45.4309 683.664 45.7749 683.392 46.0469C683.136 46.3349 682.8 46.4789 682.384 46.4789C681.984 46.4789 681.656 46.3429 681.4 46.0709C681.16 45.7989 681.04 45.4469 681.04 45.0149V38.5109H676.96V43.9349C676.96 44.3509 676.824 44.6949 676.552 44.9669C676.296 45.2549 675.96 45.3989 675.544 45.3989C675.144 45.3989 674.816 45.2629 674.56 44.9909C674.32 44.7189 674.2 44.3669 674.2 43.9349V38.5109H669.76V45.0149ZM683.8 61.9893C683.8 62.3733 683.672 62.6853 683.416 62.9253C683.16 63.1653 682.84 63.2853 682.456 63.2853H668.464C668.048 63.2853 667.696 63.1413 667.408 62.8533C667.136 62.5813 667 62.2373 667 61.8213C667 61.5973 667.032 61.3733 667.096 61.1493C667.176 60.9413 667.28 60.7893 667.408 60.6933L678.592 51.8853H668.344C667.96 51.8853 667.64 51.7573 667.384 51.5013C667.128 51.2613 667 50.9413 667 50.5413C667 50.1573 667.128 49.8453 667.384 49.6053C667.64 49.3653 667.96 49.2453 668.344 49.2453H682.336C682.752 49.2453 683.096 49.3813 683.368 49.6533C683.656 49.9413 683.8 50.2933 683.8 50.7093C683.8 50.9493 683.752 51.1813 683.656 51.4053C683.56 51.6453 683.432 51.8213 683.272 51.9333L672.136 60.6693H682.456C682.84 60.6693 683.16 60.7893 683.416 61.0293C683.672 61.2853 683.8 61.6053 683.8 61.9893ZM669.76 76.3978C669.76 76.8138 669.616 77.1578 669.328 77.4297C669.056 77.7178 668.736 77.8618 668.368 77.8618C667.968 77.8618 667.64 77.7178 667.384 77.4297C667.128 77.1578 667 76.8138 667 76.3978V68.3578C667 67.9418 667.136 67.5898 667.408 67.3018C667.696 67.0298 668.048 66.8938 668.464 66.8938H682.336C682.752 66.8938 683.096 67.0298 683.368 67.3018C683.656 67.5898 683.8 67.9418 683.8 68.3578V76.3978C683.8 76.8138 683.664 77.1578 683.392 77.4297C683.136 77.7178 682.8 77.8618 682.384 77.8618C681.984 77.8618 681.656 77.7258 681.4 77.4538C681.16 77.1818 681.04 76.8298 681.04 76.3978V69.8938H676.96V75.3178C676.96 75.7338 676.824 76.0778 676.552 76.3498C676.296 76.6378 675.96 76.7818 675.544 76.7818C675.144 76.7818 674.816 76.6458 674.56 76.3738C674.32 76.1018 674.2 75.7498 674.2 75.3178V69.8938H669.76V76.3978ZM669.352 93.8041C669.224 94.0121 669.056 94.1721 668.848 94.2841C668.64 94.4121 668.424 94.4761 668.2 94.4761C667.912 94.4761 667.648 94.3801 667.408 94.1881C667.12 93.9481 666.976 93.5801 666.976 93.0841C666.976 92.7001 667.064 92.3481 667.24 92.0281C667.896 90.8761 669.232 90.3001 671.248 90.3001C671.824 90.3001 672.28 90.1081 672.616 89.7241C672.952 89.3561 673.12 88.8201 673.12 88.1161V83.6281H668.464C668.032 83.6281 667.68 83.5081 667.408 83.2681C667.136 83.0441 667 82.7401 667 82.3561C667 81.8921 667.136 81.4841 667.408 81.1321C667.696 80.7961 668.048 80.6281 668.464 80.6281H682.336C682.752 80.6281 683.096 80.7641 683.368 81.0361C683.656 81.3241 683.8 81.6761 683.8 82.0921V89.0041C683.8 89.8361 683.576 90.6201 683.128 91.3561C682.68 92.0921 682.064 92.6761 681.28 93.1081C680.496 93.5561 679.616 93.7801 678.64 93.7801C677.84 93.7801 677.056 93.5641 676.288 93.1321C675.536 92.7001 674.936 92.1401 674.488 91.4521C673.784 92.4601 672.84 93.0121 671.656 93.1081C671.4 93.1561 671.152 93.1801 670.912 93.1801C670.416 93.2441 670.056 93.3081 669.832 93.3721C669.624 93.4361 669.464 93.5801 669.352 93.8041ZM675.592 88.8841C675.592 89.1721 675.728 89.4521 676 89.7241C676.272 89.9961 676.632 90.2201 677.08 90.3961C677.544 90.5721 678.04 90.6601 678.568 90.6601C679.016 90.6601 679.424 90.5721 679.792 90.3961C680.176 90.2201 680.48 89.9961 680.704 89.7241C680.928 89.4521 681.04 89.1721 681.04 88.8841V83.6281H675.592V88.8841ZM668.872 110.281C668.664 110.361 668.472 110.401 668.296 110.401C667.88 110.401 667.536 110.265 667.264 109.993C667.008 109.721 666.88 109.409 666.88 109.057C666.88 108.769 666.968 108.505 667.144 108.265C667.32 108.041 667.56 107.865 667.864 107.737L670.768 106.489V99.3367L667.84 98.0887C667.536 97.9767 667.296 97.8007 667.12 97.5607C666.96 97.3367 666.88 97.0887 666.88 96.8167C666.88 96.4007 666.992 96.0807 667.216 95.8567C667.44 95.6487 667.744 95.5447 668.128 95.5447C668.272 95.5447 668.424 95.5687 668.584 95.6167L682.936 101.593C683.256 101.721 683.504 101.913 683.68 102.169C683.856 102.425 683.928 102.713 683.896 103.033C683.896 103.321 683.808 103.585 683.632 103.825C683.472 104.081 683.24 104.265 682.936 104.377L668.872 110.281ZM673.528 105.313L679.144 102.889L673.528 100.513V105.313ZM669.808 121.697C669.808 122.113 669.672 122.457 669.4 122.729C669.144 123.017 668.808 123.161 668.392 123.161C667.992 123.161 667.656 123.017 667.384 122.729C667.128 122.457 667 122.113 667 121.697V113.897C667 113.481 667.136 113.129 667.408 112.841C667.696 112.569 668.048 112.433 668.464 112.433H682.336C682.752 112.433 683.096 112.577 683.368 112.865C683.656 113.153 683.8 113.521 683.8 113.969C683.8 114.369 683.656 114.713 683.368 115.001C683.096 115.289 682.752 115.433 682.336 115.433H669.808V121.697Z" fill="#CC9C9C"/>
<path d="M194.064 435.152C194.464 435.152 194.808 435.288 195.096 435.56C195.4 435.832 195.552 436.16 195.552 436.544C195.552 436.752 195.504 436.968 195.408 437.192L189.48 451.064C189.336 451.368 189.136 451.6 188.88 451.76C188.624 451.92 188.352 452 188.064 452C187.792 451.984 187.536 451.904 187.296 451.76C187.072 451.6 186.896 451.376 186.768 451.088L180.84 437.168C180.76 437.008 180.72 436.808 180.72 436.568C180.72 436.136 180.88 435.792 181.2 435.536C181.52 435.264 181.848 435.128 182.184 435.128C182.456 435.128 182.712 435.208 182.952 435.368C183.192 435.528 183.376 435.76 183.504 436.064L188.328 447.416L192.744 436.064C192.872 435.776 193.056 435.552 193.296 435.392C193.536 435.232 193.792 435.152 194.064 435.152ZM207.57 449.24C207.986 449.24 208.33 449.384 208.602 449.672C208.89 449.944 209.034 450.264 209.034 450.632C209.034 451.032 208.89 451.36 208.602 451.616C208.33 451.872 207.986 452 207.57 452H199.53C199.114 452 198.762 451.864 198.474 451.592C198.202 451.304 198.066 450.952 198.066 450.536V436.664C198.066 436.248 198.202 435.904 198.474 435.632C198.762 435.344 199.114 435.2 199.53 435.2H207.57C207.986 435.2 208.33 435.336 208.602 435.608C208.89 435.864 209.034 436.2 209.034 436.616C209.034 437.016 208.898 437.344 208.626 437.6C208.354 437.84 208.002 437.96 207.57 437.96H201.066V442.04H206.49C206.906 442.04 207.25 442.176 207.522 442.448C207.81 442.704 207.954 443.04 207.954 443.456C207.954 443.856 207.818 444.184 207.546 444.44C207.274 444.68 206.922 444.8 206.49 444.8H201.066V449.24H207.57ZM224.184 442.928C224.6 442.928 224.944 443.072 225.216 443.36C225.488 443.632 225.624 443.976 225.624 444.392V449.48C225.624 450.04 225.376 450.472 224.88 450.776C223.312 451.752 221.592 452.24 219.72 452.24C218.136 452.24 216.672 451.856 215.328 451.088C213.984 450.304 212.92 449.256 212.136 447.944C211.352 446.616 210.96 445.168 210.96 443.6C210.96 442.032 211.352 440.592 212.136 439.28C212.92 437.952 213.984 436.904 215.328 436.136C216.672 435.352 218.136 434.96 219.72 434.96C221.304 434.96 222.68 435.28 223.848 435.92C224.088 436.048 224.264 436.216 224.376 436.424C224.504 436.632 224.568 436.856 224.568 437.096C224.568 437.496 224.432 437.848 224.16 438.152C223.904 438.44 223.584 438.584 223.2 438.584C222.96 438.584 222.696 438.52 222.408 438.392C221.544 438.024 220.648 437.84 219.72 437.84C218.696 437.84 217.752 438.104 216.888 438.632C216.024 439.144 215.336 439.84 214.824 440.72C214.328 441.6 214.08 442.56 214.08 443.6C214.08 444.64 214.328 445.6 214.824 446.48C215.336 447.36 216.024 448.064 216.888 448.592C217.752 449.104 218.696 449.36 219.72 449.36C220.168 449.36 220.648 449.32 221.16 449.24C221.672 449.16 222.12 449.056 222.504 448.928V445.808H220.248C219.832 445.808 219.48 445.672 219.192 445.4C218.92 445.128 218.784 444.784 218.784 444.368C218.784 443.952 218.92 443.608 219.192 443.336C219.48 443.064 219.832 442.928 220.248 442.928H224.184ZM240.895 442.928C241.311 442.928 241.655 443.072 241.927 443.36C242.199 443.632 242.335 443.976 242.335 444.392V449.48C242.335 450.04 242.087 450.472 241.591 450.776C240.023 451.752 238.303 452.24 236.431 452.24C234.847 452.24 233.383 451.856 232.039 451.088C230.695 450.304 229.631 449.256 228.847 447.944C228.063 446.616 227.671 445.168 227.671 443.6C227.671 442.032 228.063 440.592 228.847 439.28C229.631 437.952 230.695 436.904 232.039 436.136C233.383 435.352 234.847 434.96 236.431 434.96C238.015 434.96 239.391 435.28 240.559 435.92C240.799 436.048 240.975 436.216 241.087 436.424C241.215 436.632 241.279 436.856 241.279 437.096C241.279 437.496 241.143 437.848 240.871 438.152C240.615 438.44 240.295 438.584 239.911 438.584C239.671 438.584 239.407 438.52 239.119 438.392C238.255 438.024 237.359 437.84 236.431 437.84C235.407 437.84 234.463 438.104 233.599 438.632C232.735 439.144 232.047 439.84 231.535 440.72C231.039 441.6 230.791 442.56 230.791 443.6C230.791 444.64 231.039 445.6 231.535 446.48C232.047 447.36 232.735 448.064 233.599 448.592C234.463 449.104 235.407 449.36 236.431 449.36C236.879 449.36 237.359 449.32 237.871 449.24C238.383 449.16 238.831 449.056 239.215 448.928V445.808H236.959C236.543 445.808 236.191 445.672 235.903 445.4C235.631 445.128 235.495 444.784 235.495 444.368C235.495 443.952 235.631 443.608 235.903 443.336C236.191 443.064 236.543 442.928 236.959 442.928H240.895ZM248.222 450.536C248.222 450.952 248.07 451.304 247.766 451.592C247.462 451.864 247.11 452 246.71 452C246.278 452 245.918 451.864 245.63 451.592C245.358 451.304 245.222 450.952 245.222 450.536V436.664C245.222 436.248 245.366 435.904 245.654 435.632C245.942 435.344 246.31 435.2 246.758 435.2C247.158 435.2 247.502 435.344 247.79 435.632C248.078 435.904 248.222 436.248 248.222 436.664V450.536ZM261.335 449.24C261.751 449.24 262.095 449.384 262.367 449.672C262.655 449.944 262.799 450.264 262.799 450.632C262.799 451.032 262.655 451.36 262.367 451.616C262.095 451.872 261.751 452 261.335 452H253.295C252.879 452 252.527 451.864 252.239 451.592C251.967 451.304 251.831 450.952 251.831 450.536V436.664C251.831 436.248 251.967 435.904 252.239 435.632C252.527 435.344 252.879 435.2 253.295 435.2H261.335C261.751 435.2 262.095 435.336 262.367 435.608C262.655 435.864 262.799 436.2 262.799 436.616C262.799 437.016 262.663 437.344 262.391 437.6C262.119 437.84 261.767 437.96 261.335 437.96H254.831V442.04H260.255C260.671 442.04 261.015 442.176 261.287 442.448C261.575 442.704 261.719 443.04 261.719 443.456C261.719 443.856 261.583 444.184 261.311 444.44C261.039 444.68 260.687 444.8 260.255 444.8H254.831V449.24H261.335ZM270.966 452.24C269.814 452.24 268.79 452.096 267.894 451.808C266.998 451.52 266.158 451.032 265.374 450.344C264.942 449.96 264.726 449.536 264.726 449.072C264.726 448.704 264.862 448.384 265.134 448.112C265.406 447.824 265.734 447.68 266.118 447.68C266.422 447.68 266.694 447.776 266.934 447.968C267.574 448.496 268.198 448.88 268.806 449.12C269.414 449.36 270.134 449.48 270.966 449.48C271.862 449.48 272.63 449.28 273.27 448.88C273.926 448.48 274.254 447.984 274.254 447.392C274.254 446.672 273.934 446.112 273.294 445.712C272.654 445.296 271.638 444.984 270.246 444.776C266.742 444.264 264.99 442.632 264.99 439.88C264.99 438.872 265.254 438 265.782 437.264C266.31 436.512 267.03 435.944 267.942 435.56C268.854 435.16 269.87 434.96 270.99 434.96C271.998 434.96 272.942 435.112 273.822 435.416C274.718 435.72 275.462 436.12 276.054 436.616C276.518 436.984 276.75 437.408 276.75 437.888C276.75 438.256 276.614 438.584 276.342 438.872C276.07 439.144 275.75 439.28 275.382 439.28C275.142 439.28 274.926 439.208 274.734 439.064C274.318 438.728 273.734 438.424 272.982 438.152C272.246 437.864 271.582 437.72 270.99 437.72C269.982 437.72 269.198 437.912 268.638 438.296C268.094 438.664 267.822 439.152 267.822 439.76C267.822 440.448 268.102 440.968 268.662 441.32C269.238 441.672 270.134 441.96 271.35 442.184C272.726 442.424 273.822 442.736 274.638 443.12C275.47 443.488 276.094 444 276.51 444.656C276.926 445.296 277.134 446.152 277.134 447.224C277.134 448.232 276.846 449.12 276.27 449.888C275.71 450.64 274.958 451.224 274.014 451.64C273.07 452.04 272.054 452.24 270.966 452.24Z" fill="#54AE46"/>
<path d="M28.8 439.96V444.184H33.984C34.4 444.184 34.744 444.32 35.016 444.592C35.304 444.848 35.448 445.184 35.448 445.6C35.448 445.952 35.304 446.264 35.016 446.536C34.744 446.808 34.4 446.944 33.984 446.944H28.8V452.536C28.8 452.952 28.648 453.304 28.344 453.592C28.056 453.864 27.712 454 27.312 454C26.864 454 26.496 453.864 26.208 453.592C25.936 453.32 25.8 452.968 25.8 452.536V438.664C25.8 438.248 25.936 437.904 26.208 437.632C26.496 437.344 26.848 437.2 27.264 437.2H35.064C35.48 437.2 35.824 437.336 36.096 437.608C36.384 437.864 36.528 438.2 36.528 438.616C36.528 438.968 36.384 439.28 36.096 439.552C35.824 439.824 35.48 439.96 35.064 439.96H28.8ZM52.4526 451.648C52.6606 451.776 52.8206 451.944 52.9326 452.152C53.0606 452.36 53.1246 452.576 53.1246 452.8C53.1246 453.088 53.0286 453.352 52.8366 453.592C52.5966 453.88 52.2286 454.024 51.7326 454.024C51.3486 454.024 50.9966 453.936 50.6766 453.76C49.5246 453.104 48.9486 451.768 48.9486 449.752C48.9486 449.176 48.7566 448.72 48.3726 448.384C48.0046 448.048 47.4686 447.88 46.7646 447.88H42.2766V452.536C42.2766 452.968 42.1566 453.32 41.9166 453.592C41.6926 453.864 41.3886 454 41.0046 454C40.5406 454 40.1326 453.864 39.7806 453.592C39.4446 453.304 39.2766 452.952 39.2766 452.536V438.664C39.2766 438.248 39.4126 437.904 39.6846 437.632C39.9726 437.344 40.3246 437.2 40.7406 437.2H47.6526C48.4846 437.2 49.2686 437.424 50.0046 437.872C50.7406 438.32 51.3246 438.936 51.7566 439.72C52.2046 440.504 52.4286 441.384 52.4286 442.36C52.4286 443.16 52.2126 443.944 51.7806 444.712C51.3486 445.464 50.7886 446.064 50.1006 446.512C51.1086 447.216 51.6606 448.16 51.7566 449.344C51.8046 449.6 51.8286 449.848 51.8286 450.088C51.8926 450.584 51.9566 450.944 52.0206 451.168C52.0846 451.376 52.2286 451.536 52.4526 451.648ZM47.5326 445.408C47.8206 445.408 48.1006 445.272 48.3726 445C48.6446 444.728 48.8686 444.368 49.0446 443.92C49.2206 443.456 49.3086 442.96 49.3086 442.432C49.3086 441.984 49.2206 441.576 49.0446 441.208C48.8686 440.824 48.6446 440.52 48.3726 440.296C48.1006 440.072 47.8206 439.96 47.5326 439.96H42.2766V445.408H47.5326ZM67.5639 437.176C67.9799 437.176 68.3159 437.312 68.5719 437.584C68.8279 437.856 68.9559 438.208 68.9559 438.64V447.328C68.9559 448.656 68.6759 449.832 68.1159 450.856C67.5559 451.88 66.7719 452.68 65.7639 453.256C64.7559 453.832 63.6039 454.12 62.3079 454.12C61.0119 454.12 59.8519 453.832 58.8279 453.256C57.8199 452.68 57.0359 451.88 56.4759 450.856C55.9159 449.832 55.6359 448.656 55.6359 447.328V438.64C55.6359 438.224 55.7799 437.88 56.0679 437.608C56.3559 437.32 56.7239 437.176 57.1719 437.176C57.5559 437.176 57.8919 437.32 58.1799 437.608C58.4679 437.88 58.6119 438.224 58.6119 438.64V447.328C58.6119 448.096 58.7799 448.784 59.1159 449.392C59.4519 449.984 59.8999 450.44 60.4599 450.76C61.0359 451.08 61.6519 451.24 62.3079 451.24C62.9959 451.24 63.6359 451.08 64.2279 450.76C64.8359 450.44 65.3159 449.984 65.6679 449.392C66.0359 448.784 66.2199 448.096 66.2199 447.328V438.64C66.2199 438.208 66.3399 437.856 66.5799 437.584C66.8199 437.312 67.1479 437.176 67.5639 437.176ZM75.5578 452.536C75.5578 452.952 75.4058 453.304 75.1018 453.592C74.7978 453.864 74.4458 454 74.0458 454C73.6138 454 73.2538 453.864 72.9658 453.592C72.6938 453.304 72.5578 452.952 72.5578 452.536V438.664C72.5578 438.248 72.7018 437.904 72.9898 437.632C73.2778 437.344 73.6458 437.2 74.0938 437.2C74.4938 437.2 74.8378 437.344 75.1258 437.632C75.4138 437.904 75.5578 438.248 75.5578 438.664V452.536ZM90.2072 437.2C90.6392 437.2 90.9912 437.328 91.2632 437.584C91.5352 437.84 91.6712 438.176 91.6712 438.592C91.6712 439.008 91.5352 439.344 91.2632 439.6C90.9912 439.84 90.6392 439.96 90.2072 439.96H86.4392V452.536C86.4392 452.952 86.2872 453.304 85.9832 453.592C85.6792 453.864 85.3032 454 84.8552 454C84.4072 454 84.0392 453.864 83.7512 453.592C83.4632 453.304 83.3192 452.952 83.3192 452.536V439.96H79.5512C79.1192 439.96 78.7672 439.832 78.4952 439.576C78.2232 439.32 78.0872 438.984 78.0872 438.568C78.0872 438.168 78.2232 437.84 78.4952 437.584C78.7832 437.328 79.1352 437.2 79.5512 437.2H90.2072ZM99.5906 454.24C98.4386 454.24 97.4146 454.096 96.5186 453.808C95.6226 453.52 94.7826 453.032 93.9986 452.344C93.5666 451.96 93.3506 451.536 93.3506 451.072C93.3506 450.704 93.4866 450.384 93.7586 450.112C94.0306 449.824 94.3586 449.68 94.7426 449.68C95.0466 449.68 95.3186 449.776 95.5586 449.968C96.1986 450.496 96.8226 450.88 97.4306 451.12C98.0386 451.36 98.7586 451.48 99.5906 451.48C100.487 451.48 101.255 451.28 101.895 450.88C102.551 450.48 102.879 449.984 102.879 449.392C102.879 448.672 102.559 448.112 101.919 447.712C101.279 447.296 100.263 446.984 98.8706 446.776C95.3666 446.264 93.6146 444.632 93.6146 441.88C93.6146 440.872 93.8786 440 94.4066 439.264C94.9346 438.512 95.6546 437.944 96.5666 437.56C97.4786 437.16 98.4946 436.96 99.6146 436.96C100.623 436.96 101.567 437.112 102.447 437.416C103.343 437.72 104.087 438.12 104.679 438.616C105.143 438.984 105.375 439.408 105.375 439.888C105.375 440.256 105.239 440.584 104.967 440.872C104.695 441.144 104.375 441.28 104.007 441.28C103.767 441.28 103.551 441.208 103.359 441.064C102.943 440.728 102.359 440.424 101.607 440.152C100.871 439.864 100.207 439.72 99.6146 439.72C98.6066 439.72 97.8226 439.912 97.2626 440.296C96.7186 440.664 96.4466 441.152 96.4466 441.76C96.4466 442.448 96.7266 442.968 97.2866 443.32C97.8626 443.672 98.7586 443.96 99.9746 444.184C101.351 444.424 102.447 444.736 103.263 445.12C104.095 445.488 104.719 446 105.135 446.656C105.551 447.296 105.759 448.152 105.759 449.224C105.759 450.232 105.471 451.12 104.895 451.888C104.335 452.64 103.583 453.224 102.639 453.64C101.695 454.04 100.679 454.24 99.5906 454.24Z" fill="#E7EFFA"/>
<path d="M218.8 19.96V24.184H223.984C224.4 24.184 224.744 24.32 225.016 24.592C225.304 24.848 225.448 25.184 225.448 25.6C225.448 25.952 225.304 26.264 225.016 26.536C224.744 26.808 224.4 26.944 223.984 26.944H218.8V32.536C218.8 32.952 218.648 33.304 218.344 33.592C218.056 33.864 217.712 34 217.312 34C216.864 34 216.496 33.864 216.208 33.592C215.936 33.32 215.8 32.968 215.8 32.536V18.664C215.8 18.248 215.936 17.904 216.208 17.632C216.496 17.344 216.848 17.2 217.264 17.2H225.064C225.48 17.2 225.824 17.336 226.096 17.608C226.384 17.864 226.528 18.2 226.528 18.616C226.528 18.968 226.384 19.28 226.096 19.552C225.824 19.824 225.48 19.96 225.064 19.96H218.8ZM242.453 31.648C242.661 31.776 242.821 31.944 242.933 32.152C243.061 32.36 243.125 32.576 243.125 32.8C243.125 33.088 243.029 33.352 242.837 33.592C242.597 33.88 242.229 34.024 241.733 34.024C241.349 34.024 240.997 33.936 240.677 33.76C239.525 33.104 238.949 31.768 238.949 29.752C238.949 29.176 238.757 28.72 238.373 28.384C238.005 28.048 237.469 27.88 236.765 27.88H232.277V32.536C232.277 32.968 232.157 33.32 231.917 33.592C231.693 33.864 231.389 34 231.005 34C230.541 34 230.133 33.864 229.781 33.592C229.445 33.304 229.277 32.952 229.277 32.536V18.664C229.277 18.248 229.413 17.904 229.685 17.632C229.973 17.344 230.325 17.2 230.741 17.2H237.653C238.485 17.2 239.269 17.424 240.005 17.872C240.741 18.32 241.325 18.936 241.757 19.72C242.205 20.504 242.429 21.384 242.429 22.36C242.429 23.16 242.213 23.944 241.781 24.712C241.349 25.464 240.789 26.064 240.101 26.512C241.109 27.216 241.661 28.16 241.757 29.344C241.805 29.6 241.829 29.848 241.829 30.088C241.893 30.584 241.957 30.944 242.021 31.168C242.085 31.376 242.229 31.536 242.453 31.648ZM237.533 25.408C237.821 25.408 238.101 25.272 238.373 25C238.645 24.728 238.869 24.368 239.045 23.92C239.221 23.456 239.309 22.96 239.309 22.432C239.309 21.984 239.221 21.576 239.045 21.208C238.869 20.824 238.645 20.52 238.373 20.296C238.101 20.072 237.821 19.96 237.533 19.96H232.277V25.408H237.533ZM260.975 25.6C260.975 27.184 260.623 28.64 259.919 29.968C259.215 31.28 258.239 32.32 256.991 33.088C255.759 33.856 254.367 34.24 252.815 34.24C251.263 34.24 249.863 33.856 248.615 33.088C247.383 32.32 246.415 31.28 245.711 29.968C245.023 28.64 244.679 27.184 244.679 25.6C244.679 24.016 245.023 22.568 245.711 21.256C246.415 19.928 247.383 18.88 248.615 18.112C249.863 17.344 251.263 16.96 252.815 16.96C254.367 16.96 255.759 17.344 256.991 18.112C258.239 18.88 259.215 19.928 259.919 21.256C260.623 22.568 260.975 24.016 260.975 25.6ZM257.855 25.6C257.855 24.528 257.639 23.56 257.207 22.696C256.775 21.816 256.175 21.12 255.407 20.608C254.639 20.096 253.775 19.84 252.815 19.84C251.839 19.84 250.967 20.096 250.199 20.608C249.447 21.104 248.855 21.792 248.423 22.672C248.007 23.552 247.799 24.528 247.799 25.6C247.799 26.672 248.007 27.648 248.423 28.528C248.855 29.408 249.447 30.104 250.199 30.616C250.967 31.112 251.839 31.36 252.815 31.36C253.775 31.36 254.639 31.104 255.407 30.592C256.175 30.08 256.775 29.392 257.207 28.528C257.639 27.648 257.855 26.672 257.855 25.6ZM276.29 18.616C276.29 18.92 276.178 19.224 275.954 19.528L266.834 31.24H274.49C274.922 31.24 275.274 31.368 275.546 31.624C275.818 31.864 275.954 32.192 275.954 32.608C275.954 33.008 275.81 33.344 275.522 33.616C275.25 33.872 274.906 34 274.49 34H263.954C263.538 34 263.178 33.856 262.874 33.568C262.57 33.28 262.418 32.952 262.418 32.584C262.418 32.28 262.53 31.976 262.754 31.672L271.85 19.96H264.914C264.482 19.96 264.13 19.832 263.858 19.576C263.586 19.32 263.45 18.984 263.45 18.568C263.45 18.168 263.586 17.84 263.858 17.584C264.146 17.328 264.498 17.2 264.914 17.2H274.73C275.114 17.2 275.466 17.336 275.786 17.608C276.122 17.88 276.29 18.216 276.29 18.616ZM288.445 31.24C288.861 31.24 289.205 31.384 289.477 31.672C289.765 31.944 289.909 32.264 289.909 32.632C289.909 33.032 289.765 33.36 289.477 33.616C289.205 33.872 288.861 34 288.445 34H280.405C279.989 34 279.637 33.864 279.349 33.592C279.077 33.304 278.941 32.952 278.941 32.536V18.664C278.941 18.248 279.077 17.904 279.349 17.632C279.637 17.344 279.989 17.2 280.405 17.2H288.445C288.861 17.2 289.205 17.336 289.477 17.608C289.765 17.864 289.909 18.2 289.909 18.616C289.909 19.016 289.773 19.344 289.501 19.6C289.229 19.84 288.877 19.96 288.445 19.96H281.941V24.04H287.365C287.781 24.04 288.125 24.176 288.397 24.448C288.685 24.704 288.829 25.04 288.829 25.456C288.829 25.856 288.693 26.184 288.421 26.44C288.149 26.68 287.797 26.8 287.365 26.8H281.941V31.24H288.445ZM305.419 17.2C305.803 17.2 306.115 17.328 306.355 17.584C306.595 17.84 306.715 18.16 306.715 18.544V32.536C306.715 32.952 306.571 33.304 306.283 33.592C306.011 33.864 305.667 34 305.251 34C305.027 34 304.803 33.968 304.579 33.904C304.371 33.824 304.219 33.72 304.123 33.592L295.315 22.408V32.656C295.315 33.04 295.187 33.36 294.931 33.616C294.691 33.872 294.371 34 293.971 34C293.587 34 293.275 33.872 293.035 33.616C292.795 33.36 292.675 33.04 292.675 32.656V18.664C292.675 18.248 292.811 17.904 293.083 17.632C293.371 17.344 293.723 17.2 294.139 17.2C294.379 17.2 294.611 17.248 294.835 17.344C295.075 17.44 295.251 17.568 295.363 17.728L304.099 28.864V18.544C304.099 18.16 304.219 17.84 304.459 17.584C304.715 17.328 305.035 17.2 305.419 17.2ZM217.6 46.47V49.638H221.488C221.8 49.638 222.058 49.74 222.262 49.944C222.478 50.136 222.586 50.388 222.586 50.7C222.586 50.964 222.478 51.198 222.262 51.402C222.058 51.606 221.8 51.708 221.488 51.708H217.6V55.902C217.6 56.214 217.486 56.478 217.258 56.694C217.042 56.898 216.784 57 216.484 57C216.148 57 215.872 56.898 215.656 56.694C215.452 56.49 215.35 56.226 215.35 55.902V45.498C215.35 45.186 215.452 44.928 215.656 44.724C215.872 44.508 216.136 44.4 216.448 44.4H222.298C222.61 44.4 222.868 44.502 223.072 44.706C223.288 44.898 223.396 45.15 223.396 45.462C223.396 45.726 223.288 45.96 223.072 46.164C222.868 46.368 222.61 46.47 222.298 46.47H217.6ZM236.891 50.7C236.891 51.888 236.627 52.98 236.099 53.976C235.571 54.96 234.839 55.74 233.903 56.316C232.979 56.892 231.935 57.18 230.771 57.18C229.607 57.18 228.557 56.892 227.621 56.316C226.697 55.74 225.971 54.96 225.443 53.976C224.927 52.98 224.669 51.888 224.669 50.7C224.669 49.512 224.927 48.426 225.443 47.442C225.971 46.446 226.697 45.66 227.621 45.084C228.557 44.508 229.607 44.22 230.771 44.22C231.935 44.22 232.979 44.508 233.903 45.084C234.839 45.66 235.571 46.446 236.099 47.442C236.627 48.426 236.891 49.512 236.891 50.7ZM234.551 50.7C234.551 49.896 234.389 49.17 234.065 48.522C233.741 47.862 233.291 47.34 232.715 46.956C232.139 46.572 231.491 46.38 230.771 46.38C230.039 46.38 229.385 46.572 228.809 46.956C228.245 47.328 227.801 47.844 227.477 48.504C227.165 49.164 227.009 49.896 227.009 50.7C227.009 51.504 227.165 52.236 227.477 52.896C227.801 53.556 228.245 54.078 228.809 54.462C229.385 54.834 230.039 55.02 230.771 55.02C231.491 55.02 232.139 54.828 232.715 54.444C233.291 54.06 233.741 53.544 234.065 52.896C234.389 52.236 234.551 51.504 234.551 50.7ZM250.549 50.7C250.549 51.888 250.285 52.98 249.757 53.976C249.229 54.96 248.497 55.74 247.561 56.316C246.637 56.892 245.593 57.18 244.429 57.18C243.265 57.18 242.215 56.892 241.279 56.316C240.355 55.74 239.629 54.96 239.101 53.976C238.585 52.98 238.327 51.888 238.327 50.7C238.327 49.512 238.585 48.426 239.101 47.442C239.629 46.446 240.355 45.66 241.279 45.084C242.215 44.508 243.265 44.22 244.429 44.22C245.593 44.22 246.637 44.508 247.561 45.084C248.497 45.66 249.229 46.446 249.757 47.442C250.285 48.426 250.549 49.512 250.549 50.7ZM248.209 50.7C248.209 49.896 248.047 49.17 247.723 48.522C247.399 47.862 246.949 47.34 246.373 46.956C245.797 46.572 245.149 46.38 244.429 46.38C243.697 46.38 243.043 46.572 242.467 46.956C241.903 47.328 241.459 47.844 241.135 48.504C240.823 49.164 240.667 49.896 240.667 50.7C240.667 51.504 240.823 52.236 241.135 52.896C241.459 53.556 241.903 54.078 242.467 54.462C243.043 54.834 243.697 55.02 244.429 55.02C245.149 55.02 245.797 54.828 246.373 54.444C246.949 54.06 247.399 53.544 247.723 52.896C248.047 52.236 248.209 51.504 248.209 50.7ZM258.016 44.4C259.144 44.4 260.11 44.682 260.914 45.246C261.73 45.798 262.348 46.554 262.768 47.514C263.2 48.462 263.416 49.524 263.416 50.7C263.416 51.876 263.2 52.944 262.768 53.904C262.348 54.852 261.73 55.608 260.914 56.172C260.11 56.724 259.144 57 258.016 57H253.714C253.402 57 253.138 56.898 252.922 56.694C252.718 56.478 252.616 56.214 252.616 55.902V45.498C252.616 45.186 252.718 44.928 252.922 44.724C253.138 44.508 253.402 44.4 253.714 44.4H258.016ZM257.836 54.93C258.916 54.93 259.726 54.534 260.266 53.742C260.806 52.938 261.076 51.924 261.076 50.7C261.076 49.476 260.8 48.468 260.248 47.676C259.708 46.872 258.904 46.47 257.836 46.47H254.866V54.93H257.836ZM269.533 57.18C268.669 57.18 267.901 57.072 267.229 56.856C266.557 56.64 265.927 56.274 265.339 55.758C265.015 55.47 264.853 55.152 264.853 54.804C264.853 54.528 264.955 54.288 265.159 54.084C265.363 53.868 265.609 53.76 265.897 53.76C266.125 53.76 266.329 53.832 266.509 53.976C266.989 54.372 267.457 54.66 267.913 54.84C268.369 55.02 268.909 55.11 269.533 55.11C270.205 55.11 270.781 54.96 271.261 54.66C271.753 54.36 271.999 53.988 271.999 53.544C271.999 53.004 271.759 52.584 271.279 52.284C270.799 51.972 270.037 51.738 268.993 51.582C266.365 51.198 265.051 49.974 265.051 47.91C265.051 47.154 265.249 46.5 265.645 45.948C266.041 45.384 266.581 44.958 267.265 44.67C267.949 44.37 268.711 44.22 269.551 44.22C270.307 44.22 271.015 44.334 271.675 44.562C272.347 44.79 272.905 45.09 273.349 45.462C273.697 45.738 273.871 46.056 273.871 46.416C273.871 46.692 273.769 46.938 273.565 47.154C273.361 47.358 273.121 47.46 272.845 47.46C272.665 47.46 272.503 47.406 272.359 47.298C272.047 47.046 271.609 46.818 271.045 46.614C270.493 46.398 269.995 46.29 269.551 46.29C268.795 46.29 268.207 46.434 267.787 46.722C267.379 46.998 267.175 47.364 267.175 47.82C267.175 48.336 267.385 48.726 267.805 48.99C268.237 49.254 268.909 49.47 269.821 49.638C270.853 49.818 271.675 50.052 272.287 50.34C272.911 50.616 273.379 51 273.691 51.492C274.003 51.972 274.159 52.614 274.159 53.418C274.159 54.174 273.943 54.84 273.511 55.416C273.091 55.98 272.527 56.418 271.819 56.73C271.111 57.03 270.349 57.18 269.533 57.18Z" fill="white"/>
<path d="M760.8 17.96V22.184H765.984C766.4 22.184 766.744 22.32 767.016 22.592C767.304 22.848 767.448 23.184 767.448 23.6C767.448 23.952 767.304 24.264 767.016 24.536C766.744 24.808 766.4 24.944 765.984 24.944H760.8V30.536C760.8 30.952 760.648 31.304 760.344 31.592C760.056 31.864 759.712 32 759.312 32C758.864 32 758.496 31.864 758.208 31.592C757.936 31.32 757.8 30.968 757.8 30.536V16.664C757.8 16.248 757.936 15.904 758.208 15.632C758.496 15.344 758.848 15.2 759.264 15.2H767.064C767.48 15.2 767.824 15.336 768.096 15.608C768.384 15.864 768.528 16.2 768.528 16.616C768.528 16.968 768.384 17.28 768.096 17.552C767.824 17.824 767.48 17.96 767.064 17.96H760.8ZM783.205 15.176C783.621 15.176 783.957 15.312 784.213 15.584C784.469 15.856 784.597 16.208 784.597 16.64V25.328C784.597 26.656 784.317 27.832 783.757 28.856C783.197 29.88 782.413 30.68 781.405 31.256C780.397 31.832 779.245 32.12 777.949 32.12C776.653 32.12 775.493 31.832 774.469 31.256C773.461 30.68 772.677 29.88 772.117 28.856C771.557 27.832 771.277 26.656 771.277 25.328V16.64C771.277 16.224 771.421 15.88 771.709 15.608C771.997 15.32 772.365 15.176 772.813 15.176C773.197 15.176 773.533 15.32 773.821 15.608C774.109 15.88 774.253 16.224 774.253 16.64V25.328C774.253 26.096 774.421 26.784 774.757 27.392C775.093 27.984 775.541 28.44 776.101 28.76C776.677 29.08 777.293 29.24 777.949 29.24C778.637 29.24 779.277 29.08 779.869 28.76C780.477 28.44 780.957 27.984 781.309 27.392C781.677 26.784 781.861 26.096 781.861 25.328V16.64C781.861 16.208 781.981 15.856 782.221 15.584C782.461 15.312 782.789 15.176 783.205 15.176ZM801.374 29.648C801.582 29.776 801.742 29.944 801.854 30.152C801.982 30.36 802.046 30.576 802.046 30.8C802.046 31.088 801.95 31.352 801.758 31.592C801.518 31.88 801.15 32.024 800.654 32.024C800.27 32.024 799.918 31.936 799.598 31.76C798.446 31.104 797.87 29.768 797.87 27.752C797.87 27.176 797.678 26.72 797.294 26.384C796.926 26.048 796.39 25.88 795.686 25.88H791.198V30.536C791.198 30.968 791.078 31.32 790.838 31.592C790.614 31.864 790.31 32 789.926 32C789.462 32 789.054 31.864 788.702 31.592C788.366 31.304 788.198 30.952 788.198 30.536V16.664C788.198 16.248 788.334 15.904 788.606 15.632C788.894 15.344 789.246 15.2 789.662 15.2H796.574C797.406 15.2 798.19 15.424 798.926 15.872C799.662 16.32 800.246 16.936 800.678 17.72C801.126 18.504 801.35 19.384 801.35 20.36C801.35 21.16 801.134 21.944 800.702 22.712C800.27 23.464 799.71 24.064 799.022 24.512C800.03 25.216 800.582 26.16 800.678 27.344C800.726 27.6 800.75 27.848 800.75 28.088C800.814 28.584 800.878 28.944 800.942 29.168C801.006 29.376 801.15 29.536 801.374 29.648ZM796.454 23.408C796.742 23.408 797.022 23.272 797.294 23C797.566 22.728 797.79 22.368 797.966 21.92C798.142 21.456 798.23 20.96 798.23 20.432C798.23 19.984 798.142 19.576 797.966 19.208C797.79 18.824 797.566 18.52 797.294 18.296C797.022 18.072 796.742 17.96 796.454 17.96H791.198V23.408H796.454ZM817.419 15.2C817.803 15.2 818.115 15.328 818.355 15.584C818.595 15.84 818.715 16.16 818.715 16.544V30.536C818.715 30.952 818.571 31.304 818.283 31.592C818.011 31.864 817.667 32 817.251 32C817.027 32 816.803 31.968 816.579 31.904C816.371 31.824 816.219 31.72 816.123 31.592L807.315 20.408V30.656C807.315 31.04 807.187 31.36 806.931 31.616C806.691 31.872 806.371 32 805.971 32C805.587 32 805.275 31.872 805.035 31.616C804.795 31.36 804.675 31.04 804.675 30.656V16.664C804.675 16.248 804.811 15.904 805.083 15.632C805.371 15.344 805.723 15.2 806.139 15.2C806.379 15.2 806.611 15.248 806.835 15.344C807.075 15.44 807.251 15.568 807.363 15.728L816.099 26.864V16.544C816.099 16.16 816.219 15.84 816.459 15.584C816.715 15.328 817.035 15.2 817.419 15.2ZM825.323 30.536C825.323 30.952 825.171 31.304 824.867 31.592C824.563 31.864 824.211 32 823.811 32C823.379 32 823.019 31.864 822.731 31.592C822.459 31.304 822.323 30.952 822.323 30.536V16.664C822.323 16.248 822.467 15.904 822.755 15.632C823.043 15.344 823.411 15.2 823.859 15.2C824.259 15.2 824.603 15.344 824.891 15.632C825.179 15.904 825.323 16.248 825.323 16.664V30.536ZM839.973 15.2C840.405 15.2 840.757 15.328 841.029 15.584C841.301 15.84 841.437 16.176 841.437 16.592C841.437 17.008 841.301 17.344 841.029 17.6C840.757 17.84 840.405 17.96 839.973 17.96H836.205V30.536C836.205 30.952 836.053 31.304 835.749 31.592C835.445 31.864 835.069 32 834.621 32C834.173 32 833.805 31.864 833.517 31.592C833.229 31.304 833.085 30.952 833.085 30.536V17.96H829.317C828.885 17.96 828.533 17.832 828.261 17.576C827.989 17.32 827.853 16.984 827.853 16.568C827.853 16.168 827.989 15.84 828.261 15.584C828.549 15.328 828.901 15.2 829.317 15.2H839.973ZM855.884 15.176C856.3 15.176 856.636 15.312 856.892 15.584C857.148 15.856 857.276 16.208 857.276 16.64V25.328C857.276 26.656 856.996 27.832 856.436 28.856C855.876 29.88 855.092 30.68 854.084 31.256C853.076 31.832 851.924 32.12 850.628 32.12C849.332 32.12 848.172 31.832 847.148 31.256C846.14 30.68 845.356 29.88 844.796 28.856C844.236 27.832 843.956 26.656 843.956 25.328V16.64C843.956 16.224 844.1 15.88 844.388 15.608C844.676 15.32 845.044 15.176 845.492 15.176C845.876 15.176 846.212 15.32 846.5 15.608C846.788 15.88 846.932 16.224 846.932 16.64V25.328C846.932 26.096 847.1 26.784 847.436 27.392C847.772 27.984 848.22 28.44 848.78 28.76C849.356 29.08 849.972 29.24 850.628 29.24C851.316 29.24 851.956 29.08 852.548 28.76C853.156 28.44 853.636 27.984 853.988 27.392C854.356 26.784 854.54 26.096 854.54 25.328V16.64C854.54 16.208 854.66 15.856 854.9 15.584C855.14 15.312 855.468 15.176 855.884 15.176ZM874.054 29.648C874.262 29.776 874.422 29.944 874.534 30.152C874.662 30.36 874.726 30.576 874.726 30.8C874.726 31.088 874.63 31.352 874.438 31.592C874.198 31.88 873.83 32.024 873.334 32.024C872.95 32.024 872.598 31.936 872.278 31.76C871.126 31.104 870.55 29.768 870.55 27.752C870.55 27.176 870.358 26.72 869.974 26.384C869.606 26.048 869.07 25.88 868.366 25.88H863.878V30.536C863.878 30.968 863.758 31.32 863.518 31.592C863.294 31.864 862.99 32 862.606 32C862.142 32 861.734 31.864 861.382 31.592C861.046 31.304 860.878 30.952 860.878 30.536V16.664C860.878 16.248 861.014 15.904 861.286 15.632C861.574 15.344 861.926 15.2 862.342 15.2H869.254C870.086 15.2 870.87 15.424 871.606 15.872C872.342 16.32 872.926 16.936 873.358 17.72C873.806 18.504 874.03 19.384 874.03 20.36C874.03 21.16 873.814 21.944 873.382 22.712C872.95 23.464 872.39 24.064 871.702 24.512C872.71 25.216 873.262 26.16 873.358 27.344C873.406 27.6 873.43 27.848 873.43 28.088C873.494 28.584 873.558 28.944 873.622 29.168C873.686 29.376 873.83 29.536 874.054 29.648ZM869.134 23.408C869.422 23.408 869.702 23.272 869.974 23C870.246 22.728 870.47 22.368 870.646 21.92C870.822 21.456 870.91 20.96 870.91 20.432C870.91 19.984 870.822 19.576 870.646 19.208C870.47 18.824 870.246 18.52 869.974 18.296C869.702 18.072 869.422 17.96 869.134 17.96H863.878V23.408H869.134ZM886.859 29.24C887.275 29.24 887.619 29.384 887.891 29.672C888.179 29.944 888.323 30.264 888.323 30.632C888.323 31.032 888.179 31.36 887.891 31.616C887.619 31.872 887.275 32 886.859 32H878.819C878.403 32 878.051 31.864 877.763 31.592C877.491 31.304 877.355 30.952 877.355 30.536V16.664C877.355 16.248 877.491 15.904 877.763 15.632C878.051 15.344 878.403 15.2 878.819 15.2H886.859C887.275 15.2 887.619 15.336 887.891 15.608C888.179 15.864 888.323 16.2 888.323 16.616C888.323 17.016 888.187 17.344 887.915 17.6C887.643 17.84 887.291 17.96 886.859 17.96H880.355V22.04H885.779C886.195 22.04 886.539 22.176 886.811 22.448C887.099 22.704 887.243 23.04 887.243 23.456C887.243 23.856 887.107 24.184 886.835 24.44C886.563 24.68 886.211 24.8 885.779 24.8H880.355V29.24H886.859Z" fill="white"/>
<path d="M870.38 504.016C870.876 504.272 871.124 504.68 871.124 505.24C871.124 505.576 871.004 505.904 870.764 506.224C870.508 506.56 870.18 506.728 869.78 506.728C869.508 506.728 869.236 506.656 868.964 506.512C868.18 506.144 867.332 505.96 866.42 505.96C865.3 505.96 864.324 506.2 863.492 506.68C862.66 507.144 862.02 507.808 861.572 508.672C861.124 509.52 860.9 510.496 860.9 511.6C860.9 513.488 861.404 514.92 862.412 515.896C863.436 516.872 864.772 517.36 866.42 517.36C867.396 517.36 868.244 517.176 868.964 516.808C869.252 516.68 869.508 516.616 869.732 516.616C870.148 516.616 870.5 516.792 870.788 517.144C871.028 517.448 871.148 517.776 871.148 518.128C871.148 518.384 871.084 518.616 870.956 518.824C870.828 519.032 870.644 519.192 870.404 519.304C869.156 519.928 867.828 520.24 866.42 520.24C864.852 520.24 863.412 519.912 862.1 519.256C860.788 518.584 859.74 517.6 858.956 516.304C858.172 515.008 857.78 513.44 857.78 511.6C857.78 509.968 858.148 508.504 858.884 507.208C859.636 505.912 860.668 504.904 861.98 504.184C863.292 503.448 864.772 503.08 866.42 503.08C867.844 503.08 869.164 503.392 870.38 504.016ZM882.931 517.192C883.347 517.192 883.691 517.328 883.963 517.6C884.251 517.856 884.395 518.192 884.395 518.608C884.395 519.008 884.251 519.344 883.963 519.616C883.691 519.872 883.347 520 882.931 520H875.131C874.715 520 874.363 519.864 874.075 519.592C873.803 519.304 873.667 518.952 873.667 518.536V504.664C873.667 504.248 873.811 503.904 874.099 503.632C874.387 503.344 874.755 503.2 875.203 503.2C875.603 503.2 875.947 503.344 876.235 503.632C876.523 503.904 876.667 504.248 876.667 504.664V517.192H882.931ZM902.365 511.6C902.365 513.184 902.013 514.64 901.309 515.968C900.605 517.28 899.629 518.32 898.381 519.088C897.149 519.856 895.757 520.24 894.205 520.24C892.653 520.24 891.253 519.856 890.005 519.088C888.773 518.32 887.805 517.28 887.101 515.968C886.413 514.64 886.069 513.184 886.069 511.6C886.069 510.016 886.413 508.568 887.101 507.256C887.805 505.928 888.773 504.88 890.005 504.112C891.253 503.344 892.653 502.96 894.205 502.96C895.757 502.96 897.149 503.344 898.381 504.112C899.629 504.88 900.605 505.928 901.309 507.256C902.013 508.568 902.365 510.016 902.365 511.6ZM899.245 511.6C899.245 510.528 899.029 509.56 898.597 508.696C898.165 507.816 897.565 507.12 896.797 506.608C896.029 506.096 895.165 505.84 894.205 505.84C893.229 505.84 892.357 506.096 891.589 506.608C890.837 507.104 890.245 507.792 889.813 508.672C889.397 509.552 889.189 510.528 889.189 511.6C889.189 512.672 889.397 513.648 889.813 514.528C890.245 515.408 890.837 516.104 891.589 516.616C892.357 517.112 893.229 517.36 894.205 517.36C895.165 517.36 896.029 517.104 896.797 516.592C897.565 516.08 898.165 515.392 898.597 514.528C899.029 513.648 899.245 512.672 899.245 511.6ZM915.692 503.2C916.124 503.2 916.476 503.328 916.748 503.584C917.02 503.84 917.156 504.176 917.156 504.592C917.156 505.008 917.02 505.344 916.748 505.6C916.476 505.84 916.124 505.96 915.692 505.96H911.924V518.536C911.924 518.952 911.772 519.304 911.468 519.592C911.164 519.864 910.788 520 910.34 520C909.892 520 909.524 519.864 909.236 519.592C908.948 519.304 908.804 518.952 908.804 518.536V505.96H905.036C904.604 505.96 904.252 505.832 903.98 505.576C903.708 505.32 903.572 504.984 903.572 504.568C903.572 504.168 903.708 503.84 903.98 503.584C904.268 503.328 904.62 503.2 905.036 503.2H915.692ZM931.843 503.2C932.291 503.2 932.651 503.336 932.923 503.608C933.195 503.88 933.331 504.232 933.331 504.664V518.536C933.331 518.952 933.187 519.304 932.899 519.592C932.611 519.864 932.243 520 931.795 520C931.395 520 931.051 519.864 930.763 519.592C930.475 519.304 930.331 518.952 930.331 518.536V512.944H922.675V518.536C922.675 518.952 922.523 519.304 922.219 519.592C921.915 519.864 921.563 520 921.163 520C920.731 520 920.371 519.864 920.083 519.592C919.811 519.304 919.675 518.952 919.675 518.536V504.664C919.675 504.248 919.819 503.904 920.107 503.632C920.395 503.344 920.763 503.2 921.211 503.2C921.611 503.2 921.955 503.344 922.243 503.632C922.531 503.904 922.675 504.248 922.675 504.664V510.184H930.331V504.664C930.331 504.248 930.483 503.904 930.787 503.632C931.091 503.344 931.443 503.2 931.843 503.2ZM946.429 517.24C946.845 517.24 947.189 517.384 947.461 517.672C947.749 517.944 947.893 518.264 947.893 518.632C947.893 519.032 947.749 519.36 947.461 519.616C947.189 519.872 946.845 520 946.429 520H938.389C937.973 520 937.621 519.864 937.333 519.592C937.061 519.304 936.925 518.952 936.925 518.536V504.664C936.925 504.248 937.061 503.904 937.333 503.632C937.621 503.344 937.973 503.2 938.389 503.2H946.429C946.845 503.2 947.189 503.336 947.461 503.608C947.749 503.864 947.893 504.2 947.893 504.616C947.893 505.016 947.757 505.344 947.485 505.6C947.213 505.84 946.861 505.96 946.429 505.96H939.925V510.04H945.349C945.765 510.04 946.109 510.176 946.381 510.448C946.669 510.704 946.813 511.04 946.813 511.456C946.813 511.856 946.677 512.184 946.405 512.44C946.133 512.68 945.781 512.8 945.349 512.8H939.925V517.24H946.429ZM956.059 520.24C954.907 520.24 953.883 520.096 952.987 519.808C952.091 519.52 951.251 519.032 950.467 518.344C950.035 517.96 949.819 517.536 949.819 517.072C949.819 516.704 949.955 516.384 950.227 516.112C950.499 515.824 950.827 515.68 951.211 515.68C951.515 515.68 951.787 515.776 952.027 515.968C952.667 516.496 953.291 516.88 953.899 517.12C954.507 517.36 955.227 517.48 956.059 517.48C956.955 517.48 957.723 517.28 958.363 516.88C959.019 516.48 959.347 515.984 959.347 515.392C959.347 514.672 959.027 514.112 958.387 513.712C957.747 513.296 956.731 512.984 955.339 512.776C951.835 512.264 950.083 510.632 950.083 507.88C950.083 506.872 950.347 506 950.875 505.264C951.403 504.512 952.123 503.944 953.035 503.56C953.947 503.16 954.963 502.96 956.083 502.96C957.091 502.96 958.035 503.112 958.915 503.416C959.811 503.72 960.555 504.12 961.147 504.616C961.611 504.984 961.843 505.408 961.843 505.888C961.843 506.256 961.707 506.584 961.435 506.872C961.163 507.144 960.843 507.28 960.475 507.28C960.235 507.28 960.019 507.208 959.827 507.064C959.411 506.728 958.827 506.424 958.075 506.152C957.339 505.864 956.675 505.72 956.083 505.72C955.075 505.72 954.291 505.912 953.731 506.296C953.187 506.664 952.915 507.152 952.915 507.76C952.915 508.448 953.195 508.968 953.755 509.32C954.331 509.672 955.227 509.96 956.443 510.184C957.819 510.424 958.915 510.736 959.731 511.12C960.563 511.488 961.187 512 961.603 512.656C962.019 513.296 962.227 514.152 962.227 515.224C962.227 516.232 961.939 517.12 961.363 517.888C960.803 518.64 960.051 519.224 959.107 519.64C958.163 520.04 957.147 520.24 956.059 520.24Z" fill="#EFAA66"/>
<path d="M958.536 147.16C958.813 147.16 959.043 147.256 959.224 147.448C959.416 147.629 959.512 147.843 959.512 148.088C959.512 148.355 959.416 148.573 959.224 148.744C959.043 148.915 958.813 149 958.536 149H953.176C952.899 149 952.664 148.909 952.472 148.728C952.291 148.536 952.2 148.301 952.2 148.024V138.776C952.2 138.499 952.291 138.269 952.472 138.088C952.664 137.896 952.899 137.8 953.176 137.8H958.536C958.813 137.8 959.043 137.891 959.224 138.072C959.416 138.243 959.512 138.467 959.512 138.744C959.512 139.011 959.421 139.229 959.24 139.4C959.059 139.56 958.824 139.64 958.536 139.64H954.2V142.36H957.816C958.093 142.36 958.323 142.451 958.504 142.632C958.696 142.803 958.792 143.027 958.792 143.304C958.792 143.571 958.701 143.789 958.52 143.96C958.339 144.12 958.104 144.2 957.816 144.2H954.2V147.16H958.536ZM967.532 147.128C967.81 147.128 968.039 147.219 968.22 147.4C968.412 147.571 968.508 147.795 968.508 148.072C968.508 148.339 968.412 148.563 968.22 148.744C968.039 148.915 967.81 149 967.532 149H962.332C962.055 149 961.82 148.909 961.628 148.728C961.447 148.536 961.356 148.301 961.356 148.024V138.776C961.356 138.499 961.452 138.269 961.644 138.088C961.836 137.896 962.082 137.8 962.38 137.8C962.647 137.8 962.876 137.896 963.068 138.088C963.26 138.269 963.356 138.499 963.356 138.776V147.128H967.532ZM976.677 147.16C976.954 147.16 977.183 147.256 977.365 147.448C977.557 147.629 977.653 147.843 977.653 148.088C977.653 148.355 977.557 148.573 977.365 148.744C977.183 148.915 976.954 149 976.677 149H971.317C971.039 149 970.805 148.909 970.613 148.728C970.431 148.536 970.341 148.301 970.341 148.024V138.776C970.341 138.499 970.431 138.269 970.613 138.088C970.805 137.896 971.039 137.8 971.317 137.8H976.677C976.954 137.8 977.183 137.891 977.365 138.072C977.557 138.243 977.653 138.467 977.653 138.744C977.653 139.011 977.562 139.229 977.381 139.4C977.199 139.56 976.965 139.64 976.677 139.64H972.341V142.36H975.957C976.234 142.36 976.463 142.451 976.645 142.632C976.837 142.803 976.933 143.027 976.933 143.304C976.933 143.571 976.842 143.789 976.661 143.96C976.479 144.12 976.245 144.2 975.957 144.2H972.341V147.16H976.677ZM987.337 138.344C987.668 138.515 987.833 138.787 987.833 139.16C987.833 139.384 987.753 139.603 987.593 139.816C987.422 140.04 987.204 140.152 986.937 140.152C986.756 140.152 986.574 140.104 986.393 140.008C985.87 139.763 985.305 139.64 984.697 139.64C983.95 139.64 983.3 139.8 982.745 140.12C982.19 140.429 981.764 140.872 981.465 141.448C981.166 142.013 981.017 142.664 981.017 143.4C981.017 144.659 981.353 145.613 982.025 146.264C982.708 146.915 983.598 147.24 984.697 147.24C985.348 147.24 985.913 147.117 986.393 146.872C986.585 146.787 986.756 146.744 986.905 146.744C987.182 146.744 987.417 146.861 987.609 147.096C987.769 147.299 987.849 147.517 987.849 147.752C987.849 147.923 987.806 148.077 987.721 148.216C987.636 148.355 987.513 148.461 987.353 148.536C986.521 148.952 985.636 149.16 984.697 149.16C983.652 149.16 982.692 148.941 981.817 148.504C980.942 148.056 980.244 147.4 979.721 146.536C979.198 145.672 978.937 144.627 978.937 143.4C978.937 142.312 979.182 141.336 979.673 140.472C980.174 139.608 980.862 138.936 981.737 138.456C982.612 137.965 983.598 137.72 984.697 137.72C985.646 137.72 986.526 137.928 987.337 138.344ZM996.888 137.8C997.176 137.8 997.411 137.885 997.592 138.056C997.773 138.227 997.864 138.451 997.864 138.728C997.864 139.005 997.773 139.229 997.592 139.4C997.411 139.56 997.176 139.64 996.888 139.64H994.376V148.024C994.376 148.301 994.275 148.536 994.072 148.728C993.869 148.909 993.619 149 993.32 149C993.021 149 992.776 148.909 992.584 148.728C992.392 148.536 992.296 148.301 992.296 148.024V139.64H989.784C989.496 139.64 989.261 139.555 989.08 139.384C988.899 139.213 988.808 138.989 988.808 138.712C988.808 138.445 988.899 138.227 989.08 138.056C989.272 137.885 989.507 137.8 989.784 137.8H996.888ZM1008.33 147.432C1008.47 147.517 1008.57 147.629 1008.65 147.768C1008.73 147.907 1008.78 148.051 1008.78 148.2C1008.78 148.392 1008.71 148.568 1008.58 148.728C1008.42 148.92 1008.18 149.016 1007.85 149.016C1007.59 149.016 1007.36 148.957 1007.14 148.84C1006.38 148.403 1005.99 147.512 1005.99 146.168C1005.99 145.784 1005.86 145.48 1005.61 145.256C1005.36 145.032 1005.01 144.92 1004.54 144.92H1001.54V148.024C1001.54 148.312 1001.46 148.547 1001.3 148.728C1001.15 148.909 1000.95 149 1000.7 149C1000.39 149 1000.11 148.909 999.88 148.728C999.656 148.536 999.544 148.301 999.544 148.024V138.776C999.544 138.499 999.634 138.269 999.816 138.088C1000.01 137.896 1000.24 137.8 1000.52 137.8H1005.13C1005.68 137.8 1006.21 137.949 1006.7 138.248C1007.19 138.547 1007.58 138.957 1007.86 139.48C1008.16 140.003 1008.31 140.589 1008.31 141.24C1008.31 141.773 1008.17 142.296 1007.88 142.808C1007.59 143.309 1007.22 143.709 1006.76 144.008C1007.43 144.477 1007.8 145.107 1007.86 145.896C1007.9 146.067 1007.91 146.232 1007.91 146.392C1007.95 146.723 1008 146.963 1008.04 147.112C1008.08 147.251 1008.18 147.357 1008.33 147.432ZM1005.05 143.272C1005.24 143.272 1005.43 143.181 1005.61 143C1005.79 142.819 1005.94 142.579 1006.06 142.28C1006.17 141.971 1006.23 141.64 1006.23 141.288C1006.23 140.989 1006.17 140.717 1006.06 140.472C1005.94 140.216 1005.79 140.013 1005.61 139.864C1005.43 139.715 1005.24 139.64 1005.05 139.64H1001.54V143.272H1005.05ZM1020.68 143.4C1020.68 144.456 1020.44 145.427 1019.97 146.312C1019.5 147.187 1018.85 147.88 1018.02 148.392C1017.2 148.904 1016.27 149.16 1015.24 149.16C1014.2 149.16 1013.27 148.904 1012.44 148.392C1011.61 147.88 1010.97 147.187 1010.5 146.312C1010.04 145.427 1009.81 144.456 1009.81 143.4C1009.81 142.344 1010.04 141.379 1010.5 140.504C1010.97 139.619 1011.61 138.92 1012.44 138.408C1013.27 137.896 1014.2 137.64 1015.24 137.64C1016.27 137.64 1017.2 137.896 1018.02 138.408C1018.85 138.92 1019.5 139.619 1019.97 140.504C1020.44 141.379 1020.68 142.344 1020.68 143.4ZM1018.6 143.4C1018.6 142.685 1018.45 142.04 1018.16 141.464C1017.88 140.877 1017.48 140.413 1016.96 140.072C1016.45 139.731 1015.88 139.56 1015.24 139.56C1014.59 139.56 1014 139.731 1013.49 140.072C1012.99 140.403 1012.6 140.861 1012.31 141.448C1012.03 142.035 1011.89 142.685 1011.89 143.4C1011.89 144.115 1012.03 144.765 1012.31 145.352C1012.6 145.939 1012.99 146.403 1013.49 146.744C1014 147.075 1014.59 147.24 1015.24 147.24C1015.88 147.24 1016.45 147.069 1016.96 146.728C1017.48 146.387 1017.88 145.928 1018.16 145.352C1018.45 144.765 1018.6 144.115 1018.6 143.4ZM1031.01 137.8C1031.26 137.8 1031.47 137.885 1031.63 138.056C1031.79 138.227 1031.87 138.44 1031.87 138.696V148.024C1031.87 148.301 1031.78 148.536 1031.58 148.728C1031.4 148.909 1031.17 149 1030.9 149C1030.75 149 1030.6 148.979 1030.45 148.936C1030.31 148.883 1030.21 148.813 1030.14 148.728L1024.27 141.272V148.104C1024.27 148.36 1024.19 148.573 1024.02 148.744C1023.86 148.915 1023.64 149 1023.38 149C1023.12 149 1022.91 148.915 1022.75 148.744C1022.59 148.573 1022.51 148.36 1022.51 148.104V138.776C1022.51 138.499 1022.6 138.269 1022.78 138.088C1022.98 137.896 1023.21 137.8 1023.49 137.8C1023.65 137.8 1023.8 137.832 1023.95 137.896C1024.11 137.96 1024.23 138.045 1024.3 138.152L1030.13 145.576V138.696C1030.13 138.44 1030.21 138.227 1030.37 138.056C1030.54 137.885 1030.75 137.8 1031.01 137.8ZM1036.28 148.024C1036.28 148.301 1036.18 148.536 1035.97 148.728C1035.77 148.909 1035.54 149 1035.27 149C1034.98 149 1034.74 148.909 1034.55 148.728C1034.37 148.536 1034.28 148.301 1034.28 148.024V138.776C1034.28 138.499 1034.37 138.269 1034.57 138.088C1034.76 137.896 1035 137.8 1035.3 137.8C1035.57 137.8 1035.8 137.896 1035.99 138.088C1036.18 138.269 1036.28 138.499 1036.28 138.776V148.024ZM1046.52 138.344C1046.86 138.515 1047.02 138.787 1047.02 139.16C1047.02 139.384 1046.94 139.603 1046.78 139.816C1046.61 140.04 1046.39 140.152 1046.12 140.152C1045.94 140.152 1045.76 140.104 1045.58 140.008C1045.06 139.763 1044.49 139.64 1043.88 139.64C1043.14 139.64 1042.49 139.8 1041.93 140.12C1041.38 140.429 1040.95 140.872 1040.65 141.448C1040.35 142.013 1040.2 142.664 1040.2 143.4C1040.2 144.659 1040.54 145.613 1041.21 146.264C1041.9 146.915 1042.79 147.24 1043.88 147.24C1044.54 147.24 1045.1 147.117 1045.58 146.872C1045.77 146.787 1045.94 146.744 1046.09 146.744C1046.37 146.744 1046.6 146.861 1046.8 147.096C1046.96 147.299 1047.04 147.517 1047.04 147.752C1047.04 147.923 1046.99 148.077 1046.91 148.216C1046.82 148.355 1046.7 148.461 1046.54 148.536C1045.71 148.952 1044.82 149.16 1043.88 149.16C1042.84 149.16 1041.88 148.941 1041 148.504C1040.13 148.056 1039.43 147.4 1038.91 146.536C1038.39 145.672 1038.12 144.627 1038.12 143.4C1038.12 142.312 1038.37 141.336 1038.86 140.472C1039.36 139.608 1040.05 138.936 1040.92 138.456C1041.8 137.965 1042.79 137.72 1043.88 137.72C1044.83 137.72 1045.71 137.928 1046.52 138.344ZM1052.32 149.16C1051.55 149.16 1050.86 149.064 1050.27 148.872C1049.67 148.68 1049.11 148.355 1048.59 147.896C1048.3 147.64 1048.16 147.357 1048.16 147.048C1048.16 146.803 1048.25 146.589 1048.43 146.408C1048.61 146.216 1048.83 146.12 1049.08 146.12C1049.29 146.12 1049.47 146.184 1049.63 146.312C1050.05 146.664 1050.47 146.92 1050.88 147.08C1051.28 147.24 1051.76 147.32 1052.32 147.32C1052.91 147.32 1053.42 147.187 1053.85 146.92C1054.29 146.653 1054.51 146.323 1054.51 145.928C1054.51 145.448 1054.29 145.075 1053.87 144.808C1053.44 144.531 1052.76 144.323 1051.84 144.184C1049.5 143.843 1048.33 142.755 1048.33 140.92C1048.33 140.248 1048.51 139.667 1048.86 139.176C1049.21 138.675 1049.69 138.296 1050.3 138.04C1050.91 137.773 1051.58 137.64 1052.33 137.64C1053 137.64 1053.63 137.741 1054.22 137.944C1054.82 138.147 1055.31 138.413 1055.71 138.744C1056.02 138.989 1056.17 139.272 1056.17 139.592C1056.17 139.837 1056.08 140.056 1055.9 140.248C1055.72 140.429 1055.5 140.52 1055.26 140.52C1055.1 140.52 1054.96 140.472 1054.83 140.376C1054.55 140.152 1054.16 139.949 1053.66 139.768C1053.17 139.576 1052.73 139.48 1052.33 139.48C1051.66 139.48 1051.14 139.608 1050.76 139.864C1050.4 140.109 1050.22 140.435 1050.22 140.84C1050.22 141.299 1050.41 141.645 1050.78 141.88C1051.16 142.115 1051.76 142.307 1052.57 142.456C1053.49 142.616 1054.22 142.824 1054.76 143.08C1055.32 143.325 1055.73 143.667 1056.01 144.104C1056.29 144.531 1056.43 145.101 1056.43 145.816C1056.43 146.488 1056.24 147.08 1055.85 147.592C1055.48 148.093 1054.98 148.483 1054.35 148.76C1053.72 149.027 1053.04 149.16 1052.32 149.16Z" fill="white"/>
</svg>
