<svg width="13" height="13" viewBox="0 0 13 13" fill="none" xmlns="http://www.w3.org/2000/svg">
<path d="M5.59811 0.413133L4.07467 3.53032L0.629356 4.02251C0.0199805 4.11626 -0.214394 4.86626 0.230918 5.31157L2.69186 7.72563L2.10592 11.1241C2.01217 11.7334 2.66842 12.2022 3.20748 11.9209L6.27779 10.3038L9.32467 11.9209C9.86373 12.2022 10.52 11.7334 10.4262 11.1241L9.84029 7.72563L12.3012 5.31157C12.7465 4.86626 12.5122 4.11626 11.9028 4.02251L8.48092 3.53032L6.93404 0.413133C6.67623 -0.12593 5.87936 -0.149367 5.59811 0.413133Z" fill="#FF8DA9"/>
<path d="M5.59811 0.413133L4.07467 3.53032L0.629356 4.02251C0.0199805 4.11626 -0.214394 4.86626 0.230918 5.31157L2.69186 7.72563L2.10592 11.1241C2.01217 11.7334 2.66842 12.2022 3.20748 11.9209L6.27779 10.3038L9.32467 11.9209C9.86373 12.2022 10.52 11.7334 10.4262 11.1241L9.84029 7.72563L12.3012 5.31157C12.7465 4.86626 12.5122 4.11626 11.9028 4.02251L8.48092 3.53032L6.93404 0.413133C6.67623 -0.12593 5.87936 -0.149367 5.59811 0.413133Z" fill="url(#paint0_linear)" fill-opacity="0.2"/>
<defs>
<linearGradient id="paint0_linear" x1="6.26607" y1="0" x2="6.26607" y2="12.0046" gradientUnits="userSpaceOnUse">
<stop stop-color="#EC3CE5"/>
<stop offset="1" stop-color="#FF8DA9" stop-opacity="0"/>
</linearGradient>
</defs>
</svg>
