<svg width="327" height="204" viewBox="0 0 327 204" fill="none" xmlns="http://www.w3.org/2000/svg">
<rect y="4" width="327" height="50" fill="#FFE266"/>
<rect y="79" width="327" height="50" fill="#FFE266"/>
<rect y="154" width="327" height="50" fill="#FFE266"/>
<path d="M131.38 176.016C131.876 176.272 132.124 176.68 132.124 177.24C132.124 177.576 132.004 177.904 131.764 178.224C131.508 178.56 131.18 178.728 130.78 178.728C130.508 178.728 130.236 178.656 129.964 178.512C129.18 178.144 128.332 177.96 127.42 177.96C126.3 177.96 125.324 178.2 124.492 178.68C123.66 179.144 123.02 179.808 122.572 180.672C122.124 181.52 121.9 182.496 121.9 183.6C121.9 185.488 122.404 186.92 123.412 187.896C124.436 188.872 125.772 189.36 127.42 189.36C128.396 189.36 129.244 189.176 129.964 188.808C130.252 188.68 130.508 188.616 130.732 188.616C131.148 188.616 131.5 188.792 131.788 189.144C132.028 189.448 132.148 189.776 132.148 190.128C132.148 190.384 132.084 190.616 131.956 190.824C131.828 191.032 131.644 191.192 131.404 191.304C130.156 191.928 128.828 192.24 127.42 192.24C125.852 192.24 124.412 191.912 123.1 191.256C121.788 190.584 120.74 189.6 119.956 188.304C119.172 187.008 118.78 185.44 118.78 183.6C118.78 181.968 119.148 180.504 119.884 179.208C120.636 177.912 121.668 176.904 122.98 176.184C124.292 175.448 125.772 175.08 127.42 175.08C128.844 175.08 130.164 175.392 131.38 176.016ZM143.931 189.192C144.347 189.192 144.691 189.328 144.963 189.6C145.251 189.856 145.395 190.192 145.395 190.608C145.395 191.008 145.251 191.344 144.963 191.616C144.691 191.872 144.347 192 143.931 192H136.131C135.715 192 135.363 191.864 135.075 191.592C134.803 191.304 134.667 190.952 134.667 190.536V176.664C134.667 176.248 134.811 175.904 135.099 175.632C135.387 175.344 135.755 175.2 136.203 175.2C136.603 175.2 136.947 175.344 137.235 175.632C137.523 175.904 137.667 176.248 137.667 176.664V189.192H143.931ZM163.365 183.6C163.365 185.184 163.013 186.64 162.309 187.968C161.605 189.28 160.629 190.32 159.381 191.088C158.149 191.856 156.757 192.24 155.205 192.24C153.653 192.24 152.253 191.856 151.005 191.088C149.773 190.32 148.805 189.28 148.101 187.968C147.413 186.64 147.069 185.184 147.069 183.6C147.069 182.016 147.413 180.568 148.101 179.256C148.805 177.928 149.773 176.88 151.005 176.112C152.253 175.344 153.653 174.96 155.205 174.96C156.757 174.96 158.149 175.344 159.381 176.112C160.629 176.88 161.605 177.928 162.309 179.256C163.013 180.568 163.365 182.016 163.365 183.6ZM160.245 183.6C160.245 182.528 160.029 181.56 159.597 180.696C159.165 179.816 158.565 179.12 157.797 178.608C157.029 178.096 156.165 177.84 155.205 177.84C154.229 177.84 153.357 178.096 152.589 178.608C151.837 179.104 151.245 179.792 150.813 180.672C150.397 181.552 150.189 182.528 150.189 183.6C150.189 184.672 150.397 185.648 150.813 186.528C151.245 187.408 151.837 188.104 152.589 188.616C153.357 189.112 154.229 189.36 155.205 189.36C156.165 189.36 157.029 189.104 157.797 188.592C158.565 188.08 159.165 187.392 159.597 186.528C160.029 185.648 160.245 184.672 160.245 183.6ZM176.692 175.2C177.124 175.2 177.476 175.328 177.748 175.584C178.02 175.84 178.156 176.176 178.156 176.592C178.156 177.008 178.02 177.344 177.748 177.6C177.476 177.84 177.124 177.96 176.692 177.96H172.924V190.536C172.924 190.952 172.772 191.304 172.468 191.592C172.164 191.864 171.788 192 171.34 192C170.892 192 170.524 191.864 170.236 191.592C169.948 191.304 169.804 190.952 169.804 190.536V177.96H166.036C165.604 177.96 165.252 177.832 164.98 177.576C164.708 177.32 164.572 176.984 164.572 176.568C164.572 176.168 164.708 175.84 164.98 175.584C165.268 175.328 165.62 175.2 166.036 175.2H176.692ZM192.843 175.2C193.291 175.2 193.651 175.336 193.923 175.608C194.195 175.88 194.331 176.232 194.331 176.664V190.536C194.331 190.952 194.187 191.304 193.899 191.592C193.611 191.864 193.243 192 192.795 192C192.395 192 192.051 191.864 191.763 191.592C191.475 191.304 191.331 190.952 191.331 190.536V184.944H183.675V190.536C183.675 190.952 183.523 191.304 183.219 191.592C182.915 191.864 182.563 192 182.163 192C181.731 192 181.371 191.864 181.083 191.592C180.811 191.304 180.675 190.952 180.675 190.536V176.664C180.675 176.248 180.819 175.904 181.107 175.632C181.395 175.344 181.763 175.2 182.211 175.2C182.611 175.2 182.955 175.344 183.243 175.632C183.531 175.904 183.675 176.248 183.675 176.664V182.184H191.331V176.664C191.331 176.248 191.483 175.904 191.787 175.632C192.091 175.344 192.443 175.2 192.843 175.2ZM207.429 189.24C207.845 189.24 208.189 189.384 208.461 189.672C208.749 189.944 208.893 190.264 208.893 190.632C208.893 191.032 208.749 191.36 208.461 191.616C208.189 191.872 207.845 192 207.429 192H199.389C198.973 192 198.621 191.864 198.333 191.592C198.061 191.304 197.925 190.952 197.925 190.536V176.664C197.925 176.248 198.061 175.904 198.333 175.632C198.621 175.344 198.973 175.2 199.389 175.2H207.429C207.845 175.2 208.189 175.336 208.461 175.608C208.749 175.864 208.893 176.2 208.893 176.616C208.893 177.016 208.757 177.344 208.485 177.6C208.213 177.84 207.861 177.96 207.429 177.96H200.925V182.04H206.349C206.765 182.04 207.109 182.176 207.381 182.448C207.669 182.704 207.813 183.04 207.813 183.456C207.813 183.856 207.677 184.184 207.405 184.44C207.133 184.68 206.781 184.8 206.349 184.8H200.925V189.24H207.429ZM217.059 192.24C215.907 192.24 214.883 192.096 213.987 191.808C213.091 191.52 212.251 191.032 211.467 190.344C211.035 189.96 210.819 189.536 210.819 189.072C210.819 188.704 210.955 188.384 211.227 188.112C211.499 187.824 211.827 187.68 212.211 187.68C212.515 187.68 212.787 187.776 213.027 187.968C213.667 188.496 214.291 188.88 214.899 189.12C215.507 189.36 216.227 189.48 217.059 189.48C217.955 189.48 218.723 189.28 219.363 188.88C220.019 188.48 220.347 187.984 220.347 187.392C220.347 186.672 220.027 186.112 219.387 185.712C218.747 185.296 217.731 184.984 216.339 184.776C212.835 184.264 211.083 182.632 211.083 179.88C211.083 178.872 211.347 178 211.875 177.264C212.403 176.512 213.123 175.944 214.035 175.56C214.947 175.16 215.963 174.96 217.083 174.96C218.091 174.96 219.035 175.112 219.915 175.416C220.811 175.72 221.555 176.12 222.147 176.616C222.611 176.984 222.843 177.408 222.843 177.888C222.843 178.256 222.707 178.584 222.435 178.872C222.163 179.144 221.843 179.28 221.475 179.28C221.235 179.28 221.019 179.208 220.827 179.064C220.411 178.728 219.827 178.424 219.075 178.152C218.339 177.864 217.675 177.72 217.083 177.72C216.075 177.72 215.291 177.912 214.731 178.296C214.187 178.664 213.915 179.152 213.915 179.76C213.915 180.448 214.195 180.968 214.755 181.32C215.331 181.672 216.227 181.96 217.443 182.184C218.819 182.424 219.915 182.736 220.731 183.12C221.563 183.488 222.187 184 222.603 184.656C223.019 185.296 223.227 186.152 223.227 187.224C223.227 188.232 222.939 189.12 222.363 189.888C221.803 190.64 221.051 191.224 220.107 191.64C219.163 192.04 218.147 192.24 217.059 192.24Z" fill="#EFAA66"/>
<g clip-path="url(#clip0)">
<path d="M217.767 165.933H99.5107C96.6232 165.933 94.2607 163.57 94.2607 160.683V42.4594C94.2607 39.5719 96.6232 37.2094 99.5107 37.2094H217.734C220.622 37.2094 222.984 39.5719 222.984 42.4594V160.683C222.984 163.57 220.654 165.933 217.767 165.933Z" fill="#B07676"/>
<path d="M138.229 140.47V37.2094H99.5107C96.6232 37.2094 94.2607 39.5719 94.2607 42.4594V160.683C94.2607 163.57 96.6232 165.933 99.5107 165.933H217.734C220.622 165.933 222.984 163.57 222.984 160.683V140.47H138.229Z" fill="#D49C8D"/>
<path d="M122.775 37.2094C126.811 37.2094 130.125 40.4906 130.125 44.5594V119.208C130.125 123.244 126.844 126.558 122.775 126.558H101.611C97.5748 126.558 94.2607 123.277 94.2607 119.208V140.405H138.197V37.2094H122.775Z" fill="#C7758D"/>
<path d="M138.229 52.2703H223.017V61.9828H138.229V52.2703Z" fill="#CAB4EF"/>
<path d="M126.122 105.952C123.923 105.952 122.119 104.18 122.119 101.948V94.1063C122.119 91.9078 123.891 90.1031 126.122 90.1031C128.32 90.1031 130.125 91.875 130.125 94.1063V101.948C130.092 104.18 128.32 105.952 126.122 105.952Z" fill="#FFDCB6"/>
<path d="M222.984 140.47V42.4594C222.984 39.5719 220.622 37.2094 217.734 37.2094H186.956C188.728 37.2094 190.172 38.9156 190.172 40.9828V102.9C190.172 108.216 185.709 112.547 180.197 112.547H138.197V140.47H222.984Z" fill="#A45775"/>
<path d="M177.375 68.6109C177.375 68.6109 193.322 58.9641 194.142 58.3078C196.111 56.7328 196.439 53.8453 194.864 51.8437C193.289 49.875 190.401 49.5469 188.4 51.1219C186.989 52.2703 184.922 52.0078 183.773 50.5969C182.625 49.1859 182.887 47.1187 184.298 45.9703C189.122 42.1312 196.143 42.9187 199.982 47.7422C203.822 52.5656 203.034 59.5875 198.211 63.4266C198.178 63.4594 198.145 63.4922 198.079 63.525L205.068 68.6109C206.545 69.6938 206.873 71.7281 205.79 73.2047C205.134 74.0906 204.15 74.55 203.132 74.55C202.476 74.55 201.787 74.3531 201.197 73.9266L192.436 66.9047L181.148 73.9266C179.672 75.0094 177.637 74.6813 176.554 73.2047C175.57 71.7281 175.898 69.6938 177.375 68.6109Z" fill="#FFE266"/>
<path d="M164.381 68.6109C164.381 68.6109 180.328 58.9641 181.148 58.3078C183.117 56.7328 183.445 53.8453 181.87 51.8437C180.295 49.875 177.408 49.5469 175.406 51.1219C173.995 52.2703 171.928 52.0078 170.779 50.5969C169.631 49.1859 169.894 47.1187 171.304 45.9703C176.128 42.1312 183.15 42.9187 186.989 47.7422C190.828 52.5656 190.04 59.5875 185.217 63.4266C185.184 63.4594 185.151 63.4922 185.086 63.525L192.075 68.6109C193.551 69.6938 193.879 71.7281 192.797 73.2047C192.14 74.0906 191.156 74.55 190.139 74.55C189.483 74.55 188.794 74.3531 188.203 73.9266L179.442 66.9047L168.154 73.9266C166.678 75.0094 164.644 74.6813 163.561 73.2047C162.576 71.7281 162.904 69.6938 164.381 68.6109Z" fill="#FFE266"/>
<path d="M150.6 76.3547L163.298 67.4625C165.792 66.1172 168.482 64.8375 171.337 64.8375H172.453C172.289 65.4609 172.19 66.1172 172.19 66.8062C172.19 70.875 175.471 74.1562 179.54 74.1562C183.609 74.1562 186.89 70.875 186.89 66.8062C186.89 66.1172 186.792 65.4281 186.628 64.8047H187.809C190.631 64.8047 193.748 66.0187 196.275 67.4953L208.382 76.2234C209.203 76.9781 209.268 78.2578 208.514 79.0781L201.59 87.3469C200.835 88.1672 199.556 88.2328 198.735 87.4781L196.8 85.7062V112.514H162.314V85.9031L160.607 87.5109C159.787 88.2656 158.507 88.2328 157.753 87.4125L150.534 79.1766C149.746 78.3891 149.812 77.1094 150.6 76.3547Z" fill="#EF8BBD"/>
<path d="M190.205 52.2703H223.017V61.9828H190.205V52.2703Z" fill="#BE87EF"/>
<path d="M194.142 58.3078C193.912 58.5047 192.305 59.4891 190.205 60.8016V68.3812L192.534 66.9375L201.295 73.9594C201.886 74.3859 202.542 74.5828 203.231 74.5828C204.248 74.5828 205.266 74.1234 205.889 73.2375C206.972 71.7609 206.644 69.7266 205.167 68.6437L198.178 63.5578C198.211 63.525 198.244 63.4922 198.309 63.4594C203.133 59.6203 203.92 52.5656 200.081 47.775C197.653 44.7234 193.912 43.2797 190.27 43.6406V50.3016C191.944 49.9078 193.781 50.4656 194.93 51.9094C196.439 53.8125 196.111 56.7328 194.142 58.3078Z" fill="#EFAA66"/>
<path d="M221.409 76.2562L209.301 67.5281C206.808 66.0516 203.658 64.8375 200.836 64.8375H199.655C199.819 65.4609 199.917 66.15 199.917 66.8391C199.917 70.9078 196.636 74.1891 192.567 74.1891C192.042 74.1891 191.517 74.1234 191.025 74.025V112.547H209.826V85.7391L211.762 87.5109C212.583 88.2656 213.862 88.2 214.617 87.3797L221.541 79.1109C222.262 78.2578 222.23 77.0109 221.409 76.2562Z" fill="#71AFC4"/>
<path d="M196.8 85.7063L198.736 87.4781C199.556 88.2328 200.836 88.1672 201.591 87.3469L208.514 79.0781C209.269 78.2578 209.203 76.9781 208.383 76.2234L196.275 67.4953C194.438 66.4453 192.305 65.4937 190.172 65.0672V102.867C190.172 108.183 185.709 112.514 180.197 112.514H162.281H196.8V85.7063Z" fill="#E068BD"/>
<path d="M147.81 68.6109C147.81 68.6109 163.757 58.9641 164.578 58.3078C166.546 56.7328 166.874 53.8453 165.299 51.8437C163.724 49.875 160.837 49.5469 158.835 51.1219C157.424 52.2703 155.357 52.0078 154.209 50.5969C153.06 49.1859 153.323 47.1187 154.734 45.9703C159.557 42.1312 166.579 42.9187 170.418 47.7422C174.257 52.5656 173.47 59.5875 168.646 63.4266C168.614 63.4594 168.581 63.4922 168.515 63.525L175.504 68.6109C176.981 69.6938 177.309 71.7281 176.226 73.2047C175.57 74.0906 174.585 74.55 173.568 74.55C172.912 74.55 172.223 74.3531 171.632 73.9266L162.871 66.9047L151.584 73.9266C150.107 75.0094 148.073 74.6813 146.99 73.2047C146.039 71.7281 146.367 69.6938 147.81 68.6109Z" fill="#FFE266"/>
<path d="M134.062 76.3547L146.761 67.4625C149.254 66.1172 151.945 64.8375 154.8 64.8375H155.915C155.751 65.4609 155.653 66.1172 155.653 66.8062C155.653 70.875 158.934 74.1562 163.003 74.1562C167.072 74.1562 170.353 70.875 170.353 66.8062C170.353 66.1172 170.254 65.4281 170.09 64.8047H171.272C174.093 64.8047 177.211 66.0187 179.737 67.4953L191.845 76.2234C192.665 76.9781 192.731 78.2578 191.976 79.0781L185.053 87.3469C184.298 88.1672 183.019 88.2328 182.198 87.4781L180.262 85.7062V112.514H145.744V85.9031L144.037 87.5109C143.217 88.2656 141.937 88.2328 141.183 87.4125L133.964 79.1766C133.209 78.3891 133.242 77.1094 134.062 76.3547Z" fill="#8BB6EF"/>
<path d="M134.03 152.381C134.03 154.58 132.258 156.384 130.026 156.384H122.184C119.986 156.384 118.181 154.613 118.181 152.381C118.181 150.183 119.953 148.378 122.184 148.378H130.026C132.225 148.411 134.03 150.183 134.03 152.381Z" fill="#FFDCB6"/>
<path d="M199.162 152.381C199.162 154.58 197.391 156.384 195.159 156.384H187.317C185.119 156.384 183.314 154.613 183.314 152.381C183.314 150.183 185.086 148.378 187.317 148.378H195.159C197.358 148.411 199.162 150.183 199.162 152.381Z" fill="#FFDCB6"/>
<path d="M192.403 140.47V153.103C192.403 154.908 190.598 156.384 188.4 156.384H98.2639C96.0654 156.384 94.2607 154.908 94.2607 153.103V160.683C94.2607 163.57 96.6232 165.933 99.5107 165.933H217.734C220.622 165.933 222.984 163.57 222.984 160.683V140.47H192.403Z" fill="#C7758D"/>
<path d="M195.159 148.411H192.403V153.103C192.403 154.908 190.598 156.384 188.4 156.384H195.159C197.358 156.384 199.162 154.613 199.162 152.381C199.162 150.183 197.358 148.411 195.159 148.411Z" fill="#EEB6A8"/>
<path d="M209.859 140.47H184.692C182.165 140.47 180.131 138.436 180.131 135.909C180.131 133.383 182.165 131.348 184.692 131.348H209.859C212.386 131.348 214.42 133.383 214.42 135.909C214.42 138.436 212.353 140.47 209.859 140.47Z" fill="#A183E2"/>
<path d="M209.859 131.348H184.692C182.165 131.348 180.131 129.314 180.131 126.788C180.131 124.261 182.165 122.227 184.692 122.227H209.859C212.386 122.227 214.42 124.261 214.42 126.788C214.42 129.281 212.353 131.348 209.859 131.348Z" fill="#FEF2A8"/>
<path d="M209.859 131.348C210.778 131.348 211.631 131.086 212.32 130.627H200.54C200.081 131.119 199.556 131.414 198.998 131.414C200.606 131.414 201.984 131.906 201.984 133.645C201.984 135.384 200.836 135.909 199.228 135.909H183.248C181.968 135.909 180.886 135.483 180.525 134.006C180.164 134.794 180.131 135.516 180.131 135.909C180.131 138.436 182.165 140.47 184.692 140.47H209.859C212.386 140.47 214.42 138.436 214.42 135.909C214.42 133.383 212.353 131.348 209.859 131.348Z" fill="#9762E2"/>
<path d="M202.017 126.788C202.017 128.658 200.836 130.955 199.425 131.348H209.859C212.386 131.348 214.42 129.314 214.42 126.788C214.42 124.261 212.386 122.227 209.859 122.227H198.998C200.573 122.194 202.017 124.688 202.017 126.788Z" fill="#EEB6A8"/>
<path d="M158.639 167.081C156.834 167.081 155.357 165.605 155.357 163.8V141.028C155.357 139.223 156.834 137.747 158.639 137.747C160.443 137.747 161.92 139.223 161.92 141.028V163.8C161.92 165.605 160.443 167.081 158.639 167.081Z" fill="#B3586B"/>
<path d="M104.203 78.4875C102.398 78.4875 100.922 77.0109 100.922 75.2063V64.8375C100.922 63.0328 102.398 61.5563 104.203 61.5563C106.008 61.5563 107.484 63.0328 107.484 64.8375V75.2063C107.484 77.0109 106.008 78.4875 104.203 78.4875Z" fill="white"/>
<path d="M104.203 57.5203C102.398 57.5203 100.922 56.0438 100.922 54.2391V51.3516C100.922 49.5469 102.398 48.0703 104.203 48.0703C106.008 48.0703 107.484 49.5469 107.484 51.3516V54.2391C107.484 56.0438 106.008 57.5203 104.203 57.5203Z" fill="white"/>
<path d="M155.161 100.734C153.356 100.734 151.88 99.2578 151.88 97.4531V90.1359C151.88 88.3313 153.356 86.8547 155.161 86.8547C156.966 86.8547 158.442 88.3313 158.442 90.1359V97.4531C158.442 99.2578 156.966 100.734 155.161 100.734Z" fill="white"/>
<path d="M164.84 106.214C163.758 106.214 162.872 105.328 162.872 104.245V100.505C162.872 99.4219 163.758 98.5359 164.84 98.5359C165.923 98.5359 166.809 99.4219 166.809 100.505V104.245C166.842 105.328 165.956 106.214 164.84 106.214Z" fill="#6280CC"/>
<path d="M170.517 95.2875C169.434 95.2875 168.548 94.4016 168.548 93.3188V89.5781C168.548 88.4953 169.434 87.6094 170.517 87.6094C171.6 87.6094 172.486 88.4953 172.486 89.5781V93.3188C172.486 94.4016 171.6 95.2875 170.517 95.2875Z" fill="#6280CC"/>
<path d="M232.172 1.73906L234.863 9.35156C234.994 9.67969 235.223 9.94219 235.486 10.0734L242.245 13.125C243.197 13.5516 243.197 15.0938 242.245 15.5203L235.486 18.5719C235.191 18.7031 234.961 18.9656 234.863 19.2937L232.172 26.8734C231.778 27.9563 230.433 27.9563 230.039 26.8734L227.348 19.2609C227.217 18.9328 226.988 18.6703 226.725 18.5391L219.966 15.4875C219.014 15.0609 219.014 13.5188 219.966 13.0922L226.725 10.0406C227.02 9.90938 227.25 9.64687 227.348 9.31875L230.039 1.70625C230.433 0.65625 231.811 0.65625 232.172 1.73906Z" fill="#B2E7F1"/>
<path d="M84.5811 13.65L86.5826 19.2937C86.6811 19.5234 86.8451 19.7203 87.042 19.8187L92.0623 22.0828C92.7842 22.4109 92.7842 23.5266 92.0623 23.8547L87.042 26.1187C86.8123 26.2172 86.6482 26.4141 86.5826 26.6437L84.5811 32.2875C84.2857 33.075 83.3014 33.075 83.0061 32.2875L81.0045 26.6437C80.9061 26.4141 80.742 26.2172 80.5451 26.1187L75.5248 23.8547C74.8029 23.5266 74.8029 22.4109 75.5248 22.0828L80.5451 19.8187C80.7748 19.7203 80.9389 19.5234 81.0045 19.2937L83.0061 13.65C83.3014 12.8625 84.3186 12.8625 84.5811 13.65Z" fill="#B2E7F1"/>
<path d="M113.423 14.1422C116.685 14.1422 119.33 11.4979 119.33 8.23594C119.33 4.97401 116.685 2.32969 113.423 2.32969C110.161 2.32969 107.517 4.97401 107.517 8.23594C107.517 11.4979 110.161 14.1422 113.423 14.1422Z" fill="#8BB6EF"/>
<path d="M202.05 22.9687C203.463 22.9687 204.609 21.8229 204.609 20.4094C204.609 18.9959 203.463 17.85 202.05 17.85C200.636 17.85 199.49 18.9959 199.49 20.4094C199.49 21.8229 200.636 22.9687 202.05 22.9687Z" fill="#8BB6EF"/>
</g>
<defs>
<clipPath id="clip0">
<rect width="168" height="168" fill="white" transform="translate(75)"/>
</clipPath>
</defs>
</svg>
