<svg width="327" height="130" viewBox="0 0 327 130" fill="none" xmlns="http://www.w3.org/2000/svg">
<rect y="7" width="327" height="100" fill="#EF8BBD"/>
<path d="M219.536 29.16C219.813 29.16 220.043 29.256 220.224 29.448C220.416 29.6293 220.512 29.8427 220.512 30.088C220.512 30.3547 220.416 30.5733 220.224 30.744C220.043 30.9147 219.813 31 219.536 31H214.176C213.899 31 213.664 30.9093 213.472 30.728C213.291 30.536 213.2 30.3013 213.2 30.024V20.776C213.2 20.4987 213.291 20.2693 213.472 20.088C213.664 19.896 213.899 19.8 214.176 19.8H219.536C219.813 19.8 220.043 19.8907 220.224 20.072C220.416 20.2427 220.512 20.4667 220.512 20.744C220.512 21.0107 220.421 21.2293 220.24 21.4C220.059 21.56 219.824 21.64 219.536 21.64H215.2V24.36H218.816C219.093 24.36 219.323 24.4507 219.504 24.632C219.696 24.8027 219.792 25.0267 219.792 25.304C219.792 25.5707 219.701 25.7893 219.52 25.96C219.339 26.12 219.104 26.2 218.816 26.2H215.2V29.16H219.536ZM228.532 29.128C228.81 29.128 229.039 29.2187 229.22 29.4C229.412 29.5707 229.508 29.7947 229.508 30.072C229.508 30.3387 229.412 30.5627 229.22 30.744C229.039 30.9147 228.81 31 228.532 31H223.332C223.055 31 222.82 30.9093 222.628 30.728C222.447 30.536 222.356 30.3013 222.356 30.024V20.776C222.356 20.4987 222.452 20.2693 222.644 20.088C222.836 19.896 223.082 19.8 223.38 19.8C223.647 19.8 223.876 19.896 224.068 20.088C224.26 20.2693 224.356 20.4987 224.356 20.776V29.128H228.532ZM237.677 29.16C237.954 29.16 238.183 29.256 238.365 29.448C238.557 29.6293 238.653 29.8427 238.653 30.088C238.653 30.3547 238.557 30.5733 238.365 30.744C238.183 30.9147 237.954 31 237.677 31H232.317C232.039 31 231.805 30.9093 231.613 30.728C231.431 30.536 231.341 30.3013 231.341 30.024V20.776C231.341 20.4987 231.431 20.2693 231.613 20.088C231.805 19.896 232.039 19.8 232.317 19.8H237.677C237.954 19.8 238.183 19.8907 238.365 20.072C238.557 20.2427 238.653 20.4667 238.653 20.744C238.653 21.0107 238.562 21.2293 238.381 21.4C238.199 21.56 237.965 21.64 237.677 21.64H233.341V24.36H236.957C237.234 24.36 237.463 24.4507 237.645 24.632C237.837 24.8027 237.933 25.0267 237.933 25.304C237.933 25.5707 237.842 25.7893 237.661 25.96C237.479 26.12 237.245 26.2 236.957 26.2H233.341V29.16H237.677ZM248.337 20.344C248.668 20.5147 248.833 20.7867 248.833 21.16C248.833 21.384 248.753 21.6027 248.593 21.816C248.422 22.04 248.204 22.152 247.937 22.152C247.756 22.152 247.574 22.104 247.393 22.008C246.87 21.7627 246.305 21.64 245.697 21.64C244.95 21.64 244.3 21.8 243.745 22.12C243.19 22.4293 242.764 22.872 242.465 23.448C242.166 24.0133 242.017 24.664 242.017 25.4C242.017 26.6587 242.353 27.6133 243.025 28.264C243.708 28.9147 244.598 29.24 245.697 29.24C246.348 29.24 246.913 29.1173 247.393 28.872C247.585 28.7867 247.756 28.744 247.905 28.744C248.182 28.744 248.417 28.8613 248.609 29.096C248.769 29.2987 248.849 29.5173 248.849 29.752C248.849 29.9227 248.806 30.0773 248.721 30.216C248.636 30.3547 248.513 30.4613 248.353 30.536C247.521 30.952 246.636 31.16 245.697 31.16C244.652 31.16 243.692 30.9413 242.817 30.504C241.942 30.056 241.244 29.4 240.721 28.536C240.198 27.672 239.937 26.6267 239.937 25.4C239.937 24.312 240.182 23.336 240.673 22.472C241.174 21.608 241.862 20.936 242.737 20.456C243.612 19.9653 244.598 19.72 245.697 19.72C246.646 19.72 247.526 19.928 248.337 20.344ZM257.888 19.8C258.176 19.8 258.411 19.8853 258.592 20.056C258.773 20.2267 258.864 20.4507 258.864 20.728C258.864 21.0053 258.773 21.2293 258.592 21.4C258.411 21.56 258.176 21.64 257.888 21.64H255.376V30.024C255.376 30.3013 255.275 30.536 255.072 30.728C254.869 30.9093 254.619 31 254.32 31C254.021 31 253.776 30.9093 253.584 30.728C253.392 30.536 253.296 30.3013 253.296 30.024V21.64H250.784C250.496 21.64 250.261 21.5547 250.08 21.384C249.899 21.2133 249.808 20.9893 249.808 20.712C249.808 20.4453 249.899 20.2267 250.08 20.056C250.272 19.8853 250.507 19.8 250.784 19.8H257.888ZM269.328 29.432C269.466 29.5173 269.573 29.6293 269.648 29.768C269.733 29.9067 269.776 30.0507 269.776 30.2C269.776 30.392 269.712 30.568 269.584 30.728C269.424 30.92 269.178 31.016 268.848 31.016C268.592 31.016 268.357 30.9573 268.144 30.84C267.376 30.4027 266.992 29.512 266.992 28.168C266.992 27.784 266.864 27.48 266.608 27.256C266.362 27.032 266.005 26.92 265.536 26.92H262.544V30.024C262.544 30.312 262.464 30.5467 262.304 30.728C262.154 30.9093 261.952 31 261.696 31C261.386 31 261.114 30.9093 260.88 30.728C260.656 30.536 260.544 30.3013 260.544 30.024V20.776C260.544 20.4987 260.634 20.2693 260.816 20.088C261.008 19.896 261.242 19.8 261.52 19.8H266.128C266.682 19.8 267.205 19.9493 267.696 20.248C268.186 20.5467 268.576 20.9573 268.864 21.48C269.162 22.0027 269.312 22.5893 269.312 23.24C269.312 23.7733 269.168 24.296 268.88 24.808C268.592 25.3093 268.218 25.7093 267.76 26.008C268.432 26.4773 268.8 27.1067 268.864 27.896C268.896 28.0667 268.912 28.232 268.912 28.392C268.954 28.7227 268.997 28.9627 269.04 29.112C269.082 29.2507 269.178 29.3573 269.328 29.432ZM266.048 25.272C266.24 25.272 266.426 25.1813 266.608 25C266.789 24.8187 266.938 24.5787 267.056 24.28C267.173 23.9707 267.232 23.64 267.232 23.288C267.232 22.9893 267.173 22.7173 267.056 22.472C266.938 22.216 266.789 22.0133 266.608 21.864C266.426 21.7147 266.24 21.64 266.048 21.64H262.544V25.272H266.048ZM281.676 25.4C281.676 26.456 281.441 27.4267 280.972 28.312C280.503 29.1867 279.852 29.88 279.02 30.392C278.199 30.904 277.271 31.16 276.236 31.16C275.201 31.16 274.268 30.904 273.436 30.392C272.615 29.88 271.969 29.1867 271.5 28.312C271.041 27.4267 270.812 26.456 270.812 25.4C270.812 24.344 271.041 23.3787 271.5 22.504C271.969 21.6187 272.615 20.92 273.436 20.408C274.268 19.896 275.201 19.64 276.236 19.64C277.271 19.64 278.199 19.896 279.02 20.408C279.852 20.92 280.503 21.6187 280.972 22.504C281.441 23.3787 281.676 24.344 281.676 25.4ZM279.596 25.4C279.596 24.6853 279.452 24.04 279.164 23.464C278.876 22.8773 278.476 22.4133 277.964 22.072C277.452 21.7307 276.876 21.56 276.236 21.56C275.585 21.56 275.004 21.7307 274.492 22.072C273.991 22.4027 273.596 22.8613 273.308 23.448C273.031 24.0347 272.892 24.6853 272.892 25.4C272.892 26.1147 273.031 26.7653 273.308 27.352C273.596 27.9387 273.991 28.4027 274.492 28.744C275.004 29.0747 275.585 29.24 276.236 29.24C276.876 29.24 277.452 29.0693 277.964 28.728C278.476 28.3867 278.876 27.928 279.164 27.352C279.452 26.7653 279.596 26.1147 279.596 25.4ZM292.009 19.8C292.265 19.8 292.473 19.8853 292.633 20.056C292.793 20.2267 292.873 20.44 292.873 20.696V30.024C292.873 30.3013 292.777 30.536 292.585 30.728C292.403 30.9093 292.174 31 291.897 31C291.747 31 291.598 30.9787 291.449 30.936C291.31 30.8827 291.209 30.8133 291.145 30.728L285.273 23.272V30.104C285.273 30.36 285.187 30.5733 285.017 30.744C284.857 30.9147 284.643 31 284.377 31C284.121 31 283.913 30.9147 283.753 30.744C283.593 30.5733 283.513 30.36 283.513 30.104V20.776C283.513 20.4987 283.603 20.2693 283.785 20.088C283.977 19.896 284.211 19.8 284.489 19.8C284.649 19.8 284.803 19.832 284.953 19.896C285.113 19.96 285.23 20.0453 285.305 20.152L291.128 27.576V20.696C291.128 20.44 291.209 20.2267 291.369 20.056C291.539 19.8853 291.753 19.8 292.009 19.8ZM297.278 30.024C297.278 30.3013 297.177 30.536 296.974 30.728C296.771 30.9093 296.537 31 296.27 31C295.982 31 295.742 30.9093 295.55 30.728C295.369 30.536 295.278 30.3013 295.278 30.024V20.776C295.278 20.4987 295.374 20.2693 295.566 20.088C295.758 19.896 296.003 19.8 296.302 19.8C296.569 19.8 296.798 19.896 296.99 20.088C297.182 20.2693 297.278 20.4987 297.278 20.776V30.024ZM307.524 20.344C307.855 20.5147 308.02 20.7867 308.02 21.16C308.02 21.384 307.94 21.6027 307.78 21.816C307.61 22.04 307.391 22.152 307.124 22.152C306.943 22.152 306.762 22.104 306.58 22.008C306.058 21.7627 305.492 21.64 304.884 21.64C304.138 21.64 303.487 21.8 302.932 22.12C302.378 22.4293 301.951 22.872 301.652 23.448C301.354 24.0133 301.204 24.664 301.204 25.4C301.204 26.6587 301.54 27.6133 302.212 28.264C302.895 28.9147 303.786 29.24 304.884 29.24C305.535 29.24 306.1 29.1173 306.58 28.872C306.772 28.7867 306.943 28.744 307.092 28.744C307.37 28.744 307.604 28.8613 307.796 29.096C307.956 29.2987 308.036 29.5173 308.036 29.752C308.036 29.9227 307.994 30.0773 307.908 30.216C307.823 30.3547 307.7 30.4613 307.54 30.536C306.708 30.952 305.823 31.16 304.884 31.16C303.839 31.16 302.879 30.9413 302.004 30.504C301.13 30.056 300.431 29.4 299.908 28.536C299.386 27.672 299.124 26.6267 299.124 25.4C299.124 24.312 299.37 23.336 299.86 22.472C300.362 21.608 301.05 20.936 301.924 20.456C302.799 19.9653 303.786 19.72 304.884 19.72C305.834 19.72 306.714 19.928 307.524 20.344ZM313.316 31.16C312.548 31.16 311.865 31.064 311.268 30.872C310.67 30.68 310.11 30.3547 309.588 29.896C309.3 29.64 309.156 29.3573 309.156 29.048C309.156 28.8027 309.246 28.5893 309.428 28.408C309.609 28.216 309.828 28.12 310.084 28.12C310.286 28.12 310.468 28.184 310.628 28.312C311.054 28.664 311.47 28.92 311.876 29.08C312.281 29.24 312.761 29.32 313.316 29.32C313.913 29.32 314.425 29.1867 314.852 28.92C315.289 28.6533 315.508 28.3227 315.508 27.928C315.508 27.448 315.294 27.0747 314.868 26.808C314.441 26.5307 313.764 26.3227 312.836 26.184C310.5 25.8427 309.332 24.7547 309.332 22.92C309.332 22.248 309.508 21.6667 309.86 21.176C310.212 20.6747 310.692 20.296 311.3 20.04C311.908 19.7733 312.585 19.64 313.332 19.64C314.004 19.64 314.633 19.7413 315.22 19.944C315.817 20.1467 316.313 20.4133 316.708 20.744C317.017 20.9893 317.172 21.272 317.172 21.592C317.172 21.8373 317.081 22.056 316.9 22.248C316.718 22.4293 316.505 22.52 316.26 22.52C316.1 22.52 315.956 22.472 315.828 22.376C315.55 22.152 315.161 21.9493 314.66 21.768C314.169 21.576 313.726 21.48 313.332 21.48C312.66 21.48 312.137 21.608 311.764 21.864C311.401 22.1093 311.22 22.4347 311.22 22.84C311.22 23.2987 311.406 23.6453 311.78 23.88C312.164 24.1147 312.761 24.3067 313.572 24.456C314.489 24.616 315.22 24.824 315.764 25.08C316.318 25.3253 316.734 25.6667 317.012 26.104C317.289 26.5307 317.428 27.1013 317.428 27.816C317.428 28.488 317.236 29.08 316.852 29.592C316.478 30.0933 315.977 30.4827 315.348 30.76C314.718 31.0267 314.041 31.16 313.316 31.16Z" fill="white"/>
<path d="M81.1906 126H66.6209C64.58 126 62.9253 124.346 62.9253 122.304V114.025H84.886V122.304C84.886 124.346 83.2315 126 81.1906 126Z" fill="#CAB4EF"/>
<path d="M125.456 36.9685H98.0894V31.3248C98.0894 28.8669 100.082 26.8742 102.54 26.8742H121.005C123.463 26.8742 125.456 28.8669 125.456 31.3248V36.9685H125.456Z" fill="#CAB4EF"/>
<path d="M125.456 117.115H22.3564C16.6369 117.115 12.0005 112.479 12.0005 106.759V45.885C12.0005 40.1655 16.6369 35.5291 22.3564 35.5291H125.456C131.175 35.5291 135.812 40.1655 135.812 45.885V106.759C135.812 112.479 131.175 117.115 125.456 117.115Z" fill="#FEF2A8"/>
<path d="M81.0797 109.042C94.0325 109.042 104.533 98.5419 104.533 85.589C104.533 72.6361 94.0325 62.1358 81.0797 62.1358C68.1268 62.1358 57.6265 72.6361 57.6265 85.589C57.6265 98.5419 68.1268 109.042 81.0797 109.042Z" fill="#CAB4EF"/>
<path d="M81.0796 100.974C89.5764 100.974 96.4644 94.0858 96.4644 85.589C96.4644 77.0922 89.5764 70.2042 81.0796 70.2042C72.5828 70.2042 65.6948 77.0922 65.6948 85.589C65.6948 94.0858 72.5828 100.974 81.0796 100.974Z" fill="#B2E7F1"/>
<path d="M72.615 89.0493C72.615 82.4636 77.9537 77.1249 84.5395 77.1249C90.5742 77.1249 95.5586 81.6087 96.351 87.4258C96.4228 86.8232 96.4639 86.2111 96.4639 85.589C96.4639 77.0924 89.576 70.2042 81.0791 70.2042C72.5825 70.2042 65.6943 77.0921 65.6943 85.589C65.6943 94.0856 72.5823 100.974 81.0791 100.974C81.701 100.974 82.3133 100.933 82.916 100.861C77.0988 100.068 72.615 95.0838 72.615 89.0493Z" fill="#A7ADF1"/>
<path d="M86.8579 54.766H75.3011C73.8176 54.766 72.6152 53.5636 72.6152 52.0801V47.2023C72.6152 45.7189 73.8176 44.5164 75.3011 44.5164H86.8579C88.3414 44.5164 89.5438 45.7189 89.5438 47.2023V52.0801C89.5438 53.5636 88.3414 54.766 86.8579 54.766Z" fill="#B2E7F1"/>
<path d="M121.99 62.5416H109.297C107.363 62.5416 105.795 60.9737 105.795 59.0399V50.4923C105.795 48.5585 107.363 46.9907 109.297 46.9907H121.99C123.924 46.9907 125.492 48.5585 125.492 50.4923V59.0399C125.492 60.9737 123.924 62.5416 121.99 62.5416Z" fill="#FFE266"/>
<path d="M31.9179 67.2794C35.9002 65.6288 37.7904 61.0625 36.1398 57.0803C34.4892 53.0982 29.9228 51.2081 25.9405 52.8588C21.9583 54.5094 20.0681 59.0757 21.7187 63.0579C23.3693 67.0401 27.9357 68.9301 31.9179 67.2794Z" fill="#FFE266"/>
<path d="M125.456 35.5291H103.009C107.597 35.5291 111.316 39.2483 111.316 43.836V92.6666C111.316 97.2546 107.597 100.974 103.009 100.974H20.3071C15.7192 100.974 12 97.2543 12 92.6666V106.759C12 112.479 16.6364 117.115 22.3559 117.115H125.455C131.175 117.115 135.811 112.479 135.811 106.759V45.885C135.811 40.1655 131.175 35.5291 125.456 35.5291Z" fill="#EEB6A8"/>
<path d="M98.7817 100.974H63.3779C67.6779 105.917 74.0136 109.042 81.0797 109.042C88.1458 109.042 94.4817 105.917 98.7817 100.974Z" fill="#BE87EF"/>
<path d="M121.991 46.9904H111.316V62.5416H121.991C123.925 62.5416 125.492 60.974 125.492 59.0399V50.4923C125.492 48.5583 123.925 46.9904 121.991 46.9904Z" fill="#EFAA66"/>
<path d="M24.5052 91.4583C23.104 91.4583 21.9683 90.3224 21.9683 88.9214V77.9178C21.9683 76.5168 23.104 75.3808 24.5052 75.3808C25.9063 75.3808 27.0422 76.5168 27.0422 77.9178V88.9214C27.0422 90.3226 25.9065 91.4583 24.5052 91.4583Z" fill="white"/>
<path d="M123.698 56.2603H107.013C106.172 56.2603 105.491 55.5789 105.491 54.7382C105.491 53.8975 106.172 53.2161 107.013 53.2161H123.698C124.539 53.2161 125.221 53.8975 125.221 54.7382C125.221 55.5789 124.539 56.2603 123.698 56.2603Z" fill="#D0844B"/>
<path d="M112.987 84.4063C112.147 84.4063 111.465 83.7248 111.465 82.8842V79.0402C111.465 78.1995 112.147 77.5181 112.987 77.5181C113.828 77.5181 114.51 78.1998 114.51 79.0402V82.8842C114.51 83.7246 113.828 84.4063 112.987 84.4063Z" fill="#D08372"/>
<path d="M120.405 76.9405C119.565 76.9405 118.883 76.2591 118.883 75.4184V71.5745C118.883 70.7338 119.565 70.0524 120.405 70.0524C121.246 70.0524 121.927 70.7341 121.927 71.5745V75.4184C121.927 76.2589 121.246 76.9405 120.405 76.9405Z" fill="#D08372"/>
<path d="M124.963 105.401C124.122 105.401 123.441 104.719 123.441 103.878V100.034C123.441 99.1936 124.122 98.5121 124.963 98.5121C125.804 98.5121 126.485 99.1938 126.485 100.034V103.878C126.485 104.719 125.803 105.401 124.963 105.401Z" fill="#D08372"/>
<path d="M42.6429 118.637C42.5934 118.637 42.5435 118.635 42.4933 118.63C41.6566 118.548 41.0445 117.804 41.126 116.967C43.8835 88.7051 43.8839 61.3599 41.1274 35.6918C41.0379 34.8558 41.6425 34.1055 42.4785 34.0159C43.316 33.9258 44.0646 34.531 44.1544 35.3669C46.9331 61.241 46.9335 88.7951 44.1559 117.263C44.0793 118.049 43.4171 118.637 42.6429 118.637Z" fill="#D08372"/>
<path d="M107.014 118.827C106.874 118.827 106.731 118.808 106.59 118.767C105.782 118.534 105.317 117.689 105.551 116.882C109.139 104.472 120.664 83.2745 135.053 75.0025C135.782 74.5832 136.712 74.8345 137.131 75.5634C137.55 76.2921 137.299 77.2226 136.57 77.6414C123.067 85.4049 111.822 106.151 108.475 117.728C108.282 118.394 107.674 118.827 107.014 118.827Z" fill="#D08372"/>
<path d="M45.142 2.30966L43.0581 8.16915C42.969 8.42017 42.7923 8.61877 42.5693 8.71942L37.3632 11.0649C36.6276 11.3964 36.6276 12.5683 37.3632 12.8996L42.5693 15.2451C42.7923 15.3455 42.969 15.5443 43.0581 15.7951L45.142 21.6548C45.4363 22.4827 46.4775 22.4827 46.7719 21.6548L48.8558 15.7951C48.9451 15.5443 49.1216 15.3455 49.3445 15.2451L54.5506 12.8996C55.2862 12.5681 55.2862 11.3964 54.5506 11.0649L49.3445 8.71942C49.1216 8.61901 48.9451 8.42017 48.8558 8.16915L46.7719 2.30966C46.4775 1.4818 45.4363 1.4818 45.142 2.30966Z" fill="#FEF2A8"/>
<path d="M104.948 0.460503L103.402 4.80701C103.336 4.99306 103.205 5.14047 103.04 5.21503L99.1782 6.95492C98.6326 7.20076 98.6326 8.06997 99.1782 8.31582L103.04 10.0557C103.205 10.1303 103.336 10.2777 103.402 10.4637L104.948 14.8102C105.166 15.4242 105.939 15.4242 106.157 14.8102L107.703 10.4637C107.769 10.2777 107.9 10.1303 108.065 10.0557L111.927 8.31582C112.473 8.06997 112.473 7.20076 111.927 6.95492L108.065 5.21503C107.9 5.14047 107.769 4.99306 107.703 4.80701L106.157 0.460503C105.939 -0.153501 105.166 -0.153501 104.948 0.460503Z" fill="#FEF2A8"/>
<path d="M78.6523 23.52C81.1327 23.1179 82.8175 20.7812 82.4154 18.3009C82.0133 15.8205 79.6766 14.1357 77.1962 14.5378C74.7158 14.9399 73.031 17.2766 73.4331 19.757C73.8352 22.2373 76.1719 23.9221 78.6523 23.52Z" fill="#FFE266"/>
<path d="M22.5424 19.4757C23.6265 19.4757 24.5053 18.5969 24.5053 17.5128C24.5053 16.4288 23.6265 15.55 22.5424 15.55C21.4584 15.55 20.5796 16.4288 20.5796 17.5128C20.5796 18.5969 21.4584 19.4757 22.5424 19.4757Z" fill="#FFE266"/>
<path d="M196.058 122.529H116.942V72.3629C116.942 68.768 119.857 65.8537 123.452 65.8537H189.549C193.144 65.8537 196.058 68.768 196.058 72.3629V122.529Z" fill="#8BB6EF"/>
<path d="M189.882 119.551H123.117V74.421C123.117 73.406 123.94 72.5833 124.955 72.5833H188.044C189.059 72.5833 189.882 73.406 189.882 74.421V119.551Z" fill="#B2E7F1"/>
<path d="M189.549 65.8535H177.552C180.393 65.8535 182.697 68.157 182.697 70.9984V103.618C182.697 106.289 180.531 108.455 177.86 108.455H116.942V122.529H196.058V72.3629C196.058 68.7678 193.144 65.8535 189.549 65.8535Z" fill="#8388EF"/>
<path d="M189.882 74.421C189.882 73.406 189.059 72.5833 188.044 72.5833H182.696V103.618C182.696 106.289 180.531 108.455 177.86 108.455H123.117V119.551H189.882V74.421Z" fill="#A7ADF1"/>
<path d="M189.978 130H123.022C116.663 130 111.508 124.845 111.508 118.487C111.508 117.43 112.365 116.573 113.422 116.573H199.577C200.634 116.573 201.491 117.43 201.491 118.487C201.491 124.845 196.337 130 189.978 130Z" fill="#8BB6EF"/>
<path d="M169.055 122.529H143.945C140.655 122.529 137.988 119.863 137.988 116.573H175.012C175.012 119.862 172.345 122.529 169.055 122.529Z" fill="#B2E7F1"/>
<path d="M180.375 107.486H151.923C151.006 107.486 150.263 106.742 150.263 105.825V82.5575C150.263 81.6404 151.006 80.897 151.923 80.897H180.375C181.292 80.897 182.036 81.6404 182.036 82.5575V105.825C182.035 106.742 181.292 107.486 180.375 107.486Z" fill="#E7EFFA"/>
<path d="M182.035 86.0843V82.5575C182.035 81.6404 181.292 80.897 180.375 80.897H151.923C151.006 80.897 150.263 81.6404 150.263 82.5575V86.0843H182.035Z" fill="#FFE266"/>
<path d="M134.921 87.0366H131.552C130.965 87.0366 130.468 86.6047 130.385 86.0235L129.635 80.7507C129.534 80.0406 130.085 79.4056 130.802 79.4056H135.609C136.32 79.4056 136.87 80.0314 136.778 80.7372L136.09 86.01C136.014 86.5973 135.514 87.0366 134.921 87.0366Z" fill="#E7EFFA"/>
<path d="M128.674 103.986C127.662 103.986 126.841 103.165 126.841 102.152V99.3122C126.841 98.2997 127.662 97.4789 128.674 97.4789C129.687 97.4789 130.507 98.2997 130.507 99.3122V102.152C130.507 103.165 129.687 103.986 128.674 103.986Z" fill="white"/>
<path d="M128.674 95.6411C127.662 95.6411 126.841 94.8203 126.841 93.8078V93.2372C126.841 92.2247 127.662 91.4039 128.674 91.4039C129.687 91.4039 130.507 92.2247 130.507 93.2372V93.8078C130.507 94.8203 129.687 95.6411 128.674 95.6411Z" fill="white"/>
<path d="M176.12 103.003C175.512 103.003 175.02 102.51 175.02 101.903V99.5619C175.02 98.9544 175.512 98.4619 176.12 98.4619C176.727 98.4619 177.22 98.9544 177.22 99.5619V101.903C177.219 102.51 176.727 103.003 176.12 103.003Z" fill="#AD99C9"/>
<path d="M170.685 99.1586C170.077 99.1586 169.585 98.6661 169.585 98.0587V95.7179C169.585 95.1104 170.077 94.6179 170.685 94.6179C171.292 94.6179 171.785 95.1104 171.785 95.7179V98.0587C171.785 98.6661 171.292 99.1586 170.685 99.1586Z" fill="#AD99C9"/>
<path d="M121.389 52.3969C121.389 54.2747 119.867 55.797 117.989 55.797C116.111 55.797 114.589 54.2747 114.589 52.3969C114.589 50.519 116.112 48.9969 117.989 48.9969C119.867 48.9969 121.389 50.5192 121.389 52.3969Z" fill="#8BB6EF"/>
<path d="M173.278 46.1453C174.073 46.1453 174.718 45.5006 174.718 44.7055C174.718 43.9103 174.073 43.2656 173.278 43.2656C172.483 43.2656 171.838 43.9103 171.838 44.7055C171.838 45.5006 172.483 46.1453 173.278 46.1453Z" fill="#8BB6EF"/>
<path d="M133.657 39.3441L134.812 42.592C134.861 42.731 134.959 42.8412 135.083 42.897L137.969 44.1971C138.376 44.3807 138.376 45.0304 137.969 45.214L135.083 46.5141C134.959 46.5697 134.861 46.6799 134.812 46.8189L133.657 50.0668C133.494 50.5257 132.917 50.5257 132.753 50.0668L131.598 46.8189C131.549 46.6797 131.451 46.5697 131.328 46.5141L128.442 45.214C128.034 45.0304 128.034 44.3807 128.442 44.1971L131.328 42.897C131.451 42.8414 131.549 42.7312 131.598 42.592L132.753 39.3441C132.917 38.8854 133.494 38.8854 133.657 39.3441Z" fill="#B2E7F1"/>
<path d="M187.616 43.1833L189.203 47.5618C189.271 47.7493 189.405 47.8979 189.575 47.9729L193.54 49.7256C194.1 49.9732 194.1 50.8489 193.54 51.0964L189.575 52.8491C189.405 52.9241 189.271 53.0727 189.203 53.2602L187.616 57.6387C187.391 58.2572 186.598 58.2572 186.374 57.6387L184.787 53.2602C184.719 53.0727 184.584 52.9241 184.415 52.8491L180.449 51.0964C179.889 50.8489 179.889 49.9732 180.449 49.7256L184.415 47.9729C184.584 47.8979 184.719 47.7493 184.787 47.5618L186.374 43.1833C186.598 42.5647 187.391 42.5647 187.616 43.1833Z" fill="#B2E7F1"/>
</svg>
