<svg width="318" height="249" viewBox="0 0 318 249" fill="none" xmlns="http://www.w3.org/2000/svg">
<path fill-rule="evenodd" clip-rule="evenodd" d="M257 249H0V0H185H257H318V101H257V249Z" fill="#A183E2"/>
<g clip-path="url(#clip0)">
<path d="M150.23 83.7824H73.3433V66.144C73.3433 62.0347 76.6744 58.7036 80.7837 58.7036H142.79C146.899 58.7036 150.23 62.0347 150.23 66.144V83.7824H150.23Z" fill="#E7EFFA"/>
<path d="M143.012 58.7036H124.057C128.05 58.7036 131.288 62.1524 131.288 66.4068V83.7824H150.242V66.4068C150.242 62.1524 147.005 58.7036 143.012 58.7036Z" fill="#C9AEEB"/>
<path d="M150.242 76.1761L133.224 104.989L125.44 200.881H158.929C163.186 200.881 166.638 197.43 166.638 193.172V104.989L150.242 76.1761Z" fill="#A7ADF1"/>
<path d="M143.408 82.6214L131.287 76.1761H73.3434L53.2476 104.989V193.172C53.2476 197.43 56.6992 200.882 60.9572 200.882L124.057 198.916C128.314 198.916 131.156 196.729 131.156 192.471L131.586 105.446L143.408 82.6214Z" fill="#E7EFFA"/>
<path d="M133.15 165.422V129.825C132.523 130.551 119.258 145.78 109.293 145.78C103.464 145.78 98.2027 142.616 92.0739 139.9V145.375C92.0739 147.587 90.2813 149.379 88.0698 149.379C85.8582 149.379 84.0656 147.587 84.0656 145.375V137.053C81.9131 136.52 79.6275 136.162 77.1661 136.086V150.303C77.1661 152.515 75.3735 154.308 73.1619 154.308C70.9504 154.308 69.1578 152.515 69.1578 150.303V137.196C60.9438 139.88 55.1267 147.036 53.248 149.603V189.141C55.6083 185.909 64.2098 174.798 76.4267 174.798C90.868 174.798 99.0847 182.268 109.293 182.268C119.258 182.268 132.523 166.189 133.15 165.422Z" fill="#96B4EB"/>
<path d="M131.287 76.1761L117.78 104.804V176.66C117.78 180.317 114.992 183.282 111.554 183.282H59.4745C56.0358 183.282 53.248 180.318 53.248 176.66V193.172C53.248 197.43 56.6996 200.882 60.9577 200.882H125.44C129.698 200.882 133.15 197.43 133.15 193.172V104.989L150.242 76.1761H131.287Z" fill="#C9AEEB"/>
<path d="M53.2476 189.635C53.7593 188.825 55.6364 185.964 58.3971 183.183C56.0633 182.754 53.4486 180.761 53.2476 176.66V189.635Z" fill="#8388EF"/>
<path d="M133.15 165.422V129.825C132.692 130.355 125.505 138.607 117.78 143.03V176.66C117.78 177.796 117.51 178.865 117.036 179.799C125.038 175.259 132.678 165.999 133.15 165.422Z" fill="#8388EF"/>
<path d="M165.716 107.29H54.238C53.2198 107.29 52.394 106.464 52.394 105.446C52.394 104.427 53.2198 103.602 54.238 103.602H165.716C166.734 103.602 167.56 104.427 167.56 105.446C167.56 106.464 166.734 107.29 165.716 107.29Z" fill="#AD99C9"/>
<path d="M113.084 168.782C112.066 168.782 111.24 167.957 111.24 166.938V163.018C111.24 162 112.066 161.175 113.084 161.175C114.103 161.175 114.928 162 114.928 163.018V166.938C114.928 167.957 114.103 168.782 113.084 168.782Z" fill="#6280CC"/>
<path d="M120.311 160.421C119.293 160.421 118.467 159.595 118.467 158.577V154.657C118.467 153.638 119.293 152.813 120.311 152.813C121.33 152.813 122.155 153.638 122.155 154.657V158.577C122.155 159.595 121.33 160.421 120.311 160.421Z" fill="#6280CC"/>
<path d="M104.489 91.3593C104.489 96.2778 97.6433 100.265 89.1983 100.265C80.7532 100.265 73.9072 96.2778 73.9072 91.3593L73.9088 82.6521L104.505 82.7212L104.489 91.3593Z" fill="#C1E5EF"/>
<path d="M104.489 91.3593C104.489 96.2778 97.6433 100.265 89.1983 100.265C80.7532 100.265 73.9072 96.2778 73.9072 91.3593L73.9088 82.6521L104.505 82.7212L104.489 91.3593Z" fill="#A7ADF1"/>
<path d="M89.1983 91.5271C97.6433 91.5271 104.489 87.5398 104.489 82.6213C104.489 77.7028 97.6433 73.7156 89.1983 73.7156C80.7533 73.7156 73.9072 77.7028 73.9072 82.6213C73.9072 87.5398 80.7533 91.5271 89.1983 91.5271Z" fill="#C1E5EF"/>
<path d="M71.9563 129.606C71.0264 129.606 70.204 129.015 69.9077 128.133C69.9006 128.112 69.8936 128.09 69.8874 128.068L67.6992 120.651L66.3762 127.981C66.1952 128.983 65.2369 129.648 64.2341 129.468C63.2316 129.287 62.5659 128.328 62.747 127.326L65.2145 113.653C65.4044 112.668 66.2179 111.949 67.1968 111.884C68.182 111.818 69.077 112.423 69.3892 113.352C69.3963 113.374 69.4034 113.396 69.4098 113.418L71.9311 121.964L74.3618 113.436C74.3682 113.415 74.3747 113.393 74.3815 113.371C74.6848 112.439 75.5776 111.824 76.5592 111.882C77.5383 111.938 78.3583 112.647 78.5543 113.608L81.1728 127.307C81.3639 128.307 80.7078 129.273 79.7074 129.464C78.7108 129.654 77.7418 129 77.55 127.999L76.1434 120.639L74.0311 128.049C74.025 128.071 74.0182 128.092 74.0114 128.114C73.7225 129.003 72.9008 129.602 71.9662 129.607C71.9634 129.606 71.9597 129.606 71.9563 129.606Z" fill="#AD99C9"/>
<path d="M100.006 129.608C98.4486 129.608 98.3518 129.591 98.2197 129.568C97.3342 129.417 96.687 128.649 96.687 127.751V113.722C96.687 112.704 97.5125 111.878 98.531 111.878C99.5492 111.878 100.375 112.704 100.375 113.722V125.918C101.329 125.917 102.502 125.912 103.437 125.907H103.448C104.461 125.907 105.285 126.726 105.291 127.74C105.297 128.759 104.476 129.589 103.457 129.595C101.853 129.604 100.759 129.608 100.006 129.608Z" fill="#AD99C9"/>
<path d="M113.031 129.607C112.013 129.607 111.187 128.781 111.187 127.763V113.723C111.187 112.704 112.013 111.879 113.031 111.879C114.049 111.879 114.875 112.704 114.875 113.723V127.763C114.875 128.781 114.049 129.607 113.031 129.607Z" fill="#AD99C9"/>
<path d="M121.082 129.607C120.621 129.607 120.16 129.435 119.802 129.09L112.2 121.756C111.835 121.403 111.631 120.915 111.637 120.407C111.643 119.898 111.859 119.415 112.233 119.071L119.336 112.542C120.086 111.852 121.252 111.902 121.941 112.652C122.631 113.401 122.581 114.568 121.832 115.257L116.17 120.461L122.362 126.436C123.095 127.143 123.116 128.31 122.409 129.043C122.047 129.418 121.565 129.607 121.082 129.607Z" fill="#AD99C9"/>
<path d="M88.946 129.607C87.9278 129.607 87.1021 128.781 87.1021 127.763V113.723C87.1021 112.704 87.9278 111.879 88.946 111.879C89.9645 111.879 90.79 112.704 90.79 113.723V127.763C90.79 128.781 89.9645 129.607 88.946 129.607Z" fill="#AD99C9"/>
<path d="M176.552 55.7548L179.166 63.1042C179.277 63.4189 179.499 63.6682 179.779 63.7942L186.308 66.7359C187.231 67.1514 187.231 68.6214 186.308 69.0369L179.779 71.9786C179.499 72.1046 179.278 72.3539 179.166 72.6686L176.552 80.018C176.182 81.0565 174.877 81.0565 174.507 80.018L171.894 72.6686C171.782 72.3539 171.56 72.1046 171.281 71.9786L164.751 69.0369C163.828 68.6214 163.828 67.1514 164.751 66.7359L171.281 63.7942C171.56 63.6682 171.782 63.4189 171.894 63.1042L174.507 55.7548C174.877 54.7167 176.182 54.7167 176.552 55.7548Z" fill="#C1E5EF"/>
<path d="M58.3522 59.0118C59.5594 56.0994 58.1769 52.7598 55.2644 51.5525C52.3518 50.3452 49.0121 51.7275 47.8049 54.6399C46.5978 57.5523 47.9802 60.8919 50.8928 62.0992C53.8053 63.3064 57.145 61.9241 58.3522 59.0118Z" fill="#96B4EB"/>
<path d="M185.763 96.1016C185.763 97.4613 184.661 98.5636 183.301 98.5636C181.941 98.5636 180.839 97.4613 180.839 96.1016C180.839 94.742 181.941 93.6396 183.301 93.6396C184.66 93.6396 185.763 94.742 185.763 96.1016Z" fill="#96B4EB"/>
<path d="M40.2669 75.3079L42.2058 80.7596C42.2888 80.9928 42.4532 81.1779 42.6607 81.2713L47.5042 83.4536C48.1883 83.7619 48.1883 84.8523 47.5042 85.1605L42.6607 87.3429C42.4532 87.4363 42.2888 87.6213 42.2058 87.8545L40.2669 93.3062C39.9931 94.0764 39.0244 94.0764 38.7506 93.3062L36.8116 87.8545C36.7287 87.621 36.5642 87.4363 36.3568 87.3429L31.5133 85.1605C30.8289 84.8523 30.8289 83.7619 31.5133 83.4536L36.3568 81.2713C36.5642 81.1779 36.7284 80.9928 36.8116 80.7596L38.7506 75.3079C39.0244 74.5377 39.9931 74.5377 40.2669 75.3079Z" fill="#C1E5EF"/>
</g>
<path d="M218.8 19.96V24.184H223.984C224.4 24.184 224.744 24.32 225.016 24.592C225.304 24.848 225.448 25.184 225.448 25.6C225.448 25.952 225.304 26.264 225.016 26.536C224.744 26.808 224.4 26.944 223.984 26.944H218.8V32.536C218.8 32.952 218.648 33.304 218.344 33.592C218.056 33.864 217.712 34 217.312 34C216.864 34 216.496 33.864 216.208 33.592C215.936 33.32 215.8 32.968 215.8 32.536V18.664C215.8 18.248 215.936 17.904 216.208 17.632C216.496 17.344 216.848 17.2 217.264 17.2H225.064C225.48 17.2 225.824 17.336 226.096 17.608C226.384 17.864 226.528 18.2 226.528 18.616C226.528 18.968 226.384 19.28 226.096 19.552C225.824 19.824 225.48 19.96 225.064 19.96H218.8ZM242.453 31.648C242.661 31.776 242.821 31.944 242.933 32.152C243.061 32.36 243.125 32.576 243.125 32.8C243.125 33.088 243.029 33.352 242.837 33.592C242.597 33.88 242.229 34.024 241.733 34.024C241.349 34.024 240.997 33.936 240.677 33.76C239.525 33.104 238.949 31.768 238.949 29.752C238.949 29.176 238.757 28.72 238.373 28.384C238.005 28.048 237.469 27.88 236.765 27.88H232.277V32.536C232.277 32.968 232.157 33.32 231.917 33.592C231.693 33.864 231.389 34 231.005 34C230.541 34 230.133 33.864 229.781 33.592C229.445 33.304 229.277 32.952 229.277 32.536V18.664C229.277 18.248 229.413 17.904 229.685 17.632C229.973 17.344 230.325 17.2 230.741 17.2H237.653C238.485 17.2 239.269 17.424 240.005 17.872C240.741 18.32 241.325 18.936 241.757 19.72C242.205 20.504 242.429 21.384 242.429 22.36C242.429 23.16 242.213 23.944 241.781 24.712C241.349 25.464 240.789 26.064 240.101 26.512C241.109 27.216 241.661 28.16 241.757 29.344C241.805 29.6 241.829 29.848 241.829 30.088C241.893 30.584 241.957 30.944 242.021 31.168C242.085 31.376 242.229 31.536 242.453 31.648ZM237.533 25.408C237.821 25.408 238.101 25.272 238.373 25C238.645 24.728 238.869 24.368 239.045 23.92C239.221 23.456 239.309 22.96 239.309 22.432C239.309 21.984 239.221 21.576 239.045 21.208C238.869 20.824 238.645 20.52 238.373 20.296C238.101 20.072 237.821 19.96 237.533 19.96H232.277V25.408H237.533ZM260.975 25.6C260.975 27.184 260.623 28.64 259.919 29.968C259.215 31.28 258.239 32.32 256.991 33.088C255.759 33.856 254.367 34.24 252.815 34.24C251.263 34.24 249.863 33.856 248.615 33.088C247.383 32.32 246.415 31.28 245.711 29.968C245.023 28.64 244.679 27.184 244.679 25.6C244.679 24.016 245.023 22.568 245.711 21.256C246.415 19.928 247.383 18.88 248.615 18.112C249.863 17.344 251.263 16.96 252.815 16.96C254.367 16.96 255.759 17.344 256.991 18.112C258.239 18.88 259.215 19.928 259.919 21.256C260.623 22.568 260.975 24.016 260.975 25.6ZM257.855 25.6C257.855 24.528 257.639 23.56 257.207 22.696C256.775 21.816 256.175 21.12 255.407 20.608C254.639 20.096 253.775 19.84 252.815 19.84C251.839 19.84 250.967 20.096 250.199 20.608C249.447 21.104 248.855 21.792 248.423 22.672C248.007 23.552 247.799 24.528 247.799 25.6C247.799 26.672 248.007 27.648 248.423 28.528C248.855 29.408 249.447 30.104 250.199 30.616C250.967 31.112 251.839 31.36 252.815 31.36C253.775 31.36 254.639 31.104 255.407 30.592C256.175 30.08 256.775 29.392 257.207 28.528C257.639 27.648 257.855 26.672 257.855 25.6ZM276.29 18.616C276.29 18.92 276.178 19.224 275.954 19.528L266.834 31.24H274.49C274.922 31.24 275.274 31.368 275.546 31.624C275.818 31.864 275.954 32.192 275.954 32.608C275.954 33.008 275.81 33.344 275.522 33.616C275.25 33.872 274.906 34 274.49 34H263.954C263.538 34 263.178 33.856 262.874 33.568C262.57 33.28 262.418 32.952 262.418 32.584C262.418 32.28 262.53 31.976 262.754 31.672L271.85 19.96H264.914C264.482 19.96 264.13 19.832 263.858 19.576C263.586 19.32 263.45 18.984 263.45 18.568C263.45 18.168 263.586 17.84 263.858 17.584C264.146 17.328 264.498 17.2 264.914 17.2H274.73C275.114 17.2 275.466 17.336 275.786 17.608C276.122 17.88 276.29 18.216 276.29 18.616ZM288.445 31.24C288.861 31.24 289.205 31.384 289.477 31.672C289.765 31.944 289.909 32.264 289.909 32.632C289.909 33.032 289.765 33.36 289.477 33.616C289.205 33.872 288.861 34 288.445 34H280.405C279.989 34 279.637 33.864 279.349 33.592C279.077 33.304 278.941 32.952 278.941 32.536V18.664C278.941 18.248 279.077 17.904 279.349 17.632C279.637 17.344 279.989 17.2 280.405 17.2H288.445C288.861 17.2 289.205 17.336 289.477 17.608C289.765 17.864 289.909 18.2 289.909 18.616C289.909 19.016 289.773 19.344 289.501 19.6C289.229 19.84 288.877 19.96 288.445 19.96H281.941V24.04H287.365C287.781 24.04 288.125 24.176 288.397 24.448C288.685 24.704 288.829 25.04 288.829 25.456C288.829 25.856 288.693 26.184 288.421 26.44C288.149 26.68 287.797 26.8 287.365 26.8H281.941V31.24H288.445ZM305.419 17.2C305.803 17.2 306.115 17.328 306.355 17.584C306.595 17.84 306.715 18.16 306.715 18.544V32.536C306.715 32.952 306.571 33.304 306.283 33.592C306.011 33.864 305.667 34 305.251 34C305.027 34 304.803 33.968 304.579 33.904C304.371 33.824 304.219 33.72 304.123 33.592L295.315 22.408V32.656C295.315 33.04 295.187 33.36 294.931 33.616C294.691 33.872 294.371 34 293.971 34C293.587 34 293.275 33.872 293.035 33.616C292.795 33.36 292.675 33.04 292.675 32.656V18.664C292.675 18.248 292.811 17.904 293.083 17.632C293.371 17.344 293.723 17.2 294.139 17.2C294.379 17.2 294.611 17.248 294.835 17.344C295.075 17.44 295.251 17.568 295.363 17.728L304.099 28.864V18.544C304.099 18.16 304.219 17.84 304.459 17.584C304.715 17.328 305.035 17.2 305.419 17.2ZM217.6 46.47V49.638H221.488C221.8 49.638 222.058 49.74 222.262 49.944C222.478 50.136 222.586 50.388 222.586 50.7C222.586 50.964 222.478 51.198 222.262 51.402C222.058 51.606 221.8 51.708 221.488 51.708H217.6V55.902C217.6 56.214 217.486 56.478 217.258 56.694C217.042 56.898 216.784 57 216.484 57C216.148 57 215.872 56.898 215.656 56.694C215.452 56.49 215.35 56.226 215.35 55.902V45.498C215.35 45.186 215.452 44.928 215.656 44.724C215.872 44.508 216.136 44.4 216.448 44.4H222.298C222.61 44.4 222.868 44.502 223.072 44.706C223.288 44.898 223.396 45.15 223.396 45.462C223.396 45.726 223.288 45.96 223.072 46.164C222.868 46.368 222.61 46.47 222.298 46.47H217.6ZM236.891 50.7C236.891 51.888 236.627 52.98 236.099 53.976C235.571 54.96 234.839 55.74 233.903 56.316C232.979 56.892 231.935 57.18 230.771 57.18C229.607 57.18 228.557 56.892 227.621 56.316C226.697 55.74 225.971 54.96 225.443 53.976C224.927 52.98 224.669 51.888 224.669 50.7C224.669 49.512 224.927 48.426 225.443 47.442C225.971 46.446 226.697 45.66 227.621 45.084C228.557 44.508 229.607 44.22 230.771 44.22C231.935 44.22 232.979 44.508 233.903 45.084C234.839 45.66 235.571 46.446 236.099 47.442C236.627 48.426 236.891 49.512 236.891 50.7ZM234.551 50.7C234.551 49.896 234.389 49.17 234.065 48.522C233.741 47.862 233.291 47.34 232.715 46.956C232.139 46.572 231.491 46.38 230.771 46.38C230.039 46.38 229.385 46.572 228.809 46.956C228.245 47.328 227.801 47.844 227.477 48.504C227.165 49.164 227.009 49.896 227.009 50.7C227.009 51.504 227.165 52.236 227.477 52.896C227.801 53.556 228.245 54.078 228.809 54.462C229.385 54.834 230.039 55.02 230.771 55.02C231.491 55.02 232.139 54.828 232.715 54.444C233.291 54.06 233.741 53.544 234.065 52.896C234.389 52.236 234.551 51.504 234.551 50.7ZM250.549 50.7C250.549 51.888 250.285 52.98 249.757 53.976C249.229 54.96 248.497 55.74 247.561 56.316C246.637 56.892 245.593 57.18 244.429 57.18C243.265 57.18 242.215 56.892 241.279 56.316C240.355 55.74 239.629 54.96 239.101 53.976C238.585 52.98 238.327 51.888 238.327 50.7C238.327 49.512 238.585 48.426 239.101 47.442C239.629 46.446 240.355 45.66 241.279 45.084C242.215 44.508 243.265 44.22 244.429 44.22C245.593 44.22 246.637 44.508 247.561 45.084C248.497 45.66 249.229 46.446 249.757 47.442C250.285 48.426 250.549 49.512 250.549 50.7ZM248.209 50.7C248.209 49.896 248.047 49.17 247.723 48.522C247.399 47.862 246.949 47.34 246.373 46.956C245.797 46.572 245.149 46.38 244.429 46.38C243.697 46.38 243.043 46.572 242.467 46.956C241.903 47.328 241.459 47.844 241.135 48.504C240.823 49.164 240.667 49.896 240.667 50.7C240.667 51.504 240.823 52.236 241.135 52.896C241.459 53.556 241.903 54.078 242.467 54.462C243.043 54.834 243.697 55.02 244.429 55.02C245.149 55.02 245.797 54.828 246.373 54.444C246.949 54.06 247.399 53.544 247.723 52.896C248.047 52.236 248.209 51.504 248.209 50.7ZM258.016 44.4C259.144 44.4 260.11 44.682 260.914 45.246C261.73 45.798 262.348 46.554 262.768 47.514C263.2 48.462 263.416 49.524 263.416 50.7C263.416 51.876 263.2 52.944 262.768 53.904C262.348 54.852 261.73 55.608 260.914 56.172C260.11 56.724 259.144 57 258.016 57H253.714C253.402 57 253.138 56.898 252.922 56.694C252.718 56.478 252.616 56.214 252.616 55.902V45.498C252.616 45.186 252.718 44.928 252.922 44.724C253.138 44.508 253.402 44.4 253.714 44.4H258.016ZM257.836 54.93C258.916 54.93 259.726 54.534 260.266 53.742C260.806 52.938 261.076 51.924 261.076 50.7C261.076 49.476 260.8 48.468 260.248 47.676C259.708 46.872 258.904 46.47 257.836 46.47H254.866V54.93H257.836ZM269.533 57.18C268.669 57.18 267.901 57.072 267.229 56.856C266.557 56.64 265.927 56.274 265.339 55.758C265.015 55.47 264.853 55.152 264.853 54.804C264.853 54.528 264.955 54.288 265.159 54.084C265.363 53.868 265.609 53.76 265.897 53.76C266.125 53.76 266.329 53.832 266.509 53.976C266.989 54.372 267.457 54.66 267.913 54.84C268.369 55.02 268.909 55.11 269.533 55.11C270.205 55.11 270.781 54.96 271.261 54.66C271.753 54.36 271.999 53.988 271.999 53.544C271.999 53.004 271.759 52.584 271.279 52.284C270.799 51.972 270.037 51.738 268.993 51.582C266.365 51.198 265.051 49.974 265.051 47.91C265.051 47.154 265.249 46.5 265.645 45.948C266.041 45.384 266.581 44.958 267.265 44.67C267.949 44.37 268.711 44.22 269.551 44.22C270.307 44.22 271.015 44.334 271.675 44.562C272.347 44.79 272.905 45.09 273.349 45.462C273.697 45.738 273.871 46.056 273.871 46.416C273.871 46.692 273.769 46.938 273.565 47.154C273.361 47.358 273.121 47.46 272.845 47.46C272.665 47.46 272.503 47.406 272.359 47.298C272.047 47.046 271.609 46.818 271.045 46.614C270.493 46.398 269.995 46.29 269.551 46.29C268.795 46.29 268.207 46.434 267.787 46.722C267.379 46.998 267.175 47.364 267.175 47.82C267.175 48.336 267.385 48.726 267.805 48.99C268.237 49.254 268.909 49.47 269.821 49.638C270.853 49.818 271.675 50.052 272.287 50.34C272.911 50.616 273.379 51 273.691 51.492C274.003 51.972 274.159 52.614 274.159 53.418C274.159 54.174 273.943 54.84 273.511 55.416C273.091 55.98 272.527 56.418 271.819 56.73C271.111 57.03 270.349 57.18 269.533 57.18Z" fill="white"/>
<defs>
<clipPath id="clip0">
<rect width="156" height="156" fill="white" transform="translate(31 48)"/>
</clipPath>
</defs>
</svg>
