<svg width="136" height="228" viewBox="0 0 136 228" fill="none" xmlns="http://www.w3.org/2000/svg">
<rect width="136" height="204" fill="#7AD0DF"/>
<path d="M28.8 162.96V167.184H33.984C34.4 167.184 34.744 167.32 35.016 167.592C35.304 167.848 35.448 168.184 35.448 168.6C35.448 168.952 35.304 169.264 35.016 169.536C34.744 169.808 34.4 169.944 33.984 169.944H28.8V175.536C28.8 175.952 28.648 176.304 28.344 176.592C28.056 176.864 27.712 177 27.312 177C26.864 177 26.496 176.864 26.208 176.592C25.936 176.32 25.8 175.968 25.8 175.536V161.664C25.8 161.248 25.936 160.904 26.208 160.632C26.496 160.344 26.848 160.2 27.264 160.2H35.064C35.48 160.2 35.824 160.336 36.096 160.608C36.384 160.864 36.528 161.2 36.528 161.616C36.528 161.968 36.384 162.28 36.096 162.552C35.824 162.824 35.48 162.96 35.064 162.96H28.8ZM52.4526 174.648C52.6606 174.776 52.8206 174.944 52.9326 175.152C53.0606 175.36 53.1246 175.576 53.1246 175.8C53.1246 176.088 53.0286 176.352 52.8366 176.592C52.5966 176.88 52.2286 177.024 51.7326 177.024C51.3486 177.024 50.9966 176.936 50.6766 176.76C49.5246 176.104 48.9486 174.768 48.9486 172.752C48.9486 172.176 48.7566 171.72 48.3726 171.384C48.0046 171.048 47.4686 170.88 46.7646 170.88H42.2766V175.536C42.2766 175.968 42.1566 176.32 41.9166 176.592C41.6926 176.864 41.3886 177 41.0046 177C40.5406 177 40.1326 176.864 39.7806 176.592C39.4446 176.304 39.2766 175.952 39.2766 175.536V161.664C39.2766 161.248 39.4126 160.904 39.6846 160.632C39.9726 160.344 40.3246 160.2 40.7406 160.2H47.6526C48.4846 160.2 49.2686 160.424 50.0046 160.872C50.7406 161.32 51.3246 161.936 51.7566 162.72C52.2046 163.504 52.4286 164.384 52.4286 165.36C52.4286 166.16 52.2126 166.944 51.7806 167.712C51.3486 168.464 50.7886 169.064 50.1006 169.512C51.1086 170.216 51.6606 171.16 51.7566 172.344C51.8046 172.6 51.8286 172.848 51.8286 173.088C51.8926 173.584 51.9566 173.944 52.0206 174.168C52.0846 174.376 52.2286 174.536 52.4526 174.648ZM47.5326 168.408C47.8206 168.408 48.1006 168.272 48.3726 168C48.6446 167.728 48.8686 167.368 49.0446 166.92C49.2206 166.456 49.3086 165.96 49.3086 165.432C49.3086 164.984 49.2206 164.576 49.0446 164.208C48.8686 163.824 48.6446 163.52 48.3726 163.296C48.1006 163.072 47.8206 162.96 47.5326 162.96H42.2766V168.408H47.5326ZM67.5639 160.176C67.9799 160.176 68.3159 160.312 68.5719 160.584C68.8279 160.856 68.9559 161.208 68.9559 161.64V170.328C68.9559 171.656 68.6759 172.832 68.1159 173.856C67.5559 174.88 66.7719 175.68 65.7639 176.256C64.7559 176.832 63.6039 177.12 62.3079 177.12C61.0119 177.12 59.8519 176.832 58.8279 176.256C57.8199 175.68 57.0359 174.88 56.4759 173.856C55.9159 172.832 55.6359 171.656 55.6359 170.328V161.64C55.6359 161.224 55.7799 160.88 56.0679 160.608C56.3559 160.32 56.7239 160.176 57.1719 160.176C57.5559 160.176 57.8919 160.32 58.1799 160.608C58.4679 160.88 58.6119 161.224 58.6119 161.64V170.328C58.6119 171.096 58.7799 171.784 59.1159 172.392C59.4519 172.984 59.8999 173.44 60.4599 173.76C61.0359 174.08 61.6519 174.24 62.3079 174.24C62.9959 174.24 63.6359 174.08 64.2279 173.76C64.8359 173.44 65.3159 172.984 65.6679 172.392C66.0359 171.784 66.2199 171.096 66.2199 170.328V161.64C66.2199 161.208 66.3399 160.856 66.5799 160.584C66.8199 160.312 67.1479 160.176 67.5639 160.176ZM75.5578 175.536C75.5578 175.952 75.4058 176.304 75.1018 176.592C74.7978 176.864 74.4458 177 74.0458 177C73.6138 177 73.2538 176.864 72.9658 176.592C72.6938 176.304 72.5578 175.952 72.5578 175.536V161.664C72.5578 161.248 72.7018 160.904 72.9898 160.632C73.2778 160.344 73.6458 160.2 74.0938 160.2C74.4938 160.2 74.8378 160.344 75.1258 160.632C75.4138 160.904 75.5578 161.248 75.5578 161.664V175.536ZM90.2072 160.2C90.6392 160.2 90.9912 160.328 91.2632 160.584C91.5352 160.84 91.6712 161.176 91.6712 161.592C91.6712 162.008 91.5352 162.344 91.2632 162.6C90.9912 162.84 90.6392 162.96 90.2072 162.96H86.4392V175.536C86.4392 175.952 86.2872 176.304 85.9832 176.592C85.6792 176.864 85.3032 177 84.8552 177C84.4072 177 84.0392 176.864 83.7512 176.592C83.4632 176.304 83.3192 175.952 83.3192 175.536V162.96H79.5512C79.1192 162.96 78.7672 162.832 78.4952 162.576C78.2232 162.32 78.0872 161.984 78.0872 161.568C78.0872 161.168 78.2232 160.84 78.4952 160.584C78.7832 160.328 79.1352 160.2 79.5512 160.2H90.2072ZM99.5906 177.24C98.4386 177.24 97.4146 177.096 96.5186 176.808C95.6226 176.52 94.7826 176.032 93.9986 175.344C93.5666 174.96 93.3506 174.536 93.3506 174.072C93.3506 173.704 93.4866 173.384 93.7586 173.112C94.0306 172.824 94.3586 172.68 94.7426 172.68C95.0466 172.68 95.3186 172.776 95.5586 172.968C96.1986 173.496 96.8226 173.88 97.4306 174.12C98.0386 174.36 98.7586 174.48 99.5906 174.48C100.487 174.48 101.255 174.28 101.895 173.88C102.551 173.48 102.879 172.984 102.879 172.392C102.879 171.672 102.559 171.112 101.919 170.712C101.279 170.296 100.263 169.984 98.8706 169.776C95.3666 169.264 93.6146 167.632 93.6146 164.88C93.6146 163.872 93.8786 163 94.4066 162.264C94.9346 161.512 95.6546 160.944 96.5666 160.56C97.4786 160.16 98.4946 159.96 99.6146 159.96C100.623 159.96 101.567 160.112 102.447 160.416C103.343 160.72 104.087 161.12 104.679 161.616C105.143 161.984 105.375 162.408 105.375 162.888C105.375 163.256 105.239 163.584 104.967 163.872C104.695 164.144 104.375 164.28 104.007 164.28C103.767 164.28 103.551 164.208 103.359 164.064C102.943 163.728 102.359 163.424 101.607 163.152C100.871 162.864 100.207 162.72 99.6146 162.72C98.6066 162.72 97.8226 162.912 97.2626 163.296C96.7186 163.664 96.4466 164.152 96.4466 164.76C96.4466 165.448 96.7266 165.968 97.2866 166.32C97.8626 166.672 98.7586 166.96 99.9746 167.184C101.351 167.424 102.447 167.736 103.263 168.12C104.095 168.488 104.719 169 105.135 169.656C105.551 170.296 105.759 171.152 105.759 172.224C105.759 173.232 105.471 174.12 104.895 174.888C104.335 175.64 103.583 176.224 102.639 176.64C101.695 177.04 100.679 177.24 99.5906 177.24Z" fill="#E7EFFA"/>
<path d="M89.4608 112.383C89.9057 112.383 90.2663 112.023 90.2663 111.578C90.2663 111.133 89.9057 110.772 89.4608 110.772C89.0159 110.772 88.6553 111.133 88.6553 111.578C88.6553 112.023 89.0159 112.383 89.4608 112.383Z" fill="#A183E2"/>
<path d="M109.506 120.823C110.656 114.781 108.38 109.273 104.422 108.519C100.463 107.765 96.322 112.052 95.1715 118.093C94.021 124.135 96.2972 129.644 100.256 130.397C104.214 131.151 108.355 126.865 109.506 120.823Z" fill="#BDF4E3"/>
<path d="M104.475 108.515C104.233 108.467 103.93 108.481 103.584 108.554C104.856 109.008 107.251 112.538 106.551 116.132C105.827 119.849 102.304 122.275 100.835 121.98C99.3663 121.686 97.0158 118.084 97.7396 114.366C98.0047 113.005 98.6779 111.824 99.4845 110.885C97.5743 112.555 95.7731 115.016 95.1892 118.016C94.0135 124.054 97.8315 129.906 100.217 130.384C102.602 130.862 108.327 126.922 109.502 120.883C110.678 114.844 106.473 108.916 104.475 108.515V108.515Z" fill="#B1B7E3"/>
<path d="M79.0858 123.029C79.749 121.085 86.1335 117.703 91.8978 119.719C97.6621 121.734 100.059 128.136 99.2671 130.456C98.4755 132.776 92.9124 135.653 87.1481 133.638C81.3838 131.622 78.4226 124.973 79.0858 123.029V123.029Z" fill="#BDF4E3"/>
<path d="M91.8977 119.719C90.9056 119.372 89.8952 119.185 88.8987 119.123C91.9546 120.175 94.0038 123.208 93.8428 124.683C93.658 126.375 90.1929 129.399 86.3743 128.953C82.5556 128.507 79.8596 124.486 80.0144 123.067C80.0812 122.455 80.7713 121.493 81.8401 120.633C80.3554 121.399 79.3306 122.312 79.0858 123.029C78.4226 124.973 81.3838 131.622 87.1481 133.638C92.9124 135.653 99.1684 132.648 99.9601 130.328C100.752 128.008 97.662 121.734 91.8977 119.719V119.719Z" fill="#B1B7E3"/>
<path d="M101.812 146.612C106.013 142.411 106.013 135.6 101.812 131.399C97.6111 127.199 90.8002 127.199 86.5994 131.399C82.3986 135.6 82.3986 142.411 86.5994 146.612C90.8002 150.813 97.6111 150.813 101.812 146.612Z" fill="#A183E2"/>
<path d="M94.2117 128.249C93.7586 128.249 93.3122 128.277 92.8739 128.331C96.8866 128.896 99.9745 132.341 99.9745 136.509C99.9745 141.072 96.276 144.77 91.7137 144.77C87.5454 144.77 84.1 141.682 83.5358 137.669C83.4815 138.108 83.4531 138.554 83.4531 139.007C83.4531 144.949 88.2699 149.766 94.2116 149.766C100.153 149.766 104.97 144.949 104.97 139.007C104.97 133.065 100.153 128.249 94.2117 128.249V128.249Z" fill="#9762E2"/>
<path d="M111.104 137.366C117.045 137.366 121.862 132.55 121.862 126.608C121.862 120.666 117.045 115.849 111.104 115.849C105.162 115.849 100.345 120.666 100.345 126.608C100.345 132.55 105.162 137.366 111.104 137.366Z" fill="#A183E2"/>
<path d="M111.103 115.849C110.667 115.849 110.237 115.876 109.814 115.927C113.893 116.475 117.039 119.967 117.039 124.196C117.039 128.806 113.302 132.543 108.692 132.543C104.463 132.543 100.97 129.397 100.422 125.318C100.371 125.741 100.345 126.171 100.345 126.608C100.345 132.55 105.161 137.366 111.103 137.366C117.045 137.366 121.862 132.55 121.862 126.608C121.862 120.666 117.045 115.849 111.103 115.849V115.849Z" fill="#9762E2"/>
<path d="M117.624 149.471C121.825 145.27 121.825 138.459 117.624 134.259C113.423 130.058 106.612 130.058 102.411 134.259C98.2106 138.459 98.2106 145.27 102.411 149.471C106.612 153.672 113.423 153.672 117.624 149.471Z" fill="#A183E2"/>
<path d="M110.026 131.106C109.643 131.106 109.264 131.127 108.892 131.166C113.184 131.661 116.518 135.306 116.518 139.732C116.518 144.495 112.656 148.357 107.892 148.357C103.467 148.357 99.8221 145.023 99.3265 140.731C99.2875 141.104 99.2671 141.482 99.2671 141.865C99.2671 147.807 104.084 152.623 110.026 152.623C115.967 152.623 120.784 147.807 120.784 141.865C120.784 135.923 115.967 131.106 110.026 131.106V131.106Z" fill="#9762E2"/>
<path d="M109.957 147.902C109.763 147.902 109.568 147.841 109.397 147.717C109.015 147.439 108.894 146.95 109.103 146.528C109.762 145.194 109.247 143.607 107.93 142.916C107.512 142.696 107.322 142.23 107.468 141.781C107.614 141.333 108.041 141.067 108.508 141.135C109.98 141.349 111.33 140.369 111.581 138.903C111.66 138.438 112.045 138.113 112.517 138.113H112.517C112.988 138.113 113.373 138.438 113.453 138.903V138.903C113.704 140.369 115.053 141.35 116.526 141.135C116.992 141.067 117.42 141.333 117.566 141.781C117.711 142.23 117.522 142.696 117.104 142.916C115.787 143.607 115.271 145.194 115.93 146.528C116.139 146.951 116.019 147.44 115.637 147.717C115.255 147.994 114.754 147.957 114.416 147.628C113.351 146.589 111.683 146.589 110.618 147.628C110.432 147.81 110.195 147.902 109.957 147.902V147.902ZM109.346 142.391C110.384 143.332 110.844 144.748 110.557 146.119C111.772 145.422 113.262 145.422 114.477 146.119C114.189 144.748 114.649 143.332 115.688 142.391C114.295 142.241 113.09 141.366 112.517 140.087C111.944 141.365 110.738 142.241 109.346 142.391V142.391ZM112.221 139.113C112.221 139.113 112.221 139.114 112.221 139.114C112.221 139.114 112.221 139.113 112.221 139.113Z" fill="#7844C1"/>
<path d="M89.1982 145.726C89.0043 145.726 88.8089 145.665 88.6377 145.54C88.2562 145.263 88.1356 144.774 88.3446 144.351C89.0036 143.018 88.488 141.431 87.1709 140.739C86.7534 140.52 86.5635 140.053 86.7093 139.605C86.855 139.156 87.2825 138.891 87.7494 138.959C89.2221 139.173 90.5714 138.193 90.8221 136.726C90.9017 136.261 91.2865 135.937 91.7581 135.937C92.2296 135.937 92.6146 136.261 92.694 136.726C92.9448 138.193 94.2943 139.174 95.7667 138.959C96.2336 138.891 96.661 139.157 96.8067 139.605C96.9525 140.053 96.7627 140.52 96.3452 140.739C95.0279 141.431 94.5124 143.018 95.1715 144.351C95.3804 144.774 95.2598 145.263 94.8783 145.54C94.4967 145.817 93.9945 145.781 93.6571 145.452C92.5922 144.413 90.9238 144.413 89.8589 145.452C89.6728 145.633 89.4366 145.726 89.1982 145.726V145.726ZM88.5868 140.215C89.6254 141.155 90.0857 142.572 89.7981 143.943C91.0132 143.246 92.503 143.246 93.718 143.943C93.4304 142.572 93.8908 141.155 94.9293 140.215C93.5365 140.065 92.3313 139.189 91.758 137.911C91.1847 139.189 89.9795 140.065 88.5868 140.215V140.215ZM92.0782 136.832L91.4625 136.937V136.937L92.0782 136.832Z" fill="#7844C1"/>
<path d="M115.818 128.864C115.579 128.864 115.343 128.772 115.157 128.59C114.092 127.551 112.424 127.551 111.359 128.59C111.021 128.919 110.519 128.956 110.138 128.679C109.756 128.401 109.636 127.913 109.845 127.49C110.504 126.156 109.988 124.569 108.671 123.877C108.253 123.658 108.064 123.192 108.209 122.743C108.355 122.295 108.783 122.029 109.249 122.097C110.721 122.311 112.071 121.331 112.322 119.865C112.402 119.4 112.786 119.075 113.258 119.075C113.73 119.075 114.115 119.4 114.194 119.865C114.445 121.331 115.794 122.311 117.267 122.097C117.733 122.029 118.161 122.295 118.307 122.743C118.452 123.192 118.263 123.658 117.845 123.877C116.528 124.569 116.013 126.156 116.672 127.49C116.88 127.912 116.76 128.401 116.378 128.679C116.207 128.803 116.012 128.864 115.818 128.864V128.864ZM110.087 123.353C111.125 124.294 111.586 125.71 111.298 127.082C112.513 126.384 114.003 126.384 115.218 127.082C114.93 125.71 115.391 124.294 116.429 123.353C115.036 123.203 113.831 122.328 113.258 121.049C112.685 122.327 111.48 123.203 110.087 123.353V123.353ZM112.963 120.075C112.963 120.076 112.963 120.076 112.963 120.076C112.963 120.076 112.963 120.076 112.963 120.075Z" fill="#7844C1"/>
<path d="M94.5267 132.556C94.5038 132.556 94.4809 132.555 94.4577 132.554C94.2022 132.537 93.9485 132.534 93.7039 132.544C93.1281 132.569 92.6437 132.123 92.6191 131.549C92.5945 130.974 93.0401 130.489 93.6146 130.464C93.9339 130.45 94.2632 130.454 94.5936 130.476C95.1673 130.513 95.602 131.009 95.5645 131.583C95.5285 132.133 95.0707 132.556 94.5267 132.556V132.556Z" fill="white"/>
<path d="M87.1744 137.338C87.0483 137.338 86.9203 137.315 86.7956 137.266C86.2601 137.057 85.9957 136.453 86.2051 135.918C86.6542 134.769 87.4452 133.619 88.4324 132.681C88.919 132.219 89.4484 131.821 90.0058 131.5C90.5041 131.213 91.1406 131.384 91.4278 131.882C91.715 132.38 91.5439 133.017 91.0457 133.304C90.6309 133.543 90.2342 133.842 89.8668 134.191C89.0964 134.923 88.4848 135.805 88.1444 136.676C87.9837 137.087 87.5907 137.338 87.1744 137.338V137.338Z" fill="white"/>
<path d="M106.463 121.813C106.17 121.813 105.879 121.69 105.673 121.451C105.298 121.015 105.348 120.357 105.784 119.982C106.026 119.774 106.287 119.573 106.56 119.386C107.034 119.06 107.682 119.18 108.008 119.654C108.333 120.128 108.213 120.776 107.739 121.102C107.528 121.247 107.327 121.402 107.141 121.561C106.945 121.73 106.703 121.813 106.463 121.813Z" fill="white"/>
<path d="M104.336 129.591C103.889 129.591 103.476 129.302 103.34 128.852C102.981 127.672 102.891 126.279 103.086 124.931C103.182 124.267 103.352 123.627 103.591 123.03C103.804 122.496 104.41 122.236 104.944 122.45C105.478 122.663 105.737 123.269 105.524 123.803C105.346 124.248 105.219 124.727 105.147 125.229C104.995 126.281 105.061 127.353 105.332 128.247C105.499 128.797 105.189 129.379 104.638 129.546C104.538 129.577 104.436 129.591 104.336 129.591Z" fill="white"/>
<path d="M106.76 136.807C106.417 136.807 106.081 136.638 105.882 136.327C105.572 135.843 105.714 135.199 106.198 134.889C106.467 134.717 106.754 134.555 107.05 134.408C107.565 134.152 108.19 134.362 108.446 134.877C108.702 135.392 108.492 136.017 107.977 136.272C107.748 136.386 107.527 136.511 107.32 136.643C107.146 136.754 106.952 136.807 106.76 136.807V136.807Z" fill="white"/>
<path d="M103.558 144.209C103.054 144.209 102.61 143.842 102.531 143.327C102.342 142.108 102.448 140.717 102.83 139.41C103.019 138.765 103.277 138.156 103.598 137.598C103.884 137.1 104.52 136.928 105.019 137.214C105.517 137.501 105.689 138.137 105.403 138.636C105.164 139.051 104.971 139.508 104.829 139.995C104.531 141.014 104.445 142.085 104.588 143.009C104.676 143.577 104.287 144.109 103.719 144.197C103.665 144.205 103.611 144.209 103.558 144.209V144.209Z" fill="white"/>
<path d="M77.7873 103.878L78.6425 106.283C78.6792 106.386 78.7516 106.467 78.8431 106.509L80.9796 107.471C81.2815 107.607 81.2815 108.088 80.9796 108.224L78.8431 109.187C78.7516 109.228 78.6792 109.309 78.6425 109.412L77.7873 111.817C77.6666 112.157 77.2392 112.157 77.1185 111.817L76.2633 109.412C76.2266 109.309 76.1542 109.228 76.0627 109.187L73.9261 108.224C73.6242 108.088 73.6242 107.607 73.9261 107.471L76.0626 106.509C76.1541 106.467 76.2265 106.386 76.2632 106.283L77.1184 103.878C77.2392 103.539 77.6665 103.539 77.7873 103.878V103.878Z" fill="#CAB4EF"/>
<path d="M114.65 104.576L115.284 106.36C115.311 106.436 115.365 106.497 115.433 106.527L117.018 107.241C117.242 107.342 117.242 107.699 117.018 107.8L115.433 108.514C115.365 108.544 115.311 108.605 115.284 108.681L114.65 110.465C114.56 110.717 114.243 110.717 114.154 110.465L113.519 108.681C113.492 108.605 113.438 108.544 113.37 108.514L111.786 107.8C111.562 107.699 111.562 107.342 111.786 107.241L113.37 106.527C113.438 106.497 113.492 106.436 113.519 106.36L114.154 104.576C114.243 104.324 114.56 104.324 114.65 104.576V104.576Z" fill="#CAB4EF"/>
<path d="M77.6788 135.31C77.8546 134.538 77.3711 133.769 76.5987 133.593C75.8264 133.417 75.0577 133.901 74.8819 134.673C74.706 135.445 75.1896 136.214 75.9619 136.39C76.7343 136.566 77.5029 136.082 77.6788 135.31Z" fill="#A183E2"/>
<path d="M81.0051 138.892C93.8926 126.004 93.8926 105.109 81.0051 92.2217C68.1175 79.3342 47.2226 79.3342 34.335 92.2217C21.4474 105.109 21.4474 126.004 34.335 138.892C47.2226 151.779 68.1175 151.779 81.0051 138.892Z" fill="#FFA585"/>
<path d="M90.6862 115.557C90.6862 97.3288 75.9089 82.5518 57.6805 82.5518C54.5265 82.5518 51.476 82.9949 48.5873 83.8209C50.3226 85.4958 57.9269 90.7873 53.6121 91.9488C48.9792 93.1959 36.5016 100.674 35.1448 119.483C33.6505 140.197 55.3124 148.284 53.4413 148.289C53.5325 148.302 53.6242 148.313 53.7157 148.325C55.0158 148.481 56.3384 148.563 57.6803 148.563C75.9089 148.563 90.6862 133.786 90.6862 115.557V115.557Z" fill="#EF7C85"/>
<path d="M57.7653 82.8734C57.6586 79.2942 56.9186 74.1611 56.2917 71.4762C55.8874 69.854 54.9291 68.433 53.2485 68.433C51.5676 68.433 50.4803 69.9084 50.6496 71.6244C50.8307 73.4586 51.8441 79.1659 52.2148 83.119L57.7653 82.8734Z" fill="#C49A8B"/>
<path d="M46.8378 94.2164C46.202 94.2164 45.5928 93.8572 45.3035 93.244C44.9041 92.3973 45.2667 91.3871 46.1135 90.9878C46.4457 90.8311 46.786 90.6793 47.1252 90.5363C47.9867 90.1727 48.9817 90.5771 49.3454 91.4398C49.709 92.3025 49.3045 93.2966 48.4417 93.6602C48.1461 93.7848 47.8491 93.9174 47.5594 94.0539C47.326 94.1641 47.0798 94.2164 46.8378 94.2164V94.2164Z" fill="white"/>
<path d="M33.8353 108.359C33.6337 108.359 33.4287 108.323 33.2291 108.246C32.355 107.911 31.9178 106.931 32.2529 106.057C33.5593 102.648 35.5874 99.4422 38.118 96.7865C38.8831 95.9834 39.7031 95.2203 40.5556 94.5184C41.278 93.9231 42.3465 94.0267 42.9416 94.7493C43.5367 95.4719 43.4332 96.5402 42.7104 97.1353C41.9631 97.7509 41.2437 98.4203 40.5724 99.1251C38.3481 101.459 36.566 104.276 35.4186 107.27C35.1597 107.944 34.5171 108.359 33.8353 108.359V108.359Z" fill="white"/>
<path d="M94.3499 78.9707C96.3245 80.6966 96.3245 84.0249 94.3499 85.7507C90.6478 88.9863 84.301 93.3713 77.0929 93.3713C65.6709 93.3713 56.4116 82.3606 56.4116 82.3606C56.4116 82.3606 65.6709 71.3499 77.0929 71.3499C84.3011 71.3499 90.648 75.7351 94.3499 78.9707Z" fill="#78EAC4"/>
<path d="M94.3502 78.9707C92.7562 77.5774 90.6707 75.9718 88.2382 74.5941C88.323 74.7568 88.566 74.991 89.0054 75.3027C90.5936 76.4298 89.8715 80.7152 88.2833 81.8421C85.3061 83.9551 80.2017 86.8187 74.4044 86.8187C65.2184 86.8187 57.2197 81.7973 57.2197 81.7973C57.2197 81.7973 58.5945 80.1334 60.8287 78.13C58.0621 80.3979 56.4116 82.3605 56.4116 82.3605C56.4116 82.3605 65.6709 93.3711 77.0929 93.3711C84.3011 93.3711 90.648 88.986 94.35 85.7506C96.3248 84.0249 96.3248 80.6964 94.3502 78.9707Z" fill="#71AFC4"/>
<path d="M57.3421 83.3409C56.9751 83.3409 56.6208 83.142 56.4394 82.7943C56.1797 82.2968 56.3719 81.683 56.8691 81.423C56.9863 81.3617 59.7894 79.9113 64.3314 78.9191C68.5122 78.006 75.0243 77.3296 82.3044 79.2943C82.8466 79.4408 83.1676 79.999 83.0213 80.5413C82.8747 81.0836 82.3162 81.4044 81.7743 81.2582C68.636 77.7126 57.9175 83.1704 57.8109 83.226C57.6611 83.3039 57.5003 83.3409 57.3421 83.3409Z" fill="#518699"/>
<path d="M90.8666 140.478C101.642 129.702 101.642 112.232 90.8666 101.457C80.0913 90.6813 62.6209 90.6813 51.8455 101.457C41.0701 112.232 41.0701 129.702 51.8455 140.478C62.6209 151.253 80.0913 151.253 90.8666 140.478Z" fill="#FFC7B6"/>
<path d="M69.5809 98.509C64.7007 98.8921 60.2576 100.83 56.7469 103.828C56.0142 104.454 55.9762 105.575 56.6575 106.256L68.5401 118.139C69.5839 119.182 71.3686 118.443 71.3686 116.967V100.162C71.3684 99.1958 70.5443 98.4334 69.5809 98.509V98.509Z" fill="#FFDCB6"/>
<path d="M93.8263 119.179C93.4431 114.299 91.505 109.856 88.5069 106.345C87.8812 105.613 86.7605 105.575 86.0792 106.256L74.1966 118.139C73.1529 119.182 73.8921 120.967 75.3682 120.967H92.173C93.1396 120.967 93.902 120.143 93.8263 119.179V119.179Z" fill="#FFDCB6"/>
<path d="M85.9902 103.828C82.4794 100.83 78.0363 98.8921 73.1562 98.509C72.1927 98.4334 71.3687 99.1956 71.3687 100.162V116.967C71.3687 118.443 73.1533 119.182 74.1971 118.138L86.0797 106.256C86.7608 105.575 86.7228 104.454 85.9902 103.828Z" fill="#FFDCB6"/>
<path d="M54.2298 106.345C51.2318 109.856 49.2936 114.299 48.9104 119.179C48.8349 120.143 49.5971 120.967 50.5636 120.967H67.3684C68.8445 120.967 69.5837 119.182 68.5399 118.138L56.6573 106.256C55.9762 105.575 54.8555 105.613 54.2298 106.345V106.345Z" fill="#FFDCB6"/>
<path d="M74.1966 123.795L86.0792 135.678C86.7605 136.359 87.8812 136.321 88.5069 135.589C91.505 132.078 93.4431 127.635 93.8263 122.755C93.9019 121.791 93.1396 120.967 92.1731 120.967H75.3682C73.8921 120.967 73.1529 122.752 74.1966 123.795V123.795Z" fill="#FFDCB6"/>
<path d="M48.9104 122.755C49.2936 127.635 51.2318 132.078 54.2298 135.589C54.8555 136.321 55.9762 136.359 56.6575 135.678L68.5401 123.795C69.5839 122.752 68.8446 120.967 67.3685 120.967H50.5636C49.5973 120.967 48.8349 121.791 48.9104 122.755V122.755Z" fill="#FFDCB6"/>
<path d="M73.1559 143.425C78.036 143.042 82.4791 141.103 85.9899 138.105C86.7225 137.48 86.7605 136.359 86.0792 135.678L74.1966 123.795C73.1528 122.751 71.3682 123.491 71.3682 124.967V141.772C71.3682 142.738 72.1924 143.501 73.1559 143.425V143.425Z" fill="#FFDCB6"/>
<path d="M56.7469 138.105C60.2576 141.103 64.7007 143.042 69.5809 143.425C70.5444 143.5 71.3684 142.738 71.3684 141.772V124.967C71.3684 123.491 69.5838 122.752 68.54 123.795L56.6574 135.678C55.9763 136.359 56.0142 137.48 56.7469 138.105Z" fill="#FFDCB6"/>
<path d="M71.343 93.3713C55.9134 93.3713 43.4053 105.879 43.4053 121.309C43.4053 136.739 55.9134 149.247 71.343 149.247C86.7726 149.247 99.2809 136.739 99.2809 121.309C99.2809 105.88 86.7728 93.3713 71.343 93.3713V93.3713ZM67.5153 139.762C55.2101 139.762 45.2348 129.787 45.2348 117.481C45.2348 105.176 55.2101 95.2007 67.5153 95.2007C79.8206 95.2007 89.7961 105.176 89.7961 117.481C89.7959 129.787 79.8206 139.762 67.5153 139.762Z" fill="#EF95B6"/>
<path d="M67.7807 139.406C64.0585 139.406 60.5528 138.482 57.4783 136.852C57.4426 136.945 57.4367 137.03 57.4389 137.086C57.4424 137.178 57.4726 137.353 57.6344 137.491C61.1001 140.451 65.3279 142.204 69.8608 142.559C70.0797 142.576 70.2265 142.472 70.2952 142.408C70.3643 142.344 70.48 142.205 70.48 141.986V139.242C69.5953 139.35 68.6946 139.406 67.7807 139.406V139.406Z" fill="#EFA5B6"/>
<path d="M89.482 120.076H92.362C92.5911 120.076 92.7376 119.957 92.8046 119.886C92.8713 119.815 92.9808 119.662 92.963 119.438C92.5896 114.761 90.7509 110.4 87.6458 106.824C87.5008 106.657 87.3167 106.626 87.2202 106.622C87.2128 106.622 87.2049 106.622 87.1966 106.622C87.1394 106.622 87.0599 106.631 86.9751 106.663C88.685 109.835 89.655 113.451 89.655 117.291C89.655 118.235 89.5956 119.164 89.482 120.076V120.076Z" fill="#EFA5B6"/>
<path d="M82.7379 133.368C79.8147 135.965 76.2165 137.845 72.2319 138.726V141.965C72.2319 142.191 72.3544 142.336 72.4276 142.402C72.5005 142.468 72.6571 142.577 72.8875 142.559C77.6879 142.19 82.1649 140.371 85.835 137.3C86.0062 137.157 86.0385 136.975 86.0422 136.879C86.0462 136.781 86.0282 136.593 85.8636 136.431L82.7379 133.368Z" fill="#EFA5B6"/>
<path d="M92.8452 121.592H89.459C88.5377 125.621 86.5728 129.258 83.8579 132.214L87.0601 135.374C87.229 135.541 87.4256 135.559 87.5284 135.555C87.6283 135.551 87.8186 135.518 87.9686 135.345C91.1793 131.635 93.0806 127.108 93.4667 122.255C93.4852 122.022 93.3718 121.864 93.303 121.79C93.2338 121.716 93.0821 121.592 92.8452 121.592V121.592Z" fill="#EFA5B6"/>
<path d="M69.7087 119.642C69.0143 119.642 68.3337 119.371 67.8207 118.858L55.9383 106.975C55.4117 106.449 55.1265 105.72 55.1559 104.976C55.1848 104.235 55.5241 103.535 56.0863 103.055C59.8886 99.808 64.5272 97.8855 69.5011 97.4949L69.5807 98.5088L69.5011 97.4949C70.2411 97.4363 70.98 97.6928 71.5259 98.1976C72.072 98.7025 72.3853 99.4184 72.3853 100.162V116.967C72.3853 118.052 71.7374 119.022 70.7348 119.437C70.4021 119.575 70.0535 119.642 69.7087 119.642V119.642ZM69.6603 99.5228C65.1174 99.8794 60.8806 101.636 57.4072 104.602C57.2261 104.756 57.1923 104.952 57.1881 105.056C57.1839 105.161 57.2031 105.363 57.3764 105.537L69.2589 117.419C69.5318 117.692 69.8375 117.607 69.9563 117.558C70.075 117.509 70.3512 117.353 70.3512 116.967V100.162C70.3512 99.9182 70.222 99.7624 70.1451 99.6913C70.0683 99.6203 69.9 99.5042 69.6603 99.5228Z" fill="#D58A9C"/>
<path d="M92.1734 121.984H75.3686C74.2834 121.984 73.3137 121.336 72.8983 120.333C72.4829 119.331 72.7103 118.187 73.4778 117.419L85.3606 105.537C85.8868 105.01 86.6121 104.724 87.3597 104.754C88.1003 104.783 88.8004 105.122 89.2806 105.685C92.5275 109.487 94.4502 114.126 94.8406 119.099C94.8988 119.84 94.6425 120.578 94.1379 121.124C93.6329 121.671 92.9168 121.984 92.1734 121.984V121.984ZM87.2551 106.786C87.1449 106.786 86.9593 106.815 86.7989 106.975L74.9161 118.858C74.6433 119.13 74.7283 119.436 74.7775 119.555C74.8267 119.674 74.9828 119.95 75.3686 119.95H92.1734C92.4173 119.95 92.573 119.821 92.6442 119.744C92.7154 119.667 92.8318 119.502 92.8127 119.259C92.4561 114.716 90.6998 110.479 87.7338 107.005C87.5793 106.824 87.3831 106.791 87.2799 106.787C87.2722 106.786 87.264 106.786 87.2551 106.786V106.786Z" fill="#D58A9C"/>
<path d="M73.0281 119.642C72.6831 119.642 72.3351 119.575 72.0022 119.437C70.9994 119.022 70.3516 118.052 70.3516 116.967V100.162C70.3516 99.4187 70.6648 98.7026 71.2109 98.1977C71.7568 97.693 72.4932 97.4363 73.2358 97.4951C78.2096 97.8856 82.8484 99.8082 86.6507 103.055V103.055C87.2129 103.535 87.5521 104.235 87.5811 104.976C87.6103 105.72 87.3253 106.449 86.7989 106.975L74.9161 118.858C74.4033 119.37 73.7225 119.642 73.0281 119.642ZM73.0238 99.5208C72.8098 99.5208 72.6628 99.6255 72.5916 99.6913C72.5147 99.7625 72.3855 99.9182 72.3855 100.162V116.967C72.3855 117.353 72.6618 117.509 72.7804 117.558C72.8991 117.607 73.2048 117.692 73.4776 117.419L85.3604 105.537C85.5337 105.363 85.5526 105.161 85.5485 105.055C85.5445 104.952 85.5106 104.756 85.3297 104.602C81.8564 101.636 77.6192 99.8793 73.0763 99.5227C73.0585 99.5215 73.0409 99.5208 73.0238 99.5208V99.5208Z" fill="#D58A9C"/>
<path d="M67.3681 121.984H50.5633C49.8199 121.984 49.1039 121.671 48.599 121.125C48.0942 120.579 47.8381 119.841 47.8963 119.1C48.2869 114.126 50.2094 109.487 53.4563 105.685C53.9363 105.123 54.6366 104.784 55.377 104.755C56.124 104.725 56.8499 105.011 57.3765 105.537L69.2589 117.42C70.0266 118.187 70.254 119.331 69.8386 120.333C69.4232 121.336 68.4535 121.984 67.3681 121.984V121.984ZM55.0029 107.006C52.0371 110.479 50.2808 114.716 49.9241 119.259C49.9051 119.502 50.0213 119.667 50.0925 119.744C50.1638 119.821 50.3195 119.95 50.5633 119.95H67.3681C67.7541 119.95 67.9103 119.674 67.9594 119.555C68.0086 119.436 68.0934 119.131 67.8206 118.858L55.9382 106.975C55.7645 106.801 55.5599 106.783 55.4568 106.787C55.3536 106.791 55.1575 106.825 55.0029 107.006V107.006Z" fill="#D58A9C"/>
<path d="M87.2554 137.182C86.5479 137.182 85.8623 136.899 85.3604 136.397L73.4778 124.515C72.7103 123.747 72.4829 122.603 72.8983 121.6C73.3138 120.598 74.2834 119.95 75.3686 119.95H92.1734C92.9168 119.95 93.6329 120.263 94.1378 120.809C94.6425 121.355 94.8987 122.093 94.8404 122.834C94.45 127.808 92.5275 132.447 89.2804 136.249C88.8004 136.811 88.1001 137.15 87.3596 137.179C87.325 137.181 87.2902 137.182 87.2554 137.182ZM74.9161 123.076L86.7987 134.959C86.9724 135.132 87.177 135.152 87.2799 135.147C87.3831 135.143 87.5793 135.109 87.7338 134.928C90.6998 131.455 92.4561 127.218 92.8127 122.675C92.8316 122.432 92.7154 122.267 92.6442 122.19C92.573 122.113 92.4173 121.984 92.1734 121.984H75.3686C74.9828 121.984 74.8266 122.26 74.7775 122.379C74.7283 122.498 74.6433 122.803 74.9161 123.076V123.076Z" fill="#D58A9C"/>
<path d="M55.4813 137.182C55.4465 137.182 55.4118 137.181 55.377 137.18C54.6366 137.151 53.9363 136.811 53.4563 136.249C50.2096 132.447 48.2869 127.808 47.8963 122.834C47.8381 122.093 48.0944 121.355 48.5989 120.81C49.1039 120.263 49.8199 119.95 50.5633 119.95H67.3681C68.4535 119.95 69.4232 120.598 69.8384 121.601C70.2538 122.604 70.0264 123.747 69.2588 124.515L57.3763 136.397C56.8746 136.899 56.189 137.182 55.4813 137.182V137.182ZM49.9242 122.675C50.281 127.218 52.0373 131.455 55.0031 134.928C55.1576 135.109 55.3538 135.143 55.4569 135.147C55.5601 135.152 55.7645 135.132 55.9383 134.959L67.8208 123.076C68.0936 122.803 68.0087 122.498 67.9595 122.379C67.9103 122.26 67.7543 121.984 67.3683 121.984H50.5635C50.3196 121.984 50.1639 122.113 50.0927 122.19C50.0216 122.267 49.9052 122.432 49.9242 122.675V122.675Z" fill="#D58A9C"/>
<path d="M73.0285 144.447C72.3588 144.447 71.7059 144.194 71.2109 143.736C70.6648 143.231 70.3516 142.515 70.3516 141.772V124.967C70.3516 123.882 70.9994 122.912 72.0022 122.497C73.0051 122.081 74.149 122.309 74.9163 123.076L86.7987 134.959C87.3253 135.485 87.6105 136.214 87.5811 136.959C87.5521 137.699 87.2128 138.399 86.6507 138.879C82.8486 142.126 78.2098 144.048 73.2358 144.439C73.1665 144.444 73.0975 144.447 73.0285 144.447V144.447ZM73.0389 124.324C72.9279 124.324 72.8348 124.353 72.7807 124.376C72.662 124.425 72.3858 124.581 72.3858 124.967V141.772C72.3858 142.016 72.515 142.171 72.5919 142.242C72.6689 142.314 72.8357 142.429 73.0767 142.411C77.6197 142.054 81.8568 140.298 85.33 137.332C85.5109 137.178 85.5448 136.982 85.5489 136.878C85.5531 136.773 85.5341 136.571 85.3607 136.397L73.4783 124.515C73.3295 124.366 73.1713 124.324 73.0389 124.324V124.324Z" fill="#D58A9C"/>
<path d="M69.7087 144.447C69.6395 144.447 69.5704 144.444 69.5011 144.439C64.527 144.048 59.8884 142.126 56.0862 138.879C55.524 138.399 55.1849 137.699 55.1559 136.958C55.1266 136.214 55.4117 135.485 55.9383 134.959L67.8207 123.076C68.5881 122.309 69.7318 122.082 70.7348 122.497C71.7374 122.912 72.3853 123.882 72.3853 124.967V141.772C72.3853 142.515 72.072 143.231 71.5259 143.736C71.0311 144.194 70.3782 144.447 69.7087 144.447V144.447ZM69.6979 124.324C69.5656 124.324 69.4073 124.366 69.2588 124.515L57.3764 136.397C57.2031 136.571 57.1841 136.773 57.1881 136.878C57.1923 136.981 57.2261 137.178 57.4071 137.332C60.8802 140.298 65.1174 142.054 69.6603 142.411C69.9001 142.429 70.0683 142.314 70.1451 142.242C70.222 142.171 70.3511 142.016 70.3511 141.772V124.967C70.3511 124.581 70.0748 124.425 69.9562 124.376C69.9022 124.353 69.8091 124.324 69.6979 124.324V124.324Z" fill="#D58A9C"/>
<path d="M37.9497 131.541C37.388 131.541 36.9326 131.085 36.9326 130.523V128.703C36.9326 128.141 37.388 127.686 37.9497 127.686C38.5114 127.686 38.9667 128.141 38.9667 128.703V130.523C38.9667 131.085 38.5114 131.541 37.9497 131.541Z" fill="#BE545E"/>
<path d="M32.6787 125.805C32.117 125.805 31.6616 125.35 31.6616 124.788V122.967C31.6616 122.406 32.117 121.95 32.6787 121.95C33.2404 121.95 33.6957 122.406 33.6957 122.967V124.788C33.6957 125.35 33.2404 125.805 32.6787 125.805V125.805Z" fill="#BE545E"/>
<path d="M37.3706 121.658C36.8089 121.658 36.3535 121.202 36.3535 120.641V118.82C36.3535 118.259 36.8089 117.803 37.3706 117.803C37.9323 117.803 38.3876 118.259 38.3876 118.82V120.641C38.3876 121.202 37.9321 121.658 37.3706 121.658Z" fill="#BE545E"/>
<path d="M35.2119 66.4375L36.6803 70.5665C36.7431 70.7432 36.8676 70.8833 37.0246 70.9542L40.6932 72.607C41.2116 72.8405 41.2116 73.6662 40.6932 73.8999L37.0246 75.5527C36.8676 75.6234 36.7431 75.7635 36.6803 75.9403L35.2119 80.0694C35.0044 80.6527 34.2708 80.6527 34.0633 80.0694L32.5949 75.9403C32.5321 75.7636 32.4077 75.6234 32.2506 75.5527L28.582 73.8999C28.0638 73.6664 28.0638 72.8407 28.582 72.607L32.2506 70.9542C32.4077 70.8835 32.5321 70.7434 32.5949 70.5665L34.0633 66.4375C34.2708 65.8542 35.0044 65.8542 35.2119 66.4375V66.4375Z" fill="#FFDCB6"/>
<path d="M18.4871 83.4433L19.5764 86.5063C19.6231 86.6374 19.7153 86.7412 19.8318 86.7938L22.5531 88.0198C22.9376 88.193 22.9376 88.8056 22.5531 88.9788L19.8318 90.2048C19.7153 90.2572 19.6231 90.3611 19.5764 90.4923L18.4871 93.5552C18.3332 93.9879 17.789 93.9879 17.6351 93.5552L16.5459 90.4923C16.4992 90.3611 16.407 90.2573 16.2904 90.2048L13.5691 88.9788C13.1846 88.8056 13.1846 88.193 13.5691 88.0198L16.2904 86.7938C16.407 86.7414 16.4992 86.6374 16.5459 86.5063L17.6351 83.4433C17.789 83.0107 18.3332 83.0107 18.4871 83.4433V83.4433Z" fill="#FFDCB6"/>
<path d="M22.8418 70.9298C22.8418 71.9738 21.9955 72.8202 20.9515 72.8202C19.9076 72.8202 19.061 71.9738 19.061 70.9298C19.061 69.8857 19.9074 69.0394 20.9515 69.0394C21.9956 69.0394 22.8418 69.8857 22.8418 70.9298Z" fill="#FFC7B6"/>
</svg>
