<svg width="327" height="116" viewBox="0 0 327 116" fill="none" xmlns="http://www.w3.org/2000/svg">
<rect y="16" width="327" height="100" fill="#6280CC"/>
<path d="M21.8 33.96V38.184H26.984C27.4 38.184 27.744 38.32 28.016 38.592C28.304 38.848 28.448 39.184 28.448 39.6C28.448 39.952 28.304 40.264 28.016 40.536C27.744 40.808 27.4 40.944 26.984 40.944H21.8V46.536C21.8 46.952 21.648 47.304 21.344 47.592C21.056 47.864 20.712 48 20.312 48C19.864 48 19.496 47.864 19.208 47.592C18.936 47.32 18.8 46.968 18.8 46.536V32.664C18.8 32.248 18.936 31.904 19.208 31.632C19.496 31.344 19.848 31.2 20.264 31.2H28.064C28.48 31.2 28.824 31.336 29.096 31.608C29.384 31.864 29.528 32.2 29.528 32.616C29.528 32.968 29.384 33.28 29.096 33.552C28.824 33.824 28.48 33.96 28.064 33.96H21.8ZM44.2046 31.176C44.6206 31.176 44.9566 31.312 45.2126 31.584C45.4686 31.856 45.5966 32.208 45.5966 32.64V41.328C45.5966 42.656 45.3166 43.832 44.7566 44.856C44.1966 45.88 43.4126 46.68 42.4046 47.256C41.3966 47.832 40.2446 48.12 38.9486 48.12C37.6526 48.12 36.4926 47.832 35.4686 47.256C34.4606 46.68 33.6766 45.88 33.1166 44.856C32.5566 43.832 32.2766 42.656 32.2766 41.328V32.64C32.2766 32.224 32.4206 31.88 32.7086 31.608C32.9966 31.32 33.3646 31.176 33.8126 31.176C34.1966 31.176 34.5326 31.32 34.8206 31.608C35.1086 31.88 35.2526 32.224 35.2526 32.64V41.328C35.2526 42.096 35.4206 42.784 35.7566 43.392C36.0926 43.984 36.5406 44.44 37.1006 44.76C37.6766 45.08 38.2926 45.24 38.9486 45.24C39.6366 45.24 40.2766 45.08 40.8686 44.76C41.4766 44.44 41.9566 43.984 42.3086 43.392C42.6766 42.784 42.8606 42.096 42.8606 41.328V32.64C42.8606 32.208 42.9806 31.856 43.2206 31.584C43.4606 31.312 43.7886 31.176 44.2046 31.176ZM62.3744 45.648C62.5824 45.776 62.7424 45.944 62.8544 46.152C62.9824 46.36 63.0464 46.576 63.0464 46.8C63.0464 47.088 62.9504 47.352 62.7584 47.592C62.5184 47.88 62.1504 48.024 61.6544 48.024C61.2704 48.024 60.9184 47.936 60.5984 47.76C59.4464 47.104 58.8704 45.768 58.8704 43.752C58.8704 43.176 58.6784 42.72 58.2944 42.384C57.9264 42.048 57.3904 41.88 56.6864 41.88H52.1984V46.536C52.1984 46.968 52.0784 47.32 51.8384 47.592C51.6144 47.864 51.3104 48 50.9264 48C50.4624 48 50.0544 47.864 49.7024 47.592C49.3664 47.304 49.1984 46.952 49.1984 46.536V32.664C49.1984 32.248 49.3344 31.904 49.6064 31.632C49.8944 31.344 50.2464 31.2 50.6624 31.2H57.5744C58.4064 31.2 59.1904 31.424 59.9264 31.872C60.6624 32.32 61.2464 32.936 61.6784 33.72C62.1264 34.504 62.3504 35.384 62.3504 36.36C62.3504 37.16 62.1344 37.944 61.7024 38.712C61.2704 39.464 60.7104 40.064 60.0224 40.512C61.0304 41.216 61.5824 42.16 61.6784 43.344C61.7264 43.6 61.7504 43.848 61.7504 44.088C61.8144 44.584 61.8784 44.944 61.9424 45.168C62.0064 45.376 62.1504 45.536 62.3744 45.648ZM57.4544 39.408C57.7424 39.408 58.0224 39.272 58.2944 39C58.5664 38.728 58.7904 38.368 58.9664 37.92C59.1424 37.456 59.2304 36.96 59.2304 36.432C59.2304 35.984 59.1424 35.576 58.9664 35.208C58.7904 34.824 58.5664 34.52 58.2944 34.296C58.0224 34.072 57.7424 33.96 57.4544 33.96H52.1984V39.408H57.4544ZM78.419 31.2C78.803 31.2 79.115 31.328 79.355 31.584C79.595 31.84 79.715 32.16 79.715 32.544V46.536C79.715 46.952 79.571 47.304 79.283 47.592C79.011 47.864 78.667 48 78.251 48C78.027 48 77.803 47.968 77.579 47.904C77.371 47.824 77.219 47.72 77.123 47.592L68.315 36.408V46.656C68.315 47.04 68.187 47.36 67.931 47.616C67.691 47.872 67.371 48 66.971 48C66.587 48 66.275 47.872 66.035 47.616C65.795 47.36 65.675 47.04 65.675 46.656V32.664C65.675 32.248 65.811 31.904 66.083 31.632C66.371 31.344 66.723 31.2 67.139 31.2C67.379 31.2 67.611 31.248 67.835 31.344C68.075 31.44 68.251 31.568 68.363 31.728L77.099 42.864V32.544C77.099 32.16 77.219 31.84 77.459 31.584C77.715 31.328 78.035 31.2 78.419 31.2ZM86.3234 46.536C86.3234 46.952 86.1714 47.304 85.8674 47.592C85.5634 47.864 85.2114 48 84.8114 48C84.3794 48 84.0194 47.864 83.7314 47.592C83.4594 47.304 83.3234 46.952 83.3234 46.536V32.664C83.3234 32.248 83.4674 31.904 83.7554 31.632C84.0434 31.344 84.4114 31.2 84.8594 31.2C85.2594 31.2 85.6034 31.344 85.8914 31.632C86.1794 31.904 86.3234 32.248 86.3234 32.664V46.536ZM100.973 31.2C101.405 31.2 101.757 31.328 102.029 31.584C102.301 31.84 102.437 32.176 102.437 32.592C102.437 33.008 102.301 33.344 102.029 33.6C101.757 33.84 101.405 33.96 100.973 33.96H97.2048V46.536C97.2048 46.952 97.0528 47.304 96.7488 47.592C96.4448 47.864 96.0688 48 95.6208 48C95.1728 48 94.8048 47.864 94.5168 47.592C94.2288 47.304 94.0848 46.952 94.0848 46.536V33.96H90.3168C89.8848 33.96 89.5328 33.832 89.2608 33.576C88.9888 33.32 88.8528 32.984 88.8528 32.568C88.8528 32.168 88.9888 31.84 89.2608 31.584C89.5488 31.328 89.9008 31.2 90.3168 31.2H100.973ZM116.884 31.176C117.3 31.176 117.636 31.312 117.892 31.584C118.148 31.856 118.276 32.208 118.276 32.64V41.328C118.276 42.656 117.996 43.832 117.436 44.856C116.876 45.88 116.092 46.68 115.084 47.256C114.076 47.832 112.924 48.12 111.628 48.12C110.332 48.12 109.172 47.832 108.148 47.256C107.14 46.68 106.356 45.88 105.796 44.856C105.236 43.832 104.956 42.656 104.956 41.328V32.64C104.956 32.224 105.1 31.88 105.388 31.608C105.676 31.32 106.044 31.176 106.492 31.176C106.876 31.176 107.212 31.32 107.5 31.608C107.788 31.88 107.932 32.224 107.932 32.64V41.328C107.932 42.096 108.1 42.784 108.436 43.392C108.772 43.984 109.22 44.44 109.78 44.76C110.356 45.08 110.972 45.24 111.628 45.24C112.316 45.24 112.956 45.08 113.548 44.76C114.156 44.44 114.636 43.984 114.988 43.392C115.356 42.784 115.54 42.096 115.54 41.328V32.64C115.54 32.208 115.66 31.856 115.9 31.584C116.14 31.312 116.468 31.176 116.884 31.176ZM135.054 45.648C135.262 45.776 135.422 45.944 135.534 46.152C135.662 46.36 135.726 46.576 135.726 46.8C135.726 47.088 135.63 47.352 135.438 47.592C135.198 47.88 134.83 48.024 134.334 48.024C133.95 48.024 133.598 47.936 133.278 47.76C132.126 47.104 131.55 45.768 131.55 43.752C131.55 43.176 131.358 42.72 130.974 42.384C130.606 42.048 130.07 41.88 129.366 41.88H124.878V46.536C124.878 46.968 124.758 47.32 124.518 47.592C124.294 47.864 123.99 48 123.606 48C123.142 48 122.734 47.864 122.382 47.592C122.046 47.304 121.878 46.952 121.878 46.536V32.664C121.878 32.248 122.014 31.904 122.286 31.632C122.574 31.344 122.926 31.2 123.342 31.2H130.254C131.086 31.2 131.87 31.424 132.606 31.872C133.342 32.32 133.926 32.936 134.358 33.72C134.806 34.504 135.03 35.384 135.03 36.36C135.03 37.16 134.814 37.944 134.382 38.712C133.95 39.464 133.39 40.064 132.702 40.512C133.71 41.216 134.262 42.16 134.358 43.344C134.406 43.6 134.43 43.848 134.43 44.088C134.494 44.584 134.558 44.944 134.622 45.168C134.686 45.376 134.83 45.536 135.054 45.648ZM130.134 39.408C130.422 39.408 130.702 39.272 130.974 39C131.246 38.728 131.47 38.368 131.646 37.92C131.822 37.456 131.91 36.96 131.91 36.432C131.91 35.984 131.822 35.576 131.646 35.208C131.47 34.824 131.246 34.52 130.974 34.296C130.702 34.072 130.422 33.96 130.134 33.96H124.878V39.408H130.134ZM147.859 45.24C148.275 45.24 148.619 45.384 148.891 45.672C149.179 45.944 149.323 46.264 149.323 46.632C149.323 47.032 149.179 47.36 148.891 47.616C148.619 47.872 148.275 48 147.859 48H139.819C139.403 48 139.051 47.864 138.763 47.592C138.491 47.304 138.355 46.952 138.355 46.536V32.664C138.355 32.248 138.491 31.904 138.763 31.632C139.051 31.344 139.403 31.2 139.819 31.2H147.859C148.275 31.2 148.619 31.336 148.891 31.608C149.179 31.864 149.323 32.2 149.323 32.616C149.323 33.016 149.187 33.344 148.915 33.6C148.643 33.84 148.291 33.96 147.859 33.96H141.355V38.04H146.779C147.195 38.04 147.539 38.176 147.811 38.448C148.099 38.704 148.243 39.04 148.243 39.456C148.243 39.856 148.107 40.184 147.835 40.44C147.563 40.68 147.211 40.8 146.779 40.8H141.355V45.24H147.859Z" fill="white"/>
<g clip-path="url(#clip0)">
<path d="M286.853 111.974H186.364C183.402 111.974 181 109.573 181 106.61C181 103.648 183.402 101.246 186.364 101.246H286.853C289.816 101.246 292.218 103.648 292.218 106.61C292.218 109.573 289.816 111.974 286.853 111.974Z" fill="#D49C8D"/>
<path d="M221.106 101.246H206.448C202.89 101.246 199.954 98.4597 199.769 94.9065L198.313 66.9565C198.154 63.905 200.586 61.3435 203.641 61.3435H223.912C226.967 61.3435 229.399 63.9048 229.24 66.9565L227.783 94.9065C227.599 98.4597 224.664 101.246 221.106 101.246Z" fill="#B2E7F1"/>
<path d="M199.524 90.207L199.769 94.9065C199.954 98.4597 202.889 101.246 206.447 101.246H221.106C224.664 101.246 227.599 98.4597 227.784 94.9065L228.029 90.207H199.524Z" fill="#FFE266"/>
<path d="M211.486 34.3253C212.909 50.0839 207.594 63.4428 207.594 63.4428C207.594 63.4428 199.971 51.2521 198.548 35.4935C197.442 23.242 200.408 12.4409 201.784 8.24018C202.028 7.49275 203.046 7.40081 203.421 8.0922C205.526 11.9789 210.38 22.0737 211.486 34.3253Z" fill="#78EAC4"/>
<path d="M229.005 35.4935C230.112 23.242 227.145 12.4409 225.77 8.24018C225.525 7.49275 224.508 7.40081 224.133 8.0922C222.028 11.9787 217.174 22.0737 216.068 34.325C214.645 50.0836 219.96 63.4426 219.96 63.4426C219.96 63.4426 227.582 51.2521 229.005 35.4935Z" fill="#78EAC4"/>
<path d="M219.107 41.8263C219.107 52.9235 216.485 62.5472 214.919 67.3055C214.557 68.4072 212.997 68.4072 212.635 67.3055C211.069 62.5472 208.447 52.9235 208.447 41.8263C208.447 30.729 211.069 21.1053 212.635 16.347C212.997 15.2453 214.557 15.2453 214.919 16.347C216.485 21.1053 219.107 30.729 219.107 41.8263Z" fill="#78EAC4"/>
<path d="M225.77 8.24017C225.525 7.49275 224.507 7.40081 224.133 8.09243C223.883 8.55259 223.596 9.09967 223.28 9.72725C224.383 13.5742 225.919 20.6562 225.207 28.5416C224.139 40.3694 218.417 49.5192 218.417 49.5192C218.417 49.5192 219.251 47.3361 218.445 43.9078C217.786 47.5017 216.661 50.3082 215.297 52.0919C214.769 52.7833 213.403 53.456 212.255 52.0919C211.186 50.823 209.139 47.6065 208.48 44.0125C207.674 47.4407 209.136 49.5192 209.136 49.5192C209.136 49.5192 203.415 40.3694 202.347 28.5416C201.635 20.6559 203.17 13.5742 204.273 9.72725C203.958 9.09967 203.67 8.55259 203.421 8.09243C203.046 7.40104 202.029 7.49275 201.784 8.24017C200.408 12.4409 197.442 23.2422 198.548 35.4935C199.971 51.2521 207.594 63.4428 207.594 63.4428C207.594 63.4428 211.8 64.7686 212.634 67.3055C212.997 68.407 214.557 68.407 214.919 67.3055C215.754 64.7686 219.96 63.4428 219.96 63.4428C219.96 63.4428 227.582 51.2521 229.005 35.4935C230.111 23.2422 227.145 12.4409 225.77 8.24017Z" fill="#71AFC4"/>
<path d="M213.777 69.5039C212.645 69.5039 211.685 68.8093 211.331 67.7346C209.741 62.9042 207.074 53.1152 207.074 41.8263C207.074 36.7647 207.609 31.4899 208.665 26.1482C208.812 25.4044 209.533 24.92 210.277 25.068C211.021 25.2148 211.504 25.9366 211.357 26.6802C210.336 31.847 209.819 36.9428 209.819 41.8263C209.819 52.3597 212.226 61.5532 213.777 66.3804C215.327 61.5532 217.735 52.3595 217.735 41.8263C217.735 37.0261 217.234 32.0169 216.247 26.9379C216.102 26.1941 216.588 25.4737 217.332 25.3292C218.077 25.1839 218.796 25.6702 218.941 26.4144C219.962 31.6654 220.48 36.8507 220.48 41.8263C220.48 53.1152 217.813 62.9042 216.223 67.7346C215.869 68.8093 214.908 69.5039 213.777 69.5039Z" fill="#518699"/>
<path d="M223.911 61.3437H216.344C218.497 61.3437 220.209 63.4767 220.097 66.0176L219.072 89.2921C218.941 92.2509 216.873 94.571 214.367 94.571H204.041C201.943 94.571 200.153 92.9448 199.549 90.6795L199.769 94.9065C199.954 98.4597 202.889 101.246 206.447 101.246H221.105C224.663 101.246 227.599 98.4597 227.784 94.9065L229.24 66.9565C229.399 63.905 226.967 61.3437 223.911 61.3437Z" fill="#A7ADF1"/>
<path d="M218.966 90.207C218.498 92.7152 216.609 94.5712 214.367 94.5712H204.041C201.943 94.5712 200.154 92.9451 199.549 90.6797L199.77 94.9067C199.955 98.46 202.89 101.246 206.448 101.246H221.106C224.664 101.246 227.599 98.46 227.784 94.9067L228.029 90.2072H218.966V90.207Z" fill="#EFAA66"/>
<path d="M228.42 70.402H198.386C196.395 70.402 194.78 68.7875 194.78 66.7962V63.0874C194.78 61.096 196.395 59.4816 198.386 59.4816H228.42C230.412 59.4816 232.026 61.096 232.026 63.0874V66.7962C232.026 68.7875 230.412 70.402 228.42 70.402Z" fill="#8BB6EF"/>
<path d="M278.2 52.6879C276.157 52.7607 274.568 54.5016 274.568 56.5461V60.9163H268.441V51.7857C268.441 47.818 265.225 44.6014 261.257 44.6014C257.29 44.6014 254.073 47.8178 254.073 51.7857V86.293H268.442V69.1471H275.905C279.331 69.1471 282.108 66.3699 282.108 62.944V56.4557C282.108 54.3278 280.345 52.6116 278.2 52.6879Z" fill="#BDF4E3"/>
<path d="M249.691 78.1036C248.145 80.457 247.243 83.2711 247.243 86.2972C247.243 94.5531 253.936 101.246 262.192 101.246C270.448 101.246 277.141 94.5531 277.141 86.2972C277.141 83.2711 276.239 80.457 274.694 78.1036H249.691Z" fill="#FFE266"/>
<path d="M274.693 78.1036H267.305C268.434 79.8235 269.093 81.8801 269.093 84.0917C269.093 90.1255 264.202 95.017 258.168 95.017C252.475 95.017 247.802 90.6621 247.291 85.1024C247.26 85.4967 247.243 85.8949 247.243 86.2972C247.243 94.5531 253.936 101.246 262.192 101.246C270.448 101.246 277.141 94.5534 277.141 86.2972C277.141 83.2709 276.239 80.457 274.693 78.1036Z" fill="#EFAA66"/>
<path d="M276.322 87.4576C274.783 87.4576 273.941 86.688 273.384 86.1785C272.921 85.7549 272.753 85.6211 272.305 85.6211C271.857 85.6211 271.689 85.7549 271.226 86.1785C270.669 86.6878 269.827 87.4576 268.288 87.4576C266.749 87.4576 265.907 86.6878 265.35 86.1785C264.888 85.7549 264.719 85.6211 264.272 85.6211C263.824 85.6211 263.656 85.7549 263.193 86.1785C262.636 86.6878 261.794 87.4576 260.255 87.4576C258.716 87.4576 257.875 86.6878 257.318 86.1782C256.856 85.7549 256.688 85.6211 256.24 85.6211C255.793 85.6211 255.625 85.7549 255.162 86.1785C254.605 86.6878 253.763 87.4576 252.224 87.4576C250.686 87.4576 249.844 86.6878 249.287 86.1782C248.824 85.7549 248.656 85.6211 248.209 85.6211C247.448 85.6211 246.832 85.0045 246.832 84.2438C246.832 83.4831 247.448 82.8665 248.209 82.8665C249.748 82.8665 250.589 83.6364 251.146 84.1459C251.609 84.5693 251.777 84.7031 252.224 84.7031C252.672 84.7031 252.84 84.5693 253.303 84.1459C253.86 83.6366 254.702 82.8667 256.24 82.8667C257.779 82.8667 258.621 83.6366 259.178 84.1461C259.64 84.5695 259.808 84.7033 260.255 84.7033C260.703 84.7033 260.871 84.5695 261.334 84.1461C261.891 83.6368 262.733 82.867 264.272 82.867C265.811 82.867 266.652 83.6368 267.209 84.1461C267.672 84.5697 267.84 84.7033 268.288 84.7033C268.736 84.7033 268.904 84.5695 269.367 84.1461C269.924 83.6366 270.766 82.867 272.305 82.867C273.844 82.867 274.686 83.6368 275.243 84.1461C275.706 84.5697 275.874 84.7033 276.322 84.7033C277.083 84.7033 277.699 85.3199 277.699 86.0806C277.7 86.841 277.083 87.4576 276.322 87.4576Z" fill="#D0844B"/>
<path d="M276.322 94.7809C274.783 94.7809 273.941 94.0111 273.384 93.5017C272.921 93.0782 272.753 92.9441 272.305 92.9441C271.857 92.9441 271.689 93.0779 271.226 93.5015C270.669 94.0111 269.827 94.7809 268.288 94.7809C266.749 94.7809 265.907 94.0111 265.35 93.5015C264.887 93.0779 264.719 92.9441 264.272 92.9441C263.824 92.9441 263.656 93.0779 263.193 93.5015C262.636 94.0111 261.794 94.7809 260.255 94.7809C258.716 94.7809 257.875 94.0109 257.318 93.5013C256.855 93.0782 256.688 92.9441 256.24 92.9441C255.793 92.9441 255.625 93.0779 255.162 93.5015C254.605 94.0111 253.763 94.7809 252.224 94.7809C250.686 94.7809 249.844 94.0111 249.287 93.5015C248.824 93.0779 248.656 92.9441 248.209 92.9441C247.448 92.9441 246.832 92.3275 246.832 91.5669C246.832 90.8062 247.448 90.1896 248.209 90.1896C249.748 90.1896 250.589 90.9594 251.146 91.469C251.609 91.8925 251.777 92.0261 252.224 92.0261C252.672 92.0261 252.84 91.8923 253.303 91.469C253.86 90.9594 254.701 90.1896 256.24 90.1896C257.779 90.1896 258.621 90.9596 259.178 91.4692C259.64 91.8925 259.808 92.0263 260.255 92.0263C260.703 92.0263 260.871 91.8925 261.334 91.4692C261.891 90.9596 262.733 90.1898 264.272 90.1898C265.811 90.1898 266.652 90.9596 267.209 91.4692C267.672 91.8928 267.84 92.0263 268.288 92.0263C268.736 92.0263 268.904 91.8925 269.367 91.4687C269.924 90.9594 270.766 90.1896 272.305 90.1896C273.844 90.1896 274.686 90.9594 275.243 91.469C275.706 91.8925 275.874 92.0261 276.322 92.0261C277.083 92.0261 277.699 92.6427 277.699 93.4034C277.699 94.1641 277.083 94.7809 276.322 94.7809Z" fill="#D0844B"/>
<path d="M254.073 69.8776H268.427V78.1034H254.073V69.8776Z" fill="#B1B7E3"/>
<path d="M207.44 85.8057C206.224 85.8057 205.212 84.8485 205.157 83.6215L204.92 78.3717C204.863 77.1099 205.84 76.0409 207.102 75.9839C208.365 75.924 209.433 76.9038 209.49 78.1658L209.726 83.4156C209.783 84.6774 208.807 85.7464 207.545 85.8034C207.51 85.805 207.475 85.8057 207.44 85.8057Z" fill="white"/>
<path d="M261.215 58.6232C259.947 58.6232 258.919 57.5954 258.919 56.3276V52.9846C258.919 51.7169 259.947 50.689 261.215 50.689C262.482 50.689 263.51 51.7169 263.51 52.9846V56.3276C263.51 57.5954 262.482 58.6232 261.215 58.6232Z" fill="white"/>
<path d="M262.266 77.3765C261.505 77.3765 260.889 76.7599 260.889 75.9992V73.3984C260.889 72.6377 261.505 72.0211 262.266 72.0211C263.027 72.0211 263.643 72.6377 263.643 73.3984V75.9992C263.643 76.7599 263.027 77.3765 262.266 77.3765Z" fill="#90E0C5"/>
<path d="M259.914 68.4712C259.153 68.4712 258.537 67.8546 258.537 67.094V64.4931C258.537 63.7324 259.153 63.1158 259.914 63.1158C260.675 63.1158 261.291 63.7324 261.291 64.4931V67.094C261.291 67.8546 260.675 68.4712 259.914 68.4712Z" fill="#90E0C5"/>
<path d="M261.214 44.5255C260.454 44.5255 259.837 43.9089 259.837 43.148V40.5471C259.837 39.7864 260.454 39.1696 261.214 39.1696C261.975 39.1696 262.592 39.7862 262.592 40.5471V43.148C262.592 43.9087 261.975 44.5255 261.214 44.5255Z" fill="#90E0C5"/>
<path d="M255.584 46.4702C255.152 46.4702 254.726 46.2676 254.458 45.8882L252.956 43.7648C252.517 43.1439 252.664 42.2841 253.285 41.845C253.906 41.4054 254.766 41.5532 255.205 42.1739L256.707 44.2973C257.146 44.9182 256.999 45.7779 256.378 46.217C256.136 46.3881 255.859 46.4702 255.584 46.4702Z" fill="#90E0C5"/>
<path d="M266.771 46.4702C266.496 46.4702 266.219 46.3884 265.977 46.2173C265.356 45.7782 265.209 44.9184 265.648 44.2975L267.15 42.1742C267.589 41.5527 268.449 41.4057 269.07 41.8453C269.691 42.2844 269.838 43.1441 269.399 43.7651L267.897 45.8884C267.629 46.2678 267.203 46.4702 266.771 46.4702Z" fill="#90E0C5"/>
<path d="M286.462 21.0871L288.348 26.3893C288.429 26.6164 288.588 26.7961 288.79 26.8872L293.501 29.0096C294.166 29.3094 294.166 30.3697 293.501 30.6696L288.79 32.792C288.588 32.8828 288.429 33.0628 288.348 33.2897L286.462 38.5919C286.196 39.3409 285.254 39.3409 284.987 38.5919L283.101 33.2897C283.021 33.0626 282.861 32.8828 282.659 32.792L277.948 30.6696C277.283 30.3697 277.283 29.3094 277.948 29.0096L282.659 26.8872C282.861 26.7964 283.021 26.6164 283.101 26.3893L284.987 21.0871C285.254 20.338 286.196 20.338 286.462 21.0871Z" fill="#BDF4E3"/>
<path d="M244.635 1.44064L246.029 5.35913C246.088 5.52701 246.206 5.65989 246.356 5.72713L249.837 7.29562C250.329 7.51724 250.329 8.3008 249.837 8.52242L246.356 10.0909C246.206 10.1582 246.088 10.291 246.029 10.4589L244.635 14.3774C244.438 14.9311 243.742 14.9311 243.545 14.3774L242.152 10.4589C242.092 10.291 241.974 10.1582 241.825 10.0909L238.343 8.52242C237.852 8.3008 237.852 7.51724 238.343 7.29562L241.825 5.72713C241.974 5.65989 242.092 5.52701 242.152 5.35913L243.545 1.44064C243.742 0.886933 244.438 0.886933 244.635 1.44064Z" fill="#BDF4E3"/>
<path d="M276.749 11.6595C277.27 9.45495 275.905 7.2454 273.701 6.7243C271.496 6.20319 269.287 7.56786 268.766 9.77236C268.245 11.9769 269.609 14.1864 271.814 14.7075C274.018 15.2286 276.228 13.864 276.749 11.6595Z" fill="#78EAC4"/>
<path d="M251.04 33.3444C252.017 33.3444 252.81 32.5521 252.81 31.5748C252.81 30.5975 252.017 29.8053 251.04 29.8053C250.063 29.8053 249.271 30.5975 249.271 31.5748C249.271 32.5521 250.063 33.3444 251.04 33.3444Z" fill="#78EAC4"/>
</g>
<defs>
<clipPath id="clip0">
<rect width="113" height="113" fill="white" transform="translate(181)"/>
</clipPath>
</defs>
</svg>
