<svg width="350" height="382" viewBox="0 0 350 382" fill="none" xmlns="http://www.w3.org/2000/svg">
<rect x="92" width="72" height="379" fill="#CC9C9C"/>
<rect width="72" height="379" fill="#CC9C9C"/>
<rect x="184" width="164" height="176" fill="#FED2A4"/>
<rect x="186" y="203" width="164" height="179" fill="#FED2A4"/>
<path d="M321.072 31.184C321.072 31.6 320.928 31.944 320.64 32.216C320.368 32.488 320.024 32.624 319.608 32.624H314.52C313.96 32.624 313.528 32.376 313.224 31.88C312.248 30.312 311.76 28.592 311.76 26.72C311.76 25.136 312.144 23.672 312.912 22.328C313.696 20.984 314.744 19.92 316.056 19.136C317.384 18.352 318.832 17.96 320.4 17.96C321.968 17.96 323.408 18.352 324.72 19.136C326.048 19.92 327.096 20.984 327.864 22.328C328.648 23.672 329.04 25.136 329.04 26.72C329.04 28.304 328.72 29.68 328.08 30.848C327.952 31.088 327.784 31.264 327.576 31.376C327.368 31.504 327.144 31.568 326.904 31.568C326.504 31.568 326.152 31.432 325.848 31.16C325.56 30.904 325.416 30.584 325.416 30.2C325.416 29.96 325.48 29.696 325.608 29.408C325.976 28.544 326.16 27.648 326.16 26.72C326.16 25.696 325.896 24.752 325.368 23.888C324.856 23.024 324.16 22.336 323.28 21.824C322.4 21.328 321.44 21.08 320.4 21.08C319.36 21.08 318.4 21.328 317.52 21.824C316.64 22.336 315.936 23.024 315.408 23.888C314.896 24.752 314.64 25.696 314.64 26.72C314.64 27.168 314.68 27.648 314.76 28.16C314.84 28.672 314.944 29.12 315.072 29.504H318.192V27.248C318.192 26.832 318.328 26.48 318.6 26.192C318.872 25.92 319.216 25.784 319.632 25.784C320.048 25.784 320.392 25.92 320.664 26.192C320.936 26.48 321.072 26.832 321.072 27.248V31.184ZM314.76 45.0149C314.76 45.4309 314.616 45.7749 314.328 46.0469C314.056 46.3349 313.736 46.4789 313.368 46.4789C312.968 46.4789 312.64 46.3349 312.384 46.0469C312.128 45.7749 312 45.4309 312 45.0149V36.9749C312 36.5589 312.136 36.2069 312.408 35.9189C312.696 35.6469 313.048 35.5109 313.464 35.5109H327.336C327.752 35.5109 328.096 35.6469 328.368 35.9189C328.656 36.2069 328.8 36.5589 328.8 36.9749V45.0149C328.8 45.4309 328.664 45.7749 328.392 46.0469C328.136 46.3349 327.8 46.4789 327.384 46.4789C326.984 46.4789 326.656 46.3429 326.4 46.0709C326.16 45.7989 326.04 45.4469 326.04 45.0149V38.5109H321.96V43.9349C321.96 44.3509 321.824 44.6949 321.552 44.9669C321.296 45.2549 320.96 45.3989 320.544 45.3989C320.144 45.3989 319.816 45.2629 319.56 44.9909C319.32 44.7189 319.2 44.3669 319.2 43.9349V38.5109H314.76V45.0149ZM328.8 61.9893C328.8 62.3733 328.672 62.6853 328.416 62.9253C328.16 63.1653 327.84 63.2853 327.456 63.2853H313.464C313.048 63.2853 312.696 63.1413 312.408 62.8533C312.136 62.5813 312 62.2373 312 61.8213C312 61.5973 312.032 61.3733 312.096 61.1493C312.176 60.9413 312.28 60.7893 312.408 60.6933L323.592 51.8853H313.344C312.96 51.8853 312.64 51.7573 312.384 51.5013C312.128 51.2613 312 50.9413 312 50.5413C312 50.1573 312.128 49.8453 312.384 49.6053C312.64 49.3653 312.96 49.2453 313.344 49.2453H327.336C327.752 49.2453 328.096 49.3813 328.368 49.6533C328.656 49.9413 328.8 50.2933 328.8 50.7093C328.8 50.9493 328.752 51.1813 328.656 51.4053C328.56 51.6453 328.432 51.8213 328.272 51.9333L317.136 60.6693H327.456C327.84 60.6693 328.16 60.7893 328.416 61.0293C328.672 61.2853 328.8 61.6053 328.8 61.9893ZM314.76 76.3978C314.76 76.8138 314.616 77.1578 314.328 77.4297C314.056 77.7178 313.736 77.8618 313.368 77.8618C312.968 77.8618 312.64 77.7178 312.384 77.4297C312.128 77.1578 312 76.8138 312 76.3978V68.3578C312 67.9418 312.136 67.5898 312.408 67.3018C312.696 67.0298 313.048 66.8938 313.464 66.8938H327.336C327.752 66.8938 328.096 67.0298 328.368 67.3018C328.656 67.5898 328.8 67.9418 328.8 68.3578V76.3978C328.8 76.8138 328.664 77.1578 328.392 77.4297C328.136 77.7178 327.8 77.8618 327.384 77.8618C326.984 77.8618 326.656 77.7258 326.4 77.4538C326.16 77.1818 326.04 76.8298 326.04 76.3978V69.8938H321.96V75.3178C321.96 75.7338 321.824 76.0778 321.552 76.3498C321.296 76.6378 320.96 76.7818 320.544 76.7818C320.144 76.7818 319.816 76.6458 319.56 76.3738C319.32 76.1018 319.2 75.7498 319.2 75.3178V69.8938H314.76V76.3978ZM314.352 93.8041C314.224 94.0121 314.056 94.1721 313.848 94.2841C313.64 94.4121 313.424 94.4761 313.2 94.4761C312.912 94.4761 312.648 94.3801 312.408 94.1881C312.12 93.9481 311.976 93.5801 311.976 93.0841C311.976 92.7001 312.064 92.3481 312.24 92.0281C312.896 90.8761 314.232 90.3001 316.248 90.3001C316.824 90.3001 317.28 90.1081 317.616 89.7241C317.952 89.3561 318.12 88.8201 318.12 88.1161V83.6281H313.464C313.032 83.6281 312.68 83.5081 312.408 83.2681C312.136 83.0441 312 82.7401 312 82.3561C312 81.8921 312.136 81.4841 312.408 81.1321C312.696 80.7961 313.048 80.6281 313.464 80.6281H327.336C327.752 80.6281 328.096 80.7641 328.368 81.0361C328.656 81.3241 328.8 81.6761 328.8 82.0921V89.0041C328.8 89.8361 328.576 90.6201 328.128 91.3561C327.68 92.0921 327.064 92.6761 326.28 93.1081C325.496 93.5561 324.616 93.7801 323.64 93.7801C322.84 93.7801 322.056 93.5641 321.288 93.1321C320.536 92.7001 319.936 92.1401 319.488 91.4521C318.784 92.4601 317.84 93.0121 316.656 93.1081C316.4 93.1561 316.152 93.1801 315.912 93.1801C315.416 93.2441 315.056 93.3081 314.832 93.3721C314.624 93.4361 314.464 93.5801 314.352 93.8041ZM320.592 88.8841C320.592 89.1721 320.728 89.4521 321 89.7241C321.272 89.9961 321.632 90.2201 322.08 90.3961C322.544 90.5721 323.04 90.6601 323.568 90.6601C324.016 90.6601 324.424 90.5721 324.792 90.3961C325.176 90.2201 325.48 89.9961 325.704 89.7241C325.928 89.4521 326.04 89.1721 326.04 88.8841V83.6281H320.592V88.8841ZM313.872 110.281C313.664 110.361 313.472 110.401 313.296 110.401C312.88 110.401 312.536 110.265 312.264 109.993C312.008 109.721 311.88 109.409 311.88 109.057C311.88 108.769 311.968 108.505 312.144 108.265C312.32 108.041 312.56 107.865 312.864 107.737L315.768 106.489V99.3367L312.84 98.0887C312.536 97.9767 312.296 97.8007 312.12 97.5607C311.96 97.3367 311.88 97.0887 311.88 96.8167C311.88 96.4007 311.992 96.0807 312.216 95.8567C312.44 95.6487 312.744 95.5447 313.128 95.5447C313.272 95.5447 313.424 95.5687 313.584 95.6167L327.936 101.593C328.256 101.721 328.504 101.913 328.68 102.169C328.856 102.425 328.928 102.713 328.896 103.033C328.896 103.321 328.808 103.585 328.632 103.825C328.472 104.081 328.24 104.265 327.936 104.377L313.872 110.281ZM318.528 105.313L324.144 102.889L318.528 100.513V105.313ZM314.808 121.697C314.808 122.113 314.672 122.457 314.4 122.729C314.144 123.017 313.808 123.161 313.392 123.161C312.992 123.161 312.656 123.017 312.384 122.729C312.128 122.457 312 122.113 312 121.697V113.897C312 113.481 312.136 113.129 312.408 112.841C312.696 112.569 313.048 112.433 313.464 112.433H327.336C327.752 112.433 328.096 112.577 328.368 112.865C328.656 113.153 328.8 113.521 328.8 113.969C328.8 114.369 328.656 114.713 328.368 115.001C328.096 115.289 327.752 115.433 327.336 115.433H314.808V121.697Z" fill="#CC9C9C"/>
<path d="M103.559 248.866H58.7578C54.2941 248.866 50.6753 245.247 50.6753 240.783V127.242H111.641V240.783C111.641 245.247 108.023 248.866 103.559 248.866Z" fill="#FFE266"/>
<path d="M59.5032 162.181C56.798 162.181 54.2226 162.738 51.8858 163.743L50.6753 164.406V198.636L52.0645 199.289C54.3538 200.246 56.8668 200.775 59.5027 200.775C70.16 200.775 78.7993 192.135 78.7993 181.478C78.7999 170.821 70.1605 162.181 59.5032 162.181Z" fill="#B2E7F1"/>
<path d="M94.4963 127.242V220.458C94.4963 223.879 91.7225 226.653 88.3012 226.653H56.8704C53.449 226.653 50.6753 223.879 50.6753 220.458V240.783C50.6753 245.247 54.2938 248.866 58.7578 248.866H103.559C108.022 248.866 111.641 245.247 111.641 240.783V127.242H94.4963Z" fill="#EFAA66"/>
<path d="M129.86 158.413H176.856V205.409H129.86V158.413Z" fill="#8BB6EF"/>
<path d="M147.565 171.591H159.151V205.409H147.565V171.591Z" fill="#EF8BBD"/>
<path d="M164.803 158.413V188.445C164.803 191.835 162.368 194.657 159.151 195.257C159.151 195.257 154.471 199.164 154.034 199.164L147.565 195.375H129.86V205.409H176.856V158.413H164.803Z" fill="#8388EF"/>
<path d="M159.151 195.255C158.737 195.332 158.31 195.374 157.873 195.374H147.565V205.409H159.151V195.255Z" fill="#E068BD"/>
<path d="M177.59 171.591H129.127C128.09 171.591 127.25 170.751 127.25 169.714V158.826C127.25 157.789 128.09 156.949 129.127 156.949H177.59C178.627 156.949 179.468 157.789 179.468 158.826V169.714C179.468 170.751 178.627 171.591 177.59 171.591Z" fill="#8BB6EF"/>
<path d="M175.394 174.602H132.076C130.414 174.602 129.065 173.254 129.065 171.591C129.065 169.929 130.414 168.581 132.076 168.581H175.394C177.057 168.581 178.405 169.929 178.405 171.591C178.405 173.254 177.057 174.602 175.394 174.602Z" fill="#6280CC"/>
<path d="M176.083 245.537L169.286 248.72H154.034L143.833 244.417L137.907 248.72H123.812C118.526 248.72 114.241 244.434 114.241 239.149V225.053L118.064 218.728C118.064 217.118 114.638 211.359 115.341 210.027C116.944 206.988 120.136 204.915 123.812 204.915H125.482L135.99 208.885L141.609 204.915H156.861L168.881 208.405L172.988 204.915H182.904C188.19 204.915 192.475 209.2 192.475 214.486V224.402L188.887 230.652C188.887 231.09 192.445 240.018 192.388 240.44C191.858 244.37 188.942 247.544 185.146 248.455C184.427 248.628 176.856 245.537 176.083 245.537Z" fill="#78EAC4"/>
<path d="M182.905 204.915H172.061C176.266 204.915 179.675 208.324 179.675 212.529V230.448C179.675 234.653 176.266 238.062 172.061 238.062H121.856C117.65 238.062 114.241 234.653 114.241 230.448V239.148C114.241 244.434 118.526 248.719 123.812 248.719H137.908L143.273 245.297L154.034 248.719H169.287L173.763 243.391C174.535 243.391 184.428 248.628 185.147 248.455C188.943 247.544 191.859 244.37 192.389 240.44C192.446 240.018 189.288 229.249 189.288 228.811L192.475 224.402V214.486C192.475 209.2 188.19 204.915 182.905 204.915Z" fill="#71AFC4"/>
<path d="M110.306 145.952H52.0107C50.3479 145.952 49 144.604 49 142.941C49 141.279 50.3479 139.931 52.0107 139.931H110.306C111.969 139.931 113.316 141.279 113.316 142.941C113.316 144.604 111.969 145.952 110.306 145.952Z" fill="#D0844B"/>
<path d="M172.989 204.915H156.862L192.386 240.44C192.443 240.017 192.475 239.586 192.475 239.148V224.402L172.989 204.915Z" fill="#F7C4DB"/>
<path d="M192.387 240.44C192.443 240.017 192.476 239.586 192.476 239.148V224.402L179.611 211.538C179.654 211.813 179.675 212.232 179.675 212.53V227.728L192.387 240.44Z" fill="#E893DB"/>
<path d="M141.609 204.915H125.482L169.287 248.719H182.904C183.677 248.719 184.427 248.625 185.146 248.452L141.609 204.915Z" fill="#F7C4DB"/>
<path d="M174.392 237.697C173.657 237.933 172.874 238.062 172.061 238.062H158.63L169.287 248.719H182.905C183.677 248.719 184.427 248.625 185.147 248.452L174.392 237.697Z" fill="#E893DB"/>
<path d="M137.908 248.719H154.034L115.343 210.028C114.641 211.36 114.241 212.876 114.241 214.486V225.053L137.908 248.719Z" fill="#F7C4DB"/>
<path d="M137.908 248.719H154.034L143.377 238.062H127.25L137.908 248.719Z" fill="#E893DB"/>
<path d="M186.114 99.7368L188.587 106.691C188.693 106.989 188.903 107.225 189.167 107.344L195.346 110.127C196.218 110.52 196.218 111.911 195.346 112.304L189.167 115.088C188.903 115.207 188.693 115.443 188.587 115.741L186.114 122.695C185.765 123.677 184.529 123.677 184.18 122.695L181.707 115.741C181.601 115.443 181.391 115.207 181.127 115.088L174.949 112.304C174.076 111.911 174.076 110.52 174.949 110.127L181.127 107.344C181.391 107.224 181.601 106.988 181.707 106.691L184.18 99.7368C184.529 98.7544 185.765 98.7544 186.114 99.7368Z" fill="#B2E7F1"/>
<path d="M132.793 114.648L134.628 119.807C134.706 120.028 134.862 120.202 135.058 120.291L139.641 122.356C140.289 122.647 140.289 123.679 139.641 123.971L135.058 126.035C134.862 126.124 134.706 126.299 134.628 126.52L132.793 131.678C132.534 132.407 131.618 132.407 131.358 131.678L129.524 126.52C129.445 126.299 129.29 126.124 129.094 126.035L124.511 123.971C123.864 123.679 123.864 122.647 124.511 122.356L129.094 120.291C129.29 120.202 129.445 120.028 129.524 119.807L131.358 114.648C131.618 113.92 132.534 113.92 132.793 114.648Z" fill="#B2E7F1"/>
<path d="M156.119 113.548C158.875 112.406 160.183 109.246 159.041 106.49C157.898 103.734 154.738 102.426 151.983 103.569C149.227 104.711 147.919 107.871 149.061 110.627C150.203 113.383 153.363 114.691 156.119 113.548Z" fill="#8BB6EF"/>
<path d="M121.672 108.591C122.959 108.591 124.001 107.548 124.001 106.262C124.001 104.975 122.959 103.932 121.672 103.932C120.386 103.932 119.343 104.975 119.343 106.262C119.343 107.548 120.386 108.591 121.672 108.591Z" fill="#8BB6EF"/>
<g clip-path="url(#clip0)">
<path d="M217.77 160.035C207.507 160.035 198.024 165.51 192.893 174.398L157.378 235.911C146.321 255.062 160.142 279 182.255 279H253.285C275.398 279 289.218 255.062 278.162 235.911L242.647 174.398C237.516 165.51 228.033 160.035 217.77 160.035Z" fill="#B2E7F1"/>
<path d="M216.237 160.035H219.303C223.265 160.035 226.925 157.922 228.906 154.491L242.658 130.671C247.911 121.574 238.747 110.953 228.978 114.815L221.848 117.635C219.228 118.671 216.312 118.671 213.693 117.635L206.562 114.815C196.793 110.953 187.629 121.574 192.882 130.671L206.634 154.491C208.615 157.922 212.275 160.035 216.237 160.035Z" fill="#B2E7F1"/>
<path d="M278.162 235.911L242.647 174.398C237.516 165.51 228.033 160.035 217.77 160.035C214.878 160.035 212.048 160.47 209.36 161.293C214.277 163.097 218.514 166.755 221.191 171.725L248.159 221.792C256.555 237.379 246.061 256.862 229.269 256.862H175.332C165.518 256.862 157.857 250.206 154.86 241.563C149.068 259.459 162.276 279 182.255 279H253.285C275.398 279 289.219 255.062 278.162 235.911Z" fill="#A7ADF1"/>
<path d="M218.369 158.906C217.204 161.507 217.77 164.557 219.79 166.567L241.643 188.314C246.257 192.906 254.073 189.085 253.284 182.623L252.74 178.176C252.432 175.652 253.546 173.165 255.634 171.714L259.313 169.158C264.66 165.444 262.305 157.069 255.807 156.684L225.03 154.864C222.186 154.696 219.534 156.305 218.369 158.906Z" fill="#EF8BBD"/>
<path d="M217.171 158.906C218.335 161.507 217.77 164.557 215.75 166.567L193.897 188.314C189.283 192.906 181.467 189.085 182.256 182.623L182.8 178.176C183.108 175.652 181.994 173.165 179.906 171.714L176.226 169.158C170.88 165.444 173.235 157.069 179.733 156.684L210.51 154.864C213.354 154.696 216.006 156.305 217.171 158.906Z" fill="#EF8BBD"/>
<path d="M198.694 168.15C197.832 168.15 197.033 167.598 196.757 166.734C196.416 165.664 197.006 164.52 198.076 164.179L217.152 158.098C218.22 157.756 219.366 158.347 219.707 159.417C220.048 160.487 219.457 161.631 218.387 161.972L199.312 168.053C199.107 168.119 198.898 168.15 198.694 168.15Z" fill="#B74A96"/>
<path d="M237.622 168.15C237.417 168.15 237.208 168.119 237.003 168.053L217.928 161.972C216.858 161.631 216.267 160.487 216.608 159.417C216.95 158.347 218.095 157.756 219.163 158.098L238.239 164.179C239.309 164.52 239.899 165.664 239.558 166.734C239.283 167.598 238.483 168.15 237.622 168.15Z" fill="#B74A96"/>
<path d="M215.556 147.501C214.373 147.501 213.223 146.879 212.6 145.774L209.642 140.522C208.723 138.891 209.301 136.824 210.932 135.906C212.562 134.987 214.629 135.565 215.548 137.196L218.506 142.448C219.425 144.079 218.847 146.146 217.216 147.064C216.691 147.36 216.12 147.501 215.556 147.501Z" fill="white"/>
<path d="M207.366 132.958C206.181 132.958 205.031 132.336 204.41 131.229L203.873 130.277C202.954 128.646 203.531 126.58 205.162 125.661C206.792 124.742 208.86 125.319 209.778 126.95L210.317 127.907C211.235 129.539 210.656 131.605 209.025 132.522C208.499 132.818 207.929 132.958 207.366 132.958Z" fill="white"/>
<path d="M222.961 187.048C213.713 184.451 203.37 187.085 200.014 197.047C196.658 207.009 206.299 222.627 216.024 225.562C225.749 228.496 238.014 222.447 240.59 211.769C243.167 201.09 232.208 189.645 222.961 187.048Z" fill="#D49C8D"/>
<path d="M232.265 192.284L240.97 208.446C240.938 202.42 237.138 196.466 232.265 192.284Z" fill="#C7758D"/>
<path d="M217.769 199.542C217.769 201.801 215.938 203.632 213.679 203.632C211.42 203.632 209.588 201.801 209.588 199.542C209.588 197.283 211.42 195.451 213.679 195.451C215.938 195.451 217.769 197.283 217.769 199.542Z" fill="#913C5D"/>
<path d="M232.094 203.441C232.456 201.211 230.941 199.11 228.712 198.749C226.482 198.387 224.381 199.902 224.02 202.132C223.658 204.362 225.173 206.462 227.403 206.824C229.632 207.185 231.733 205.671 232.094 203.441Z" fill="#913C5D"/>
<path d="M225.95 215.427C225.95 217.686 224.119 219.518 221.86 219.518C219.6 219.518 217.769 217.686 217.769 215.427C217.769 213.168 219.6 211.336 221.86 211.336C224.119 211.336 225.95 213.168 225.95 215.427Z" fill="#913C5D"/>
<path d="M264.095 250.989C267.377 241.962 265.524 231.451 255.841 227.359C246.159 223.267 229.863 231.712 226.209 241.19C222.555 250.669 227.67 263.351 238.126 266.72C248.581 270.088 260.814 260.016 264.095 250.989Z" fill="#D49C8D"/>
<path d="M255.842 227.359C254.089 226.618 252.118 226.29 250.046 226.303C254.512 240.893 244.472 256.863 229.269 256.863H227.168C229.351 261.365 233.125 265.109 238.126 266.72C248.581 270.088 260.814 260.016 264.096 250.989C267.377 241.962 265.524 231.451 255.842 227.359Z" fill="#C7758D"/>
<path d="M251.114 238.416C251.114 240.676 249.283 242.507 247.024 242.507C244.765 242.507 242.933 240.676 242.933 238.416C242.933 236.157 244.765 234.326 247.024 234.326C249.283 234.326 251.114 236.157 251.114 238.416Z" fill="#913C5D"/>
<path d="M241.548 252.737C242.068 250.539 240.707 248.336 238.509 247.816C236.311 247.296 234.107 248.657 233.588 250.855C233.068 253.053 234.429 255.257 236.627 255.776C238.825 256.296 241.028 254.935 241.548 252.737Z" fill="#913C5D"/>
<path d="M256.525 251.573C256.887 249.343 255.372 247.243 253.142 246.881C250.912 246.52 248.812 248.034 248.45 250.264C248.089 252.494 249.603 254.594 251.833 254.956C254.063 255.317 256.164 253.803 256.525 251.573Z" fill="#913C5D"/>
<path d="M175.35 235.261C168.558 242.053 165.791 252.362 172.834 260.165C179.878 267.968 198.216 267.208 205.536 260.165C212.856 253.121 213.586 239.465 205.536 231.991C197.487 224.517 182.142 228.469 175.35 235.261Z" fill="#D49C8D"/>
<path d="M205.536 260.165C206.557 259.182 207.445 258.068 208.203 256.863H175.332C173.534 256.863 171.81 256.637 170.172 256.219C170.822 257.582 171.699 258.906 172.835 260.165C179.878 267.968 198.216 267.208 205.536 260.165Z" fill="#C7758D"/>
<path d="M186.933 252.946C186.933 255.205 185.102 257.037 182.842 257.037C180.583 257.037 178.752 255.205 178.752 252.946C178.752 250.687 180.583 248.856 182.842 248.856C185.102 248.856 186.933 250.687 186.933 252.946Z" fill="#913C5D"/>
<path d="M195.114 239.937C195.114 242.196 193.282 244.027 191.023 244.027C188.764 244.027 186.933 242.196 186.933 239.937C186.933 237.677 188.764 235.846 191.023 235.846C193.283 235.846 195.114 237.677 195.114 239.937Z" fill="#913C5D"/>
<path d="M202.482 253.818C204.079 252.22 204.079 249.631 202.482 248.034C200.884 246.436 198.295 246.436 196.698 248.034C195.1 249.631 195.1 252.22 196.698 253.818C198.295 255.415 200.884 255.415 202.482 253.818Z" fill="#913C5D"/>
<path d="M274.156 114.912L276.939 122.739C277.059 123.074 277.295 123.34 277.592 123.474L284.547 126.607C285.529 127.05 285.529 128.615 284.547 129.058L277.592 132.191C277.295 132.325 277.059 132.591 276.939 132.926L274.156 140.753C273.763 141.859 272.372 141.859 271.978 140.753L269.194 132.926C269.075 132.591 268.839 132.325 268.542 132.191L261.587 129.058C260.604 128.615 260.604 127.05 261.587 126.607L268.542 123.474C268.839 123.34 269.075 123.074 269.194 122.739L271.978 114.912C272.372 113.806 273.762 113.806 274.156 114.912Z" fill="#F7C4DB"/>
<path d="M147.943 173.19L150.727 181.018C150.846 181.353 151.082 181.618 151.38 181.752L158.334 184.886C159.317 185.328 159.317 186.894 158.334 187.336L151.38 190.469C151.082 190.603 150.846 190.869 150.727 191.204L147.943 199.032C147.55 200.138 146.159 200.138 145.766 199.032L142.982 191.204C142.863 190.869 142.627 190.603 142.329 190.469L135.375 187.336C134.392 186.894 134.392 185.328 135.375 184.886L142.329 181.752C142.627 181.618 142.863 181.353 142.982 181.018L145.766 173.19C146.159 172.084 147.55 172.084 147.943 173.19Z" fill="#F7C4DB"/>
<path d="M165.017 123.762L167.082 129.569C167.17 129.817 167.345 130.014 167.567 130.114L172.725 132.438C173.454 132.766 173.454 133.928 172.725 134.256L167.567 136.58C167.346 136.68 167.17 136.877 167.082 137.125L165.017 142.931C164.725 143.752 163.694 143.752 163.402 142.931L161.337 137.125C161.249 136.877 161.074 136.679 160.852 136.58L155.694 134.256C154.965 133.928 154.965 132.766 155.694 132.438L160.852 130.114C161.073 130.014 161.248 129.817 161.337 129.569L163.402 123.762C163.694 122.942 164.725 122.942 165.017 123.762Z" fill="#F7C4DB"/>
<path d="M291.225 175.882C292.991 173.025 292.107 169.278 289.25 167.512C286.393 165.746 282.645 166.631 280.879 169.487C279.114 172.344 279.998 176.092 282.855 177.858C285.712 179.623 289.459 178.739 291.225 175.882Z" fill="#EF8BBD"/>
<path d="M296.362 147.053C296.362 148.502 295.188 149.675 293.74 149.675C292.292 149.675 291.118 148.501 291.118 147.053C291.118 145.605 292.292 144.432 293.74 144.432C295.189 144.432 296.362 145.605 296.362 147.053Z" fill="#EF8BBD"/>
</g>
<defs>
<clipPath id="clip0">
<rect width="165" height="165" fill="white" transform="translate(133 114)"/>
</clipPath>
</defs>
</svg>
