<svg width="136" height="204" viewBox="0 0 136 204" fill="none" xmlns="http://www.w3.org/2000/svg">
<rect width="136" height="204" fill="#D3E080"/>
<path d="M34.064 157.152C34.464 157.152 34.808 157.288 35.096 157.56C35.4 157.832 35.552 158.16 35.552 158.544C35.552 158.752 35.504 158.968 35.408 159.192L29.48 173.064C29.336 173.368 29.136 173.6 28.88 173.76C28.624 173.92 28.352 174 28.064 174C27.792 173.984 27.536 173.904 27.296 173.76C27.072 173.6 26.896 173.376 26.768 173.088L20.84 159.168C20.76 159.008 20.72 158.808 20.72 158.568C20.72 158.136 20.88 157.792 21.2 157.536C21.52 157.264 21.848 157.128 22.184 157.128C22.456 157.128 22.712 157.208 22.952 157.368C23.192 157.528 23.376 157.76 23.504 158.064L28.328 169.416L32.744 158.064C32.872 157.776 33.056 157.552 33.296 157.392C33.536 157.232 33.792 157.152 34.064 157.152ZM47.5696 171.24C47.9856 171.24 48.3296 171.384 48.6016 171.672C48.8896 171.944 49.0336 172.264 49.0336 172.632C49.0336 173.032 48.8896 173.36 48.6016 173.616C48.3296 173.872 47.9856 174 47.5696 174H39.5296C39.1136 174 38.7616 173.864 38.4736 173.592C38.2016 173.304 38.0656 172.952 38.0656 172.536V158.664C38.0656 158.248 38.2016 157.904 38.4736 157.632C38.7616 157.344 39.1136 157.2 39.5296 157.2H47.5696C47.9856 157.2 48.3296 157.336 48.6016 157.608C48.8896 157.864 49.0336 158.2 49.0336 158.616C49.0336 159.016 48.8976 159.344 48.6256 159.6C48.3536 159.84 48.0016 159.96 47.5696 159.96H41.0656V164.04H46.4896C46.9056 164.04 47.2496 164.176 47.5216 164.448C47.8096 164.704 47.9536 165.04 47.9536 165.456C47.9536 165.856 47.8176 166.184 47.5456 166.44C47.2736 166.68 46.9216 166.8 46.4896 166.8H41.0656V171.24H47.5696ZM64.184 164.928C64.6 164.928 64.944 165.072 65.216 165.36C65.488 165.632 65.624 165.976 65.624 166.392V171.48C65.624 172.04 65.376 172.472 64.88 172.776C63.312 173.752 61.592 174.24 59.72 174.24C58.136 174.24 56.672 173.856 55.328 173.088C53.984 172.304 52.92 171.256 52.136 169.944C51.352 168.616 50.96 167.168 50.96 165.6C50.96 164.032 51.352 162.592 52.136 161.28C52.92 159.952 53.984 158.904 55.328 158.136C56.672 157.352 58.136 156.96 59.72 156.96C61.304 156.96 62.68 157.28 63.848 157.92C64.088 158.048 64.264 158.216 64.376 158.424C64.504 158.632 64.568 158.856 64.568 159.096C64.568 159.496 64.432 159.848 64.16 160.152C63.904 160.44 63.584 160.584 63.2 160.584C62.96 160.584 62.696 160.52 62.408 160.392C61.544 160.024 60.648 159.84 59.72 159.84C58.696 159.84 57.752 160.104 56.888 160.632C56.024 161.144 55.336 161.84 54.824 162.72C54.328 163.6 54.08 164.56 54.08 165.6C54.08 166.64 54.328 167.6 54.824 168.48C55.336 169.36 56.024 170.064 56.888 170.592C57.752 171.104 58.696 171.36 59.72 171.36C60.168 171.36 60.648 171.32 61.16 171.24C61.672 171.16 62.12 171.056 62.504 170.928V167.808H60.248C59.832 167.808 59.48 167.672 59.192 167.4C58.92 167.128 58.784 166.784 58.784 166.368C58.784 165.952 58.92 165.608 59.192 165.336C59.48 165.064 59.832 164.928 60.248 164.928H64.184ZM80.8949 164.928C81.3109 164.928 81.6549 165.072 81.9269 165.36C82.1989 165.632 82.3349 165.976 82.3349 166.392V171.48C82.3349 172.04 82.0869 172.472 81.5909 172.776C80.0229 173.752 78.3029 174.24 76.4309 174.24C74.8469 174.24 73.3829 173.856 72.0389 173.088C70.6949 172.304 69.6309 171.256 68.8469 169.944C68.0629 168.616 67.6709 167.168 67.6709 165.6C67.6709 164.032 68.0629 162.592 68.8469 161.28C69.6309 159.952 70.6949 158.904 72.0389 158.136C73.3829 157.352 74.8469 156.96 76.4309 156.96C78.0149 156.96 79.3909 157.28 80.5589 157.92C80.7989 158.048 80.9749 158.216 81.0869 158.424C81.2149 158.632 81.2789 158.856 81.2789 159.096C81.2789 159.496 81.1429 159.848 80.8709 160.152C80.6149 160.44 80.2949 160.584 79.9109 160.584C79.6709 160.584 79.4069 160.52 79.1189 160.392C78.2549 160.024 77.3589 159.84 76.4309 159.84C75.4069 159.84 74.4629 160.104 73.5989 160.632C72.7349 161.144 72.0469 161.84 71.5349 162.72C71.0389 163.6 70.7909 164.56 70.7909 165.6C70.7909 166.64 71.0389 167.6 71.5349 168.48C72.0469 169.36 72.7349 170.064 73.5989 170.592C74.4629 171.104 75.4069 171.36 76.4309 171.36C76.8789 171.36 77.3589 171.32 77.8709 171.24C78.3829 171.16 78.8309 171.056 79.2149 170.928V167.808H76.9589C76.5429 167.808 76.1909 167.672 75.9029 167.4C75.6309 167.128 75.4949 166.784 75.4949 166.368C75.4949 165.952 75.6309 165.608 75.9029 165.336C76.1909 165.064 76.5429 164.928 76.9589 164.928H80.8949ZM88.2219 172.536C88.2219 172.952 88.0699 173.304 87.7659 173.592C87.4619 173.864 87.1099 174 86.7099 174C86.2779 174 85.9179 173.864 85.6299 173.592C85.3579 173.304 85.2219 172.952 85.2219 172.536V158.664C85.2219 158.248 85.3659 157.904 85.6539 157.632C85.9419 157.344 86.3099 157.2 86.7579 157.2C87.1579 157.2 87.5019 157.344 87.7899 157.632C88.0779 157.904 88.2219 158.248 88.2219 158.664V172.536ZM101.335 171.24C101.751 171.24 102.095 171.384 102.367 171.672C102.655 171.944 102.799 172.264 102.799 172.632C102.799 173.032 102.655 173.36 102.367 173.616C102.095 173.872 101.751 174 101.335 174H93.2953C92.8793 174 92.5273 173.864 92.2393 173.592C91.9673 173.304 91.8313 172.952 91.8313 172.536V158.664C91.8313 158.248 91.9673 157.904 92.2393 157.632C92.5273 157.344 92.8793 157.2 93.2953 157.2H101.335C101.751 157.2 102.095 157.336 102.367 157.608C102.655 157.864 102.799 158.2 102.799 158.616C102.799 159.016 102.663 159.344 102.391 159.6C102.119 159.84 101.767 159.96 101.335 159.96H94.8313V164.04H100.255C100.671 164.04 101.015 164.176 101.287 164.448C101.575 164.704 101.719 165.04 101.719 165.456C101.719 165.856 101.583 166.184 101.311 166.44C101.039 166.68 100.687 166.8 100.255 166.8H94.8313V171.24H101.335ZM110.966 174.24C109.814 174.24 108.79 174.096 107.894 173.808C106.998 173.52 106.158 173.032 105.374 172.344C104.942 171.96 104.726 171.536 104.726 171.072C104.726 170.704 104.862 170.384 105.134 170.112C105.406 169.824 105.734 169.68 106.118 169.68C106.422 169.68 106.694 169.776 106.934 169.968C107.574 170.496 108.198 170.88 108.806 171.12C109.414 171.36 110.134 171.48 110.966 171.48C111.862 171.48 112.63 171.28 113.27 170.88C113.926 170.48 114.254 169.984 114.254 169.392C114.254 168.672 113.934 168.112 113.294 167.712C112.654 167.296 111.638 166.984 110.246 166.776C106.742 166.264 104.99 164.632 104.99 161.88C104.99 160.872 105.254 160 105.782 159.264C106.31 158.512 107.03 157.944 107.942 157.56C108.854 157.16 109.87 156.96 110.99 156.96C111.998 156.96 112.942 157.112 113.822 157.416C114.718 157.72 115.462 158.12 116.054 158.616C116.518 158.984 116.75 159.408 116.75 159.888C116.75 160.256 116.614 160.584 116.342 160.872C116.07 161.144 115.75 161.28 115.382 161.28C115.142 161.28 114.926 161.208 114.734 161.064C114.318 160.728 113.734 160.424 112.982 160.152C112.246 159.864 111.582 159.72 110.99 159.72C109.982 159.72 109.198 159.912 108.638 160.296C108.094 160.664 107.822 161.152 107.822 161.76C107.822 162.448 108.102 162.968 108.662 163.32C109.238 163.672 110.134 163.96 111.35 164.184C112.726 164.424 113.822 164.736 114.638 165.12C115.47 165.488 116.094 166 116.51 166.656C116.926 167.296 117.134 168.152 117.134 169.224C117.134 170.232 116.846 171.12 116.27 171.888C115.71 172.64 114.958 173.224 114.014 173.64C113.07 174.04 112.054 174.24 110.966 174.24Z" fill="#54AE46"/>
<path d="M105.029 85.9569C104.036 86.1167 103.067 85.4973 102.81 84.5042C102.536 83.4502 103.17 82.3741 104.224 82.1011C104.309 82.079 112.792 79.8764 116.075 78.5762C117.088 78.1759 118.233 78.671 118.634 79.6835C119.035 80.696 118.54 81.8417 117.527 82.2427C114.018 83.6326 105.571 85.826 105.213 85.9188C105.152 85.9343 105.09 85.947 105.029 85.9569Z" fill="#518699"/>
<path d="M120.381 66.4708C118.062 64.3094 114.056 64.0503 114.056 64.0503C114.056 64.0503 116.749 60.4247 116.864 58.6441C116.98 56.8634 107.902 42.1241 103.561 40.7621C101.118 39.9956 98.3886 42.0373 95.9116 44.9293C94.8774 44.1108 93.6894 43.4481 92.3646 42.9973L88.6422 41.7304C88.8282 38.9005 88.3971 36.5247 86.8698 35.3165C81.1741 30.8114 65.2051 34.0603 57.6041 35.9619C53.8579 36.8992 53.8622 42.7204 54.8293 48.3837L54.7327 48.4071C50.9449 49.3195 48.2855 52.7221 48.315 56.6182L46.1738 108.71L40.6798 117.061C39.3347 119.105 39.8327 121.845 41.811 123.286L45.7173 126.13C47.8565 127.676 50.8438 127.195 52.3896 125.056L60.4886 113.848L108.022 91.4601C111.389 89.6345 113.226 85.9185 112.697 82.184C116.689 81.1083 120.88 79.671 121.859 78.1892C123.841 75.1882 122.7 68.6325 120.381 66.4708Z" fill="#78EAC4"/>
<path d="M120.381 66.4709C118.763 64.9626 116.325 64.3812 114.998 64.1672L108.885 67.4103C107.653 65.2257 105.58 63.685 103.225 63.0749L105.368 72.166C106.156 75.5079 104.608 78.9631 101.59 80.5998L66.9209 99.6934C64.6902 100.922 62.5858 102.367 60.6382 104.008L55.0997 108.674C53.8079 110.462 51.3115 110.864 49.524 109.572L46.2597 107.195C46.2515 107.189 46.2444 107.182 46.236 107.176L46.1731 108.711L40.679 117.061C39.3339 119.105 39.8321 121.846 41.8104 123.286L45.7167 126.13C47.8559 127.676 50.8431 127.195 52.389 125.056L60.488 113.848L75.0692 106.981C92.9991 103.806 117.762 99.1375 118.861 97.382C119.956 95.6317 119.648 86.7661 118.643 80.2418C120.197 79.5905 121.392 78.895 121.858 78.1895C123.84 75.1883 122.7 68.6326 120.381 66.4709Z" fill="#71AFC4"/>
<path d="M79.0632 107.194C78.2178 107.33 77.35 106.9 76.9668 106.087C76.5031 105.102 76.9252 103.927 77.9106 103.463L107.128 89.7017C109.92 88.1609 111.357 84.928 110.624 81.8201L107.898 70.2546C107.42 68.228 106.086 66.5162 104.237 65.5583C102.388 64.6002 100.22 64.497 98.289 65.2755C97.5514 65.573 96.7055 65.3975 96.1468 64.8299C95.5881 64.2623 95.426 63.4146 95.7351 62.6809L97.6676 58.0968C98.748 55.534 98.7159 52.7253 97.5769 50.1881C96.4379 47.6509 94.361 45.7601 91.7284 44.864L85.1516 42.6255C80.2542 40.9587 74.9839 43.2699 72.8926 48.0019L70.8369 52.6534C70.5247 53.3605 69.8277 53.8196 69.055 53.8281C68.2821 53.8367 67.5757 53.3926 67.2477 52.6928C65.962 49.9472 62.8905 48.4705 59.9422 49.1799L55.1937 50.3241C54.131 50.5788 53.0697 49.9276 52.8149 48.8691C52.5598 47.8106 53.2114 46.7455 54.2699 46.4905L59.0189 45.3462C62.5126 44.5047 66.1158 45.5661 68.6068 47.9438L69.2855 46.408C70.6891 43.2319 73.2133 40.7148 76.3931 39.3201C79.5737 37.9255 83.1349 37.7737 86.4217 38.8926L92.9984 41.1311C96.6255 42.3655 99.6054 45.0781 101.174 48.5733C102.743 52.0687 102.789 56.0983 101.301 59.6287L100.801 60.815C102.605 60.7898 104.409 61.2065 106.051 62.0571C108.922 63.5447 110.994 66.2028 111.736 69.3498L114.462 80.9153C115.606 85.768 113.344 90.8169 108.961 93.1936C108.929 93.2113 108.895 93.2281 108.862 93.2441L79.5904 107.031C79.4191 107.111 79.2418 107.165 79.0632 107.194Z" fill="#518699"/>
<path d="M68.1023 103.553C67.6377 103.628 67.1536 103.42 66.8978 102.991C66.563 102.43 66.7469 101.703 67.308 101.369C68.9895 100.366 74.4284 96.7721 79.2271 93.6008C82.8525 91.2049 86.277 88.9419 87.699 88.0482C88.2531 87.7002 88.9824 87.8672 89.3303 88.4203C89.6779 88.9735 89.5113 89.7039 88.9582 90.0515C87.5591 90.9308 84.1455 93.1865 80.5317 95.5747C75.476 98.9158 70.2482 102.371 68.5201 103.401C68.3873 103.48 68.2456 103.53 68.1023 103.553Z" fill="#518699"/>
<path d="M94.3866 86.0244C93.9769 86.0903 93.5449 85.9386 93.2694 85.5901C92.864 85.0776 92.9512 84.3336 93.4637 83.9283C94.4226 83.1702 95.4297 82.5392 96.4034 81.9291C97.0537 81.5216 97.7265 81.1003 98.3889 80.6391C98.9253 80.2661 99.6624 80.3979 100.036 80.9343C100.409 81.4707 100.277 82.208 99.7407 82.5812C99.0312 83.0751 98.3339 83.5119 97.6598 83.9343C96.6975 84.5372 95.7884 85.1067 94.9312 85.7844C94.7671 85.9139 94.5792 85.9934 94.3866 86.0244Z" fill="#518699"/>
<path d="M77.9686 84.5226C77.6084 84.5806 77.2261 84.4718 76.947 84.1951C76.4828 83.7352 76.4793 82.9862 76.9392 82.522L90.6951 68.6363C91.1554 68.1719 91.9042 68.1686 92.3682 68.6285C92.8323 69.0884 92.8358 69.8374 92.3759 70.3015L78.62 84.1873C78.4366 84.3724 78.2074 84.4841 77.9686 84.5226Z" fill="#518699"/>
<path d="M71.1794 91.8669C70.8293 91.9233 70.4577 91.8223 70.1794 91.5602C69.7037 91.1123 69.6814 90.3634 70.1294 89.8879L73.2497 86.5751C73.6974 86.0997 74.4462 86.0769 74.9219 86.5251C75.3976 86.973 75.4199 87.7218 74.972 88.1973L71.8517 91.5101C71.6658 91.7075 71.4279 91.8269 71.1794 91.8669Z" fill="#518699"/>
<path d="M54.8849 86.7777C54.7692 86.7963 54.6504 86.8048 54.5293 86.8025C53.4405 86.7804 52.5757 85.8799 52.5978 84.7912C52.7255 78.4949 53.7445 70.6178 55.2575 64.2337C55.5085 63.174 56.5718 62.5186 57.6308 62.7699C58.6905 63.0211 59.3458 64.0836 59.0948 65.1431C57.6416 71.2745 56.6629 78.834 56.5407 84.8709C56.5209 85.8385 55.8075 86.6292 54.8849 86.7777Z" fill="white"/>
<path d="M60.1569 59.8915C59.5279 59.9928 58.8617 59.7879 58.3959 59.2855C57.6555 58.487 57.7026 57.2396 58.5012 56.4992C58.9202 56.1106 60.0327 55.0789 61.0941 54.2217C61.9415 53.5374 63.1829 53.6693 63.8668 54.5164C64.5512 55.3635 64.4191 56.6049 63.572 57.2891C62.6154 58.062 61.5742 59.0274 61.1823 59.3908C60.8861 59.6654 60.5279 59.8318 60.1569 59.8915Z" fill="white"/>
<path d="M25.4269 48.8127L27.15 51.9569C27.2238 52.0915 27.3425 52.1885 27.4787 52.2253L30.657 53.0833C31.1059 53.2045 31.2133 53.8716 30.8251 54.1276L28.0768 55.9398C27.9592 56.0173 27.8767 56.1467 27.8489 56.2978L27.1998 59.824C27.1081 60.3222 26.5155 60.4176 26.2721 59.9733L24.549 56.8291C24.4752 56.6945 24.3565 56.5975 24.2203 56.5607L21.042 55.7027C20.5931 55.5815 20.4857 54.9144 20.8739 54.6584L23.6222 52.8462C23.7398 52.7685 23.8223 52.6391 23.8501 52.4882L24.4992 48.962C24.5909 48.4638 25.1835 48.3684 25.4269 48.8127Z" fill="#BDF4E3"/>
<path d="M44.3853 33.8589C45.9115 33.6131 46.9496 32.1767 46.7039 30.6504C46.4581 29.1242 45.0217 28.0862 43.4954 28.3319C41.9692 28.5776 40.9311 30.0141 41.1769 31.5403C41.4226 33.0666 42.8591 34.1046 44.3853 33.8589Z" fill="#78EAC4"/>
<path d="M36.8632 69.9742C37.6949 69.8403 38.2607 69.0574 38.1268 68.2257C37.9928 67.3939 37.21 66.8281 36.3782 66.962C35.5464 67.096 34.9806 67.8788 35.1146 68.7106C35.2485 69.5424 36.0314 70.1082 36.8632 69.9742Z" fill="#78EAC4"/>
<path d="M54.5717 123.6L51.4205 124.549C40.7232 127.771 30.5043 124.218 24.9306 112.831C19.3569 101.445 20.7277 88.5239 22.2341 81.8592C23.7403 75.1945 27.4055 65.6772 36.3516 62.9834C46.7745 59.8449 57.6473 66.313 59.863 76.9702L61.9311 86.917C62.1535 87.9865 62.4699 89.0344 62.8766 90.0482L66.44 98.9299C70.4973 109.043 65.0056 120.459 54.5717 123.6Z" fill="#D49C8D"/>
<path d="M51.4203 124.549C54.9523 123.59 58.7318 122.332 61.4362 119.809C66.6859 115.214 69.0661 107.861 67.0898 100.839C66.9096 100.199 66.6934 99.5622 66.4398 98.9301L62.8764 90.0483C62.1848 88.4333 61.7971 86.2786 61.4393 84.5525L59.8629 76.9704C59.6883 76.1458 59.4654 75.3323 59.1844 74.5383C57.7918 70.5959 55.1558 67.3767 51.8413 65.2143C54.0163 66.9449 55.6104 69.3176 56.2195 72.2523L56.4595 82.7852C56.4603 84.2009 56.7081 85.6099 57.2333 86.9246C57.2367 86.933 57.6004 87.6572 57.6037 87.6655L59.9622 92.8088C63.3256 101.184 58.7499 110.646 50.0734 113.259L47.4528 114.048C38.5573 116.727 29.7816 114.537 25.1588 105.108C20.536 95.6802 21.9717 84.23 23.23 78.707C23.3851 78.0262 23.5676 77.3095 23.7822 76.5718C23.1223 78.3725 22.6456 80.0499 22.2335 81.8594C20.9538 87.5214 19.7729 97.6993 22.864 107.615C23.4235 109.407 24.0984 111.13 24.93 112.832C27.3685 117.813 30.6961 121.295 34.5639 123.367C35.5593 123.9 36.5965 124.344 37.6679 124.692C41.9037 126.075 46.6135 125.997 51.4203 124.549Z" fill="#C7758D"/>
<path d="M29.6117 92.6542C28.9205 92.6542 28.3384 92.1177 28.2918 91.4178C27.9538 86.3264 28.7855 81.2315 30.6971 76.6841C30.9806 76.0099 31.7571 75.6934 32.4308 75.9766C33.1051 76.26 33.4217 77.0362 33.1383 77.7103C31.3854 81.8803 30.6232 86.5595 30.9341 91.2425C30.9825 91.9721 30.4302 92.6028 29.7006 92.6512C29.671 92.6532 29.6412 92.6542 29.6117 92.6542Z" fill="white"/>
<path d="M34.9697 73.3531C34.6468 73.3531 34.3232 73.2358 34.0683 72.9985C33.5329 72.5004 33.5025 71.6626 34.0006 71.1273C34.2124 70.8996 34.412 70.6494 34.6233 70.3844C35.0883 69.8015 35.6153 69.141 36.3686 68.6427C36.9789 68.2394 37.8002 68.407 38.2034 69.0169C38.6067 69.627 38.4391 70.4484 37.8292 70.8517C37.4246 71.1192 37.0858 71.5439 36.6935 72.0357C36.4608 72.3277 36.22 72.6294 35.9397 72.9307C35.6787 73.2113 35.3245 73.3531 34.9697 73.3531Z" fill="white"/>
<path d="M44.8706 93.3904C44.4319 93.3904 44.0762 93.0347 44.0762 92.596V91.0115C44.0762 90.5728 44.4319 90.2171 44.8706 90.2171C45.3093 90.2171 45.6651 90.5728 45.6651 91.0115V92.596C45.665 93.0347 45.3093 93.3904 44.8706 93.3904Z" fill="#B3586B"/>
<path d="M52.6621 90.2319C52.2234 90.2319 51.8677 89.8762 51.8677 89.4374V87.853C51.8677 87.4142 52.2234 87.0585 52.6621 87.0585C53.1009 87.0585 53.4566 87.4142 53.4566 87.853V89.4374C53.4566 89.8762 53.1009 90.2319 52.6621 90.2319Z" fill="#B3586B"/>
<path d="M50.3985 96.6016C49.9598 96.6016 49.604 96.2459 49.604 95.8071V94.2227C49.604 93.7839 49.9597 93.4282 50.3985 93.4282C50.8373 93.4282 51.193 93.7839 51.193 94.2227V95.8071C51.193 96.2459 50.8373 96.6016 50.3985 96.6016Z" fill="#B3586B"/>
<path d="M38.0274 102.972C37.5886 102.972 37.2329 102.616 37.2329 102.177V100.593C37.2329 100.154 37.5886 99.7982 38.0274 99.7982C38.466 99.7982 38.8219 100.154 38.8219 100.593V102.177C38.8219 102.616 38.4662 102.972 38.0274 102.972Z" fill="#B3586B"/>
<path d="M47.6607 105.709C47.222 105.709 46.8662 105.353 46.8662 104.914V103.33C46.8662 102.891 47.2219 102.536 47.6607 102.536C48.0995 102.536 48.4552 102.891 48.4552 103.33V104.914C48.4552 105.353 48.0995 105.709 47.6607 105.709Z" fill="#B3586B"/>
<path d="M39.7505 81.3985C39.3117 81.3985 38.9561 81.0428 38.9561 80.6041V79.0198C38.9561 78.581 39.3117 78.2253 39.7505 78.2253C40.1893 78.2253 40.545 78.581 40.545 79.0198V80.6042C40.5449 81.0428 40.1892 81.3985 39.7505 81.3985Z" fill="#B3586B"/>
<path d="M51.0291 117.125C50.7396 117.125 50.4605 116.967 50.3204 116.691C50.1215 116.3 50.2772 115.822 50.6684 115.623C55.4527 113.189 58.3552 109.626 59.2949 105.032C60.0091 101.541 59.2832 98.631 59.1244 98.2253C58.9314 97.8867 59.0121 97.4492 59.3291 97.2041C59.6764 96.9358 60.1751 96.9995 60.4435 97.3467C60.7947 97.8011 61.7307 101.453 60.7848 105.661C60.0209 109.06 57.7705 113.793 51.3885 117.039C51.2732 117.098 51.1502 117.125 51.0291 117.125ZM59.1859 98.3176C59.1862 98.3179 59.1863 98.3183 59.1866 98.3185C59.1863 98.3183 59.1862 98.318 59.1859 98.3176ZM59.1166 98.2062V98.2063C59.1166 98.2063 59.1166 98.2063 59.1166 98.2062Z" fill="#B3586B"/>
<path d="M44.7373 119.345C44.3498 119.345 44.0106 119.061 43.9524 118.666C43.8886 118.232 44.1886 117.828 44.6229 117.764C46.1284 117.543 47.4336 117.062 47.4466 117.058C47.8577 116.905 48.315 117.115 48.4678 117.526C48.6205 117.937 48.4106 118.395 47.9993 118.547C47.9399 118.569 46.5229 119.091 44.8541 119.336C44.8149 119.342 44.7759 119.345 44.7373 119.345Z" fill="#B3586B"/>
<path d="M69.4424 59.953L70.53 63.0111C70.5766 63.1421 70.6688 63.2458 70.7851 63.2982L73.5021 64.5224C73.8859 64.6954 73.8859 65.3069 73.5021 65.4799L70.7851 66.7042C70.6687 66.7565 70.5766 66.8603 70.53 66.9912L69.4424 70.0494C69.2888 70.4815 68.7454 70.4815 68.5917 70.0494L67.5041 66.9912C67.4575 66.8603 67.3654 66.7565 67.249 66.7042L64.532 65.4799C64.1482 65.3069 64.1482 64.6954 64.532 64.5224L67.249 63.2982C67.3654 63.2458 67.4575 63.1421 67.5041 63.0111L68.5917 59.953C68.7454 59.5209 69.2888 59.5209 69.4424 59.953Z" fill="#F0C6B5"/>
<path d="M80.5993 80.1254C80.8091 78.8308 79.9298 77.6112 78.6352 77.4014C77.3407 77.1915 76.1211 78.0708 75.9112 79.3654C75.7014 80.66 76.5807 81.8796 77.8753 82.0894C79.1698 82.2993 80.3894 81.4199 80.5993 80.1254Z" fill="#E9A385"/>
<path d="M66.7397 144.46L62.5881 143.38C60.9553 142.955 59.9761 141.287 60.4009 139.654L61.1411 136.81C61.5659 135.177 63.234 134.198 64.8669 134.622L69.0185 135.703C70.6513 136.128 71.6305 137.796 71.2057 139.429L70.4655 142.273C70.0405 143.906 68.3724 144.885 66.7397 144.46Z" fill="#78EAC4"/>
<path d="M92.8663 113.239C87.2696 134.747 76.7351 140.443 66.2767 137.722C55.8185 135 49.397 124.891 54.9937 103.384C60.5907 81.8756 76.0865 57.1135 86.5447 59.8349C97.0028 62.5563 98.4633 91.731 92.8663 113.239Z" fill="#FEF2A8"/>
<path d="M86.5447 59.8349C86.1368 59.7287 85.7206 59.6692 85.2982 59.6449C91.2263 62.7416 92.522 78.0736 89.5753 89.3972C86.4639 101.354 79.7318 106.664 74.5647 105.319C68.3034 103.69 65.3235 93.6401 58.7713 91.935C56.9568 96.2907 56.124 99.0403 54.9937 103.384C49.397 124.892 55.8185 135 66.2767 137.722C76.7349 140.443 87.2694 134.747 92.8663 113.239C98.4633 91.731 97.0028 62.5563 86.5447 59.8349Z" fill="#EEB6A8"/>
<path d="M80.1335 69.466C79.6129 69.466 79.0985 69.2319 78.7583 68.7862C78.2419 68.1096 78.3018 67.1739 78.8588 66.5686C79.0536 66.1421 79.3734 65.8123 79.8294 65.5629C80.6671 65.1049 81.7169 65.4122 82.1753 66.2496C82.5507 66.936 82.412 67.7652 81.8883 68.2944C81.7553 68.551 81.5418 68.8358 81.1808 69.1113C80.8676 69.3504 80.4991 69.466 80.1335 69.466Z" fill="white"/>
<path d="M65.9978 89.8254C65.7397 89.8254 65.478 89.7675 65.2313 89.6449C64.376 89.2207 64.0268 88.1838 64.4508 87.3287C67.1356 81.9159 72.571 72.8038 75.3239 70.2596C76.0251 69.6116 77.1185 69.6549 77.7661 70.3559C78.4141 71.0569 78.3709 72.1504 77.6699 72.7982C75.4675 74.8335 70.3316 83.2517 67.5476 88.8648C67.2457 89.4729 66.6336 89.8254 65.9978 89.8254Z" fill="white"/>
<path d="M92.3154 119.645C86.274 136.113 77.1703 140.556 66.7714 137.85C56.4215 135.157 49.4685 126.6 52.1166 109.439C52.4296 107.41 40.6953 86.0649 47.2039 87.0937C66.2327 90.1014 69.2891 120.175 70.6095 120.519C71.8723 120.847 91.26 95.4867 107.513 102.95C113.502 105.7 92.9979 117.785 92.3154 119.645Z" fill="#BDF4E3"/>
<path d="M107.513 102.95C105.307 101.937 103.044 101.53 100.776 101.58H100.776C105.111 103.24 87.2474 113.797 86.6894 115.319C81.6511 129.052 71.9527 131.6 63.2807 129.343C54.6501 127.097 50.3542 121.216 52.1162 109.441C49.4691 126.601 56.4219 135.157 66.7713 137.85C77.1704 140.556 86.274 136.113 92.3154 119.645C92.9978 117.785 113.501 105.7 107.513 102.95Z" fill="#B1B7E3"/>
<path d="M86.5086 81.1721C86.0343 81.186 85.4868 81.0399 85.022 80.913C84.0257 80.6537 83.1898 80.0221 82.6687 79.1343C82.1475 78.2465 82.0033 77.2088 82.2626 76.2125L82.6972 74.5424C82.9565 73.5461 83.5881 72.7104 84.4759 72.1892C85.3639 71.668 86.4013 71.5237 87.3977 71.783L87.9141 71.9174C89.9708 72.4527 91.2086 74.5613 90.6737 76.6179L90.2391 78.2881C89.7882 80.0206 88.2208 81.1721 86.5086 81.1721ZM85.5442 78.9059L86.0609 79.0402C87.0104 79.2876 87.9848 78.7158 88.2321 77.7658L88.6667 76.0957C88.9138 75.1459 88.3421 74.1718 87.3921 73.9245L86.8759 73.7901C86.4155 73.6704 85.9361 73.7369 85.5261 73.9778C85.116 74.2184 84.8241 74.6044 84.7045 75.0646L84.2699 76.7348C84.1501 77.195 84.2168 77.6742 84.4573 78.0843C84.6982 78.4943 85.0842 78.7861 85.5442 78.9059Z" fill="#D08372"/>
<path d="M75.8847 91.4872C75.4027 91.5004 74.8597 91.3544 74.391 91.2269C73.3947 90.9676 72.559 90.3359 72.0378 89.4482C71.5166 88.5604 71.3724 87.5226 71.6317 86.5264L72.0663 84.8563C72.3256 83.86 72.9571 83.0243 73.845 82.5031C74.7328 81.9821 75.7706 81.8376 76.7668 82.0969L77.2836 82.2312C78.2798 82.4905 79.1155 83.1222 79.6367 84.01C80.1579 84.8978 80.3021 85.9355 80.0428 86.9318L79.6082 88.6018C79.3489 89.5981 78.7174 90.4338 77.8295 90.955C77.23 91.307 76.562 91.4872 75.8847 91.4872ZM75.7933 84.046C75.4806 84.046 75.1721 84.1292 74.8951 84.2916C74.4852 84.5323 74.1932 84.9183 74.0736 85.3785L73.639 87.0487C73.5193 87.5089 73.5859 87.9881 73.8265 88.3981C74.0672 88.8082 74.4532 89.1 74.9135 89.2197C75.5181 89.413 76.2135 89.5331 76.7796 89.1667C77.1895 88.926 77.4815 88.54 77.6011 88.0798L78.0357 86.4096C78.1554 85.9494 78.0887 85.4702 77.8482 85.0602C77.6075 84.6501 77.2215 84.3583 76.7612 84.2386C76.49 84.1725 76.0708 84.034 75.7933 84.046Z" fill="#D08372"/>
<path d="M81.9712 102.971C81.4969 102.985 80.9494 102.838 80.4846 102.712C78.428 102.176 77.1902 100.068 77.7252 98.011L78.1598 96.3408C78.6951 94.284 80.8039 93.0466 82.8603 93.5815L83.3768 93.7159C85.4334 94.251 86.6712 96.3597 86.1362 98.4163L85.7016 100.086C85.2506 101.819 83.6832 102.971 81.9712 102.971ZM81.0068 100.704L81.5233 100.839C82.4728 101.086 83.4472 100.514 83.6945 99.5643L84.1291 97.8942C84.3763 96.9442 83.8045 95.9704 82.8546 95.7232L82.3379 95.5888C81.3884 95.3415 80.4141 95.9133 80.1667 96.8633L79.7321 98.5334C79.4851 99.4832 80.0568 100.457 81.0068 100.704Z" fill="#D08372"/>
<path d="M72.4485 101.24C72.3621 101.24 72.2743 101.229 72.1868 101.206C71.6326 101.062 71.3001 100.496 71.4443 99.9417L71.9331 98.0633C72.0773 97.5091 72.6436 97.1768 73.1978 97.3208C73.752 97.4649 74.0844 98.0313 73.9403 98.5855L73.4514 100.464C73.3302 100.931 72.9093 101.24 72.4485 101.24Z" fill="#D08372"/>
<path d="M84.3216 89.974C84.2351 89.974 84.1474 89.963 84.0598 89.9403C83.5056 89.7962 83.1732 89.2299 83.3173 88.6757L83.8062 86.7971C83.9503 86.2429 84.516 85.9104 85.0708 86.0546C85.625 86.1987 85.9575 86.7651 85.8133 87.3193L85.3245 89.1978C85.203 89.6645 84.7824 89.974 84.3216 89.974Z" fill="#D08372"/>
<path d="M89.8689 95.6157C89.7825 95.6157 89.6948 95.6048 89.6072 95.582C89.053 95.4379 88.7205 94.8716 88.8647 94.3174L89.3535 92.439C89.4977 91.8848 90.0637 91.5523 90.6182 91.6965C91.1724 91.8406 91.5048 92.4069 91.3607 92.9611L90.8718 94.8396C90.7506 95.3062 90.3297 95.6157 89.8689 95.6157Z" fill="#D08372"/>
<path d="M60.6652 135.672C60.3718 135.672 60.0744 135.597 59.802 135.439C58.9756 134.961 58.6931 133.905 59.1708 133.078C59.3916 132.696 64.6361 123.669 69.4391 119.247C70.1413 118.601 71.2349 118.646 71.8812 119.348C72.5276 120.05 72.4823 121.144 71.7802 121.79C67.3664 125.853 62.2149 134.719 62.1633 134.808C61.8428 135.362 61.2622 135.672 60.6652 135.672Z" fill="#90E0C5"/>
<path d="M61.5617 132.395C61.1593 132.395 60.7766 132.159 60.6081 131.766L56.3654 121.866C56.1398 121.339 56.3836 120.73 56.9099 120.504C57.4369 120.278 58.0461 120.522 58.2715 121.049L62.5142 130.949C62.7398 131.475 62.4959 132.085 61.9696 132.31C61.8366 132.368 61.6979 132.395 61.5617 132.395Z" fill="#90E0C5"/>
<path d="M65.2027 126.831C64.788 126.831 64.3965 126.581 64.2364 126.171L59.7662 114.727C59.5578 114.193 59.8214 113.592 60.3549 113.383C60.8885 113.175 61.4898 113.439 61.698 113.972L66.1683 125.416C66.3766 125.95 66.113 126.551 65.5796 126.76C65.4556 126.808 65.3281 126.831 65.2027 126.831Z" fill="#90E0C5"/>
<path d="M51.165 63.6166L52.5847 67.6085C52.6455 67.7793 52.7659 67.9149 52.9177 67.9832L56.4643 69.5811C56.9654 69.8069 56.9654 70.6053 56.4643 70.831L52.9177 72.4289C52.7659 72.4973 52.6455 72.6328 52.5847 72.8037L51.165 76.7955C50.9644 77.3595 50.2551 77.3595 50.0546 76.7955L48.6348 72.8037C48.5741 72.6328 48.4537 72.4973 48.3019 72.4289L44.7552 70.831C44.2541 70.6053 44.2541 69.8069 44.7552 69.5811L48.3019 67.9832C48.4538 67.9149 48.5741 67.7793 48.6348 67.6085L50.0546 63.6166C50.2551 63.0526 50.9644 63.0526 51.165 63.6166Z" fill="#FBF2AA"/>
<path d="M108.928 79.437L109.981 82.3981C110.026 82.5249 110.115 82.6254 110.228 82.6761L112.859 83.8615C113.23 84.029 113.23 84.6212 112.859 84.7886L110.228 85.974C110.115 86.0247 110.026 86.1253 109.981 86.252L108.928 89.2131C108.779 89.6315 108.253 89.6315 108.104 89.2131L107.051 86.252C107.006 86.1253 106.916 86.0247 106.804 85.974L104.173 84.7886C103.801 84.6212 103.801 84.0289 104.173 83.8615L106.804 82.6761C106.916 82.6254 107.006 82.5249 107.051 82.3981L108.104 79.437C108.253 79.0187 108.779 79.0187 108.928 79.437Z" fill="#FBF2AA"/>
<path d="M38.2474 67.2565C39.4107 67.2565 40.3538 66.3134 40.3538 65.1501C40.3538 63.9869 39.4107 63.0438 38.2474 63.0438C37.0842 63.0438 36.1411 63.9869 36.1411 65.1501C36.1411 66.3134 37.0842 67.2565 38.2474 67.2565Z" fill="#F7E16E"/>
<path d="M44.223 107.915C44.223 108.818 43.4905 109.55 42.5871 109.55C41.6835 109.55 40.9512 108.818 40.9512 107.915C40.9512 107.011 41.6835 106.279 42.5871 106.279C43.4905 106.279 44.223 107.011 44.223 107.915Z" fill="#F7E16E"/>
</svg>
