<svg id="Capa_1" enable-background="new 0 0 512 512" height="512" viewBox="0 0 512 512" width="512" xmlns="http://www.w3.org/2000/svg"><g><g><path d="m117.818 344.86h287.834v114.375h-287.834z" fill="#f7e266"/><path d="m378.679 512v-31.852c0-65.07-52.749-117.819-117.819-117.819-65.07 0-117.819 52.749-117.819 117.819v31.852z" fill="#f4d6d4"/><path d="m339.507 512v-30.096c0-43.435-35.211-78.646-78.646-78.646-43.435 0-78.646 35.211-78.646 78.646v30.096z" fill="#bdf4e3"/><path d="m269.273 403.691c22.748 10.231 38.749 34.514 38.749 62.851v6.818c0 10.613-8.604 19.217-19.217 19.217h-106.431v19.423h157.293v-30.095c0-40.648-30.838-74.088-70.394-78.214z" fill="#b1b7e3"/><path d="m222.455 411.783s17.834 45.625 38.406 45.625 40.995-45.825 40.995-45.825" fill="#f4d6d4"/><ellipse cx="432.033" cy="315.448" fill="#f4d6d4" rx="39.017" ry="39.017" transform="matrix(.383 -.924 .924 .383 -24.734 593.878)"/><ellipse cx="89.687" cy="315.448" fill="#f4d6d4" rx="39.017" ry="39.017" transform="matrix(.383 -.924 .924 .383 -236.07 277.591)"/><path d="m294.109 411.872h-66.496c-82.631 0-149.616-66.985-149.616-149.616 0-82.631 66.985-149.616 149.616-149.616h66.496c82.631 0 149.616 66.985 149.616 149.616 0 82.631-66.986 149.616-149.616 149.616z" fill="#f4d6d4"/><path d="m294.109 112.55h-19.186c66.99 0 121.295 54.306 121.295 121.295v10.301c0 66.99-54.306 121.295-121.295 121.295h-75.631c-64.107 0-116.591-49.735-120.99-112.723-.195 3.125-.305 6.273-.305 9.448 0 82.63 66.985 149.616 149.616 149.616h66.496c82.631 0 149.616-66.986 149.616-149.616 0-82.63-66.986-149.616-149.616-149.616z" fill="#e69fd5"/><g fill="#e383b9"><circle cx="171.599" cy="324.032" r="16.702"/><circle cx="350.122" cy="324.032" r="16.702"/><path d="m185.125 280.734c-.939 0-1.892-.216-2.785-.672-.022-.011-4.933-2.422-10.741-2.422s-10.719 2.411-10.768 2.436c-3.026 1.503-6.709.291-8.228-2.723-1.52-3.015-.333-6.685 2.674-8.22.755-.385 7.624-3.764 16.322-3.764s15.567 3.379 16.322 3.764c3.018 1.541 4.216 5.237 2.675 8.255-1.085 2.124-3.239 3.346-5.471 3.346z"/><path d="m363.648 280.734c-.939 0-1.892-.216-2.785-.672-.022-.011-4.933-2.422-10.741-2.422s-10.719 2.411-10.768 2.436c-3.026 1.503-6.708.291-8.228-2.723-1.52-3.015-.332-6.685 2.675-8.22.755-.385 7.624-3.764 16.322-3.764s15.567 3.379 16.322 3.764c3.018 1.541 4.216 5.237 2.674 8.255-1.085 2.124-3.238 3.346-5.471 3.346z"/><path d="m260.86 346.87c-12.593 0-22.839-10.246-22.839-22.839 0-3.389 2.747-6.136 6.136-6.136s6.136 2.747 6.136 6.136c0 5.827 4.74 10.566 10.566 10.566 5.827 0 10.566-4.74 10.566-10.566 0-3.389 2.747-6.136 6.136-6.136s6.136 2.747 6.136 6.136c.002 12.594-10.244 22.839-22.837 22.839z"/></g><path d="m295.593 72.841h-68.267c-84.83 0-153.599 71.032-153.599 158.653v.001c0 4.379.176 20.382.516 34.301.047 1.89 12.598 118.865 25.392 180.848 1.514 7.336 7.971 12.592 15.46 12.592h.001c8.715 0 15.78-7.065 15.78-15.78v-171.968c0-32.948 24.014-61.314 56.639-65.917 3.86-.545 7.764-.832 11.707-.832 22.355 0 43.483 19.649 62.236 25.714 18.753-6.065 39.881-25.714 62.236-25.714.748 0 1.495.01 2.24.031 35.745.983 63.936 30.86 63.936 66.618v171.654c0 8.247 6.159 15.413 14.375 16.133 8.062.707 15.257-4.738 16.863-12.518 12.638-61.22 27.489-177.745 27.565-180.86.34-13.918.516-29.922.516-34.301v-.001c.003-87.623-68.766-158.654-153.596-158.654z" fill="#f7e266"/><path d="m404.254 465.31c-.18 0-.361-.007-.542-.023-11.202-.983-19.976-10.754-19.976-22.246v-61.952c0-3.389 2.747-6.136 6.136-6.136s6.136 2.747 6.136 6.136v61.952c0 5.187 3.854 9.59 8.775 10.02 3.377.297 5.873 3.273 5.578 6.648-.282 3.194-2.96 5.601-6.107 5.601z" fill="#ce824b"/><path d="m115.097 465.372c-3.389 0-6.136-2.747-6.136-6.136s2.747-6.136 6.136-6.136c5.318 0 9.645-4.326 9.645-9.645v-61.735c0-3.389 2.747-6.136 6.136-6.136s6.136 2.747 6.136 6.136v61.735c0 12.086-9.832 21.917-21.917 21.917z" fill="#ce824b"/><path d="m53.307 152.874 90.361 22.58c2.667.666 4.289 3.369 3.622 6.035l-22.579 90.361c-.666 2.667-3.369 4.289-6.035 3.622l-90.361-22.58c-2.667-.666-4.289-3.369-3.622-6.035l22.579-90.361c.666-2.667 3.368-4.288 6.035-3.622z" fill="#b2e7f1"/><ellipse cx="77.635" cy="246.488" fill="#b2e7f1" rx="27.932" ry="27.932" transform="matrix(.326 -.945 .945 .326 -180.696 239.537)"/><path d="m92.015 276.575c-2.084 0-4.117-1.063-5.267-2.979-1.744-2.906-.802-6.675 2.103-8.419 10.305-6.185 13.657-19.601 7.473-29.905-2.996-4.993-7.757-8.519-13.406-9.93-5.65-1.413-11.507-.54-16.5 2.457-10.305 6.185-13.657 19.601-7.473 29.906 1.744 2.905.802 6.674-2.104 8.418-2.903 1.744-6.674.801-8.418-2.104-9.665-16.107-4.426-37.076 11.68-46.742 7.802-4.683 16.96-6.048 25.791-3.841 8.828 2.207 16.27 7.719 20.953 15.521 9.666 16.107 4.426 37.076-11.68 46.744-.989.592-2.078.874-3.152.874z" fill="#93cbe4"/><path d="m105.025 198.073c13.227-7.938 30.385-3.651 38.324 9.577 7.939 13.227 3.651 30.386-9.576 38.324s-30.386 3.651-38.324-9.577c-7.939-13.227-3.651-30.385 9.576-38.324z" fill="#b2e7f1"/><path d="m119.456 256.084c-11.582 0-22.887-5.896-29.269-16.529-9.666-16.108-4.426-37.077 11.68-46.743 16.108-9.667 37.076-4.425 46.744 11.68 1.744 2.906.802 6.675-2.103 8.419-2.907 1.744-6.675.801-8.419-2.103-6.186-10.306-19.602-13.657-29.905-7.473-10.305 6.185-13.657 19.601-7.473 29.906 6.186 10.304 19.601 13.653 29.906 7.472 2.903-1.744 6.674-.802 8.418 2.104 1.744 2.905.802 6.674-2.104 8.418-5.475 3.285-11.512 4.849-17.475 4.849z" fill="#93cbe4"/><path d="m37.494 179.603c13.227-7.938 30.385-3.651 38.324 9.576 7.938 13.227 3.651 30.386-9.576 38.324s-30.386 3.651-38.324-9.577c-5.085-8.473-5.153-18.56-1.069-26.802 2.292-4.623 5.891-8.668 10.645-11.521z" fill="#b2e7f1"/><path d="m51.925 237.615c-11.582.001-22.886-5.896-29.268-16.53-1.744-2.906-.802-6.675 2.103-8.419 2.906-1.745 6.676-.801 8.419 2.103 6.185 10.306 19.601 13.659 29.905 7.473 10.305-6.185 13.657-19.601 7.472-29.905-2.996-4.993-7.756-8.518-13.405-9.93-5.651-1.411-11.509-.538-16.5 2.458-2.906 1.744-6.675.801-8.419-2.103-1.744-2.906-.802-6.675 2.103-8.419 7.803-4.683 16.961-6.048 25.791-3.841 8.829 2.206 16.27 7.718 20.952 15.52 9.666 16.107 4.427 37.076-11.679 46.743-5.473 3.285-11.512 4.849-17.474 4.85z" fill="#93cbe4"/><path d="m79.258 155.139c13.227-7.938 30.386-3.651 38.324 9.577 7.938 13.227 3.651 30.386-9.577 38.324-13.227 7.938-30.386 3.651-38.324-9.577-7.938-13.227-3.65-30.386 9.577-38.324z" fill="#b2e7f1"/><path d="m93.693 213.171c-2.771 0-5.562-.341-8.319-1.03-8.828-2.206-16.27-7.718-20.953-15.521s-6.047-16.962-3.841-25.791 7.718-16.27 15.522-20.952c2.904-1.743 6.674-.802 8.418 2.104 1.744 2.905.802 6.674-2.104 8.418-4.992 2.996-8.518 7.756-9.93 13.405-1.411 5.649-.538 11.508 2.458 16.5 2.996 4.993 7.757 8.519 13.405 9.931 5.648 1.409 11.508.538 16.501-2.458 10.306-6.184 13.657-19.6 7.473-29.904-1.744-2.906-.802-6.675 2.103-8.419 2.906-1.743 6.676-.801 8.419 2.103 9.667 16.108 4.426 37.076-11.68 46.743-5.366 3.22-11.373 4.871-17.472 4.871z" fill="#93cbe4"/><path d="m115.682 192.238 3.632 6.053c9.44 15.73 4.342 36.133-11.388 45.574l-6.053 3.633c-15.73 9.44-36.134 4.342-45.574-11.388l-3.633-6.053c-9.44-15.73-4.342-36.133 11.388-45.574l6.053-3.633c15.731-9.44 36.135-4.342 45.575 11.388z" fill="#b2e7f1"/><path d="m86.067 257.073c-3.488 0-7-.43-10.472-1.296-11.113-2.777-20.479-9.715-26.372-19.536-12.167-20.275-5.573-46.668 14.701-58.836 20.275-12.166 46.669-5.572 58.836 14.702 12.167 20.275 5.572 46.668-14.702 58.835-6.753 4.052-14.314 6.131-21.991 6.131zm-.126-73.503c-5.359 0-10.782 1.404-15.701 4.356-14.472 8.686-19.18 27.526-10.494 41.998 4.208 7.011 10.893 11.964 18.825 13.945 7.931 1.982 16.162.757 23.172-3.451 14.472-8.686 19.18-27.525 10.495-41.997-5.734-9.552-15.892-14.851-26.297-14.851z" fill="#93cbe4"/><path d="m68.418 196.599h35.147v35.147h-35.147z" fill="#b2e7f1" transform="matrix(-.857 .515 -.515 -.857 269.935 353.562)"/><path d="m79.966 244.421c-.493 0-.991-.06-1.481-.182-2.004-.498-3.623-1.972-4.308-3.92l-5.772-16.43-10.967-11.508c-1.471-1.545-2.035-3.742-1.489-5.805.546-2.062 2.124-3.693 4.168-4.306l15.238-4.573 12.386-12.036c1.537-1.492 3.741-2.075 5.812-1.541 2.074.536 3.718 2.114 4.338 4.165l5.055 16.702 11.374 10.752c1.568 1.483 2.242 3.68 1.775 5.788-.467 2.107-2.007 3.814-4.056 4.495l-15.219 5.055-12.69 11.716c-1.148 1.059-2.639 1.628-4.164 1.628zm-6.748-33.269 4.98 5.225c.599.63 1.059 1.379 1.347 2.199l3.116 8.868 6.804-6.282c.641-.592 1.4-1.04 2.228-1.315l6.738-2.238-5.104-4.825c-.776-.734-1.348-1.659-1.658-2.682l-2.607-8.616-6.232 6.056c-.707.687-1.569 1.193-2.513 1.477z" fill="#93cbe4"/><path d="m109.043 136.471 79.342-31.21c2.558-1.006 5.448.252 6.454 2.81l31.211 79.342c1.006 2.558-.252 5.448-2.81 6.454l-79.342 31.211c-2.558 1.006-5.448-.252-6.454-2.81l-31.211-79.342c-1.006-2.559.252-5.449 2.81-6.455z" fill="#cab4ef"/><ellipse cx="177.191" cy="193.947" fill="#cab4ef" rx="25.798" ry="25.798" transform="matrix(.575 -.818 .818 .575 -83.382 227.321)"/><path d="m166.89 223.739c-.818 0-1.649-.165-2.447-.512-16.144-7.029-23.559-25.883-16.531-42.027 7.027-16.144 25.878-23.564 42.026-16.532 16.145 7.029 23.561 25.883 16.532 42.028-1.351 3.107-4.965 4.531-8.076 3.176-3.107-1.352-4.529-4.967-3.176-8.076 4.327-9.94-.239-21.548-10.179-25.877-9.94-4.326-21.548.24-25.876 10.179-4.327 9.94.239 21.548 10.179 25.876 3.107 1.352 4.529 4.969 3.176 8.076-1.005 2.309-3.26 3.689-5.628 3.689z" fill="#9f71e1"/><path d="m171.817 142.855c5.687-13.063 20.888-19.042 33.951-13.355s19.043 20.888 13.355 33.951c-5.687 13.063-20.888 19.043-33.951 13.355-13.063-5.687-19.042-20.888-13.355-33.951z" fill="#cab4ef"/><path d="m195.424 185.086c-4.248 0-8.563-.852-12.701-2.654-16.145-7.029-23.561-25.883-16.532-42.027 7.026-16.144 25.879-23.564 42.026-16.532 3.107 1.352 4.53 4.968 3.177 8.075-1.352 3.108-4.972 4.529-8.075 3.177-9.942-4.326-21.549.24-25.876 10.179-2.096 4.816-2.192 10.159-.27 15.047 1.923 4.887 5.633 8.734 10.449 10.83 9.937 4.325 21.548-.24 25.876-10.18 1.353-3.107 4.967-4.531 8.076-3.176 3.107 1.352 4.529 4.969 3.176 8.076-5.228 12.006-16.996 19.185-29.326 19.185z" fill="#9f71e1"/><ellipse cx="134.79" cy="175.487" fill="#cab4ef" rx="25.798" ry="25.798" transform="matrix(.357 -.934 .934 .357 -77.258 238.731)"/><path d="m134.743 207.42c-4.249 0-8.563-.852-12.701-2.654-3.108-1.352-4.53-4.967-3.177-8.074 1.351-3.109 4.969-4.531 8.075-3.177 9.943 4.326 21.549-.24 25.877-10.18 2.096-4.815 2.192-10.158.27-15.045-1.923-4.887-5.634-8.733-10.45-10.83-4.813-2.095-10.158-2.19-15.046-.269-4.887 1.923-8.733 5.633-10.829 10.447-1.352 3.108-4.972 4.529-8.075 3.177-3.108-1.352-4.53-4.967-3.177-8.075 7.027-16.146 25.882-23.562 42.025-16.533 7.822 3.405 13.848 9.652 16.971 17.589s2.967 16.617-.438 24.437c-5.227 12.008-16.995 19.187-29.325 19.187z" fill="#9f71e1"/><path d="m163.367 111.039c13.063 5.688 19.043 20.888 13.355 33.951-5.687 13.063-20.888 19.043-33.951 13.355-13.063-5.687-19.043-20.888-13.355-33.951" fill="#cab4ef"/><path d="m153.023 166.625c-4.249 0-8.563-.852-12.701-2.654-16.145-7.029-23.561-25.882-16.532-42.028 3.159-7.256 8.864-13.053 16.065-16.324 8.223-3.735 17.684-3.811 25.961-.207 16.144 7.029 23.559 25.882 16.531 42.027-5.226 12.008-16.994 19.186-29.324 19.186zm-17.981-39.781c-4.327 9.94.239 21.548 10.179 25.876 9.938 4.326 21.548-.239 25.876-10.18 4.327-9.939-.239-21.547-10.179-25.876-5.094-2.218-10.922-2.171-15.986.129-4.433 2.014-7.944 5.583-9.89 10.051z" fill="#9f71e1"/><path d="m176.7 132.751 5.978 2.603c15.535 6.763 22.645 24.839 15.882 40.373l-2.602 5.978c-6.763 15.534-24.839 22.645-40.374 15.882l-5.978-2.603c-15.534-6.763-22.645-24.839-15.882-40.374l2.603-5.978c6.763-15.534 24.839-22.644 40.373-15.881z" fill="#cab4ef"/><path d="m166.132 205.264c-5.432 0-10.857-1.12-15.987-3.354-9.813-4.272-17.377-12.111-21.295-22.072-3.919-9.961-3.723-20.852.549-30.665 4.273-9.815 12.112-17.379 22.073-21.296 9.962-3.919 20.852-3.723 30.667.55 20.259 8.821 29.565 32.479 20.745 52.738-4.272 9.815-12.112 17.379-22.074 21.297-4.753 1.869-9.719 2.802-14.678 2.802zm.049-67.896c-10.734 0-20.979 6.25-25.53 16.703-6.119 14.055.338 30.469 14.392 36.588 6.81 2.964 14.366 3.099 21.275.382 6.911-2.718 12.349-7.965 15.313-14.773 6.119-14.056-.337-30.47-14.392-36.59-3.602-1.568-7.359-2.31-11.058-2.31z" fill="#9f71e1"/><path d="m149.911 148.938h32.461v32.461h-32.461z" fill="#cab4ef" transform="matrix(-.399 .917 -.917 -.399 383.901 78.771)"/><path d="m174.545 192.666c-1.247 0-2.484-.38-3.532-1.119l-13.069-9.199-14.319-2.75c-2.095-.402-3.831-1.865-4.584-3.861-.753-1.995-.414-4.24.893-5.925l8.934-11.521 2.835-15.58c.383-2.107 1.838-3.862 3.837-4.629 2-.77 4.255-.439 5.949.87l12.66 9.77 14.196 1.966c2.138.297 3.963 1.694 4.807 3.681.843 1.986.58 4.271-.692 6.014l-8.672 11.883-3.236 15.516c-.423 2.022-1.833 3.697-3.754 4.455-.729.288-1.493.429-2.253.429zm-18.788-23.234 5.797 1.114c.854.165 1.663.508 2.374 1.009l6.516 4.585 1.6-7.674c.179-.854.536-1.66 1.051-2.365l3.404-4.664-5.649-.782c-1.059-.147-2.061-.567-2.907-1.221l-5.97-4.608-1.298 7.138c-.177.97-.584 1.882-1.189 2.661z" fill="#9f71e1"/><path d="m468.433 152.874-90.361 22.58c-2.667.666-4.289 3.369-3.622 6.035l22.579 90.361c.667 2.667 3.369 4.289 6.035 3.622l90.361-22.58c2.667-.666 4.289-3.369 3.622-6.036l-22.579-90.361c-.666-2.666-3.368-4.287-6.035-3.621z" fill="#bdf4e3"/><ellipse cx="444.105" cy="246.488" fill="#bdf4e3" rx="27.932" ry="27.933" transform="matrix(.807 -.591 .591 .807 -59.843 309.904)"/><path d="m429.726 276.575c-1.075 0-2.163-.283-3.152-.876-7.803-4.683-13.315-12.124-15.521-20.953s-.842-17.988 3.841-25.791c4.682-7.802 12.123-13.314 20.952-15.521 8.827-2.204 17.988-.841 25.791 3.841 7.803 4.683 13.315 12.124 15.521 20.953 2.206 8.827.842 17.988-3.841 25.791-1.744 2.904-5.512 3.847-8.419 2.103-2.905-1.744-3.847-5.513-2.103-8.419 2.996-4.992 3.869-10.852 2.458-16.501-1.412-5.648-4.939-10.409-9.931-13.405-4.991-2.996-10.849-3.869-16.5-2.457-5.649 1.411-10.409 4.938-13.405 9.93s-3.869 10.851-2.458 16.5c1.412 5.649 4.939 10.41 9.931 13.406 2.905 1.744 3.847 5.513 2.103 8.419-1.15 1.918-3.183 2.98-5.267 2.98z" fill="#8edec3"/><path d="m416.715 198.073c-13.227-7.938-30.385-3.651-38.324 9.577-7.938 13.227-3.651 30.386 9.577 38.324 13.227 7.938 30.386 3.651 38.324-9.577 7.938-13.227 3.65-30.385-9.577-38.324z" fill="#bdf4e3"/><path d="m402.285 256.084c-5.964 0-12-1.563-17.475-4.849-2.905-1.744-3.847-5.513-2.103-8.419 1.744-2.904 5.513-3.847 8.419-2.103 10.303 6.183 23.719 2.832 29.904-7.473 2.996-4.992 3.869-10.852 2.458-16.501-1.412-5.648-4.939-10.409-9.931-13.405-10.304-6.183-23.719-2.832-29.904 7.473-1.744 2.904-5.513 3.847-8.419 2.103-2.905-1.744-3.847-5.513-2.103-8.419 9.667-16.108 30.633-21.346 46.743-11.68 7.803 4.683 13.315 12.124 15.521 20.953 2.206 8.828.842 17.988-3.841 25.791-6.382 10.632-17.688 16.529-29.269 16.529z" fill="#8edec3"/><ellipse cx="469.872" cy="203.554" fill="#bdf4e3" rx="27.932" ry="27.932" transform="matrix(.132 -.991 .991 .132 206.188 642.512)"/><path d="m469.812 237.636c-6.1 0-12.106-1.651-17.471-4.871-7.803-4.683-13.315-12.124-15.521-20.953-2.206-8.828-.842-17.988 3.841-25.791 4.683-7.802 12.124-13.314 20.952-15.52 8.833-2.205 17.99-.841 25.791 3.841 2.905 1.744 3.847 5.513 2.103 8.419-1.744 2.904-5.513 3.847-8.419 2.103-4.99-2.995-10.85-3.866-16.5-2.458-5.648 1.411-10.409 4.938-13.405 9.93s-3.869 10.852-2.458 16.501c1.412 5.648 4.939 10.408 9.931 13.405 4.991 2.996 10.851 3.869 16.5 2.458 5.649-1.412 10.409-4.939 13.405-9.93 1.744-2.906 5.512-3.849 8.418-2.104 2.906 1.744 3.848 5.513 2.104 8.418-4.682 7.804-12.123 13.316-20.952 15.522-2.757.689-5.548 1.03-8.319 1.03z" fill="#8edec3"/><path d="m442.482 155.139c-13.227-7.938-30.386-3.651-38.324 9.577-7.939 13.227-3.651 30.386 9.576 38.324s30.386 3.651 38.324-9.577c7.939-13.227 3.651-30.386-9.576-38.324z" fill="#bdf4e3"/><path d="m428.048 213.171c-6.1 0-12.106-1.651-17.471-4.871-7.803-4.682-13.315-12.123-15.521-20.952s-.842-17.988 3.841-25.791c1.744-2.904 5.512-3.846 8.419-2.103 2.905 1.744 3.847 5.513 2.103 8.419-2.996 4.992-3.869 10.851-2.458 16.5 1.412 5.649 4.939 10.408 9.93 13.405 4.993 2.997 10.852 3.869 16.501 2.458 5.649-1.412 10.409-4.939 13.405-9.93 2.996-4.993 3.869-10.852 2.458-16.501-1.412-5.649-4.939-10.409-9.93-13.405-2.906-1.744-3.848-5.513-2.104-8.418 1.744-2.906 5.511-3.847 8.418-2.104 7.804 4.682 13.316 12.123 15.522 20.952s.842 17.988-3.841 25.791c-4.682 7.803-12.123 13.315-20.952 15.521-2.758.689-5.549 1.029-8.32 1.029z" fill="#8edec3"/><path d="m406.058 192.238-3.633 6.053c-9.44 15.729-4.341 36.133 11.388 45.573l6.053 3.633c15.729 9.44 36.134 4.342 45.574-11.388l3.633-6.053c9.44-15.73 4.341-36.134-11.388-45.574l-6.053-3.633c-15.731-9.44-36.134-4.341-45.574 11.389z" fill="#bdf4e3"/><path d="m435.677 257.046c-7.506 0-15.103-1.968-21.995-6.104-9.82-5.894-16.758-15.26-19.536-26.373-2.776-11.113-1.06-22.641 4.835-32.462v.001c5.893-9.822 15.259-16.76 26.372-19.538 11.115-2.776 22.642-1.059 32.463 4.835 20.274 12.167 26.869 38.56 14.702 58.835-8.032 13.383-22.264 20.806-36.841 20.806zm.126-73.495c-2.49 0-4.997.307-7.475.926-7.932 1.982-14.617 6.935-18.825 13.945v.001c-8.686 14.471-3.978 33.311 10.494 41.997 14.469 8.683 33.312 3.977 41.998-10.494 8.685-14.472 3.977-33.312-10.495-41.998-4.82-2.894-10.217-4.377-15.697-4.377zm-31.561 11.713h.01z" fill="#8edec3"/><path d="m418.175 196.599h35.147v35.147h-35.147z" fill="#bdf4e3" transform="matrix(.857 .515 -.515 .857 172.333 -193.698)"/><path d="m441.773 244.421c-1.525 0-3.016-.569-4.163-1.628l-12.689-11.716-15.219-5.055c-2.048-.681-3.588-2.388-4.056-4.494-.467-2.107.207-4.305 1.775-5.789l11.373-10.752 5.055-16.703c.621-2.049 2.265-3.627 4.338-4.164 2.071-.534 4.275.05 5.811 1.541l12.385 12.036 15.238 4.573c2.043.613 3.621 2.244 4.168 4.306s-.018 4.26-1.489 5.805l-10.967 11.508-5.772 16.43c-.685 1.948-2.304 3.422-4.31 3.92-.487.122-.984.182-1.478.182zm-18.465-26.812 6.738 2.238c.828.276 1.587.723 2.228 1.315l6.803 6.282 3.116-8.868c.289-.82.748-1.569 1.347-2.199l4.98-5.225-7.101-2.131c-.944-.284-1.806-.79-2.513-1.477l-6.231-6.056-2.608 8.616c-.31 1.023-.882 1.948-1.658 2.682z" fill="#8edec3"/><path d="m412.697 136.471-79.342-31.21c-2.558-1.006-5.448.252-6.454 2.81l-31.211 79.342c-1.006 2.558.252 5.448 2.81 6.454l79.342 31.211c2.558 1.006 5.448-.252 6.454-2.81l31.211-79.342c1.006-2.559-.252-5.449-2.81-6.455z" fill="#f0c4db"/><path d="m368.202 183.649c-5.687-13.063-20.888-19.042-33.951-13.355s-19.043 20.888-13.355 33.951c5.687 13.063 20.888 19.042 33.951 13.355 13.064-5.687 19.043-20.887 13.355-33.951z" fill="#f0c4db"/><path d="m354.85 223.739c-2.368 0-4.623-1.379-5.629-3.688-1.353-3.108.069-6.723 3.176-8.076 4.816-2.097 8.527-5.943 10.45-10.83 1.922-4.888 1.827-10.231-.27-15.046-4.328-9.94-15.937-14.504-25.877-10.18-9.939 4.328-14.505 15.936-10.179 25.878 1.353 3.107-.07 6.722-3.177 8.075-3.106 1.353-6.723-.07-8.075-3.177-7.028-16.145.388-34.998 16.532-42.027 16.145-7.029 34.998.387 42.027 16.532 3.406 7.821 3.561 16.5.439 24.437-3.123 7.938-9.149 14.185-16.97 17.589-.798.348-1.629.513-2.447.513z" fill="#c36cb5"/><path d="m349.923 142.855c-5.687-13.063-20.888-19.042-33.951-13.355s-19.043 20.888-13.355 33.951c5.687 13.063 20.888 19.043 33.951 13.355 13.063-5.687 19.042-20.888 13.355-33.951z" fill="#f0c4db"/><path d="m326.316 185.086c-12.331 0-24.097-7.178-29.325-19.185-1.353-3.107.069-6.723 3.176-8.076 3.106-1.355 6.722.069 8.076 3.176 4.328 9.94 15.938 14.506 25.877 10.18 9.939-4.328 14.505-15.936 10.179-25.877-4.328-9.939-15.936-14.503-25.876-10.179-3.105 1.352-6.723-.069-8.075-3.177-1.353-3.107.069-6.722 3.177-8.075 16.145-7.03 34.997.387 42.026 16.532 7.028 16.145-.388 34.998-16.532 42.027-4.138 1.801-8.456 2.654-12.703 2.654z" fill="#c36cb5"/><path d="m410.604 165.189c-5.687-13.063-20.888-19.042-33.951-13.355s-19.043 20.888-13.355 33.951c5.687 13.063 20.888 19.043 33.951 13.355 13.063-5.687 19.042-20.888 13.355-33.951z" fill="#f0c4db"/><path d="m386.996 207.42c-12.33.001-24.098-7.179-29.325-19.185-7.028-16.145.389-34.998 16.532-42.027 16.145-7.03 34.997.387 42.027 16.532 1.353 3.107-.069 6.723-3.176 8.076-3.11 1.352-6.723-.069-8.076-3.176-4.328-9.94-15.937-14.503-25.877-10.18-9.939 4.328-14.505 15.936-10.179 25.876 4.327 9.937 15.933 14.505 25.877 10.179 3.104-1.354 6.722.068 8.075 3.177 1.353 3.107-.07 6.722-3.177 8.074-4.136 1.801-8.452 2.654-12.701 2.654z" fill="#c36cb5"/><ellipse cx="368.671" cy="134.693" fill="#f0c4db" rx="25.798" ry="25.798" transform="matrix(.16 -.987 .987 .16 176.787 477.097)"/><path d="m368.717 166.625c-12.331.001-24.097-7.178-29.325-19.185-7.028-16.145.388-34.998 16.532-42.027 3.106-1.355 6.722.069 8.076 3.176 1.353 3.107-.069 6.723-3.176 8.076-9.94 4.328-14.506 15.936-10.18 25.876 4.328 9.939 15.938 14.505 25.876 10.179 9.94-4.328 14.506-15.936 10.179-25.876-1.353-3.108.069-6.723 3.176-8.076 3.107-1.355 6.722.069 8.076 3.176 7.029 16.145-.387 34.999-16.532 42.028-4.137 1.801-8.455 2.653-12.702 2.653z" fill="#c36cb5"/><path d="m345.04 132.751-5.977 2.603c-15.534 6.764-22.644 24.839-15.882 40.373l2.602 5.978c6.763 15.535 24.839 22.645 40.373 15.882l5.978-2.603c15.534-6.763 22.645-24.839 15.882-40.374l-2.603-5.978c-6.763-15.534-24.839-22.644-40.373-15.881z" fill="#f0c4db"/><path d="m355.608 205.264c-4.96 0-9.924-.933-14.679-2.803-9.96-3.918-17.8-11.481-22.073-21.295-8.821-20.261.485-43.919 20.745-52.74 9.815-4.273 20.704-4.47 30.666-.55 9.961 3.918 17.8 11.481 22.073 21.295s4.468 20.705.55 30.666-11.481 17.8-21.297 22.072c-5.128 2.236-10.553 3.355-15.985 3.355zm-.016-67.912c-3.769 0-7.531.776-11.091 2.326-6.809 2.965-12.056 8.403-14.775 15.313-2.718 6.911-2.583 14.466.382 21.275s8.403 12.056 15.313 14.775c6.912 2.719 14.466 2.584 21.274-.382 6.809-2.964 12.056-8.402 14.775-15.313 2.718-6.911 2.583-14.466-.382-21.275s-8.403-12.056-15.313-14.775c-3.298-1.297-6.743-1.944-10.183-1.944zm-13.541-3.299h.01z" fill="#c36cb5"/><path d="m339.368 148.938h32.461v32.461h-32.461z" fill="#f0c4db" transform="matrix(.399 .917 -.917 .399 365.09 -226.801)"/><path d="m347.195 192.666c-.76 0-1.524-.141-2.252-.428-1.922-.758-3.332-2.433-3.754-4.455l-3.236-15.517-8.671-11.882c-1.272-1.744-1.535-4.028-.692-6.014.844-1.987 2.669-3.385 4.807-3.681l14.195-1.966 12.661-9.77c1.696-1.308 3.95-1.64 5.949-.87 1.999.768 3.454 2.522 3.837 4.629l2.835 15.58 8.933 11.521c1.307 1.686 1.646 3.93.893 5.925-.753 1.996-2.489 3.459-4.584 3.861l-14.319 2.75-13.07 9.199c-1.049.738-2.285 1.118-3.532 1.118zm-1.953-31.23 3.404 4.664c.514.705.872 1.511 1.051 2.365l1.6 7.675 6.517-4.586c.711-.5 1.52-.844 2.374-1.009l5.797-1.114-3.727-4.807c-.604-.779-1.012-1.692-1.189-2.661l-1.298-7.138-5.971 4.608c-.847.653-1.849 1.074-2.907 1.221z" fill="#c36cb5"/></g><g><path d="m473.109 25.663 8.687 24.425c.372 1.046 1.108 1.874 2.037 2.293l21.701 9.777c3.066 1.381 3.066 6.266 0 7.647l-21.701 9.777c-.929.419-1.665 1.247-2.037 2.293l-8.687 24.425c-1.227 3.451-5.567 3.451-6.794 0l-8.686-24.425c-.372-1.046-1.108-1.874-2.037-2.293l-21.701-9.777c-3.066-1.381-3.066-6.266 0-7.647l21.701-9.777c.929-.419 1.665-1.247 2.037-2.293l8.686-24.425c1.227-3.451 5.566-3.451 6.794 0z" fill="#bdf4e3"/><ellipse cx="23.135" cy="89.763" fill="#84eac4" rx="18.967" ry="18.968" transform="matrix(.189 -.982 .982 .189 -69.383 95.506)"/><circle cx="398.584" cy="21.051" fill="#84eac4" r="8.032"/><path d="m108.616 1.92 6.443 18.118c.276.776.822 1.39 1.511 1.701l16.097 7.252c2.274 1.025 2.274 4.648 0 5.673l-16.097 7.253c-.689.31-1.235.925-1.511 1.701l-6.443 18.118c-.91 2.56-4.13 2.56-5.04 0l-6.444-18.118c-.276-.776-.822-1.39-1.511-1.701l-16.097-7.253c-2.274-1.025-2.274-4.648 0-5.673l16.097-7.252c.689-.311 1.235-.925 1.511-1.701l6.444-18.118c.911-2.56 4.13-2.56 5.04 0z" fill="#bdf4e3"/></g></g></svg>