<svg id="Capa_1" enable-background="new 0 0 512 512" height="512" viewBox="0 0 512 512" width="512" xmlns="http://www.w3.org/2000/svg"><g><g><path d="m374.712 502.492v-30.157c0-61.606-49.942-111.548-111.548-111.548-61.606 0-111.548 49.942-111.548 111.548v30.157z" fill="#8bb6ef"/><path d="m270.977 399.947c21.537 9.687 36.687 32.677 36.687 59.506v6.455c0 10.049-8.146 18.195-18.195 18.195h-100.766v18.388h148.921v-28.494c0-38.483-29.197-70.143-66.647-74.05z" fill="#8388ef"/><path d="m188.703 512c-3.365 0-6.094-2.729-6.094-6.094v-32.238c0-44.418 36.137-80.555 80.554-80.555 3.366 0 6.094 2.729 6.094 6.094s-2.728 6.094-6.094 6.094c-37.697 0-68.366 30.669-68.366 68.367v32.238c0 3.365-2.728 6.094-6.094 6.094z" fill="#617fca"/><ellipse cx="425.226" cy="316.401" fill="#f4d6d4" rx="36.941" ry="36.941" transform="matrix(.707 -.707 .707 .707 -99.183 393.352)"/><ellipse cx="101.101" cy="316.401" fill="#f4d6d4" rx="36.941" ry="36.941" transform="matrix(.383 -.924 .924 .383 -229.905 288.724)"/><path d="m294.642 407.693h-62.957c-78.233 0-141.653-63.42-141.653-141.653 0-78.233 63.42-141.653 141.653-141.653h62.957c78.233 0 141.653 63.42 141.653 141.653 0 78.232-63.42 141.653-141.653 141.653z" fill="#f4d6d4"/><path d="m290.525 86.407h-54.723c-92.045 0-166.662 74.617-166.662 166.661v16.62c1.175 29.182 16.558 44.491 28.909 54.694l.903 30.162c-4.005 51.898 26.302 75.616 49.641 58.14 0 22.305 17.515 40.387 39.122 40.387 17.124 0 31.668-11.362 36.97-27.179 3.006 21.953 19.085 38.718 38.479 38.718 19.393 0 35.472-16.765 38.478-38.718 5.302 15.816 19.846 27.179 36.97 27.179 21.606 0 39.121-18.083 39.121-40.387 24.239 11.547 46.64-10.854 49.641-58.14l2.243-30.798c16.915-10.471 25.724-26.487 27.569-54.057v-16.62c.001-92.045-74.616-166.662-166.661-166.662zm100.169 234.707c0 23.733-19.24 42.974-42.973 42.974-23.734 0-42.974-19.24-42.974-42.974h.003c0-22.942-18.599-41.54-41.541-41.54s-41.541 18.598-41.541 41.54h.003c0 23.733-19.24 42.974-42.973 42.974-23.734 0-42.973-19.24-42.973-42.974 0 0-4.225-42.82 21.16-68.167l60.816-40.896 65.067 35.143c6.949 3.754 15.495-.675 16.436-8.516l3.043-25.36c.333-2.777 3.469-4.236 5.808-2.703l67.147 44.009c18.417 25.236 15.492 66.49 15.492 66.49z" fill="#eaa585"/><path d="m290.526 86.407h-31.219c79.065 0 143.16 64.095 143.16 143.16v14.277c-1.585 23.683-.138 32.004-14.668 40.999 2.042 9.176 2.848 19.979 3.065 31.558 1.133 27.141-17.249 42.955-32.965 46.472 0 19.159-15.057 35.926-33.616 35.926-4.493 0-8.779-.91-12.695-2.563-10.913-4.603-23.574-2.63-32.595 5.046-5.495 4.676-12.235 7.429-19.519 7.429-7.285 0-14.025-2.754-19.52-7.429-9.02-7.676-21.682-9.649-32.595-5.046-3.916 1.652-8.202 2.563-12.695 2.563-11.857 0-22.281-6.34-28.262-15.915-4.794-7.674-12.864-12.828-21.825-14.083-8.93-1.25-35.003 15.848-45.747-18.336l.122 4.08c-4.005 51.897 26.302 75.616 49.641 58.14 0 22.305 17.515 40.387 39.122 40.387 17.124 0 31.668-11.362 36.97-27.179 3.006 21.953 19.085 38.718 38.479 38.718 19.393 0 35.472-16.765 38.478-38.718 5.302 15.816 19.846 27.179 36.97 27.179 21.606 0 39.121-18.083 39.121-40.387 24.239 11.547 46.64-10.854 49.641-58.14l2.243-30.798c16.915-10.471 25.724-26.487 27.569-54.057v-16.62c.001-92.046-74.616-166.663-166.66-166.663z" fill="#e37c85"/><g fill="#e383b9"><circle cx="178.653" cy="324.528" r="15.813"/><circle cx="347.674" cy="324.528" r="15.814"/><path d="m191.459 283.819c-.932 0-1.879-.215-2.766-.668-.017-.008-4.614-2.261-10.04-2.261s-10.023 2.253-10.068 2.276c-3.004 1.492-6.662.286-8.17-2.708s-.33-6.637 2.657-8.161c.721-.368 7.28-3.595 15.582-3.595 8.301 0 14.861 3.227 15.582 3.595 2.998 1.53 4.187 5.201 2.657 8.198-1.079 2.11-3.217 3.324-5.434 3.324z"/><path d="m360.481 283.819c-.932 0-1.879-.215-2.765-.668-.018-.008-4.614-2.262-10.041-2.262s-10.023 2.253-10.068 2.276c-3.001 1.493-6.661.287-8.17-2.708-1.509-2.994-.329-6.637 2.656-8.161.721-.368 7.28-3.595 15.582-3.595 8.301 0 14.861 3.227 15.581 3.594 2.998 1.53 4.188 5.201 2.657 8.199-1.077 2.111-3.215 3.325-5.432 3.325z"/></g><path d="m263.163 346.436c-12.08 0-21.907-9.827-21.907-21.907 0-3.365 2.729-6.094 6.094-6.094s6.094 2.729 6.094 6.094c0 5.359 4.36 9.719 9.719 9.719s9.72-4.36 9.72-9.719c0-3.365 2.729-6.094 6.094-6.094s6.094 2.729 6.094 6.094c0 12.079-9.827 21.907-21.908 21.907z" fill="#bc545e"/><path d="m272.439 409.621c-3.365 0-6.094-2.729-6.094-6.094v-10.195c0-3.365 2.729-6.094 6.094-6.094s6.094 2.729 6.094 6.094v10.195c0 3.366-2.729 6.094-6.094 6.094z" fill="#bc545e"/><path d="m302.399 394.782c-3.365 0-6.094-2.729-6.094-6.094v-10.195c0-3.365 2.729-6.094 6.094-6.094s6.094 2.729 6.094 6.094v10.195c0 3.365-2.728 6.094-6.094 6.094z" fill="#bc545e"/><path d="m337.342 418.638c-3.365 0-6.094-2.729-6.094-6.094v-10.195c0-3.365 2.729-6.094 6.094-6.094s6.094 2.729 6.094 6.094v10.195c.001 3.366-2.728 6.094-6.094 6.094z" fill="#bc545e"/><path d="m368.59 41.28h-210.853c-15.691 0-28.41 12.72-28.41 28.41v5.318l133.837 30.699 133.837-30.699v-5.318c0-15.69-12.72-28.41-28.411-28.41z" fill="#f5dbb6"/><path d="m129.327 75.009h267.674v43.628h-267.674z" fill="#84eac4"/><path d="m346.33 61.866v13.143l25.255 13.204 25.416-13.204v-5.318c0-15.691-12.72-28.41-28.411-28.41h-42.845c11.368-.001 20.585 9.216 20.585 20.585z" fill="#eaa5b6"/><path d="m346.33 86.872c0 12.381-10.036 22.417-22.417 22.417h-194.586v9.347h267.674v-43.627h-50.671z" fill="#71afc4"/><path d="m412.003 160.357h-297.678c-7.303 0-13.224-5.92-13.224-13.224v-19.331c0-7.303 5.921-13.224 13.224-13.224h297.678c7.303 0 13.224 5.92 13.224 13.224v19.331c-.001 7.304-5.921 13.224-13.224 13.224z" fill="#f5dbb6"/><path d="m116.362 259.519c-.267 0-.536-.01-.806-.032-5.592-.439-9.769-5.329-9.33-10.921.574-7.304 1.687-14.354 3.307-20.955 1.337-5.447 6.838-8.78 12.286-7.441 5.447 1.338 8.779 6.838 7.441 12.286-1.359 5.536-2.296 11.491-2.784 17.701-.417 5.322-4.865 9.362-10.114 9.362z" fill="#fff"/><path d="m132.274 211.307c-2.108 0-4.234-.654-6.055-2.009-4.5-3.348-5.434-9.711-2.085-14.211 1.394-1.874 2.772-3.473 4.212-4.886 4.003-3.93 10.433-3.872 14.363.13s3.872 10.433-.13 14.363c-.684.672-1.387 1.496-2.149 2.52-1.993 2.678-5.055 4.093-8.156 4.093z" fill="#fff"/></g><g><path d="m45.989 2.57 8.627 24.258c.369 1.039 1.101 1.862 2.023 2.278l21.552 9.71c3.045 1.372 3.045 6.223 0 7.595l-21.552 9.71c-.923.416-1.654 1.239-2.023 2.277l-8.627 24.258c-1.219 3.427-5.529 3.427-6.748 0l-8.627-24.258c-.369-1.039-1.101-1.862-2.023-2.277l-21.552-9.711c-3.045-1.372-3.045-6.223 0-7.595l21.552-9.71c.923-.416 1.654-1.239 2.023-2.278l8.627-24.257c1.219-3.427 5.529-3.427 6.748 0z" fill="#f1c7b6"/><ellipse cx="451.679" cy="461.491" fill="#eaa585" rx="18.837" ry="18.838" transform="matrix(.16 -.987 .987 .16 -76.205 833.415)"/><circle cx="494.304" cy="400.095" fill="#eaa585" r="7.977"/><path d="m481.664 33.497 6.399 17.994c.274.77.816 1.381 1.501 1.689l15.987 7.203c2.259 1.018 2.259 4.616 0 5.634l-15.987 7.203c-.685.308-1.227.919-1.501 1.689l-6.399 17.994c-.904 2.542-4.101 2.542-5.005 0l-6.399-17.994c-.274-.771-.816-1.381-1.501-1.689l-15.987-7.203c-2.258-1.018-2.258-4.616 0-5.634l15.987-7.203c.685-.308 1.227-.919 1.501-1.689l6.399-17.994c.903-2.542 4.101-2.542 5.005 0z" fill="#f1c7b6"/></g></g></svg>