<svg id="Capa_1" enable-background="new 0 0 512 512" height="512" viewBox="0 0 512 512" width="512" xmlns="http://www.w3.org/2000/svg"><g><g><path d="m326.329 509.408v-31.689c0-64.736-52.479-117.215-117.215-117.215-64.736 0-117.215 52.479-117.215 117.215v31.689z" fill="#e58bbd"/><path d="m287.357 509.408v-29.941c0-43.212-35.031-78.243-78.243-78.243-43.212 0-78.243 35.031-78.243 78.243v29.941z" fill="#fff"/><path d="m217.324 401.654c22.632 10.179 38.551 34.337 38.551 62.529v6.783c0 10.559-8.56 19.119-19.119 19.119h-105.886v19.323h156.486v-29.941c.001-40.44-30.679-73.708-70.032-77.813z" fill="#eebdfa"/><circle cx="379.409" cy="313.863" fill="#d49c8d" r="38.817"/><circle cx="38.817" cy="313.863" fill="#d49c8d" r="38.817"/><path d="m242.191 409.793h-66.155c-82.207 0-148.849-66.642-148.849-148.849 0-82.207 66.642-148.849 148.849-148.849h66.155c82.207 0 148.849 66.642 148.849 148.849 0 82.207-66.642 148.849-148.849 148.849z" fill="#d49c8d"/><path d="m242.191 112.005h-19.087c66.646 0 120.674 54.027 120.674 120.674v10.248c0 66.646-54.027 120.674-120.674 120.674h-75.244c-63.779 0-115.994-49.48-120.37-112.146-.194 3.109-.304 6.241-.304 9.399 0 82.207 66.642 148.849 148.849 148.849h66.155c82.207 0 148.849-66.642 148.849-148.849.001-82.207-66.641-148.849-148.848-148.849z" fill="#c7758d"/><g fill="#b1586b"><ellipse cx="120.309" cy="322.403" rx="16.617" ry="16.617" transform="matrix(.229 -.973 .973 .229 -221.075 365.707)"/><ellipse cx="297.918" cy="322.403" rx="16.617" ry="16.617" transform="matrix(.16 -.987 .987 .16 -67.942 564.984)"/><path d="m133.766 279.382c-.942 0-1.898-.217-2.795-.675-.021-.01-4.897-2.402-10.661-2.402-5.791 0-10.614 2.378-10.661 2.402-3.031 1.549-6.741.344-8.288-2.686s-.344-6.741 2.687-8.287c.752-.384 7.596-3.75 16.262-3.75s15.51 3.366 16.262 3.75c3.031 1.546 4.233 5.257 2.687 8.287-1.09 2.134-3.251 3.361-5.493 3.361z"/><path d="m311.374 279.382c-.942 0-1.899-.217-2.796-.675-.021-.01-4.897-2.402-10.661-2.402-5.791 0-10.614 2.378-10.661 2.402-3.03 1.549-6.741.344-8.288-2.686s-.344-6.741 2.687-8.287c.752-.384 7.596-3.75 16.262-3.75s15.51 3.366 16.262 3.75c3.031 1.546 4.233 5.257 2.687 8.287-1.088 2.134-3.25 3.361-5.492 3.361z"/><path d="m209.114 345.18c-12.559 0-22.778-10.218-22.778-22.778 0-3.402 2.758-6.16 6.161-6.16s6.16 2.758 6.16 6.16c0 5.766 4.691 10.457 10.457 10.457s10.456-4.69 10.456-10.457c0-3.402 2.758-6.16 6.16-6.16s6.16 2.758 6.16 6.16c.001 12.56-10.217 22.778-22.776 22.778z"/></g><path d="m210.402 82.478-4.421 2.227-5.012-1.999c-82.916 3.963-182.928 59.353-182.928 146.429 0 20.469 11.098 33.306 11.909 31.864 28.043-49.897 81.474-80.411 142.787-80.411h72.754c61.195 0 114.538 30.384 142.624 80.122 4.012 7.105 9.38-12.058 9.38-32.528 0-90.406-102.541-145.704-187.093-145.704z" fill="#e58bbd"/><path d="m323.234 200.185c-14.331-27.526-33.347-53.376-55.941-74.67-11.33-10.678-23.506-20.757-36.317-29.618-6.797-4.701-14.019-8.539-20.574-13.419-3.063.003-6.315.088-9.433.237-9.353 5.641-18.197 12.163-26.762 18.901-10.898 8.573-22.257 17.031-32.061 26.863-9.784 9.811-17.476 21.484-25.131 32.972-7.32 10.985-12.187 22.969-15.535 35.443 12.608-5.464 45.711-16.306 71.256-16.306h72.754c28.151 0 54.631 7.122 77.765 19.639-.007-.013-.014-.028-.021-.042z" fill="#fff"/><path d="m206.618 239.396c76.227 0 162.822 18.734 183.373 23.441 1.921.44 3.507-1.536 2.648-3.309-8.55-17.648-49.177-82.695-183.539-82.695-134.221 0-174.904 65.134-183.512 82.923-.864 1.785.743 3.77 2.671 3.303 20.069-4.869 102.47-23.663 178.359-23.663z" fill="#f0c4db"/><path d="m417.237 508.973 17.083-81.901c1.318-7.808-3.943-15.206-11.751-16.524s-15.206 3.943-16.524 11.751l-17.889 86.674z" fill="#a183e2"/><path d="m444.723 305.291-37.88 26.937c-5.372 3.82-6.63 11.271-2.81 16.643l16.605 23.35c3.82 5.372 11.271 6.63 16.643 2.81l65.778-46.776c9.086-6.461 5.137-20.747-5.978-21.624l-44.503-3.511c-2.792-.221-5.573.548-7.855 2.171z" fill="#8bb6ef"/><path d="m433.274 379.732c-3.251 0-5.969-2.541-6.145-5.826-.102-1.89-2.171-46.613 25.693-74.756 2.394-2.417 6.294-2.436 8.712-.043s2.437 6.294.043 8.712c-23.972 24.212-22.166 65.023-22.145 65.433.174 3.395-2.434 6.294-5.829 6.472-.11.006-.22.008-.329.008z" fill="#617fca"/><path d="m504.032 399.241-26.937-37.88c-3.82-5.372-11.271-6.63-16.642-2.81l-23.35 16.605c-5.372 3.82-6.629 11.271-2.81 16.643l46.776 65.777c6.462 9.086 20.747 5.138 21.624-5.978l3.511-44.503c.22-2.791-.548-5.572-2.172-7.854z" fill="#eaa585"/><path d="m505.84 417.878c-1.567 0-3.133-.594-4.334-1.783-24.307-24.066-65.017-22.168-65.427-22.146-3.385.195-6.3-2.423-6.482-5.82-.183-3.397 2.423-6.3 5.821-6.482 1.887-.105 46.613-2.171 74.756 25.694 2.418 2.393 2.438 6.294.044 8.712-1.205 1.216-2.792 1.825-4.378 1.825z" fill="#bc545e"/><path d="m408.776 456.714 37.88-26.937c5.372-3.82 6.63-11.271 2.81-16.643l-16.605-23.35c-3.82-5.372-11.271-6.629-16.642-2.81l-65.779 46.776c-9.086 6.462-5.137 20.747 5.978 21.624l44.503 3.512c2.792.22 5.572-.549 7.855-2.172z" fill="#f7e266"/><path d="m396.299 464.681c-1.567 0-3.133-.594-4.335-1.783-2.417-2.393-2.437-6.294-.043-8.712 23.972-24.212 22.166-65.023 22.145-65.433-.174-3.395 2.434-6.294 5.829-6.472 3.392-.172 6.293 2.422 6.475 5.818.102 1.89 2.171 46.613-25.693 74.756-1.205 1.217-2.791 1.826-4.378 1.826z" fill="#ce824b"/><path d="m349.466 362.764 26.937 37.88c3.82 5.372 11.271 6.63 16.643 2.81l23.35-16.605c5.371-3.82 6.63-11.271 2.81-16.643l-46.776-65.778c-6.461-9.086-20.747-5.137-21.624 5.978l-3.511 44.503c-.221 2.792.548 5.572 2.171 7.855z" fill="#84eac4"/><path d="m414.726 380.428c-11.183 0-47.348-1.949-71.401-25.764-2.417-2.393-2.437-6.294-.043-8.712s6.295-2.437 8.712-.043c24.306 24.064 65.018 22.165 65.426 22.145 3.393-.177 6.3 2.422 6.483 5.82.183 3.397-2.423 6.3-5.82 6.482-.276.016-1.455.072-3.357.072z" fill="#508497"/><ellipse cx="426.749" cy="381.002" fill="#e58bbd" rx="19.374" ry="19.374" transform="matrix(.624 -.781 .781 .624 -137.28 476.652)"/><path d="m196.747 222.304c-.244 0-.489-.008-.736-.026-6.065-.43-12.381-.618-19.296-.55-.03 0-.06 0-.09 0-5.63 0-10.217-4.539-10.265-10.18-.049-5.67 4.509-10.305 10.18-10.355 7.464-.059 14.311.133 20.922.603 5.657.4 9.916 5.311 9.516 10.967-.384 5.409-4.892 9.541-10.231 9.541z" fill="#fff"/><path d="m139.596 224.118c-5.082 0-9.497-3.772-10.169-8.946-.73-5.624 3.237-10.775 8.86-11.505 2.084-.271 4.294-.516 7.167-.799 5.647-.544 10.668 3.571 11.222 9.215.555 5.643-3.571 10.667-9.215 11.222-2.652.261-4.666.484-6.53.727-.449.057-.894.086-1.335.086z" fill="#fff"/></g><g><path d="m401.951 7.09 8.721 24.522c.373 1.05 1.113 1.882 2.046 2.302l21.787 9.816c3.078 1.387 3.078 6.291 0 7.678l-21.787 9.816c-.933.42-1.672 1.252-2.046 2.302l-8.721 24.522c-1.232 3.465-5.589 3.465-6.821 0l-8.721-24.522c-.373-1.05-1.113-1.882-2.045-2.302l-21.787-9.816c-3.078-1.387-3.078-6.291 0-7.678l21.787-9.816c.933-.42 1.672-1.252 2.045-2.302l8.721-24.522c1.232-3.465 5.589-3.465 6.821 0z" fill="#f0c4db"/><ellipse cx="488.618" cy="176.832" fill="#e58bbd" rx="19.043" ry="19.043" transform="matrix(.19 -.982 .982 .19 222.278 623.017)"/><path d="m19.794 100.883c0 4.454-3.611 8.064-8.064 8.064-4.454 0-8.064-3.611-8.064-8.064 0-4.454 3.611-8.064 8.064-8.064s8.064 3.61 8.064 8.064z" fill="#e58bbd"/><path d="m80.165 4.52 6.469 18.19c.277.779.825 1.396 1.517 1.708l16.161 7.281c2.283 1.029 2.283 4.667 0 5.695l-16.161 7.281c-.692.312-1.24.929-1.517 1.708l-6.469 18.19c-.914 2.57-4.146 2.57-5.06 0l-6.469-18.19c-.277-.779-.825-1.396-1.517-1.708l-16.161-7.281c-2.283-1.029-2.283-4.666 0-5.695l16.161-7.281c.692-.312 1.24-.929 1.517-1.708l6.469-18.19c.914-2.57 4.146-2.57 5.06 0z" fill="#f0c4db"/></g></g></svg>