<svg id="Capa_1" enable-background="new 0 0 512 512" height="512" viewBox="0 0 512 512" width="512" xmlns="http://www.w3.org/2000/svg"><g><g><path d="m397.043 448.021h-284.326c-25.924 0-46.94-21.016-46.94-46.94v-139.481h378.206v139.48c0 25.925-21.016 46.941-46.94 46.941z" fill="#a183e2"/><path d="m372.421 505.499v-31.777c0-64.916-52.625-117.541-117.54-117.541-64.916 0-117.541 52.625-117.541 117.541v31.777z" fill="#fef2a8"/><path d="m303.644 461.612c-9.148-8.385-3.049-49.904-3.049-49.904-7.712-5.538-16.468-9.714-25.918-12.171v40.923c-12.428 9.731-24.414 10.597-35.828 0v-41.792c-10.281 2.138-19.828 6.277-28.205 12.007 0 0 4.574 41.026-2.287 50.174s-31.177 3.811-31.177 3.811c-.488 3.537-.76 7.142-.76 10.813v30.025h156.92v-30.025c0-3.935-.306-7.796-.865-11.575 0 .001-19.683 6.1-28.831-2.286z" fill="#8bb6ef"/><path d="m263.113 397.748c22.694 10.207 38.658 34.432 38.658 62.703v6.802c0 10.588-8.584 19.172-19.172 19.172h-106.179v19.376h156.921v-30.024c0-40.552-30.765-73.913-70.228-78.029z" fill="#eeb6a8"/><g fill="#8388ef"><path d="m332.436 463.911c-.812.247-19.84 5.907-28.792-2.299-.725-.665-1.354-1.539-1.898-2.583.009.474.025.945.025 1.421v6.802c0 10.588-8.583 19.172-19.172 19.172h-106.179v19.074h156.921v-29.728c-.001-4.032-.318-7.99-.905-11.859z"/><path d="m300.554 411.996c-7.702-5.525-16.443-9.688-25.877-12.142v4.732c11.105 8.309 19.608 20.397 23.93 34.55-.066-12.278 1.658-25.086 1.947-27.14z"/></g><g><path d="m176.42 481.127c-3.313 0-6-2.686-6-6 0-46.571 37.889-84.46 84.46-84.46 3.313 0 6 2.686 6 6 0 3.313-2.687 6-6 6-39.955 0-72.46 32.506-72.46 72.46 0 3.314-2.687 6-6 6z" fill="#d08372"/></g><g fill="#d49c8d"><ellipse cx="425.649" cy="309.411" rx="38.925" ry="38.925" transform="matrix(.526 -.851 .851 .526 -61.329 508.823)"/><ellipse cx="84.111" cy="309.411" rx="38.925" ry="38.925" transform="matrix(.526 -.851 .851 .526 -223.31 218.294)"/><path d="m288.05 405.608h-66.34c-82.435 0-149.263-66.827-149.263-149.262 0-82.435 66.827-149.263 149.263-149.263h66.339c82.435 0 149.262 66.827 149.262 149.263.001 82.434-66.826 149.262-149.261 149.262z"/></g><path d="m288.05 107.732h-19.141c66.831 0 121.009 54.177 121.009 121.009v10.277c0 66.831-54.178 121.009-121.009 121.009h-75.452c-63.956 0-116.316-49.617-120.704-112.457-.194 3.118-.305 6.258-.305 9.425 0 82.435 66.827 149.262 149.263 149.262h66.339c82.436 0 149.263-66.827 149.263-149.262-.001-82.436-66.828-149.263-149.263-149.263z" fill="#c7758d"/><ellipse cx="165.829" cy="317.975" fill="#b3586b" rx="16.663" ry="16.663" transform="matrix(.993 -.122 .122 .993 -37.609 22.644)"/><ellipse cx="343.931" cy="317.975" fill="#b3586b" rx="16.663" ry="16.663" transform="matrix(.23 -.973 .973 .23 -44.557 579.65)"/><g><path d="m179.324 274.657c-.918 0-1.849-.211-2.723-.657-.023-.011-4.946-2.429-10.772-2.429-5.825 0-10.748 2.418-10.797 2.442-2.956 1.469-6.559.284-8.045-2.663-1.487-2.948-.325-6.537 2.616-8.038.75-.383 7.579-3.741 16.227-3.741s15.477 3.358 16.227 3.741c2.952 1.506 4.123 5.12 2.617 8.071-1.062 2.079-3.167 3.274-5.35 3.274z" fill="#440a29"/></g><g><path d="m357.425 274.657c-.918 0-1.85-.211-2.723-.657-.023-.011-4.946-2.429-10.772-2.429s-10.748 2.418-10.797 2.442c-2.954 1.47-6.56.286-8.046-2.663-1.486-2.948-.325-6.537 2.615-8.038.75-.383 7.578-3.741 16.228-3.741 8.648 0 15.477 3.358 16.227 3.741 2.952 1.506 4.123 5.12 2.616 8.071-1.06 2.079-3.165 3.274-5.348 3.274z" fill="#440a29"/></g><g><path d="m254.88 340.639c-12.497 0-22.663-10.167-22.663-22.663 0-3.314 2.687-6 6-6 3.314 0 6 2.686 6 6 0 5.88 4.783 10.663 10.663 10.663s10.663-4.783 10.663-10.663c0-3.314 2.686-6 6-6 3.313 0 6 2.686 6 6 0 12.496-10.167 22.663-22.663 22.663z" fill="#b3586b"/></g><path d="m424.281 316.017c17.824-11.034 33.102-28.009 35.046-57.061v-17.513c0-96.989-78.625-175.615-175.615-175.615h-57.663c-96.989 0-175.615 78.626-175.615 175.615v17.513c1.238 30.75 19.628 47.159 32.642 57.91 39.859-59.158 80.163-114.578 123.901-141.1 67.578 53.482 140.67 99.321 217.304 140.251z" fill="#a183e2"/><g><path d="m161.407 138.004c-3.232 0-6.404-1.564-8.331-4.456-3.062-4.596-1.819-10.805 2.777-13.867 2.013-1.341 6.746-4.254 10.252-5.679 5.116-2.08 10.949.384 13.029 5.5 2.079 5.116-.383 10.95-5.499 13.029-1.44.585-4.779 2.52-6.691 3.794-1.706 1.135-3.632 1.679-5.537 1.679z" fill="#fff"/></g><g><path d="m116.428 180.169c-1.831 0-3.683-.502-5.344-1.555-4.665-2.956-6.05-9.134-3.094-13.799 8.651-13.652 18.682-23.345 25.572-29.07 4.248-3.531 10.552-2.949 14.083 1.299 3.53 4.248 2.948 10.553-1.299 14.082-5.785 4.808-14.205 12.942-21.462 24.395-1.904 3.004-5.145 4.648-8.456 4.648z" fill="#fff"/></g><g><path d="m367.424 237.589c-3.313 0-6-2.687-6-6v-12.276c0-3.313 2.687-6 6-6 3.314 0 6 2.687 6 6v12.276c0 3.313-2.686 6-6 6z" fill="#7844c1"/></g><g><path d="m400.168 201.98c-3.314 0-6-2.686-6-6v-12.276c0-3.313 2.686-6 6-6 3.313 0 6 2.687 6 6v12.276c0 3.313-2.686 6-6 6z" fill="#7844c1"/></g><g><path d="m412.8 252.564c-3.314 0-6-2.686-6-6v-12.276c0-3.313 2.686-6 6-6s6 2.687 6 6v12.276c0 3.313-2.686 6-6 6z" fill="#7844c1"/></g><g><g fill="#ffe266"><path d="m290.67 300.076c-2.504 0-5.04-.511-7.383-1.59-20.871-9.602-39.7-9.649-59.256-.147-7.247 3.52-16.573 1.517-20.831-4.478-4.257-5.995-1.833-13.71 5.414-17.232 28.976-14.081 59.077-14.13 89.468-.147 7.346 3.379 9.988 11.045 5.902 17.121-2.783 4.139-7.968 6.473-13.314 6.473z"/><path d="m158.208 254.866c-34.854 0-63.109 28.255-63.109 63.109s28.255 63.109 63.109 63.109 63.109-28.255 63.109-63.109-28.255-63.109-63.109-63.109zm0 103.405c-22.255 0-40.296-18.041-40.296-40.296s18.041-40.296 40.296-40.296 40.296 18.041 40.296 40.296-18.041 40.296-40.296 40.296z"/><path d="m348.798 254.866c-34.854 0-63.109 28.255-63.109 63.109s28.255 63.109 63.109 63.109 63.109-28.255 63.109-63.109-28.255-63.109-63.109-63.109zm0 103.405c-22.255 0-40.296-18.041-40.296-40.296s18.041-40.296 40.296-40.296 40.296 18.041 40.296 40.296-18.041 40.296-40.296 40.296z"/></g><path d="m158.225 254.866c-.005 0-.011 0-.017 0-2.138 0-4.25.109-6.334.317 25.583 2.81 45.489 24.484 45.489 50.815 0 .745-.024 1.484-.056 2.22.777 3.125 1.196 6.391 1.196 9.757 0 22.255-18.041 40.296-40.296 40.296-3.366 0-6.632-.419-9.757-1.196-.737.032-1.475.056-2.219.056-26.332 0-48.006-19.906-50.816-45.489-.104 1.041-.183 2.089-.236 3.144-.053 1.056-.081 2.119-.081 3.189 0 34.854 28.255 63.109 63.109 63.109s63.109-28.255 63.109-63.109c.001-34.848-28.245-63.1-63.091-63.109z" fill="#efaa66"/><path d="m348.838 254.867c-.013 0-.027-.001-.04-.001-2.138 0-4.25.109-6.334.317 25.583 2.81 45.489 24.484 45.489 50.815 0 .745-.025 1.484-.056 2.22.777 3.125 1.196 6.391 1.196 9.756 0 22.255-18.041 40.296-40.296 40.296-3.365 0-6.632-.419-9.756-1.196-.737.031-1.476.056-2.22.056-26.331 0-48.006-19.906-50.816-45.489-.208 2.083-.317 4.195-.317 6.333v.019c.011 34.845 28.261 63.09 63.109 63.09 34.854 0 63.109-28.255 63.109-63.109.001-34.839-28.232-63.085-63.068-63.107z" fill="#efaa66"/></g></g><g><path d="m58.671 8.767 8.618 24.232c.369 1.038 1.1 1.86 2.021 2.275l21.529 9.7c3.042 1.37 3.042 6.217 0 7.587l-21.529 9.7c-.922.415-1.652 1.237-2.021 2.275l-8.618 24.232c-1.217 3.424-5.523 3.424-6.741 0l-8.618-24.232c-.369-1.037-1.099-1.86-2.021-2.275l-21.529-9.7c-3.042-1.37-3.042-6.217 0-7.587l21.529-9.7c.922-.415 1.652-1.237 2.021-2.275l8.618-24.232c1.218-3.424 5.524-3.424 6.741 0z" fill="#cab4ef"/><ellipse cx="387.116" cy="25.017" fill="#a183e2" rx="18.818" ry="18.818" transform="matrix(.16 -.987 .987 .16 300.413 403.127)"/><circle cx="7.969" cy="141.518" fill="#a183e2" r="7.969"/><path d="m486.446 65.879 6.393 17.975c.274.77.815 1.379 1.499 1.688l15.97 7.195c2.256 1.017 2.256 4.611 0 5.628l-15.97 7.195c-.684.308-1.226.918-1.499 1.688l-6.393 17.975c-.903 2.539-4.097 2.539-5 0l-6.393-17.975c-.274-.77-.815-1.379-1.499-1.688l-15.97-7.195c-2.256-1.017-2.256-4.611 0-5.628l15.97-7.195c.684-.308 1.226-.918 1.499-1.688l6.393-17.975c.903-2.539 4.097-2.539 5 0z" fill="#cab4ef"/></g></g></svg>