<svg id="Capa_1" enable-background="new 0 0 512 512" height="512" viewBox="0 0 512 512" width="512" xmlns="http://www.w3.org/2000/svg"><g><g><path d="m360.799 502.53v-29.593c0-60.454-49.007-109.461-109.461-109.461-60.454 0-109.461 49.008-109.461 109.461v29.593z" fill="#f1c7b6"/><path d="m360.799 472.952v-.016c0-60.454-49.007-109.462-109.461-109.462-60.454 0-109.461 49.008-109.461 109.462v.016z" fill="#84eac4"/><path d="m324.405 502.53v-27.961c0-40.354-32.714-73.068-73.067-73.068-40.354 0-73.067 32.714-73.067 73.068v27.961z" fill="#84eac4"/><path d="m259.005 401.904c21.134 9.505 36 32.066 36 58.393v6.335c0 9.86-7.993 17.854-17.854 17.854h-98.881v18.044h146.135v-27.961c0-37.764-28.65-68.832-65.4-72.665z" fill="#71afc4"/><path d="m209.679 409.504s21.512 48.397 40.625 48.397c19.112 0 37.664-48.48 37.664-48.48" fill="#f1c7b6"/><path d="m178.27 512c-3.344 0-6.056-2.711-6.056-6.056v-31.376c0-43.628 35.495-79.123 79.123-79.123 3.344 0 6.056 2.711 6.056 6.056 0 3.344-2.711 6.056-6.056 6.056-36.95 0-67.012 30.061-67.012 67.011v31.376c.001 3.345-2.71 6.056-6.055 6.056z" fill="#508497"/><ellipse cx="410.369" cy="319.92" fill="#f1c7b6" rx="36.25" ry="36.25" transform="matrix(.287 -.958 .958 .287 -13.902 621.16)"/><ellipse cx="92.307" cy="319.92" fill="#f1c7b6" rx="36.25" ry="36.25" transform="matrix(.858 -.513 .513 .858 -151.045 92.656)"/><path d="m272.911 401.501-43.147 1.67c-76.769 0-148.319-55.901-148.319-132.67 0-76.769 62.234-139.003 139.003-139.003h61.779c76.769 0 139.003 62.234 139.003 139.003.001 76.769-71.549 131-148.319 131z" fill="#f1c7b6"/><path d="m282.228 131.415h-17.825c62.238 0 112.691 50.454 112.691 112.691v9.57c0 62.238-50.454 112.692-112.691 112.692h-70.266c-59.56 0-108.321-46.207-112.408-104.727-.181 2.903-.284 5.828-.284 8.777 0 76.769 62.234 139.003 139.003 139.003h61.779c76.769 0 139.003-62.234 139.003-139.003.001-76.77-62.233-139.003-139.002-139.003z" fill="#e795b6"/><g fill="#ce7295"><ellipse cx="168.408" cy="327.895" rx="15.518" ry="15.518" transform="matrix(.399 -.917 .917 .399 -199.445 351.581)"/><ellipse cx="334.268" cy="327.895" rx="15.518" ry="15.518" transform="matrix(.289 -.957 .957 .289 -76.153 553.295)"/><path d="m155.842 288.022c-2.204 0-4.328-1.206-5.399-3.304-1.52-2.979-.338-6.626 2.641-8.147.709-.362 7.161-3.534 15.324-3.534s14.615 3.172 15.324 3.534c2.979 1.521 4.162 5.168 2.642 8.147-1.519 2.979-5.167 4.16-8.146 2.642-.016-.008-4.513-2.211-9.819-2.211-5.251 0-9.775 2.188-9.818 2.211-.883.45-1.823.662-2.749.662z"/><path d="m346.834 288.022c-.927 0-1.866-.213-2.748-.662-.016-.008-4.512-2.211-9.818-2.211s-9.803 2.203-9.848 2.224c-2.983 1.481-6.62.284-8.118-2.693-1.498-2.976-.326-6.595 2.642-8.11.709-.362 7.161-3.534 15.324-3.534s14.615 3.172 15.324 3.534c2.979 1.521 4.161 5.168 2.641 8.147-1.07 2.099-3.196 3.305-5.399 3.305z"/><path d="m251.338 349.469c-11.896 0-21.574-9.678-21.574-21.574 0-3.344 2.712-6.056 6.056-6.056s6.056 2.711 6.056 6.056c0 5.217 4.245 9.462 9.462 9.462s9.462-4.245 9.462-9.462c0-3.344 2.711-6.056 6.056-6.056 3.344 0 6.056 2.711 6.056 6.056-.001 11.896-9.679 21.574-21.574 21.574z"/></g><path d="m468.42 221.958c0-16.607-10.253-30.812-24.77-36.654.6-3.073.924-6.245.924-9.494 0-27.193-22.045-49.238-49.238-49.238-2.037 0-4.04.138-6.012.379-7.975-20.314-27.744-34.703-50.888-34.703-8.054 0-15.693 1.756-22.577 4.883-13.007-13.421-31.212-21.776-51.377-21.776-15.575 0-29.975 4.991-41.722 13.44-12.035-8.935-26.937-14.225-43.077-14.225-32.922 0-60.689 22-69.449 52.094-.958-.056-1.921-.091-2.893-.091-27.193 0-49.237 22.044-49.237 49.238 0 3.249.323 6.421.924 9.494-14.517 5.842-24.77 20.046-24.77 36.654 0 17.084 10.846 31.634 26.027 37.143-6.041 5.289-9.861 13.051-9.861 21.711 0 15.935 12.917 28.852 28.852 28.852s28.852-12.917 28.852-28.852c0-4.101-.861-7.999-2.404-11.532.538.021 1.076.04 1.618.04 21.818 0 39.505-17.687 39.505-39.505 0-.078-.005-.155-.006-.234 8.048-1.007 15.064-5.324 19.642-11.551 4.283.79 8.69 1.223 13.201 1.223 16.14 0 31.043-5.29 43.077-14.225 11.747 8.448 26.148 13.44 41.722 13.44 20.166 0 38.37-8.354 51.377-21.776 4.61 2.094 9.557 3.571 14.744 4.316.023 14.688 11.022 26.794 25.233 28.573 0 .079-.006.155-.006.234 0 21.818 17.687 39.505 39.505 39.505.543 0 1.081-.019 1.618-.04-1.543 3.533-2.404 7.431-2.404 11.532 0 15.935 12.917 28.852 28.852 28.852 15.934 0 28.852-12.917 28.852-28.852 0-8.66-3.82-16.422-9.861-21.711 15.181-5.51 26.027-20.059 26.027-37.144z" fill="#e58bbd"/><path d="m151.732 149.31c-1.453 0-2.928-.314-4.328-.98-5.034-2.394-7.174-8.415-4.78-13.449 5.497-11.561 16.215-20.943 26.064-22.817 5.476-1.035 10.76 2.554 11.801 8.029 1.042 5.476-2.552 10.759-8.028 11.802-2.327.443-8.365 4.836-11.607 11.654-1.729 3.635-5.348 5.761-9.122 5.761z" fill="#fff"/><path d="m271.867 121.711-1.538 6.386 6.295 1.876c11.993 3.574 10.13 21.103-2.346 22.076l-6.548.51.161 6.566c.308 12.51-16.94 16.156-21.721 4.59l-2.509-6.07-6.195 2.183c-11.803 4.158-20.6-11.119-11.078-19.239l4.998-4.262-3.99-5.217c-7.602-9.941 4.209-23.027 14.874-16.481l5.598 3.436 3.729-5.407c7.105-10.302 23.201-3.113 20.27 9.053z" fill="#f0c4db"/><path d="m318.429 181.908 3.604 5.491 5.675-3.307c10.812-6.301 22.321 7.052 14.493 16.817l-4.108 5.125 4.899 4.376c9.334 8.336.19 23.408-11.515 18.981l-6.144-2.324-2.647 6.011c-5.044 11.453-22.204 7.415-21.61-5.086l.311-6.561-6.535-.66c-12.451-1.258-13.913-18.826-1.841-22.124l6.336-1.731-1.392-6.419c-2.65-12.232 13.606-19.051 20.474-8.589z" fill="#f0c4db"/><path d="m402.569 163.661 5.809 3.067 3.371-5.637c6.423-10.74 22.951-4.608 20.814 7.723l-1.121 6.472 6.403 1.464c12.199 2.79 11.475 20.404-.913 22.182l-6.502.933.586 6.542c1.116 12.464-15.859 17.218-21.378 5.986l-2.897-5.895-6.041 2.579c-11.509 4.913-21.276-9.762-12.299-18.482l4.712-4.577-4.32-4.948c-8.23-9.428 2.71-23.252 13.776-17.409z" fill="#f0c4db"/><path d="m116.109 178.628 1.965 6.268 6.363-1.629c12.124-3.103 19.54 12.89 9.34 20.14l-5.354 3.806 3.515 5.549c6.697 10.571-6.221 22.567-16.268 15.107l-5.274-3.916-4.191 5.058c-7.984 9.636-23.385 1.057-19.394-10.804l2.094-6.225-6.105-2.423c-11.632-4.616-8.232-21.913 4.282-21.784l6.568.068.418-6.555c.796-12.49 18.298-14.601 22.041-2.66z" fill="#f0c4db"/></g><g><path d="m71.355 2.554 8.573 24.105c.367 1.032 1.094 1.85 2.011 2.263l21.417 9.649c3.026 1.363 3.026 6.184 0 7.547l-21.417 9.649c-.917.413-1.644 1.231-2.011 2.263l-8.573 24.105c-1.211 3.406-5.494 3.406-6.705 0l-8.573-24.105c-.367-1.032-1.094-1.85-2.011-2.263l-21.416-9.648c-3.026-1.363-3.026-6.184 0-7.547l21.417-9.649c.917-.413 1.644-1.231 2.011-2.263l8.572-24.106c1.211-3.405 5.494-3.405 6.705 0z" fill="#f0c4db"/><path d="m413.284 22.045c0 10.338-8.381 18.719-18.719 18.719-10.339 0-18.719-8.381-18.719-18.719 0-10.339 8.381-18.719 18.719-18.719s18.719 8.38 18.719 18.719z" fill="#e58bbd"/><ellipse cx="17.494" cy="122.67" fill="#e58bbd" rx="7.927" ry="7.927" transform="matrix(.707 -.707 .707 .707 -81.617 48.299)"/><path d="m477.013 55.174 6.359 17.881c.272.765.811 1.372 1.491 1.679l15.887 7.158c2.244 1.011 2.244 4.587 0 5.598l-15.887 7.158c-.68.306-1.219.913-1.491 1.679l-6.359 17.881c-.898 2.526-4.076 2.526-4.974 0l-6.359-17.881c-.272-.766-.811-1.372-1.491-1.679l-15.887-7.158c-2.244-1.011-2.244-4.587 0-5.598l15.887-7.158c.68-.306 1.219-.913 1.491-1.679l6.359-17.881c.898-2.526 4.076-2.526 4.974 0z" fill="#f0c4db"/></g></g></svg>