<svg id="Capa_1" enable-background="new 0 0 512 512" height="512" viewBox="0 0 512 512" width="512" xmlns="http://www.w3.org/2000/svg"><g><g><path d="m411.669 443.802h-290.633c-26.5 0-47.982-21.482-47.982-47.982v-142.575h386.597v142.575c0 26.5-21.482 47.982-47.982 47.982z" fill="#eaa585"/><path d="m391.648 502.114v-33.393c0-68.216-55.3-123.517-123.517-123.517-68.217 0-123.517 55.3-123.517 123.517v33.393z" fill="#bdf4e3"/><path d="m391.647 471.692v-2.97c0-12.466-1.854-24.497-5.289-35.842h-236.456c-3.435 11.345-5.289 23.376-5.289 35.842v2.97z" fill="#e5ecf8"/><path d="m329.407 437.305c-.343-.717 12.417-3.717 12.054-4.422-12.434-24.148-36.427-41.369-64.679-44.316 17.809 8.01 31.666 24.239 37.545 44.314.208.706 15.08 4.424 15.08 4.424z" fill="#b1b7e3"/><path d="m314.692 471.676c-3.481 6.021-9.978 10.076-17.433 10.076h-111.578v20.361h164.9v-30.422s-20.545-3.507-20.555-4.036c-.001.001-14.837 3.161-15.334 4.021z" fill="#b1b7e3"/><path d="m314.681 471.692h35.9v-1.129c0-13.581-3.295-26.388-9.112-37.684h-27.136c1.994 6.808 3.073 14.056 3.073 21.578v7.148c0 3.68-1.003 7.118-2.725 10.087z" fill="#dab4f3"/><path d="m185.681 512c-3.332 0-6.034-2.702-6.034-6.034v-35.404c0-48.79 39.693-88.484 88.483-88.484 3.332 0 6.034 2.702 6.034 6.034s-2.702 6.034-6.034 6.034c-42.135 0-76.416 34.28-76.416 76.417v35.404c.001 3.331-2.701 6.033-6.033 6.033z" fill="#8edec3"/><g fill="#f1c7b6"><circle cx="447.582" cy="296.056" r="40.904"/><circle cx="88.679" cy="296.056" r="40.904"/><path d="m291.069 391.351-45.747-.055c-86.627 0-168.9-64.378-168.9-151.005 0-86.627 70.225-156.852 156.852-156.852h69.712c86.627 0 156.852 70.225 156.852 156.852.001 86.627-82.142 151.06-168.769 151.06z"/></g><path d="m302.987 83.346h-20.114c70.23 0 127.162 56.932 127.162 127.162v10.799c0 70.23-56.932 127.162-127.162 127.162h-79.289c-67.208 0-122.23-52.14-126.841-118.175-.204 3.276-.32 6.577-.32 9.904 0 86.627 70.225 156.852 156.852 156.852h69.712c86.627 0 156.852-70.225 156.852-156.852 0-86.628-70.225-156.852-156.852-156.852z" fill="#e795b6"/><ellipse cx="174.552" cy="289.396" fill="#ce7295" rx="17.51" ry="17.51" transform="matrix(.924 -.383 .383 .924 -97.46 88.827)"/><ellipse cx="361.709" cy="289.396" fill="#ce7295" rx="17.51" ry="17.51" transform="matrix(.707 -.707 .707 .707 -98.692 340.529)"/><path d="m268.13 328.6c-12.982 0-23.543-10.562-23.543-23.544 0-3.332 2.702-6.034 6.034-6.034s6.034 2.702 6.034 6.034c0 6.328 5.148 11.477 11.476 11.477s11.477-5.149 11.477-11.477c0-3.332 2.702-6.034 6.034-6.034s6.034 2.702 6.034 6.034c-.001 12.982-10.563 23.544-23.546 23.544z" fill="#ce7295"/><path d="m308.054 297.21c-27.067-30.184-54.158-30.196-81.272 0v-36.041c27.09-21.09 54.181-20.58 81.272 0z" fill="#8bb6ef"/><path d="m112.891 289.396h-16.013c-9.952 0-18.02-8.068-18.02-18.02 0-9.952 8.068-18.02 18.02-18.02h16.013c9.952 0 18.02 8.068 18.02 18.02 0 9.952-8.067 18.02-18.02 18.02z" fill="#8bb6ef"/><path d="m173.522 223.471c-36.41 0-65.926 29.516-65.926 65.926s29.516 65.925 65.926 65.925 65.926-29.515 65.926-65.925c0-2.445-.133-4.859-.392-7.235-.84-7.7-3.007-15.002-6.266-21.673-10.712-21.92-33.227-37.018-59.268-37.018zm0 106.08c-22.177 0-40.154-17.979-40.154-40.155 0-22.177 17.978-40.155 40.154-40.155s40.154 17.978 40.154 40.155c.001 22.177-17.977 40.155-40.154 40.155z" fill="#8bb6ef"/><path d="m239.283 290.814c-3.143 0-5.793-2.434-6.013-5.617-.595-8.599-2.978-16.79-7.081-24.345-1.591-2.927-.506-6.59 2.423-8.181 2.926-1.589 6.59-.507 8.181 2.423 4.935 9.086 7.799 18.934 8.514 29.271.23 3.324-2.278 6.206-5.603 6.435-.14.009-.282.014-.421.014z" fill="#617fca"/><path d="m423.37 289.396h16.013c9.952 0 18.02-8.068 18.02-18.02 0-9.952-8.068-18.02-18.02-18.02h-16.013c-9.952 0-18.02 8.068-18.02 18.02 0 9.952 8.068 18.02 18.02 18.02z" fill="#8bb6ef"/><path d="m362.739 223.471c-36.41 0-65.925 29.516-65.925 65.926s29.516 65.925 65.925 65.925c36.41 0 65.926-29.515 65.926-65.925-.001-36.41-29.517-65.926-65.926-65.926zm0 106.08c-22.176 0-40.154-17.979-40.154-40.155 0-22.177 17.978-40.155 40.154-40.155 22.177 0 40.154 17.978 40.154 40.155s-17.978 40.155-40.154 40.155z" fill="#8bb6ef"/><path d="m297.109 289.21c-.189 0-.378-.008-.57-.026-3.317-.31-5.755-3.251-5.444-6.57.827-8.837 3.249-17.338 7.198-25.265 1.485-2.981 5.108-4.199 8.091-2.709 2.982 1.486 4.195 5.109 2.71 8.091-3.283 6.59-5.296 13.658-5.985 21.009-.292 3.125-2.921 5.47-6 5.47z" fill="#617fca"/><path d="m439.934 316.715c17.658-10.931 27.053-28.589 28.979-57.37v-17.35c0-96.085-77.892-173.977-173.977-173.977h-57.126c-96.085 0-173.977 77.892-173.977 173.977v17.35c1.227 30.463 19.445 46.719 32.338 57.37l35.289-112.275 16.783 11.77c14.928 10.469 34.91 10.096 49.437-.924l21.236-16.109 22.085 16.235c15.032 11.051 35.557 10.846 50.365-.504l24.291-18.619 22.607 17.016c16.177 12.176 38.742 11.059 53.638-2.654l8.518-7.842z" fill="#eaa585"/><path d="m187.09 126.047c-3.742 0-7.334-2.097-9.067-5.694-2.41-5.004-.307-11.014 4.696-13.424 1.738-.837 7.079-3.218 10.872-4.175 5.378-1.354 10.851 1.907 12.209 7.295 1.357 5.384-1.909 10.851-7.295 12.209-1.491.375-5.018 1.809-7.058 2.792-1.407.676-2.893.997-4.357.997z" fill="#fff"/><path d="m137.16 161.245c-2.301 0-4.613-.785-6.504-2.39-4.234-3.595-4.751-9.941-1.157-14.175 10.377-12.221 21.567-20.365 29.125-25.044 4.723-2.923 10.919-1.465 13.844 3.257 2.923 4.723 1.464 10.92-3.257 13.844-6.33 3.918-15.699 10.736-24.38 20.961-1.99 2.342-4.821 3.547-7.671 3.547z" fill="#fff"/><circle cx="362.739" cy="86.059" fill="#8bb6ef" r="32.858"/><ellipse cx="419.925" cy="121.993" fill="#84eac4" rx="32.858" ry="32.858" transform="matrix(.707 -.707 .707 .707 36.732 332.663)"/></g><g><path d="m56.108 20.257 8.542 24.017c.366 1.028 1.09 1.843 2.003 2.255l21.339 9.614c3.015 1.358 3.015 6.161 0 7.52l-21.339 9.614c-.914.412-1.638 1.227-2.003 2.255l-8.542 24.018c-1.207 3.393-5.474 3.393-6.681 0l-8.542-24.018c-.366-1.028-1.09-1.843-2.003-2.255l-21.338-9.614c-3.015-1.358-3.015-6.162 0-7.52l21.338-9.614c.914-.412 1.638-1.226 2.003-2.255l8.542-24.017c1.207-3.393 5.474-3.393 6.681 0z" fill="#b2e7f1"/><path d="m152.019 19.657c0 10.301-8.35 18.651-18.651 18.651s-18.651-8.35-18.651-18.651 8.35-18.651 18.651-18.651 18.651 8.35 18.651 18.651z" fill="#8bb6ef"/><ellipse cx="409.812" cy="7.898" fill="#8bb6ef" rx="7.898" ry="7.898" transform="matrix(.23 -.973 .973 .23 307.969 404.933)"/><path d="m471.39 3.213 6.336 17.816c.271.763.808 1.367 1.486 1.673l15.829 7.131c2.236 1.008 2.236 4.571 0 5.578l-15.829 7.131c-.678.305-1.215.91-1.486 1.673l-6.336 17.816c-.895 2.517-4.061 2.517-4.956 0l-6.336-17.816c-.271-.763-.808-1.367-1.486-1.673l-15.829-7.131c-2.236-1.007-2.236-4.57 0-5.578l15.829-7.131c.678-.305 1.215-.91 1.486-1.673l6.336-17.816c.895-2.517 4.061-2.517 4.956 0z" fill="#b2e7f1"/></g></g></svg>