<svg id="Capa_1" enable-background="new 0 0 512 512" height="512" viewBox="0 0 512 512" width="512" xmlns="http://www.w3.org/2000/svg"><g><g><path d="m338.182 502.177v-32.454c0-66.299-53.746-120.045-120.045-120.045-66.299 0-120.045 53.746-120.045 120.045v32.454z" fill="#f7e266"/><path d="m298.269 502.177v-30.664c0-44.256-35.877-80.133-80.132-80.133-44.256 0-80.132 35.877-80.132 80.133v30.664z" fill="#fbf2a8"/><path d="m226.545 391.821c23.178 10.425 39.481 35.166 39.481 64.039v6.947c0 10.814-8.767 19.581-19.581 19.581h-108.441v19.789h160.265v-30.664c0-41.416-31.421-75.488-71.724-79.692z" fill="#edb6a8"/><g fill="#f1c7b6"><ellipse cx="392.544" cy="301.91" rx="39.755" ry="39.755" transform="matrix(.707 -.707 .707 .707 -98.509 365.998)"/><ellipse cx="43.729" cy="301.91" rx="39.755" ry="39.755" transform="matrix(.92 -.392 .392 .92 -114.886 41.327)"/><path d="m252.013 400.156h-67.753c-84.192 0-152.443-68.251-152.443-152.443 0-84.192 68.251-152.443 152.443-152.443h67.753c84.192 0 152.443 68.251 152.443 152.443 0 84.192-68.251 152.443-152.443 152.443z"/></g><path d="m252.013 95.179h-19.548c68.255 0 123.588 55.332 123.588 123.587v10.496c0 68.256-55.332 123.588-123.588 123.588h-77.06c-65.318 0-118.794-50.675-123.276-114.854-.198 3.184-.311 6.392-.311 9.626v.001c0 84.192 68.251 152.443 152.443 152.443h67.753c84.192 0 152.443-68.251 152.443-152.443v-.001c-.001-84.192-68.252-152.443-152.444-152.443z" fill="#e795b6"/><circle cx="127.188" cy="310.657" fill="#ce7295" r="17.018"/><circle cx="309.085" cy="310.657" fill="#ce7295" r="17.018"/><path d="m218.136 333.753c-12.736 0-23.097-10.362-23.097-23.097 0-3.357 2.722-6.079 6.079-6.079s6.079 2.722 6.079 6.079c0 6.032 4.907 10.939 10.939 10.939s10.939-4.907 10.939-10.939c0-3.357 2.722-6.079 6.079-6.079s6.079 2.722 6.079 6.079c0 12.735-10.361 23.097-23.097 23.097z" fill="#ce7295"/><path d="m382.003 301.088c17.27-10.691 32.073-27.138 33.956-55.287v-16.969c0-93.973-89.522-133.654-183.495-133.654l-31.346-8.978c-93.973 0-181.335 48.658-181.335 142.631v16.969c1.2 29.793 19.018 45.693 31.627 56.109l34.514-50.262 16.414 11.511c14.6 10.239 34.143 9.874 48.35-.903l20.77-15.755 21.599 15.879c14.702 10.808 34.775 10.607 49.258-.493l23.757-18.209 22.11 16.642c15.821 11.909 37.891 10.816 52.459-2.596l8.331-7.669z" fill="#f7e266"/><path d="m299.038 75.46c-29.843-19.331-56.018-31.89-91.519-36.437-6.507.584-19.91-1.957-25.984-.777-84.9 16.499-127.968 87.769-142.549 117.626-16.73 1.936-29.721 16.143-29.721 33.391 0 18.57 15.054 33.624 33.624 33.624h283.214l47.491-8.042-2.512-84.476c-22.739-19.939-46.872-38.604-72.044-54.909z" fill="#f5dbb6"/><path d="m61.603 118.417c-10.628 14.586-18.033 28.069-22.617 37.455h358.301c-4.584-9.387-11.988-22.87-22.617-37.455z" fill="#b2e7f1"/><path d="m342.449 126.634c-1.258-1.828 33.584-6.346 32.22-8.217-27.731-38.058-77.447-83.637-156.534-83.637-12.984 0-25.168 1.241-36.602 3.464 58.208 11.313 96.748 48.368 119.929 80.174 1.364 1.871 40.987 8.216 40.987 8.216z" fill="#eaa5b6"/><path d="m397.287 155.873c-.844-1.728-1.788-3.601-2.825-5.587h-73.204c1.037 1.987 1.981 3.859 2.825 5.587 16.73 1.935 29.721 16.143 29.721 33.391 0 18.57-15.054 33.624-33.623 33.624h73.204c18.57 0 33.623-15.054 33.623-33.624 0-17.248-12.991-31.456-29.721-33.391z" fill="#eaa5b6"/><path d="m374.67 118.417h-73.206c10.631 14.586 18.034 28.068 22.618 37.455h73.204c-4.583-9.386-11.988-22.869-22.616-37.455z" fill="#a7adf1"/><path d="m118.27 195.344c-7.573 0-15.172-.026-22.903-.077-5.595-.038-10.1-4.604-10.063-10.199.038-5.571 4.567-10.063 10.13-10.063h.069c15.371.103 30.215.103 45.379 0h.07c5.563 0 10.092 4.491 10.13 10.063.038 5.595-4.467 10.161-10.062 10.199-7.629.051-15.177.077-22.75.077z" fill="#fff"/><path d="m61.208 195.267h-13.705c-5.595 0-10.131-4.536-10.131-10.131s4.536-10.131 10.131-10.131h13.705c5.595 0 10.131 4.536 10.131 10.131 0 5.594-4.535 10.131-10.131 10.131z" fill="#fff"/><path d="m217.871 512c-3.357 0-6.079-2.722-6.079-6.079v-105.765c0-3.357 2.721-6.079 6.079-6.079 3.357 0 6.079 2.722 6.079 6.079v105.765c0 3.357-2.721 6.079-6.079 6.079z" fill="#ce8172"/><ellipse cx="245.678" cy="439.576" fill="#ce8172" rx="10.143" ry="10.143" transform="matrix(.707 -.707 .707 .707 -238.87 302.469)"/><ellipse cx="245.678" cy="474.227" fill="#ce8172" rx="10.143" ry="10.143" transform="matrix(.707 -.707 .707 .707 -263.372 312.618)"/><path d="m489.633 240.035c-1.52 0-3.063-.343-4.516-1.068-5.007-2.498-7.04-8.583-4.542-13.589l7.768-15.569c2.497-5.007 8.58-7.038 13.589-4.542 5.007 2.498 7.04 8.583 4.542 13.589l-7.768 15.569c-1.773 3.555-5.354 5.61-9.073 5.61z" fill="#617fca"/><path d="m353.917 511.997c-1.52 0-3.063-.343-4.516-1.068-5.006-2.499-7.039-8.583-4.541-13.589l38.619-77.389c2.498-5.007 8.581-7.039 13.589-4.542 5.006 2.499 7.039 8.583 4.541 13.589l-38.619 77.389c-1.773 3.554-5.354 5.61-9.073 5.61z" fill="#617fca"/><path d="m427.397 460.942c3.48-6.575 6.935-13.288 10.349-20.131 52.252-104.709 75.486-199.136 51.895-210.909-23.592-11.773-85.076 63.567-137.328 168.276-3.414 6.842-6.702 13.639-9.863 20.373 19.81-4.732 33.822 2.639 42.474 21.195 16.284-3.717 30.9 1.03 42.473 21.196z" fill="#b2e7f1"/><path d="m439.929 335.588c-.912 0-1.838-.206-2.709-.64-3.004-1.5-4.224-5.15-2.725-8.153l47.432-95.049c1.498-3.005 5.148-4.224 8.153-2.726 3.004 1.5 4.224 5.15 2.725 8.153l-47.432 95.049c-1.064 2.134-3.212 3.366-5.444 3.366z" fill="#93cbe4"/><path d="m386.518 442.622c-.912 0-1.838-.206-2.71-.64-3.004-1.5-4.224-5.15-2.725-8.153l24.951-50.001c1.498-3.005 5.151-4.222 8.153-2.726 3.004 1.5 4.224 5.15 2.725 8.153l-24.951 50c-1.064 2.134-3.212 3.367-5.443 3.367z" fill="#93cbe4"/><path d="m242.901 91.049c-3.357 0-6.079-2.722-6.079-6.079v-10.207c0-3.357 2.722-6.079 6.079-6.079s6.079 2.722 6.079 6.079v10.207c-.001 3.357-2.722 6.079-6.079 6.079z" fill="#d3889a"/><path d="m287.782 101.257c-3.357 0-6.079-2.722-6.079-6.079v-10.208c0-3.357 2.722-6.079 6.079-6.079s6.079 2.722 6.079 6.079v10.208c0 3.357-2.722 6.079-6.079 6.079z" fill="#d3889a"/></g><g><path d="m440.647 2.564 8.605 24.196c.368 1.036 1.098 1.857 2.018 2.272l21.498 9.686c3.037 1.368 3.037 6.207 0 7.576l-21.498 9.686c-.92.415-1.65 1.236-2.018 2.272l-8.605 24.196c-1.216 3.419-5.515 3.419-6.731 0l-8.605-24.196c-.368-1.036-1.098-1.857-2.018-2.272l-21.498-9.686c-3.037-1.368-3.037-6.207 0-7.576l21.498-9.686c.921-.415 1.65-1.236 2.018-2.272l8.605-24.196c1.216-3.419 5.516-3.419 6.731 0z" fill="#b2e7f1"/><ellipse cx="489.406" cy="120.978" fill="#8bb6ef" rx="18.79" ry="18.79" transform="matrix(.099 -.995 .995 .099 320.617 596.02)"/><path d="m358.364 18.933c0 4.395-3.563 7.957-7.957 7.957-4.395 0-7.957-3.563-7.957-7.957s3.563-7.957 7.957-7.957 7.957 3.562 7.957 7.957z" fill="#8bb6ef"/><path d="m34.313 12.877 6.383 17.949c.273.768.814 1.377 1.497 1.685l15.947 7.185c2.253 1.015 2.253 4.605 0 5.62l-15.947 7.184c-.683.308-1.224.917-1.497 1.685l-6.383 17.949c-.902 2.536-4.091 2.536-4.993 0l-6.383-17.949c-.273-.768-.814-1.377-1.497-1.685l-15.947-7.185c-2.253-1.015-2.253-4.604 0-5.62l15.947-7.185c.683-.308 1.224-.917 1.497-1.685l6.383-17.949c.902-2.534 4.091-2.534 4.993.001z" fill="#b2e7f1"/></g></g></svg>