<svg id="Capa_1" enable-background="new 0 0 512 512" height="512" viewBox="0 0 512 512" width="512" xmlns="http://www.w3.org/2000/svg"><g><g><path d="m357.855 509.082v-29.89c0-61.061-49.5-110.561-110.561-110.561-61.061 0-110.561 49.5-110.561 110.561v29.89z" fill="#d49c8d"/><path d="m320.956 473.102s31.128-8.266 35.816-9.379c-7.525-53.736-53.668-95.091-109.478-95.091-56.629 0-103.307 42.578-109.785 97.465 4.325 1.874 36.246 7.263 36.246 7.263v17.496l4.217 15.184h137.411z" fill="#84eac4"/><path d="m255.3 407.445c21.347 9.601 36.362 32.388 36.362 58.979v6.398c0 9.96-8.074 18.033-18.034 18.033h-99.874v18.226h147.603v-28.241c.001-38.143-28.938-69.523-66.057-73.395z" fill="#71afc4"/><path d="m173.492 487.09c-3.452 0-6.25-2.798-6.25-6.25 0-44.141 35.911-80.051 80.051-80.051 3.451 0 6.25 2.798 6.25 6.25s-2.798 6.25-6.25 6.25c-37.248 0-67.552 30.303-67.552 67.551.001 3.451-2.797 6.25-6.249 6.25z" fill="#508497"/><circle cx="407.922" cy="324.638" fill="#d49c8d" r="36.614"/><circle cx="86.666" cy="324.638" fill="#d49c8d" r="36.614"/><path d="m278.494 415.122h-62.4c-77.54 0-140.399-62.859-140.399-140.399 0-77.54 62.859-140.399 140.399-140.399h62.4c77.54 0 140.399 62.859 140.399 140.399 0 77.54-62.859 140.399-140.399 140.399z" fill="#d49c8d"/><path d="m278.494 134.24h-18.004c62.863 0 113.823 50.96 113.823 113.823v9.666c0 62.863-50.96 113.823-113.823 113.823h-70.972c-60.158 0-109.409-46.671-113.536-105.779-.183 2.932-.287 5.887-.287 8.865v.001c0 77.54 62.859 140.399 140.399 140.399h62.4c77.54 0 140.399-62.859 140.399-140.399v-.001c0-77.539-62.859-140.398-140.399-140.398z" fill="#c7758d"/><g fill="#b1586b"><path d="m179.205 332.693c0 8.656-7.017 15.674-15.674 15.674-8.656 0-15.673-7.017-15.673-15.674 0-8.656 7.017-15.673 15.673-15.673 8.657 0 15.674 7.017 15.674 15.673z"/><path d="m346.73 332.693c0 8.656-7.017 15.674-15.674 15.674-8.656 0-15.673-7.017-15.673-15.674 0-8.656 7.017-15.673 15.673-15.673 8.657 0 15.674 7.017 15.674 15.673z"/><path d="m176.224 292.555c-.956 0-1.926-.22-2.836-.685-.015-.007-4.531-2.219-9.857-2.219-5.273 0-9.812 2.196-9.856 2.219-3.074 1.571-6.839.348-8.408-2.726s-.349-6.839 2.726-8.408c.719-.367 7.262-3.585 15.538-3.585 8.277 0 14.82 3.218 15.539 3.585 3.075 1.57 4.295 5.334 2.726 8.408-1.105 2.165-3.298 3.411-5.572 3.411z"/><path d="m343.749 292.555c-.956 0-1.926-.22-2.836-.685-.015-.007-4.531-2.219-9.856-2.219-5.326 0-9.841 2.212-9.887 2.234-3.079 1.528-6.832.291-8.378-2.78s-.337-6.806 2.725-8.369c.719-.367 7.262-3.585 15.539-3.585 8.276 0 14.82 3.218 15.539 3.585 3.075 1.57 4.295 5.334 2.726 8.408-1.105 2.165-3.298 3.411-5.572 3.411z"/><path d="m247.294 354.617c-12.089 0-21.924-9.835-21.924-21.924 0-3.452 2.798-6.25 6.25-6.25 3.451 0 6.25 2.798 6.25 6.25 0 5.196 4.228 9.424 9.424 9.424s9.423-4.228 9.423-9.424c0-3.452 2.798-6.25 6.25-6.25s6.25 2.798 6.25 6.25c0 12.089-9.834 21.924-21.923 21.924z"/></g><path d="m165.055 222.359s102.185 37.327 131.938 32.897c44.871-6.681 44.898-33.926 59.493-33.926 17.704 0 34.837 72.472 33.948 95.195-.889 22.724 20.609 13.584 27.09 0s18.55-51.964 12.176-79.959 6.815-38.646 3.404-56.157c-3.269-16.78-33.21-26.698-40.892-35.588s-10.097-36.091-42.817-43.53c-9.833-2.236-57.195 16.881-97.812 9.289-51.637-9.652-107.42 4.396-135.593 23.019-20.682 13.671-22.916 27.738-27.115 43.896-2.28 8.774-21.992-1.183-30.018 28.023-7.263 26.428 10.514 30.815 10.708 37.148 1.547 50.671 1.147 94.719 15.733 97.051s17.113-82.254 36.614-97.366c25.29-19.598 43.143-19.992 43.143-19.992z" fill="#a183e2"/><path d="m290.675 25.527c-16.311 0-35.06 12.023-43.381 20.076-8.322-8.053-27.304-20.745-43.616-20.745-25.728 0-41.946 9.865-41.946 26.189s20.857 29.557 46.585 29.557c8.693 0 16.825-1.515 23.789-4.146v60.734c0 7.801 6.324 14.124 14.124 14.124h4.274c7.8 0 14.124-6.324 14.124-14.124v-59.974c6.468 2.158 13.828 3.385 21.643 3.385 25.728 0 46.585-13.233 46.585-29.557 0-16.323-16.453-25.519-42.181-25.519z" fill="#84eac4"/><path d="m173.669 165.828c-4.441 0-8.555-2.862-9.944-7.325-1.708-5.493 1.359-11.332 6.853-13.041 2.305-.717 4.681-1.351 7.06-1.883 5.617-1.256 11.184 2.276 12.441 7.89 1.256 5.614-2.276 11.184-7.89 12.441-1.83.41-3.654.896-5.422 1.446-1.031.32-2.073.472-3.098.472z" fill="#fff"/><path d="m131.62 200.125c-1.415 0-2.852-.289-4.228-.901-5.256-2.338-7.622-8.494-5.285-13.751 3.711-8.343 9.451-16.012 16.602-22.178 4.357-3.758 10.934-3.271 14.691 1.085s3.271 10.934-1.085 14.691c-4.838 4.173-8.702 9.314-11.171 14.868-1.727 3.881-5.535 6.186-9.524 6.186z" fill="#fff"/><path d="m346.204 174.148c-3.452 0-6.25-2.798-6.25-6.25v-10c0-3.452 2.798-6.25 6.25-6.25s6.25 2.798 6.25 6.25v10c0 3.452-2.799 6.25-6.25 6.25z" fill="#7744bf"/><path d="m381.81 200.956c-3.452 0-6.25-2.798-6.25-6.25v-9.999c0-3.452 2.798-6.25 6.25-6.25 3.451 0 6.25 2.798 6.25 6.25v9.999c0 3.452-2.798 6.25-6.25 6.25z" fill="#7744bf"/><path d="m314.537 208.705c-3.452 0-6.25-2.798-6.25-6.25v-9.999c0-3.452 2.798-6.25 6.25-6.25s6.25 2.798 6.25 6.25v9.999c0 3.452-2.798 6.25-6.25 6.25z" fill="#7744bf"/></g><g><path d="m53.513 22.698 8.848 24.879c.379 1.065 1.129 1.909 2.075 2.336l22.104 9.958c3.123 1.407 3.123 6.382 0 7.789l-22.104 9.959c-.946.426-1.696 1.271-2.075 2.336l-8.848 24.879c-1.25 3.515-5.67 3.515-6.921 0l-8.848-24.879c-.379-1.065-1.129-1.909-2.075-2.336l-22.104-9.959c-3.123-1.407-3.123-6.382 0-7.789l22.104-9.958c.946-.427 1.696-1.271 2.075-2.336l8.848-24.879c1.25-3.515 5.671-3.515 6.921 0z" fill="#bdf4e3"/><ellipse cx="492.68" cy="114.921" fill="#84eac4" rx="19.32" ry="19.32" transform="matrix(.189 -.982 .982 .189 286.664 576.979)"/><path d="m16.363 150.339c0 4.518-3.663 8.182-8.181 8.182-4.519 0-8.182-3.663-8.182-8.182s3.663-8.182 8.182-8.182c4.518.001 8.181 3.664 8.181 8.182z" fill="#84eac4"/><path d="m427.182 4.874 6.563 18.455c.281.79.837 1.416 1.539 1.733l16.396 7.387c2.316 1.044 2.316 4.734 0 5.778l-16.396 7.387c-.702.316-1.258.942-1.539 1.732l-6.563 18.454c-.927 2.607-4.206 2.607-5.134 0l-6.563-18.455c-.281-.79-.837-1.416-1.539-1.732l-16.396-7.387c-2.316-1.044-2.316-4.734 0-5.778l16.396-7.387c.702-.316 1.258-.942 1.539-1.733l6.563-18.455c.927-2.606 4.206-2.606 5.134.001z" fill="#bdf4e3"/></g></g></svg>