<svg width="512" height="512" viewBox="0 0 512 512" fill="none" xmlns="http://www.w3.org/2000/svg">
<g clip-path="url(#clip0)">
<path d="M247.653 7.67004C150.424 7.67004 59.6542 121.498 41.816 161.467C-33.9863 331.307 127.293 431.449 127.293 431.449L365.889 432.192C365.889 432.192 530.527 329.247 452.11 158.662C433.156 120.383 345.425 7.67004 247.653 7.67004V7.67004Z" fill="#EF8BBD"/>
<path d="M375.253 512V477.503C375.253 407.031 318.125 349.903 247.653 349.903C177.181 349.903 120.053 407.031 120.053 477.503V512H194.189L246.596 505.108L301.956 512H375.253Z" fill="#EF8BBD"/>
<path d="M296.91 511.924C290.183 498.469 270.989 452.728 254.646 417.612C252.374 412.732 245.483 412.631 243.068 417.44C228.083 447.266 213.766 483.146 200.344 511.999L296.91 511.924Z" fill="#B2E7F1"/>
<path d="M247.653 349.903C243.114 349.903 238.632 350.144 234.216 350.607C285.445 356.809 325.271 403.746 325.271 460.737V465.07C325.271 479.225 313.796 490.7 299.64 490.7H120.053V511.999H375.254V477.502C375.253 407.031 318.125 349.903 247.653 349.903Z" fill="#E068BD"/>
<path d="M287.216 490.7H209.933C206.69 498.071 203.491 505.233 200.344 511.999L296.912 511.923C294.774 507.65 291.377 500.113 287.216 490.7V490.7Z" fill="#A7ADF1"/>
<path d="M283.661 403.559H211.645C122.154 403.559 49.6074 331.012 49.6074 241.521C49.6074 152.031 122.154 109.206 211.645 109.206H283.661C373.152 109.206 445.699 152.031 445.699 241.521C445.699 331.012 373.152 403.559 283.661 403.559Z" fill="#D49C8D"/>
<path d="M171.263 229.014C282.35 175.145 390.041 217.226 430 245C420.177 222.555 377.054 165.844 283.149 118.563C165.769 59.462 32.4041 296.35 171.263 229.014Z" fill="#B2E7F1"/>
<path d="M394.088 132.729C380.376 124.635 365.251 116.503 349.474 112.171C376.911 136.248 394.248 171.555 394.248 210.926V222.083C394.248 294.633 335.433 353.448 262.883 353.448H180.973C111.543 353.448 54.7023 299.584 49.9378 231.366C49.7268 234.751 49.6074 238.16 49.6074 241.597V241.598C49.6074 331.089 122.154 403.636 211.645 403.636H283.661C373.152 403.636 445.699 331.089 445.699 241.598V241.597C445.699 205.616 433.954 172.391 414.11 145.507C407.583 140.988 400.878 136.738 394.088 132.729V132.729Z" fill="#C7758D"/>
<path d="M436.352 293.889C444.956 284.733 448.398 272.524 451.224 254.554V238.125C451.224 147.14 373.383 94.4176 277.36 94.4176H220.272C124.25 94.4176 46.4087 147.14 46.4087 238.125V254.554C48.0452 268.861 53.7813 290.226 57.7965 291.447C147.45 268.833 192.457 227.894 253.5 157.5C270.73 220.709 388.106 252.977 436.352 293.889Z" fill="#EF8BBD"/>
<path d="M155.81 170.433C151.592 170.433 147.636 167.821 146.125 163.623C144.2 158.275 146.975 152.379 152.323 150.453C154.291 149.745 156.307 149.061 158.313 148.423C163.73 146.699 169.518 149.693 171.241 155.111C172.964 160.528 169.97 166.317 164.554 168.04C162.792 168.601 161.023 169.2 159.296 169.823C158.144 170.235 156.967 170.433 155.81 170.433Z" fill="white"/>
<path d="M98.0036 218.059C96.5709 218.059 95.1155 217.759 93.7281 217.125C88.5581 214.758 86.2854 208.652 88.6507 203.482C95.0723 189.448 105.984 176.754 120.207 166.771C124.862 163.506 131.28 164.631 134.545 169.282C137.81 173.935 136.687 180.355 132.033 183.621C120.8 191.504 112.271 201.335 107.37 212.047C105.639 215.828 101.907 218.059 98.0036 218.059V218.059Z" fill="white"/>
<path d="M168.542 312.701C170.84 302.98 164.822 293.237 155.102 290.94C145.381 288.642 135.638 294.659 133.34 304.38C131.042 314.101 137.06 323.844 146.781 326.142C156.501 328.439 166.244 322.422 168.542 312.701Z" fill="#B3586B"/>
<path d="M351.393 325.069C360.624 321.243 365.005 310.658 361.179 301.427C357.353 292.195 346.768 287.814 337.536 291.64C328.305 295.467 323.924 306.052 327.75 315.283C331.576 324.514 342.162 328.896 351.393 325.069Z" fill="#B3586B"/>
<path d="M358.975 261.064C358.03 261.064 357.071 260.847 356.172 260.388C356.143 260.373 350.735 257.714 344.324 257.714C337.914 257.714 332.507 260.373 332.453 260.4C329.414 261.917 325.702 260.698 324.17 257.662C322.639 254.628 323.835 250.933 326.862 249.387C327.669 248.975 335.015 245.363 344.324 245.363C353.634 245.363 360.98 248.975 361.787 249.387C364.824 250.937 366.03 254.657 364.479 257.694C363.388 259.833 361.221 261.064 358.975 261.064V261.064Z" fill="#B3586B"/>
<path d="M247.653 332.691C234.273 332.691 223.388 321.806 223.388 308.427C223.388 305.016 226.153 302.251 229.563 302.251C232.974 302.251 235.739 305.016 235.739 308.427C235.739 314.995 241.083 320.339 247.653 320.339C254.222 320.339 259.566 314.995 259.566 308.427C259.566 305.016 262.332 302.251 265.742 302.251C269.153 302.251 271.918 305.016 271.918 308.427C271.918 321.806 261.033 332.691 247.653 332.691Z" fill="#B3586B"/>
<path d="M474.593 21.4046L483.048 45.1786C483.41 46.1965 484.126 47.0035 485.031 47.41L506.153 56.9266C509.137 58.2709 509.137 63.025 506.153 64.3703L485.031 73.8869C484.126 74.2945 483.41 75.1014 483.048 76.1183L474.593 99.8923C473.399 103.251 469.174 103.251 467.98 99.8923L459.526 76.1183C459.164 75.1004 458.447 74.2934 457.543 73.8869L436.421 64.3703C433.437 63.0261 433.437 58.2719 436.421 56.9266L457.543 47.41C458.447 47.0025 459.164 46.1955 459.526 45.1786L467.98 21.4046C469.174 18.0461 473.398 18.0461 474.593 21.4046Z" fill="#F7C4DB"/>
<path d="M33.585 11.2292L39.8563 28.8637C40.1249 29.6191 40.656 30.2171 41.3271 30.5197L56.9946 37.5784C59.2086 38.5758 59.2086 42.1021 56.9946 43.0994L41.3271 50.1581C40.656 50.4607 40.1249 51.0587 39.8563 51.8142L33.585 69.4497C32.6988 71.9405 29.5657 71.9405 28.6795 69.4497L22.4082 51.8152C22.1396 51.0598 21.6085 50.4618 20.9374 50.1592L5.26886 43.0994C3.05491 42.1021 3.05491 38.5758 5.26886 37.5784L20.9363 30.5197C21.6074 30.2171 22.1385 29.6191 22.4072 28.8637L28.6785 11.2292C29.5657 8.73739 32.6988 8.73739 33.585 11.2292V11.2292Z" fill="#F7C4DB"/>
<path d="M57.7166 460.779C60.0618 450.858 53.9204 440.915 43.9994 438.57C34.0785 436.224 24.1348 442.366 21.7897 452.287C19.4446 462.208 25.586 472.151 35.5069 474.496C45.4279 476.842 55.3715 470.7 57.7166 460.779Z" fill="#EF8BBD"/>
<path d="M381.143 15.9269C385.541 15.9269 389.107 12.3615 389.107 7.96343C389.107 3.56535 385.541 0 381.143 0C376.745 0 373.18 3.56535 373.18 7.96343C373.18 12.3615 376.745 15.9269 381.143 15.9269Z" fill="#EF8BBD"/>
<path d="M306.062 455.06C302.652 455.06 299.887 452.295 299.887 448.884V437.222C299.887 433.812 302.652 431.046 306.062 431.046C309.473 431.046 312.238 433.812 312.238 437.222V448.884C312.238 452.295 309.472 455.06 306.062 455.06Z" fill="#B74A96"/>
<path d="M340.44 472.409C337.03 472.409 334.265 469.644 334.265 466.234V454.572C334.265 451.161 337.03 448.396 340.44 448.396C343.85 448.396 346.616 451.161 346.616 454.572V466.234C346.616 469.644 343.85 472.409 340.44 472.409Z" fill="#B74A96"/>
<path d="M174.394 465.314C170.984 465.314 168.218 462.549 168.218 459.138V447.476C168.218 444.065 170.984 441.301 174.394 441.301C177.804 441.301 180.569 444.065 180.569 447.476V459.138C180.569 462.548 177.805 465.314 174.394 465.314Z" fill="#B74A96"/>
<path d="M409 256H446V340L392 373.5L409 256Z" fill="#EF8BBD"/>
<path d="M95 256H58V340L112 373.5L95 256Z" fill="#EF8BBD"/>
</g>
<defs>
<clipPath id="clip0">
<rect width="512" height="512" fill="white"/>
</clipPath>
</defs>
</svg>
