<svg width="344" height="126" viewBox="0 0 344 126" fill="none" xmlns="http://www.w3.org/2000/svg">
<g clip-path="url(#clip0)">
<path d="M329.493 61.8142H317.893C316.29 61.8142 314.993 60.5171 314.993 58.9142V47.3143C314.993 45.7114 316.29 44.4143 317.893 44.4143H329.493C331.096 44.4143 332.393 45.7114 332.393 47.3143V58.9142C332.393 60.5171 331.096 61.8142 329.493 61.8142Z" fill="#292929"/>
<path d="M341.093 50.2143H306.293C304.69 50.2143 303.393 48.9173 303.393 47.3143V29.9147C303.393 28.3117 304.69 27.0147 306.293 27.0147H341.093C342.695 27.0147 343.993 28.3117 343.993 29.9147V47.3145C343.993 48.9173 342.695 50.2143 341.093 50.2143Z" fill="#A45775"/>
<path d="M338.193 32.8155H309.193V44.4153H338.193V32.8155Z" fill="#78EAC4"/>
<path d="M343.993 58.9141V97.0003L338.424 102.8H251.039L245.007 97.0003V58.9141C245.007 57.2899 246.283 56.0141 247.907 56.0141H341.093C342.717 56.0143 343.993 57.2901 343.993 58.9141Z" fill="#E068BD"/>
<path d="M343.993 58.9142V97.0003L338.424 102.8H294.5V56.0143H341.093C342.717 56.0143 343.993 57.2901 343.993 58.9142Z" fill="#A45775"/>
<path d="M329.493 90.8138H306.293C304.69 90.8138 303.393 89.5168 303.393 87.9138V70.514C303.393 68.911 304.69 67.614 306.293 67.614H329.493C331.096 67.614 332.393 68.911 332.393 70.514V87.9138C332.393 89.5168 331.096 90.8138 329.493 90.8138Z" fill="#78EAC4"/>
<path d="M271.3 79.214H265.5C263.897 79.214 262.6 77.9169 262.6 76.314C262.6 74.711 263.897 73.414 265.5 73.414H271.3C272.903 73.414 274.2 74.711 274.2 76.314C274.2 77.9169 272.903 79.214 271.3 79.214Z" fill="#C5D3DD"/>
<path d="M288.7 79.214H282.9C281.297 79.214 280 77.9169 280 76.314C280 74.711 281.297 73.414 282.9 73.414H288.7C290.303 73.414 291.6 74.711 291.6 76.314C291.6 77.9169 290.303 79.214 288.7 79.214Z" fill="#C5D3DD"/>
<path d="M274.2 87.9138C274.2 89.5168 272.903 90.8138 271.3 90.8138H265.5C263.897 90.8138 262.6 89.5168 262.6 87.9138C262.6 86.3109 263.897 85.0138 265.5 85.0138H271.3C272.903 85.0138 274.2 86.3109 274.2 87.9138Z" fill="#C5D3DD"/>
<path d="M288.7 90.8138H282.9C281.297 90.8138 280 89.5168 280 87.9138C280 86.3109 281.297 85.0138 282.9 85.0138H288.7C290.303 85.0138 291.6 86.3109 291.6 87.9138C291.6 89.5168 290.303 90.8138 288.7 90.8138Z" fill="#C5D3DD"/>
<path d="M294.5 27.0147C293.92 27.0147 293.398 27.1305 292.876 27.4786L285.8 32.2344L278.724 27.4786C277.738 26.8405 276.462 26.8405 275.476 27.4786L268.4 32.2344L261.325 27.4786C259.468 26.2608 256.8 27.6528 256.8 29.9147V64.7142C256.8 66.338 258.076 67.6142 259.7 67.6142H294.5C296.124 67.6142 297.4 66.338 297.4 64.7142V29.9147C297.4 28.1747 296.008 27.0727 294.5 27.0147Z" fill="#FED2A4"/>
<path d="M294.5 67.6142V27.0147C296.008 27.0727 297.4 28.1747 297.4 29.9147V64.7142C297.4 66.338 296.124 67.6142 294.5 67.6142Z" fill="#FFBD86"/>
<path d="M245.007 97.0003V123.1C245.007 124.724 246.283 126 247.907 126H341.093C342.717 126 343.993 124.724 343.993 123.1V97.0003H245.007Z" fill="#D9E7EC"/>
<path d="M343.993 97.0003V123.1C343.993 124.724 342.717 126 341.093 126H294.5V97.0003H343.993Z" fill="#C5D3DD"/>
<path d="M326.593 111.5C326.593 113.124 325.317 114.4 323.693 114.4H265.5C263.876 114.4 262.6 113.124 262.6 111.5C262.6 109.876 263.876 108.6 265.5 108.6H323.693C325.317 108.6 326.593 109.876 326.593 111.5Z" fill="#5A5A5A"/>
<path d="M326.593 111.5C326.593 113.124 325.317 114.4 323.693 114.4H294.5V108.6H323.693C325.317 108.6 326.593 109.876 326.593 111.5Z" fill="#444444"/>
</g>
<g clip-path="url(#clip1)">
<path d="M106.493 61.8142H94.8932C93.2902 61.8142 91.9932 60.5171 91.9932 58.9142V47.3143C91.9932 45.7114 93.2902 44.4143 94.8932 44.4143H106.493C108.096 44.4143 109.393 45.7114 109.393 47.3143V58.9142C109.393 60.5171 108.096 61.8142 106.493 61.8142Z" fill="#292929"/>
<path d="M118.093 50.2143H83.2931C81.6901 50.2143 80.3931 48.9173 80.3931 47.3143V29.9147C80.3931 28.3117 81.6901 27.0147 83.2931 27.0147H118.093C119.695 27.0147 120.993 28.3117 120.993 29.9147V47.3145C120.993 48.9173 119.695 50.2143 118.093 50.2143Z" fill="#A45775"/>
<path d="M115.193 32.8155H86.1934V44.4153H115.193V32.8155Z" fill="#78EAC4"/>
<path d="M120.993 58.9141V97.0003L115.424 102.8H28.039L22.0073 97.0003V58.9141C22.0073 57.2899 23.2831 56.0141 24.9073 56.0141H118.093C119.717 56.0143 120.993 57.2901 120.993 58.9141Z" fill="#E068BD"/>
<path d="M120.993 58.9142V97.0003L115.424 102.8H71.5V56.0143H118.093C119.717 56.0143 120.993 57.2901 120.993 58.9142Z" fill="#A45775"/>
<path d="M106.493 90.8138H83.2931C81.6901 90.8138 80.3931 89.5168 80.3931 87.9138V70.514C80.3931 68.911 81.6901 67.614 83.2931 67.614H106.493C108.096 67.614 109.393 68.911 109.393 70.514V87.9138C109.393 89.5168 108.096 90.8138 106.493 90.8138Z" fill="#78EAC4"/>
<path d="M48.3001 79.214H42.5001C40.8972 79.214 39.6001 77.9169 39.6001 76.314C39.6001 74.711 40.8972 73.414 42.5001 73.414H48.3001C49.9031 73.414 51.2001 74.711 51.2001 76.314C51.2001 77.9169 49.9031 79.214 48.3001 79.214Z" fill="#C5D3DD"/>
<path d="M65.7 79.214H59.9C58.2971 79.214 57 77.9169 57 76.314C57 74.711 58.2971 73.414 59.9 73.414H65.7C67.303 73.414 68.6 74.711 68.6 76.314C68.6 77.9169 67.303 79.214 65.7 79.214Z" fill="#C5D3DD"/>
<path d="M51.2001 87.9138C51.2001 89.5168 49.9031 90.8138 48.3001 90.8138H42.5001C40.8972 90.8138 39.6001 89.5168 39.6001 87.9138C39.6001 86.3109 40.8972 85.0138 42.5001 85.0138H48.3001C49.9031 85.0138 51.2001 86.3109 51.2001 87.9138Z" fill="#C5D3DD"/>
<path d="M65.7 90.8138H59.9C58.2971 90.8138 57 89.5168 57 87.9138C57 86.3109 58.2971 85.0138 59.9 85.0138H65.7C67.303 85.0138 68.6 86.3109 68.6 87.9138C68.6 89.5168 67.303 90.8138 65.7 90.8138Z" fill="#C5D3DD"/>
<path d="M71.5 27.0147C70.9201 27.0147 70.398 27.1305 69.8757 27.4786L62.8 32.2344L55.7243 27.4786C54.7382 26.8405 53.4624 26.8405 52.4761 27.4786L45.4003 32.2344L38.3245 27.4786C36.4685 26.2608 33.8003 27.6528 33.8003 29.9147V64.7142C33.8003 66.338 35.0761 67.6142 36.7003 67.6142H71.5C73.1242 67.6142 74.4 66.338 74.4 64.7142V29.9147C74.4 28.1747 73.008 27.0727 71.5 27.0147Z" fill="#FED2A4"/>
<path d="M71.5 67.6142V27.0147C73.008 27.0727 74.4 28.1747 74.4 29.9147V64.7142C74.4 66.338 73.1242 67.6142 71.5 67.6142Z" fill="#FFBD86"/>
<path d="M22.0073 97.0003V123.1C22.0073 124.724 23.2831 126 24.9073 126H118.093C119.717 126 120.993 124.724 120.993 123.1V97.0003H22.0073Z" fill="#D9E7EC"/>
<path d="M120.993 97.0003V123.1C120.993 124.724 119.717 126 118.093 126H71.5V97.0003H120.993Z" fill="#C5D3DD"/>
<path d="M103.593 111.5C103.593 113.124 102.317 114.4 100.693 114.4H42.5001C40.8759 114.4 39.6001 113.124 39.6001 111.5C39.6001 109.876 40.8759 108.6 42.5001 108.6H100.693C102.317 108.6 103.593 109.876 103.593 111.5Z" fill="#5A5A5A"/>
<path d="M103.593 111.5C103.593 113.124 102.317 114.4 100.693 114.4H71.5V108.6H100.693C102.317 108.6 103.593 109.876 103.593 111.5Z" fill="#444444"/>
</g>
<path d="M217.493 60.8142H205.893C204.29 60.8142 202.993 59.5171 202.993 57.9142V46.3143C202.993 44.7114 204.29 43.4143 205.893 43.4143H217.493C219.096 43.4143 220.393 44.7114 220.393 46.3143V57.9142C220.393 59.5171 219.096 60.8142 217.493 60.8142Z" fill="#292929"/>
<path d="M229.093 49.2143H194.293C192.69 49.2143 191.393 47.9173 191.393 46.3143V28.9147C191.393 27.3117 192.69 26.0147 194.293 26.0147H229.093C230.695 26.0147 231.993 27.3117 231.993 28.9147V46.3145C231.993 47.9173 230.695 49.2143 229.093 49.2143Z" fill="#A45775"/>
<path d="M226.193 31.8155H197.193V43.4153H226.193V31.8155Z" fill="#78EAC4"/>
<path d="M231.993 57.9141V96.0003L226.424 101.8H139.039L133.007 96.0003V57.9141C133.007 56.2899 134.283 55.0141 135.907 55.0141H229.093C230.717 55.0143 231.993 56.2901 231.993 57.9141Z" fill="#E068BD"/>
<path d="M231.993 57.9142V96.0003L226.424 101.8H182.5V55.0143H229.093C230.717 55.0143 231.993 56.2901 231.993 57.9142Z" fill="#A45775"/>
<path d="M217.493 89.8138H194.293C192.69 89.8138 191.393 88.5168 191.393 86.9138V69.514C191.393 67.911 192.69 66.614 194.293 66.614H217.493C219.096 66.614 220.393 67.911 220.393 69.514V86.9138C220.393 88.5168 219.096 89.8138 217.493 89.8138Z" fill="#78EAC4"/>
<path d="M159.3 78.214H153.5C151.897 78.214 150.6 76.9169 150.6 75.314C150.6 73.711 151.897 72.414 153.5 72.414H159.3C160.903 72.414 162.2 73.711 162.2 75.314C162.2 76.9169 160.903 78.214 159.3 78.214Z" fill="#C5D3DD"/>
<path d="M176.7 78.214H170.9C169.297 78.214 168 76.9169 168 75.314C168 73.711 169.297 72.414 170.9 72.414H176.7C178.303 72.414 179.6 73.711 179.6 75.314C179.6 76.9169 178.303 78.214 176.7 78.214Z" fill="#C5D3DD"/>
<path d="M162.2 86.9138C162.2 88.5168 160.903 89.8138 159.3 89.8138H153.5C151.897 89.8138 150.6 88.5168 150.6 86.9138C150.6 85.3109 151.897 84.0138 153.5 84.0138H159.3C160.903 84.0138 162.2 85.3109 162.2 86.9138Z" fill="#C5D3DD"/>
<path d="M176.7 89.8138H170.9C169.297 89.8138 168 88.5168 168 86.9138C168 85.3109 169.297 84.0138 170.9 84.0138H176.7C178.303 84.0138 179.6 85.3109 179.6 86.9138C179.6 88.5168 178.303 89.8138 176.7 89.8138Z" fill="#C5D3DD"/>
<path d="M133.007 96.0003V122.1C133.007 123.724 134.283 125 135.907 125H229.093C230.717 125 231.993 123.724 231.993 122.1V96.0003H133.007Z" fill="#D9E7EC"/>
<path d="M231.993 96.0003V122.1C231.993 123.724 230.717 125 229.093 125H182.5V96.0003H231.993Z" fill="#C5D3DD"/>
<path d="M214.593 110.5C214.593 112.124 213.317 113.4 211.693 113.4H153.5C151.876 113.4 150.6 112.124 150.6 110.5C150.6 108.876 151.876 107.6 153.5 107.6H211.693C213.317 107.6 214.593 108.876 214.593 110.5Z" fill="#5A5A5A"/>
<path d="M214.593 110.5C214.593 112.124 213.317 113.4 211.693 113.4H182.5V107.6H211.693C213.317 107.6 214.593 108.876 214.593 110.5Z" fill="#444444"/>
<path d="M30.8911 0.693681L33.1699 7.24012C33.2673 7.52031 33.4606 7.74256 33.7042 7.85464L39.3968 10.4751C40.2011 10.8454 40.2011 12.1546 39.3968 12.5249L33.7042 15.1454C33.4606 15.2574 33.2673 15.4797 33.1699 15.7599L30.8911 22.3063C30.5692 23.2312 29.4308 23.2312 29.1089 22.3063L26.8301 15.7599C26.7327 15.4797 26.5394 15.2574 26.2958 15.1454L20.6032 12.5249C19.7989 12.1546 19.7989 10.8454 20.6032 10.4751L26.2958 7.85464C26.5396 7.74256 26.7327 7.52031 26.8301 7.24012L29.1089 0.693681C29.4308 -0.231227 30.5692 -0.231227 30.8911 0.693681Z" fill="#EFAA66"/>
<path d="M9.25745 24.573L11.1944 29.981C11.2772 30.2124 11.4415 30.396 11.6486 30.4886L16.4872 32.6534C17.1709 32.9592 17.1709 34.0408 16.4872 34.3466L11.6486 36.5114C11.4415 36.604 11.2772 36.7876 11.1944 37.019L9.25745 42.427C8.98384 43.191 8.01616 43.191 7.74255 42.427L5.8056 37.019C5.72277 36.7876 5.55847 36.604 5.3514 36.5114L0.512753 34.3466C-0.170918 34.0408 -0.170918 32.9592 0.512753 32.6534L5.3514 30.4886C5.5587 30.396 5.72277 30.2124 5.8056 29.981L7.74255 24.573C8.01616 23.809 8.98384 23.809 9.25745 24.573Z" fill="#FFE266"/>
<path d="M9.25745 24.573L11.1944 29.981C11.2772 30.2124 11.4415 30.396 11.6486 30.4886L16.4872 32.6534C17.1709 32.9592 17.1709 34.0408 16.4872 34.3466L11.6486 36.5114C11.4415 36.604 11.2772 36.7876 11.1944 37.019L9.25745 42.427C8.98384 43.191 8.01616 43.191 7.74255 42.427L5.8056 37.019C5.72277 36.7876 5.55847 36.604 5.3514 36.5114L0.512753 34.3466C-0.170918 34.0408 -0.170918 32.9592 0.512753 32.6534L5.3514 30.4886C5.5587 30.396 5.72277 30.2124 5.8056 29.981L7.74255 24.573C8.01616 23.809 8.98384 23.809 9.25745 24.573Z" fill="#FFE266"/>
<path d="M9.25745 24.573L11.1944 29.981C11.2772 30.2124 11.4415 30.396 11.6486 30.4886L16.4872 32.6534C17.1709 32.9592 17.1709 34.0408 16.4872 34.3466L11.6486 36.5114C11.4415 36.604 11.2772 36.7876 11.1944 37.019L9.25745 42.427C8.98384 43.191 8.01616 43.191 7.74255 42.427L5.8056 37.019C5.72277 36.7876 5.55847 36.604 5.3514 36.5114L0.512753 34.3466C-0.170918 34.0408 -0.170918 32.9592 0.512753 32.6534L5.3514 30.4886C5.5587 30.396 5.72277 30.2124 5.8056 29.981L7.74255 24.573C8.01616 23.809 8.98384 23.809 9.25745 24.573Z" fill="#FFE266"/>
<path d="M9.25745 24.573L11.1944 29.981C11.2772 30.2124 11.4415 30.396 11.6486 30.4886L16.4872 32.6534C17.1709 32.9592 17.1709 34.0408 16.4872 34.3466L11.6486 36.5114C11.4415 36.604 11.2772 36.7876 11.1944 37.019L9.25745 42.427C8.98384 43.191 8.01616 43.191 7.74255 42.427L5.8056 37.019C5.72277 36.7876 5.55847 36.604 5.3514 36.5114L0.512753 34.3466C-0.170918 34.0408 -0.170918 32.9592 0.512753 32.6534L5.3514 30.4886C5.5587 30.396 5.72277 30.2124 5.8056 29.981L7.74255 24.573C8.01616 23.809 8.98384 23.809 9.25745 24.573Z" fill="#FFE266"/>
<path d="M9.25745 24.573L11.1944 29.981C11.2772 30.2124 11.4415 30.396 11.6486 30.4886L16.4872 32.6534C17.1709 32.9592 17.1709 34.0408 16.4872 34.3466L11.6486 36.5114C11.4415 36.604 11.2772 36.7876 11.1944 37.019L9.25745 42.427C8.98384 43.191 8.01616 43.191 7.74255 42.427L5.8056 37.019C5.72277 36.7876 5.55847 36.604 5.3514 36.5114L0.512753 34.3466C-0.170918 34.0408 -0.170918 32.9592 0.512753 32.6534L5.3514 30.4886C5.5587 30.396 5.72277 30.2124 5.8056 29.981L7.74255 24.573C8.01616 23.809 8.98384 23.809 9.25745 24.573Z" fill="#FFE266"/>
<defs>
<clipPath id="clip0">
<rect width="99" height="99" fill="white" transform="translate(245 27)"/>
</clipPath>
<clipPath id="clip1">
<rect width="99" height="99" fill="white" transform="translate(22 27)"/>
</clipPath>
</defs>
</svg>
