<svg width="196" height="196" viewBox="0 0 196 196" fill="none" xmlns="http://www.w3.org/2000/svg">
<g clip-path="url(#clip0)">
<path d="M166.562 193.588H28.5962C25.2274 193.588 22.4712 190.832 22.4712 187.463V49.5359C22.4712 46.1672 25.2274 43.4109 28.5962 43.4109H166.524C169.892 43.4109 172.649 46.1672 172.649 49.5359V187.463C172.649 190.832 169.931 193.588 166.562 193.588Z" fill="#B07676"/>
<path d="M73.7681 163.882V43.4109H28.5962C25.2274 43.4109 22.4712 46.1672 22.4712 49.5359V187.463C22.4712 190.832 25.2274 193.588 28.5962 193.588H166.524C169.892 193.588 172.649 190.832 172.649 187.463V163.882H73.7681Z" fill="#D49C8D"/>
<path d="M55.7376 43.4109C60.4462 43.4109 64.3126 47.2391 64.3126 51.9859V139.076C64.3126 143.784 60.4845 147.651 55.7376 147.651H31.0462C26.3376 147.651 22.4712 143.823 22.4712 139.076V163.805H73.7298V43.4109H55.7376Z" fill="#C7758D"/>
<path d="M73.7681 60.982H172.687V72.3133H73.7681V60.982Z" fill="#CAB4EF"/>
<path d="M59.6425 123.61C57.0776 123.61 54.9722 121.543 54.9722 118.94V109.791C54.9722 107.226 57.0394 105.12 59.6425 105.12C62.2073 105.12 64.3128 107.188 64.3128 109.791V118.94C64.2745 121.543 62.2073 123.61 59.6425 123.61Z" fill="#FFDCB6"/>
<path d="M172.649 163.882V49.5359C172.649 46.1672 169.892 43.4109 166.524 43.4109H130.616C132.683 43.4109 134.367 45.4016 134.367 47.8133V120.05C134.367 126.252 129.161 131.305 122.73 131.305H73.73V163.882H172.649Z" fill="#A45775"/>
<path d="M119.438 80.0461C119.438 80.0461 138.042 68.7914 138.999 68.0258C141.296 66.1883 141.679 62.8195 139.842 60.4844C138.004 58.1875 134.635 57.8047 132.3 59.6422C130.654 60.982 128.242 60.6758 126.903 59.0297C125.563 57.3836 125.869 54.9719 127.515 53.632C133.142 49.1531 141.335 50.0719 145.813 55.6992C150.292 61.3266 149.374 69.5188 143.746 73.9977C143.708 74.0359 143.67 74.0742 143.593 74.1125L151.747 80.0461C153.47 81.3094 153.853 83.6828 152.589 85.4055C151.824 86.4391 150.675 86.975 149.488 86.975C148.723 86.975 147.919 86.7453 147.23 86.2477L137.009 78.0555L123.84 86.2477C122.117 87.5109 119.744 87.1281 118.481 85.4055C117.332 83.6828 117.715 81.3094 119.438 80.0461Z" fill="#FFE266"/>
<path d="M104.278 80.0461C104.278 80.0461 122.883 68.7914 123.84 68.0258C126.137 66.1883 126.519 62.8195 124.682 60.4844C122.844 58.1875 119.476 57.8047 117.141 59.6422C115.494 60.982 113.083 60.6758 111.743 59.0297C110.403 57.3836 110.709 54.9719 112.355 53.632C117.983 49.1531 126.175 50.0719 130.654 55.6992C135.133 61.3266 134.214 69.5188 128.587 73.9977C128.548 74.0359 128.51 74.0742 128.434 74.1125L136.587 80.0461C138.31 81.3094 138.693 83.6828 137.43 85.4055C136.664 86.4391 135.516 86.975 134.329 86.975C133.563 86.975 132.759 86.7453 132.07 86.2477L121.849 78.0555L108.68 86.2477C106.958 87.5109 104.584 87.1281 103.321 85.4055C102.173 83.6828 102.555 81.3094 104.278 80.0461Z" fill="#FFE266"/>
<path d="M88.2002 89.0805L103.015 78.7062C105.924 77.1367 109.064 75.6437 112.394 75.6437H113.696C113.504 76.3711 113.389 77.1367 113.389 77.9406C113.389 82.6875 117.217 86.5156 121.964 86.5156C126.711 86.5156 130.539 82.6875 130.539 77.9406C130.539 77.1367 130.424 76.3328 130.233 75.6055H131.611C134.903 75.6055 138.54 77.0219 141.488 78.7445L155.614 88.9273C156.571 89.8078 156.647 91.3008 155.767 92.2578L147.689 101.905C146.809 102.862 145.316 102.938 144.359 102.058L142.1 99.9906V131.266H101.867V100.22L99.876 102.096C98.919 102.977 97.426 102.938 96.5455 101.981L88.1237 92.3726C87.2049 91.4539 87.2815 89.9609 88.2002 89.0805Z" fill="#EF8BBD"/>
<path d="M134.406 60.982H172.687V72.3133H134.406V60.982Z" fill="#BE87EF"/>
<path d="M139 68.0258C138.732 68.2555 136.856 69.4039 134.406 70.9352V79.7781L137.124 78.0937L147.345 86.2859C148.034 86.7836 148.8 87.0133 149.603 87.0133C150.79 87.0133 151.977 86.4773 152.704 85.4437C153.967 83.7211 153.585 81.3477 151.862 80.0844L143.708 74.1508C143.746 74.1125 143.785 74.0742 143.861 74.0359C149.489 69.557 150.407 61.3266 145.928 55.7375C143.096 52.1773 138.732 50.493 134.482 50.9141V58.6852C136.435 58.2258 138.578 58.8766 139.918 60.5609C141.679 62.7812 141.296 66.1883 139 68.0258Z" fill="#EFAA66"/>
<path d="M170.811 88.9656L156.685 78.7828C153.776 77.0601 150.101 75.6437 146.809 75.6437H145.431C145.622 76.3711 145.737 77.175 145.737 77.9789C145.737 82.7258 141.909 86.5539 137.162 86.5539C136.55 86.5539 135.937 86.4773 135.363 86.3625V131.305H157.298V100.029L159.557 102.096C160.514 102.977 162.007 102.9 162.887 101.943L170.964 92.2961C171.807 91.3008 171.768 89.8461 170.811 88.9656Z" fill="#71AFC4"/>
<path d="M142.1 99.9906L144.359 102.058C145.316 102.938 146.809 102.862 147.689 101.905L155.766 92.2578C156.647 91.3008 156.57 89.8078 155.613 88.9273L141.488 78.7445C139.344 77.5195 136.855 76.4094 134.367 75.9117V120.012C134.367 126.213 129.161 131.266 122.73 131.266H101.828H142.1V99.9906Z" fill="#E068BD"/>
<path d="M84.9462 80.0461C84.9462 80.0461 103.551 68.7914 104.508 68.0258C106.805 66.1883 107.188 62.8195 105.35 60.4844C103.513 58.1875 100.144 57.8047 97.8087 59.6422C96.1626 60.982 93.7509 60.6758 92.4111 59.0297C91.0712 57.3836 91.3775 54.9719 93.0236 53.632C98.6509 49.1531 106.843 50.0719 111.322 55.6992C115.801 61.3266 114.882 69.5188 109.255 73.9977C109.217 74.0359 109.178 74.0742 109.102 74.1125L117.256 80.0461C118.978 81.3094 119.361 83.6828 118.098 85.4055C117.332 86.4391 116.184 86.975 114.997 86.975C114.231 86.975 113.427 86.7453 112.738 86.2477L102.517 78.0555L89.3486 86.2477C87.6259 87.5109 85.2525 87.1281 83.9892 85.4055C82.879 83.6828 83.2619 81.3094 84.9462 80.0461Z" fill="#FFE266"/>
<path d="M68.9064 89.0805L83.7212 78.7062C86.6306 77.1367 89.7696 75.6437 93.1001 75.6437H94.4017C94.2103 76.3711 94.0954 77.1367 94.0954 77.9406C94.0954 82.6875 97.9236 86.5156 102.67 86.5156C107.417 86.5156 111.245 82.6875 111.245 77.9406C111.245 77.1367 111.131 76.3328 110.939 75.6055H112.317C115.609 75.6055 119.246 77.0219 122.194 78.7445L136.32 88.9273C137.277 89.8078 137.353 91.3008 136.473 92.2578L128.395 101.905C127.515 102.862 126.022 102.938 125.065 102.058L122.806 99.9906V131.266H82.5345V100.22L80.5439 102.096C79.5868 102.977 78.0939 102.938 77.2134 101.981L68.7915 92.3726C67.9111 91.4539 67.9493 89.9609 68.9064 89.0805Z" fill="#8BB6EF"/>
<path d="M68.8682 177.778C68.8682 180.343 66.8011 182.448 64.1979 182.448H55.0487C52.4839 182.448 50.3784 180.381 50.3784 177.778C50.3784 175.213 52.4456 173.108 55.0487 173.108H64.1979C66.7628 173.146 68.8682 175.213 68.8682 177.778Z" fill="#FFDCB6"/>
<path d="M144.857 177.778C144.857 180.343 142.789 182.448 140.186 182.448H131.037C128.472 182.448 126.367 180.381 126.367 177.778C126.367 175.213 128.434 173.108 131.037 173.108H140.186C142.751 173.146 144.857 175.213 144.857 177.778Z" fill="#FFDCB6"/>
<path d="M136.97 163.882V178.62C136.97 180.726 134.865 182.448 132.3 182.448H27.1415C24.5767 182.448 22.4712 180.726 22.4712 178.62V187.463C22.4712 190.832 25.2274 193.588 28.5962 193.588H166.524C169.892 193.588 172.649 190.832 172.649 187.463V163.882H136.97Z" fill="#C7758D"/>
<path d="M140.186 173.146H136.971V178.62C136.971 180.726 134.865 182.448 132.3 182.448H140.186C142.751 182.448 144.857 180.381 144.857 177.778C144.857 175.213 142.751 173.146 140.186 173.146Z" fill="#EEB6A8"/>
<path d="M157.336 163.882H127.974C125.027 163.882 122.653 161.509 122.653 158.561C122.653 155.613 125.027 153.24 127.974 153.24H157.336C160.284 153.24 162.657 155.613 162.657 158.561C162.657 161.509 160.246 163.882 157.336 163.882Z" fill="#A183E2"/>
<path d="M157.336 153.24H127.974C125.027 153.24 122.653 150.866 122.653 147.919C122.653 144.971 125.027 142.598 127.974 142.598H157.336C160.284 142.598 162.657 144.971 162.657 147.919C162.657 150.828 160.246 153.24 157.336 153.24Z" fill="#FEF2A8"/>
<path d="M157.336 153.24C158.408 153.24 159.403 152.934 160.207 152.398H146.464C145.928 152.972 145.316 153.316 144.665 153.316C146.541 153.316 148.149 153.891 148.149 155.92C148.149 157.948 146.809 158.561 144.933 158.561H126.29C124.797 158.561 123.534 158.063 123.113 156.341C122.692 157.259 122.653 158.102 122.653 158.561C122.653 161.509 125.027 163.882 127.974 163.882H157.336C160.284 163.882 162.657 161.509 162.657 158.561C162.657 155.613 160.246 153.24 157.336 153.24Z" fill="#9762E2"/>
<path d="M148.187 147.919C148.187 150.101 146.809 152.78 145.163 153.24H157.336C160.284 153.24 162.657 150.866 162.657 147.919C162.657 144.971 160.284 142.598 157.336 142.598H144.665C146.503 142.559 148.187 145.469 148.187 147.919Z" fill="#EEB6A8"/>
<path d="M97.5791 194.928C95.4736 194.928 93.751 193.205 93.751 191.1V164.533C93.751 162.427 95.4736 160.705 97.5791 160.705C99.6846 160.705 101.407 162.427 101.407 164.533V191.1C101.407 193.205 99.6846 194.928 97.5791 194.928Z" fill="#B3586B"/>
<path d="M34.0703 91.5688C31.9648 91.5688 30.2422 89.8461 30.2422 87.7406V75.6437C30.2422 73.5383 31.9648 71.8156 34.0703 71.8156C36.1758 71.8156 37.8984 73.5383 37.8984 75.6437V87.7406C37.8984 89.8461 36.1758 91.5688 34.0703 91.5688Z" fill="white"/>
<path d="M34.0703 67.107C31.9648 67.107 30.2422 65.3844 30.2422 63.2789V59.9102C30.2422 57.8047 31.9648 56.082 34.0703 56.082C36.1758 56.082 37.8984 57.8047 37.8984 59.9102V63.2789C37.8984 65.3844 36.1758 67.107 34.0703 67.107Z" fill="white"/>
<path d="M93.521 117.523C91.4155 117.523 89.6929 115.801 89.6929 113.695V105.159C89.6929 103.053 91.4155 101.33 93.521 101.33C95.6265 101.33 97.3491 103.053 97.3491 105.159V113.695C97.3491 115.801 95.6265 117.523 93.521 117.523Z" fill="white"/>
<path d="M104.814 123.916C103.551 123.916 102.517 122.883 102.517 121.62V117.255C102.517 115.992 103.551 114.959 104.814 114.959C106.077 114.959 107.111 115.992 107.111 117.255V121.62C107.149 122.883 106.116 123.916 104.814 123.916Z" fill="#6280CC"/>
<path d="M111.437 111.169C110.174 111.169 109.14 110.135 109.14 108.872V104.508C109.14 103.245 110.174 102.211 111.437 102.211C112.7 102.211 113.734 103.245 113.734 104.508V108.872C113.734 110.135 112.7 111.169 111.437 111.169Z" fill="#6280CC"/>
<path d="M183.367 2.02891L186.506 10.9102C186.659 11.293 186.927 11.5992 187.234 11.7523L195.12 15.3125C196.23 15.8102 196.23 17.6094 195.12 18.107L187.234 21.6672C186.889 21.8203 186.621 22.1266 186.506 22.5094L183.367 31.3523C182.908 32.6156 181.338 32.6156 180.879 31.3523L177.74 22.4711C177.587 22.0883 177.319 21.782 177.013 21.6289L169.127 18.0688C168.016 17.5711 168.016 15.7719 169.127 15.2742L177.013 11.7141C177.357 11.5609 177.625 11.2547 177.74 10.8719L180.879 1.99062C181.338 0.765625 182.946 0.765625 183.367 2.02891Z" fill="#B2E7F1"/>
<path d="M11.1782 15.925L13.5134 22.5094C13.6282 22.7773 13.8196 23.007 14.0493 23.1219L19.9063 25.7633C20.7485 26.1461 20.7485 27.4477 19.9063 27.8305L14.0493 30.4719C13.7813 30.5867 13.5899 30.8164 13.5134 31.0844L11.1782 37.6687C10.8337 38.5875 9.68525 38.5875 9.34072 37.6687L7.00557 31.0844C6.89072 30.8164 6.69932 30.5867 6.46963 30.4719L0.612598 27.8305C-0.22959 27.4477 -0.22959 26.1461 0.612598 25.7633L6.46963 23.1219C6.7376 23.007 6.929 22.7773 7.00557 22.5094L9.34072 15.925C9.68525 15.0062 10.872 15.0062 11.1782 15.925Z" fill="#B2E7F1"/>
<path d="M44.8276 16.4992C48.6332 16.4992 51.7183 13.4142 51.7183 9.60859C51.7183 5.80301 48.6332 2.71797 44.8276 2.71797C41.0221 2.71797 37.937 5.80301 37.937 9.60859C37.937 13.4142 41.0221 16.4992 44.8276 16.4992Z" fill="#8BB6EF"/>
<path d="M148.225 26.7969C149.874 26.7969 151.211 25.46 151.211 23.8109C151.211 22.1619 149.874 20.825 148.225 20.825C146.576 20.825 145.239 22.1619 145.239 23.8109C145.239 25.46 146.576 26.7969 148.225 26.7969Z" fill="#8BB6EF"/>
</g>
<defs>
<clipPath id="clip0">
<rect width="196" height="196" fill="white"/>
</clipPath>
</defs>
</svg>
