<svg width="180" height="127" viewBox="0 0 180 127" fill="none" xmlns="http://www.w3.org/2000/svg">
<path d="M69.5236 126H54.9539C52.913 126 51.2583 124.346 51.2583 122.304V114.025H73.219V122.304C73.219 124.346 71.5645 126 69.5236 126Z" fill="#CAB4EF"/>
<path d="M113.789 36.9685H86.4224V31.3248C86.4224 28.8668 88.415 26.8742 90.873 26.8742H109.338C111.796 26.8742 113.789 28.8668 113.789 31.3248V36.9685H113.789Z" fill="#CAB4EF"/>
<path d="M113.789 117.115H10.6894C4.9699 117.115 0.333496 112.479 0.333496 106.759V45.8849C0.333496 40.1654 4.9699 35.529 10.6894 35.529H113.789C119.508 35.529 124.145 40.1654 124.145 45.8849V106.759C124.145 112.479 119.508 117.115 113.789 117.115Z" fill="#FEF2A8"/>
<path d="M69.4127 109.042C82.3656 109.042 92.8659 98.5418 92.8659 85.5889C92.8659 72.6361 82.3656 62.1357 69.4127 62.1357C56.4598 62.1357 45.9595 72.6361 45.9595 85.5889C45.9595 98.5418 56.4598 109.042 69.4127 109.042Z" fill="#CAB4EF"/>
<path d="M69.4126 100.974C77.9094 100.974 84.7974 94.0857 84.7974 85.5889C84.7974 77.0922 77.9094 70.2041 69.4126 70.2041C60.9158 70.2041 54.0278 77.0922 54.0278 85.5889C54.0278 94.0857 60.9158 100.974 69.4126 100.974Z" fill="#B2E7F1"/>
<path d="M60.948 89.0493C60.948 82.4636 66.2868 77.1248 72.8725 77.1248C78.9072 77.1248 83.8916 81.6086 84.684 87.4258C84.7558 86.8231 84.7969 86.2111 84.7969 85.5889C84.7969 77.0923 77.909 70.2041 69.4121 70.2041C60.9155 70.2041 54.0273 77.0921 54.0273 85.5889C54.0273 94.0856 60.9153 100.974 69.4121 100.974C70.034 100.974 70.6463 100.933 71.249 100.861C65.4318 100.068 60.948 95.0837 60.948 89.0493Z" fill="#A7ADF1"/>
<path d="M75.1909 54.7659H63.6341C62.1507 54.7659 60.9482 53.5635 60.9482 52.0801V47.2023C60.9482 45.7188 62.1507 44.5164 63.6341 44.5164H75.1909C76.6744 44.5164 77.8768 45.7188 77.8768 47.2023V52.0801C77.8768 53.5635 76.6744 54.7659 75.1909 54.7659Z" fill="#B2E7F1"/>
<path d="M110.323 62.5415H97.6301C95.6963 62.5415 94.1284 60.9737 94.1284 59.0399V50.4923C94.1284 48.5585 95.6963 46.9906 97.6301 46.9906H110.323C112.257 46.9906 113.825 48.5585 113.825 50.4923V59.0399C113.825 60.9737 112.257 62.5415 110.323 62.5415Z" fill="#FFE266"/>
<path d="M20.2509 67.2794C24.2332 65.6287 26.1234 61.0624 24.4728 57.0803C22.8222 53.0981 18.2558 51.208 14.2735 52.8587C10.2913 54.5094 8.40107 59.0757 10.0517 63.0578C11.7023 67.04 16.2687 68.93 20.2509 67.2794Z" fill="#FFE266"/>
<path d="M113.789 35.529H91.3422C95.9301 35.529 99.6491 39.2483 99.6491 43.8359V92.6666C99.6491 97.2545 95.9298 100.973 91.3422 100.973H8.64015C4.05222 100.973 0.333008 97.2543 0.333008 92.6666V106.759C0.333008 112.479 4.96941 117.115 10.6889 117.115H113.788C119.508 117.115 124.144 112.479 124.144 106.759V45.8849C124.144 40.1654 119.508 35.529 113.789 35.529Z" fill="#EEB6A8"/>
<path d="M87.1147 100.974H51.7109C56.0109 105.917 62.3466 109.042 69.4127 109.042C76.4788 109.042 82.8147 105.917 87.1147 100.974Z" fill="#BE87EF"/>
<path d="M110.324 46.9904H99.6489V62.5415H110.324C112.258 62.5415 113.825 60.9739 113.825 59.0399V50.4923C113.825 48.5582 112.258 46.9904 110.324 46.9904Z" fill="#EFAA66"/>
<path d="M12.8382 91.4583C11.437 91.4583 10.3013 90.3223 10.3013 88.9213V77.9177C10.3013 76.5167 11.437 75.3807 12.8382 75.3807C14.2393 75.3807 15.3752 76.5167 15.3752 77.9177V88.9213C15.3752 90.3225 14.2395 91.4583 12.8382 91.4583Z" fill="white"/>
<path d="M112.031 56.2602H95.3458C94.5052 56.2602 93.8237 55.5788 93.8237 54.7381C93.8237 53.8975 94.5052 53.216 95.3458 53.216H112.031C112.872 53.216 113.554 53.8975 113.554 54.7381C113.554 55.5788 112.872 56.2602 112.031 56.2602Z" fill="#D0844B"/>
<path d="M101.32 84.4062C100.48 84.4062 99.7983 83.7248 99.7983 82.8841V79.0401C99.7983 78.1995 100.48 77.5181 101.32 77.5181C102.161 77.5181 102.843 78.1997 102.843 79.0401V82.8841C102.843 83.7245 102.161 84.4062 101.32 84.4062Z" fill="#D08372"/>
<path d="M108.738 76.9405C107.898 76.9405 107.216 76.259 107.216 75.4184V71.5744C107.216 70.7337 107.898 70.0523 108.738 70.0523C109.579 70.0523 110.26 70.734 110.26 71.5744V75.4184C110.26 76.2588 109.579 76.9405 108.738 76.9405Z" fill="#D08372"/>
<path d="M113.296 105.4C112.455 105.4 111.774 104.719 111.774 103.878V100.034C111.774 99.1935 112.455 98.5121 113.296 98.5121C114.137 98.5121 114.818 99.1937 114.818 100.034V103.878C114.818 104.719 114.136 105.4 113.296 105.4Z" fill="#D08372"/>
<path d="M30.9759 118.637C30.9264 118.637 30.8765 118.635 30.8263 118.63C29.9896 118.548 29.3775 117.804 29.459 116.967C32.2165 88.705 32.217 61.3598 29.4605 35.6917C29.3709 34.8557 29.9755 34.1054 30.8115 34.0158C31.649 33.9258 32.3976 34.5309 32.4874 35.3669C35.2661 61.2409 35.2666 88.7951 32.4889 117.263C32.4124 118.049 31.7501 118.637 30.9759 118.637Z" fill="#D08372"/>
<path d="M95.3466 118.827C95.2066 118.827 95.0643 118.808 94.9228 118.767C94.1154 118.534 93.65 117.689 93.8836 116.882C97.4718 104.472 108.997 83.2744 123.386 75.0025C124.115 74.5831 125.045 74.8344 125.464 75.5633C125.883 76.292 125.632 77.2225 124.903 77.6414C111.4 85.4049 100.155 106.151 96.8079 117.728C96.6152 118.394 96.0071 118.827 95.3466 118.827Z" fill="#D08372"/>
<path d="M33.475 2.3096L31.3911 8.16909C31.302 8.42011 31.1253 8.61871 30.9023 8.71936L25.6962 11.0649C24.9606 11.3964 24.9606 12.5683 25.6962 12.8995L30.9023 15.245C31.1253 15.3454 31.302 15.5443 31.3911 15.795L33.475 21.6548C33.7693 22.4826 34.8105 22.4826 35.1049 21.6548L37.1888 15.795C37.2781 15.5443 37.4546 15.3454 37.6775 15.245L42.8836 12.8995C43.6192 12.568 43.6192 11.3964 42.8836 11.0649L37.6775 8.71936C37.4546 8.61895 37.2781 8.42011 37.1888 8.16909L35.1049 2.3096C34.8105 1.48174 33.7693 1.48174 33.475 2.3096Z" fill="#FEF2A8"/>
<path d="M93.2812 0.460442L91.7354 4.80695C91.6692 4.993 91.5383 5.14041 91.3729 5.21497L87.5112 6.95486C86.9657 7.2007 86.9657 8.06991 87.5112 8.31575L91.3729 10.0556C91.5383 10.1302 91.6692 10.2776 91.7354 10.4637L93.2812 14.8102C93.4994 15.4242 94.2719 15.4242 94.4902 14.8102L96.0359 10.4637C96.1021 10.2776 96.2331 10.1302 96.3984 10.0556L100.26 8.31575C100.806 8.06991 100.806 7.2007 100.26 6.95486L96.3984 5.21497C96.2331 5.14041 96.1021 4.993 96.0359 4.80695L94.4902 0.460442C94.2717 -0.153562 93.4994 -0.153562 93.2812 0.460442Z" fill="#FEF2A8"/>
<path d="M66.9853 23.52C69.4657 23.1179 71.1505 20.7812 70.7484 18.3008C70.3463 15.8204 68.0096 14.1356 65.5292 14.5377C63.0488 14.9398 61.364 17.2765 61.7661 19.7569C62.1682 22.2373 64.5049 23.9221 66.9853 23.52Z" fill="#FFE266"/>
<path d="M10.8754 19.4756C11.9595 19.4756 12.8383 18.5968 12.8383 17.5128C12.8383 16.4287 11.9595 15.5499 10.8754 15.5499C9.79139 15.5499 8.9126 16.4287 8.9126 17.5128C8.9126 18.5968 9.79139 19.4756 10.8754 19.4756Z" fill="#FFE266"/>
<path d="M174.058 119.529H94.9424V69.3629C94.9424 65.768 97.8567 62.8537 101.452 62.8537H167.549C171.144 62.8537 174.058 65.768 174.058 69.3629V119.529Z" fill="#8BB6EF"/>
<path d="M167.882 116.551H101.117V71.421C101.117 70.406 101.94 69.5833 102.955 69.5833H166.044C167.059 69.5833 167.882 70.406 167.882 71.421V116.551Z" fill="#B2E7F1"/>
<path d="M167.549 62.8535H155.552C158.393 62.8535 160.697 65.157 160.697 67.9984V100.618C160.697 103.289 158.531 105.455 155.86 105.455H94.9424V119.529H174.058V69.3629C174.058 65.7678 171.144 62.8535 167.549 62.8535V62.8535Z" fill="#8388EF"/>
<path d="M167.882 71.421C167.882 70.406 167.059 69.5833 166.044 69.5833H160.696V100.618C160.696 103.289 158.531 105.455 155.86 105.455H101.117V116.551H167.882V71.421Z" fill="#A7ADF1"/>
<path d="M167.978 127H101.022C94.663 127 89.5083 121.845 89.5083 115.487C89.5083 114.43 90.3652 113.573 91.4223 113.573H177.577C178.634 113.573 179.491 114.43 179.491 115.487C179.491 121.845 174.337 127 167.978 127Z" fill="#8BB6EF"/>
<path d="M147.055 119.529H121.945C118.655 119.529 115.988 116.863 115.988 113.573H153.012C153.012 116.862 150.345 119.529 147.055 119.529Z" fill="#B2E7F1"/>
<path d="M158.375 104.486H129.923C129.006 104.486 128.263 103.742 128.263 102.825V79.5575C128.263 78.6404 129.006 77.897 129.923 77.897H158.375C159.292 77.897 160.036 78.6404 160.036 79.5575V102.825C160.035 103.742 159.292 104.486 158.375 104.486V104.486Z" fill="#E7EFFA"/>
<path d="M160.035 83.0843V79.5575C160.035 78.6404 159.292 77.897 158.375 77.897H129.923C129.006 77.897 128.263 78.6404 128.263 79.5575V83.0843H160.035Z" fill="#FFE266"/>
<path d="M112.921 84.0366H109.552C108.965 84.0366 108.468 83.6047 108.385 83.0235L107.635 77.7507C107.534 77.0406 108.085 76.4056 108.802 76.4056H113.609C114.32 76.4056 114.87 77.0314 114.778 77.7372L114.09 83.01C114.014 83.5973 113.514 84.0366 112.921 84.0366Z" fill="#E7EFFA"/>
<path d="M106.674 100.986C105.662 100.986 104.841 100.165 104.841 99.1524V96.3122C104.841 95.2997 105.662 94.4789 106.674 94.4789C107.687 94.4789 108.507 95.2997 108.507 96.3122V99.1524C108.507 100.165 107.687 100.986 106.674 100.986Z" fill="white"/>
<path d="M106.674 92.6411C105.662 92.6411 104.841 91.8203 104.841 90.8078V90.2372C104.841 89.2247 105.662 88.4039 106.674 88.4039C107.687 88.4039 108.507 89.2247 108.507 90.2372V90.8078C108.507 91.8203 107.687 92.6411 106.674 92.6411Z" fill="white"/>
<path d="M154.12 100.003C153.512 100.003 153.02 99.5102 153.02 98.9027V96.5619C153.02 95.9544 153.512 95.4619 154.12 95.4619C154.727 95.4619 155.22 95.9544 155.22 96.5619V98.9027C155.219 99.5102 154.727 100.003 154.12 100.003Z" fill="#AD99C9"/>
<path d="M148.685 96.1586C148.077 96.1586 147.585 95.6661 147.585 95.0587V92.7179C147.585 92.1104 148.077 91.6179 148.685 91.6179C149.292 91.6179 149.785 92.1104 149.785 92.7179V95.0587C149.785 95.6661 149.292 96.1586 148.685 96.1586Z" fill="#AD99C9"/>
<path d="M99.3895 49.3969C99.3895 51.2747 97.8672 52.797 95.9894 52.797C94.1115 52.797 92.5894 51.2747 92.5894 49.3969C92.5894 47.519 94.1117 45.9969 95.9894 45.9969C97.8672 45.9969 99.3895 47.5192 99.3895 49.3969V49.3969Z" fill="#8BB6EF"/>
<path d="M151.278 43.1453C152.073 43.1453 152.718 42.5006 152.718 41.7055C152.718 40.9103 152.073 40.2656 151.278 40.2656C150.483 40.2656 149.838 40.9103 149.838 41.7055C149.838 42.5006 150.483 43.1453 151.278 43.1453Z" fill="#8BB6EF"/>
<path d="M111.657 36.3441L112.812 39.592C112.861 39.731 112.959 39.8412 113.083 39.897L115.969 41.1971C116.376 41.3807 116.376 42.0304 115.969 42.214L113.083 43.5141C112.959 43.5697 112.861 43.6799 112.812 43.8189L111.657 47.0668C111.494 47.5257 110.917 47.5257 110.753 47.0668L109.598 43.8189C109.549 43.6797 109.451 43.5697 109.328 43.5141L106.442 42.214C106.034 42.0304 106.034 41.3807 106.442 41.1971L109.328 39.897C109.451 39.8414 109.549 39.7312 109.598 39.592L110.753 36.3441C110.917 35.8854 111.494 35.8854 111.657 36.3441V36.3441Z" fill="#B2E7F1"/>
<path d="M165.616 40.1833L167.203 44.5618C167.271 44.7493 167.405 44.8979 167.575 44.9729L171.54 46.7256C172.1 46.9732 172.1 47.8489 171.54 48.0964L167.575 49.8491C167.405 49.9241 167.271 50.0727 167.203 50.2602L165.616 54.6387C165.391 55.2572 164.598 55.2572 164.374 54.6387L162.787 50.2602C162.719 50.0727 162.584 49.9241 162.415 49.8491L158.449 48.0964C157.889 47.8489 157.889 46.9732 158.449 46.7256L162.415 44.9729C162.584 44.8979 162.719 44.7493 162.787 44.5618L164.374 40.1833C164.598 39.5647 165.391 39.5647 165.616 40.1833V40.1833Z" fill="#B2E7F1"/>
</svg>
