<svg width="115" height="97" viewBox="0 0 115 97" fill="none" xmlns="http://www.w3.org/2000/svg">
<path d="M78.4608 46.3833C78.9057 46.3833 79.2663 46.0226 79.2663 45.5777C79.2663 45.1329 78.9057 44.7722 78.4608 44.7722C78.0159 44.7722 77.6553 45.1329 77.6553 45.5777C77.6553 46.0226 78.0159 46.3833 78.4608 46.3833Z" fill="#A183E2"/>
<path d="M98.5058 54.823C99.6562 48.7815 97.3801 43.2728 93.4217 42.519C89.4634 41.7653 85.322 46.0518 84.1715 52.0934C83.021 58.1349 85.2972 63.6435 89.2555 64.3973C93.2138 65.1511 97.3553 60.8645 98.5058 54.823Z" fill="#BDF4E3"/>
<path d="M93.4745 42.5151C93.2327 42.4666 92.9301 42.4812 92.5837 42.5539C93.8557 43.0081 96.2509 46.5379 95.5512 50.1316C94.8274 53.8493 91.3035 56.2746 89.8348 55.9803C88.3663 55.6861 86.0158 52.0838 86.7396 48.3661C87.0047 47.0046 87.6779 45.8239 88.4845 44.8848C86.5743 46.5547 84.7731 49.0164 84.1892 52.0156C83.0135 58.0544 86.8315 63.9056 89.217 64.3836C91.6025 64.8615 97.3266 60.922 98.5023 54.8832C99.678 48.8443 95.4733 42.9156 93.4745 42.5151Z" fill="#B1B7E3"/>
<path d="M68.0858 57.0289C68.749 55.0853 75.1335 51.7034 80.8978 53.7188C86.6621 55.7343 89.0588 62.1362 88.2671 64.4559C87.4755 66.7758 81.9124 69.6531 76.1481 67.6376C70.3838 65.6223 67.4226 58.9725 68.0858 57.0289Z" fill="#BDF4E3"/>
<path d="M80.8977 53.7189C79.9056 53.3721 78.8952 53.1851 77.8987 53.1231C80.9546 54.1748 83.0038 57.2082 82.8428 58.6828C82.658 60.3754 79.1929 63.3988 75.3743 62.9527C71.5556 62.5066 68.8596 58.4855 69.0144 57.0674C69.0812 56.4553 69.7713 55.4933 70.8401 54.633C69.3554 55.3985 68.3306 56.3116 68.0858 57.029C67.4226 58.9726 70.3838 65.6223 76.1481 67.6378C81.9124 69.6533 88.1684 66.6475 88.9601 64.3277C89.7515 62.0079 86.662 55.7344 80.8977 53.7189Z" fill="#B1B7E3"/>
<path d="M90.8119 80.6119C95.0127 76.4111 95.0127 69.6002 90.8119 65.3994C86.6111 61.1986 79.8002 61.1986 75.5994 65.3994C71.3986 69.6002 71.3986 76.4111 75.5994 80.6119C79.8002 84.8127 86.6111 84.8127 90.8119 80.6119Z" fill="#A183E2"/>
<path d="M83.2117 62.2487C82.7586 62.2487 82.3122 62.2771 81.8739 62.3314C85.8866 62.8956 88.9745 66.341 88.9745 70.5093C88.9745 75.0716 85.276 78.7701 80.7137 78.7701C76.5454 78.7701 73.1 75.6821 72.5358 71.6695C72.4815 72.1078 72.4531 72.5541 72.4531 73.0072C72.4531 78.949 77.2699 83.7657 83.2116 83.7657C89.1533 83.7657 93.9701 78.9489 93.9701 73.0072C93.9702 67.0655 89.1534 62.2487 83.2117 62.2487Z" fill="#9762E2"/>
<path d="M100.104 71.3664C106.045 71.3664 110.862 66.5496 110.862 60.6079C110.862 54.6662 106.045 49.8494 100.104 49.8494C94.1619 49.8494 89.3452 54.6662 89.3452 60.6079C89.3452 66.5496 94.1619 71.3664 100.104 71.3664Z" fill="#A183E2"/>
<path d="M100.103 49.8493C99.6668 49.8493 99.2366 49.876 98.8137 49.9266C102.893 50.475 106.039 53.9672 106.039 58.1963C106.039 62.8062 102.302 66.5432 97.6917 66.5432C93.4625 66.5432 89.9703 63.3973 89.422 59.3183C89.3714 59.7412 89.3447 60.1714 89.3447 60.6079C89.3447 66.5496 94.1615 71.3664 100.103 71.3664C106.045 71.3664 110.862 66.5496 110.862 60.6079C110.862 54.6662 106.045 49.8493 100.103 49.8493Z" fill="#9762E2"/>
<path d="M106.624 83.4711C110.825 79.2702 110.825 72.4594 106.624 68.2586C102.423 64.0578 95.6122 64.0578 91.4114 68.2586C87.2106 72.4594 87.2106 79.2702 91.4114 83.4711C95.6122 87.6719 102.423 87.6719 106.624 83.4711Z" fill="#A183E2"/>
<path d="M99.0257 65.1064C98.6426 65.1064 98.2643 65.1269 97.8916 65.1659C102.184 65.6613 105.518 69.3062 105.518 73.7316C105.518 78.4952 101.656 82.3568 96.8923 82.3568C92.4669 82.3568 88.8221 79.0234 88.3265 74.7308C88.2875 75.1036 88.2671 75.4819 88.2671 75.8649C88.2671 81.8066 93.0838 86.6234 99.0256 86.6234C104.967 86.6234 109.784 81.8066 109.784 75.8649C109.784 69.9232 104.967 65.1064 99.0257 65.1064Z" fill="#9762E2"/>
<path d="M98.9571 81.9021C98.7632 81.9021 98.5677 81.8409 98.3965 81.7166C98.0151 81.4394 97.8945 80.9505 98.1033 80.5278C98.7624 79.1939 98.2468 77.6073 96.9297 76.9155C96.5122 76.6963 96.3224 76.2299 96.468 75.7815C96.6138 75.333 97.0411 75.0671 97.5081 75.1353C98.9798 75.3494 100.33 74.3692 100.581 72.9028C100.66 72.438 101.045 72.1133 101.517 72.1133H101.517C101.988 72.1134 102.373 72.4381 102.453 72.9028V72.9029C102.704 74.3692 104.053 75.3495 105.526 75.1353C105.992 75.0671 106.42 75.3329 106.566 75.7815C106.711 76.23 106.522 76.6964 106.104 76.9155C104.787 77.6073 104.271 79.1939 104.93 80.5278C105.139 80.9506 105.019 81.4395 104.637 81.7167C104.255 81.9938 103.754 81.9574 103.416 81.6281C102.351 80.5892 100.683 80.589 99.6178 81.6281C99.4317 81.8096 99.1955 81.9021 98.9571 81.9021ZM98.3455 76.3914C99.3841 77.3317 99.8444 78.7483 99.5568 80.1195C100.772 79.4224 102.262 79.4224 103.477 80.1195C103.189 78.7484 103.649 77.3317 104.688 76.3914C103.295 76.2411 102.09 75.3655 101.517 74.0873C100.944 75.3654 99.7383 76.241 98.3455 76.3914ZM101.221 73.1133C101.221 73.1134 101.221 73.1136 101.221 73.1138C101.221 73.1136 101.221 73.1134 101.221 73.1133Z" fill="#7844C1"/>
<path d="M78.1982 79.7257C78.0043 79.7257 77.8089 79.6645 77.6377 79.5402C77.2562 79.263 77.1356 78.7742 77.3446 78.3514C78.0036 77.0175 77.488 75.4308 76.1709 74.7391C75.7534 74.5198 75.5635 74.0534 75.7093 73.605C75.855 73.1564 76.2825 72.8906 76.7494 72.9588C78.2221 73.1728 79.5714 72.1927 79.8221 70.7263C79.9017 70.2615 80.2865 69.9369 80.7581 69.9369C81.2296 69.9369 81.6146 70.2615 81.694 70.7263C81.9448 72.1928 83.2943 73.1735 84.7667 72.9589C85.2336 72.8906 85.661 73.1565 85.8067 73.605C85.9525 74.0534 85.7627 74.5198 85.3452 74.7392C84.0279 75.4309 83.5124 77.0176 84.1715 78.3515C84.3804 78.7743 84.2598 79.2631 83.8783 79.5403C83.4967 79.8173 82.9945 79.7811 82.6571 79.4517C81.5922 78.4128 79.9238 78.4128 78.8589 79.4517C78.6728 79.6332 78.4366 79.7257 78.1982 79.7257ZM77.5868 74.215C78.6254 75.1553 79.0857 76.5719 78.7981 77.9431C80.0132 77.2459 81.503 77.2459 82.718 77.9431C82.4304 76.572 82.8908 75.1553 83.9293 74.2151C82.5365 74.0648 81.3313 73.1892 80.758 71.911C80.1847 73.1891 78.9795 74.0647 77.5868 74.215ZM81.0782 70.8317L80.4625 70.937V70.9371L81.0782 70.8317Z" fill="#7844C1"/>
<path d="M104.818 62.8641C104.579 62.8641 104.343 62.7716 104.157 62.5899C103.092 61.5511 101.424 61.5509 100.359 62.59C100.021 62.9191 99.5193 62.9556 99.1378 62.6785C98.7563 62.4014 98.6357 61.9125 98.8445 61.4897C99.5036 60.1558 98.9881 58.569 97.6709 57.8774C97.2534 57.6582 97.0636 57.1919 97.2092 56.7434C97.355 56.2949 97.7827 56.0291 98.2493 56.0972C99.7206 56.311 101.071 55.3312 101.322 53.8647C101.402 53.3998 101.786 53.0752 102.258 53.0752C102.73 53.0752 103.115 53.3998 103.194 53.8647C103.445 55.3311 104.794 56.3114 106.267 56.0972C106.733 56.029 107.161 56.2949 107.307 56.7434C107.452 57.192 107.263 57.6583 106.845 57.8775C105.528 58.5691 105.013 60.1559 105.672 61.4897C105.88 61.9124 105.76 62.4013 105.378 62.6785C105.207 62.8029 105.012 62.8641 104.818 62.8641ZM99.0868 57.3534C100.125 58.2937 100.586 59.7104 100.298 61.0815C101.513 60.3843 103.003 60.3843 104.218 61.0815C103.93 59.7104 104.391 58.2937 105.429 57.3534C104.036 57.2032 102.831 56.3276 102.258 55.0494C101.685 56.3274 100.48 57.2031 99.0868 57.3534ZM101.963 54.0753C101.963 54.0756 101.963 54.0759 101.963 54.0762C101.963 54.076 101.963 54.0756 101.963 54.0753Z" fill="#7844C1"/>
<path d="M83.5267 66.5559C83.5038 66.5559 83.4809 66.5552 83.4577 66.5536C83.2022 66.537 82.9485 66.5339 82.7039 66.5443C82.1281 66.5689 81.6437 66.1233 81.6191 65.5488C81.5945 64.9744 82.0401 64.4886 82.6146 64.464C82.9339 64.4502 83.2632 64.4542 83.5936 64.4758C84.1673 64.5134 84.602 65.0089 84.5645 65.5826C84.5285 66.1334 84.0707 66.5559 83.5267 66.5559Z" fill="white"/>
<path d="M76.1744 71.3381C76.0483 71.3381 75.9203 71.3151 75.7956 71.2664C75.2601 71.0571 74.9957 70.4532 75.2051 69.9177C75.6542 68.7686 76.4452 67.6192 77.4324 66.6812C77.919 66.2187 78.4484 65.8213 79.0058 65.5001C79.5041 65.213 80.1406 65.384 80.4278 65.8821C80.715 66.3802 80.5439 67.0169 80.0457 67.3041C79.6309 67.5432 79.2342 67.8415 78.8668 68.1908C78.0964 68.9227 77.4848 69.8054 77.1444 70.6759C76.9837 71.0867 76.5907 71.3381 76.1744 71.3381Z" fill="white"/>
<path d="M95.463 55.8129C95.1701 55.8129 94.879 55.69 94.6731 55.4506C94.2983 55.0146 94.3477 54.3572 94.7837 53.9824C95.026 53.774 95.2872 53.5733 95.5599 53.3859C96.0338 53.0602 96.6819 53.1803 97.0076 53.6542C97.3333 54.128 97.2132 54.7761 96.7393 55.1019C96.5281 55.2471 96.3269 55.4016 96.1412 55.5612C95.9447 55.7301 95.7033 55.8129 95.463 55.8129Z" fill="white"/>
<path d="M93.3356 63.5911C92.889 63.5911 92.4762 63.3016 92.3397 62.8521C91.9813 61.6716 91.8911 60.2792 92.0859 58.9315C92.1818 58.267 92.3516 57.6271 92.5906 57.0298C92.8042 56.4959 93.4102 56.2363 93.944 56.4498C94.4778 56.6634 94.7374 57.2693 94.5239 57.8031C94.346 58.2477 94.2192 58.7274 94.1467 59.2291C93.9948 60.2809 94.0606 61.3527 94.3322 62.2471C94.4992 62.7973 94.1887 63.3788 93.6385 63.5458C93.5376 63.5765 93.4357 63.5911 93.3356 63.5911Z" fill="white"/>
<path d="M95.7599 70.8075C95.4167 70.8075 95.0807 70.6379 94.882 70.3273C94.5721 69.843 94.7136 69.1992 95.1979 68.8893C95.4673 68.7168 95.7542 68.5548 96.0504 68.4077C96.5653 68.1518 97.19 68.362 97.4459 68.8769C97.7017 69.3918 97.4916 70.0167 96.9767 70.2725C96.7476 70.3863 96.5266 70.5111 96.3201 70.6431C96.1463 70.7543 95.9519 70.8075 95.7599 70.8075Z" fill="white"/>
<path d="M92.5583 78.2092C92.0537 78.2092 91.6105 77.8416 91.5307 77.3274C91.3418 76.1082 91.4482 74.7169 91.8305 73.41C92.0191 72.7654 92.2771 72.1557 92.5975 71.5982C92.8841 71.0996 93.5203 70.9278 94.0189 71.2142C94.5174 71.5008 94.6893 72.1371 94.4029 72.6356C94.1644 73.0506 93.9713 73.5078 93.8289 73.9946C93.5307 75.0144 93.4453 76.0848 93.5883 77.0086C93.6764 77.5767 93.2872 78.1088 92.719 78.1968C92.665 78.2051 92.6112 78.2092 92.5583 78.2092Z" fill="white"/>
<path d="M66.7873 37.8782L67.6425 40.283C67.6792 40.3859 67.7516 40.4675 67.8431 40.5087L69.9796 41.4713C70.2815 41.6073 70.2815 42.0882 69.9796 42.2242L67.8431 43.1867C67.7516 43.2279 67.6792 43.3095 67.6425 43.4125L66.7873 45.8171C66.6666 46.1568 66.2392 46.1568 66.1185 45.8171L65.2633 43.4125C65.2266 43.3095 65.1542 43.2279 65.0627 43.1867L62.9261 42.2242C62.6242 42.0882 62.6242 41.6073 62.9261 41.4713L65.0626 40.5087C65.1541 40.4675 65.2265 40.3859 65.2632 40.283L66.1184 37.8782C66.2392 37.5386 66.6665 37.5386 66.7873 37.8782Z" fill="#CAB4EF"/>
<path d="M103.65 38.576L104.284 40.3597C104.311 40.4361 104.365 40.4966 104.433 40.5272L106.018 41.2412C106.242 41.3421 106.242 41.6989 106.018 41.7998L104.433 42.5138C104.365 42.5443 104.311 42.6049 104.284 42.6813L103.65 44.465C103.56 44.717 103.243 44.717 103.154 44.465L102.519 42.6813C102.492 42.6049 102.438 42.5444 102.37 42.5138L100.786 41.7998C100.562 41.6989 100.562 41.3421 100.786 41.2412L102.37 40.5272C102.438 40.4967 102.492 40.4361 102.519 40.3597L103.154 38.576C103.243 38.324 103.56 38.324 103.65 38.576Z" fill="#CAB4EF"/>
<path d="M66.6788 69.3099C66.8546 68.5376 66.3711 67.769 65.5987 67.5931C64.8264 67.4173 64.0577 67.9008 63.8819 68.673C63.706 69.4453 64.1896 70.2139 64.9619 70.3898C65.7343 70.5657 66.5029 70.0822 66.6788 69.3099Z" fill="#A183E2"/>
<path d="M70.0051 72.8918C82.8926 60.0042 82.8926 39.1093 70.0051 26.2217C57.1175 13.3342 36.2226 13.3342 23.335 26.2217C10.4474 39.1093 10.4474 60.0042 23.335 72.8918C36.2226 85.7793 57.1175 85.7793 70.0051 72.8918Z" fill="#FFA585"/>
<path d="M79.6862 49.5575C79.6862 31.3288 64.9089 16.5518 46.6805 16.5518C43.5265 16.5518 40.476 16.9949 37.5873 17.8209C39.3226 19.4958 46.9269 24.7873 42.6121 25.9488C37.9792 27.1959 25.5016 34.6737 24.1448 53.4834C22.6505 74.197 44.3124 82.284 42.4413 82.2885C42.5325 82.3016 42.6242 82.313 42.7157 82.3255C44.0158 82.4812 45.3384 82.5633 46.6803 82.5633C64.9089 82.5631 79.6862 67.7859 79.6862 49.5575Z" fill="#EF7C85"/>
<path d="M46.7653 16.8734C46.6586 13.2942 45.9186 8.16106 45.2917 5.47625C44.8874 3.854 43.9291 2.43299 42.2485 2.43299C40.5676 2.43299 39.4803 3.90843 39.6496 5.62439C39.8307 7.45861 40.8441 13.1659 41.2148 17.119L46.7653 16.8734Z" fill="#C49A8B"/>
<path d="M35.8378 28.2164C35.202 28.2164 34.5928 27.8572 34.3035 27.244C33.9041 26.3973 34.2667 25.3871 35.1135 24.9878C35.4457 24.8311 35.786 24.6793 36.1252 24.5363C36.9867 24.1727 37.9817 24.5771 38.3454 25.4398C38.709 26.3025 38.3045 27.2966 37.4417 27.6602C37.1461 27.7848 36.8491 27.9174 36.5594 28.0539C36.326 28.1641 36.0798 28.2164 35.8378 28.2164Z" fill="white"/>
<path d="M22.8353 42.3588C22.6337 42.3588 22.4287 42.3225 22.2291 42.2461C21.355 41.911 20.9178 40.9309 21.2529 40.0566C22.5593 36.6477 24.5874 33.4422 27.118 30.7864C27.8831 29.9834 28.7031 29.2203 29.5556 28.5184C30.278 27.9231 31.3465 28.0267 31.9416 28.7493C32.5367 29.4719 32.4332 30.5402 31.7104 31.1353C30.9632 31.7509 30.2437 32.4203 29.5724 33.1251C27.3481 35.4593 25.566 38.2758 24.4186 41.2699C24.1597 41.9444 23.5171 42.3588 22.8353 42.3588Z" fill="white"/>
<path d="M83.3499 12.9707C85.3245 14.6966 85.3245 18.0249 83.3499 19.7507C79.6478 22.9863 73.301 27.3713 66.0929 27.3713C54.6709 27.3713 45.4116 16.3606 45.4116 16.3606C45.4116 16.3606 54.6709 5.34993 66.0929 5.34993C73.3011 5.34993 79.648 9.73509 83.3499 12.9707Z" fill="#78EAC4"/>
<path d="M83.3502 12.9707C81.7562 11.5774 79.6707 9.97176 77.2382 8.59408C77.323 8.75684 77.566 8.99099 78.0054 9.30274C79.5936 10.4298 78.8715 14.7152 77.2833 15.8421C74.3061 17.9551 69.2017 20.8187 63.4044 20.8187C54.2184 20.8187 46.2197 15.7973 46.2197 15.7973C46.2197 15.7973 47.5945 14.1334 49.8287 12.13C47.0621 14.3979 45.4116 16.3605 45.4116 16.3605C45.4116 16.3605 54.6709 27.3711 66.0929 27.3711C73.3011 27.3711 79.648 22.986 83.35 19.7506C85.3248 18.0249 85.3248 14.6964 83.3502 12.9707Z" fill="#71AFC4"/>
<path d="M46.3421 17.3409C45.9751 17.3409 45.6208 17.142 45.4394 16.7943C45.1797 16.2968 45.3719 15.683 45.8691 15.423C45.9863 15.3617 48.7894 13.9113 53.3314 12.9191C57.5122 12.006 64.0243 11.3296 71.3044 13.2943C71.8466 13.4408 72.1676 13.999 72.0213 14.5413C71.8747 15.0836 71.3162 15.4044 70.7743 15.2582C57.636 11.7126 46.9175 17.1704 46.8109 17.226C46.6611 17.3039 46.5003 17.3409 46.3421 17.3409Z" fill="#518699"/>
<path d="M79.8666 74.4778C90.642 63.7024 90.642 46.2321 79.8666 35.4567C69.0913 24.6813 51.6209 24.6813 40.8455 35.4567C30.0701 46.2321 30.0701 63.7024 40.8455 74.4778C51.6209 85.2532 69.0913 85.2532 79.8666 74.4778Z" fill="#FFC7B6"/>
<path d="M58.5809 32.509C53.7007 32.8921 49.2576 34.8303 45.7469 37.8284C45.0142 38.4541 44.9762 39.5747 45.6575 40.256L57.5401 52.1386C58.5839 53.1824 60.3686 52.4432 60.3686 50.9671V34.1621C60.3684 33.1958 59.5443 32.4334 58.5809 32.509Z" fill="#FFDCB6"/>
<path d="M82.8263 53.1794C82.4431 48.2992 80.505 43.8561 77.5069 40.3454C76.8812 39.6127 75.7605 39.5747 75.0792 40.256L63.1966 52.1386C62.1529 53.1824 62.8921 54.9671 64.3682 54.9671H81.173C82.1396 54.9669 82.902 54.1428 82.8263 53.1794Z" fill="#FFDCB6"/>
<path d="M74.9902 37.8284C71.4794 34.8303 67.0363 32.8921 62.1562 32.509C61.1927 32.4334 60.3687 33.1956 60.3687 34.1621V50.9669C60.3687 52.443 62.1533 53.1822 63.1971 52.1385L75.0797 40.2559C75.7608 39.5747 75.7228 38.4541 74.9902 37.8284Z" fill="#FFDCB6"/>
<path d="M43.2298 40.3454C40.2318 43.8561 38.2936 48.2992 37.9104 53.1794C37.8349 54.1428 38.5971 54.9669 39.5636 54.9669H56.3684C57.8445 54.9669 58.5837 53.1822 57.5399 52.1385L45.6573 40.2558C44.9762 39.5747 43.8555 39.6127 43.2298 40.3454Z" fill="#FFDCB6"/>
<path d="M63.1966 57.7953L75.0792 69.6779C75.7605 70.3592 76.8812 70.3213 77.5069 69.5886C80.505 66.0779 82.4431 61.6348 82.8263 56.7546C82.9019 55.7911 82.1396 54.9671 81.1731 54.9671H64.3682C62.8921 54.9669 62.1529 56.7516 63.1966 57.7953Z" fill="#FFDCB6"/>
<path d="M37.9104 56.7546C38.2936 61.6348 40.2318 66.0779 43.2298 69.5886C43.8555 70.3213 44.9762 70.3592 45.6575 69.6779L57.5401 57.7953C58.5839 56.7516 57.8446 54.9669 56.3685 54.9669H39.5636C38.5973 54.9669 37.8349 55.7911 37.9104 56.7546Z" fill="#FFDCB6"/>
<path d="M62.1559 77.4248C67.036 77.0417 71.4791 75.1035 74.9899 72.1054C75.7225 71.4797 75.7605 70.359 75.0792 69.6778L63.1966 57.7952C62.1528 56.7514 60.3682 57.4906 60.3682 58.9667V75.7715C60.3682 76.7382 61.1924 77.5006 62.1559 77.4248Z" fill="#FFDCB6"/>
<path d="M45.7469 72.1054C49.2576 75.1035 53.7007 77.0417 58.5809 77.4248C59.5444 77.5004 60.3684 76.7382 60.3684 75.7717V58.9669C60.3684 57.4908 58.5838 56.7516 57.54 57.7953L45.6574 69.6779C44.9763 70.3592 45.0142 71.4799 45.7469 72.1054Z" fill="#FFDCB6"/>
<path d="M60.343 27.3713C44.9134 27.3713 32.4053 39.8794 32.4053 55.3091C32.4053 70.7387 44.9134 83.2468 60.343 83.2468C75.7726 83.2468 88.2809 70.7387 88.2809 55.3091C88.2809 39.8796 75.7728 27.3713 60.343 27.3713ZM56.5153 73.762C44.2101 73.762 34.2348 63.7866 34.2348 51.4812C34.2348 39.176 44.2101 29.2007 56.5153 29.2007C68.8206 29.2007 78.7961 39.176 78.7961 51.4812C78.7959 63.7866 68.8206 73.762 56.5153 73.762Z" fill="#EF95B6"/>
<path d="M56.7807 73.4065C53.0585 73.4065 49.5528 72.482 46.4783 70.8522C46.4426 70.9447 46.4367 71.0304 46.4389 71.0858C46.4424 71.178 46.4726 71.3534 46.6344 71.4915C50.1001 74.4511 54.3279 76.2035 58.8608 76.5593C59.0797 76.5764 59.2265 76.4719 59.2952 76.4083C59.3643 76.3444 59.48 76.2049 59.48 75.9865V73.2417C58.5953 73.3497 57.6946 73.4065 56.7807 73.4065Z" fill="#EFA5B6"/>
<path d="M78.482 54.0765H81.362C81.5911 54.0765 81.7376 53.9571 81.8046 53.886C81.8713 53.815 81.9808 53.6621 81.963 53.4377C81.5896 48.7613 79.7509 44.3996 76.6458 40.8241C76.5008 40.6573 76.3167 40.6261 76.2202 40.6224C76.2128 40.622 76.2049 40.6219 76.1966 40.6219C76.1394 40.6219 76.0599 40.6308 75.9751 40.663C77.685 43.8348 78.655 47.4515 78.655 51.2914C78.655 52.2346 78.5956 53.1638 78.482 54.0765Z" fill="#EFA5B6"/>
<path d="M71.7379 67.3683C68.8147 69.9651 65.2165 71.8447 61.2319 72.7257V75.9647C61.2319 76.1914 61.3544 76.3362 61.4276 76.4024C61.5005 76.4684 61.6571 76.5772 61.8875 76.5591C66.6879 76.1899 71.1649 74.3713 74.835 71.3002C75.0062 71.1569 75.0385 70.9748 75.0422 70.8791C75.0462 70.7811 75.0282 70.5927 74.8636 70.4313L71.7379 67.3683Z" fill="#EFA5B6"/>
<path d="M81.8452 55.5922H78.459C77.5377 59.6206 75.5728 63.2585 72.8579 66.2139L76.0601 69.3739C76.229 69.5405 76.4256 69.5585 76.5284 69.5546C76.6283 69.5508 76.8186 69.5184 76.9686 69.3452C80.1793 65.6346 82.0806 61.1082 82.4667 56.255C82.4852 56.0222 82.3718 55.8637 82.303 55.7899C82.2338 55.7162 82.0821 55.5922 81.8452 55.5922Z" fill="#EFA5B6"/>
<path d="M58.7087 53.6421C58.0143 53.6423 57.3337 53.3705 56.8207 52.8577L44.9383 40.9751C44.4117 40.4487 44.1265 39.72 44.1559 38.9758C44.1848 38.2352 44.5241 37.5351 45.0863 37.0549C48.8886 33.808 53.5272 31.8855 58.5011 31.4949L58.5807 32.5088L58.5011 31.4949C59.2411 31.4363 59.98 31.6928 60.5259 32.1976C61.072 32.7025 61.3853 33.4184 61.3853 34.162V50.9667C61.3853 52.052 60.7374 53.0217 59.7348 53.437C59.4021 53.5751 59.0535 53.6421 58.7087 53.6421ZM58.6603 33.5228C54.1174 33.8794 49.8806 35.6357 46.4072 38.6017C46.2261 38.7562 46.1923 38.9524 46.1881 39.0556C46.1839 39.1607 46.2031 39.3633 46.3764 39.5366L58.2589 51.4192C58.5318 51.6922 58.8375 51.607 58.9563 51.558C59.075 51.5088 59.3512 51.3527 59.3512 50.9669V34.1621C59.3512 33.9182 59.222 33.7624 59.1451 33.6913C59.0683 33.6203 58.9 33.5042 58.6603 33.5228Z" fill="#D58A9C"/>
<path d="M81.1734 55.9839H64.3686C63.2834 55.9839 62.3137 55.3361 61.8983 54.3333C61.4829 53.3305 61.7103 52.1868 62.4778 51.4192L74.3606 39.5366C74.8868 39.0104 75.6121 38.7245 76.3597 38.7542C77.1003 38.7833 77.8004 39.1224 78.2806 39.6846C81.5275 43.4867 83.4502 48.1255 83.8406 53.0994C83.8988 53.8403 83.6425 54.5784 83.1379 55.1243C82.6329 55.6709 81.9168 55.9839 81.1734 55.9839ZM76.2551 40.7863C76.1449 40.7863 75.9593 40.8145 75.7989 40.9749L63.9161 52.8575C63.6433 53.1303 63.7283 53.436 63.7775 53.5548C63.8267 53.6735 63.9828 53.9497 64.3686 53.9497H81.1734C81.4173 53.9497 81.573 53.8205 81.6442 53.7436C81.7154 53.6667 81.8318 53.5015 81.8127 53.2587C81.4561 48.7158 79.6998 44.4786 76.7338 41.0055C76.5793 40.8244 76.3831 40.7907 76.2799 40.7866C76.2722 40.7865 76.264 40.7863 76.2551 40.7863Z" fill="#D58A9C"/>
<path d="M62.0281 53.6421C61.6831 53.6421 61.3351 53.5751 61.0022 53.4372C59.9994 53.0218 59.3516 52.0521 59.3516 50.9669V34.1621C59.3516 33.4187 59.6648 32.7026 60.2109 32.1977C60.7568 31.693 61.4932 31.4363 62.2358 31.4951C67.2096 31.8856 71.8484 33.8082 75.6507 37.0549V37.055C76.2129 37.5351 76.5521 38.2352 76.5811 38.9756C76.6103 39.7199 76.3253 40.4485 75.7989 40.9751L63.9161 52.8577C63.4033 53.3704 62.7225 53.6421 62.0281 53.6421ZM62.0238 33.5208C61.8098 33.5208 61.6628 33.6255 61.5916 33.6913C61.5147 33.7625 61.3855 33.9182 61.3855 34.1621V50.9669C61.3855 51.3527 61.6618 51.5088 61.7804 51.558C61.8991 51.6072 62.2048 51.6923 62.4776 51.4192L74.3604 39.5366C74.5337 39.3633 74.5526 39.1607 74.5485 39.0554C74.5445 38.9523 74.5106 38.7562 74.3297 38.6015C70.8564 35.6355 66.6192 33.8793 62.0763 33.5227C62.0585 33.5215 62.0409 33.5208 62.0238 33.5208Z" fill="#D58A9C"/>
<path d="M56.3681 55.9839H39.5633C38.8199 55.9839 38.1039 55.6709 37.599 55.1246C37.0942 54.5787 36.8381 53.8407 36.8963 53.0998C37.2869 48.1259 39.2094 43.4869 42.4563 39.6849C42.9363 39.1227 43.6366 38.7836 44.377 38.7545C45.124 38.7253 45.8499 39.0105 46.3765 39.5369L58.2589 51.4196C59.0266 52.187 59.254 53.3307 58.8386 54.3335C58.4232 55.3359 57.4535 55.9839 56.3681 55.9839ZM44.0029 41.0058C41.0371 44.4789 39.2808 48.7161 38.9241 53.259C38.9051 53.5017 39.0213 53.6668 39.0925 53.7439C39.1638 53.8208 39.3195 53.95 39.5633 53.95H56.3681C56.7541 53.95 56.9103 53.6737 56.9594 53.555C57.0086 53.4362 57.0934 53.1307 56.8206 52.8577L44.9382 40.9751C44.7645 40.8014 44.5599 40.7828 44.4568 40.787C44.3536 40.791 44.1575 40.8248 44.0029 41.0058Z" fill="#D58A9C"/>
<path d="M76.2554 71.1816C75.5479 71.1816 74.8623 70.8989 74.3604 70.397L62.4778 58.5146C61.7103 57.7471 61.4829 56.6032 61.8983 55.6005C62.3138 54.5977 63.2834 53.9498 64.3686 53.9498H81.1734C81.9168 53.9498 82.6329 54.2631 83.1378 54.8092C83.6425 55.3551 83.8987 56.0931 83.8404 56.834C83.45 61.8081 81.5275 66.4469 78.2804 70.2489C77.8004 70.8111 77.1001 71.1503 76.3596 71.1794C76.325 71.1808 76.2902 71.1816 76.2554 71.1816ZM63.9161 57.0762L75.7987 68.9589C75.9724 69.1324 76.177 69.1519 76.2799 69.1472C76.3831 69.1431 76.5793 69.1092 76.7338 68.9281C79.6998 65.455 81.4561 61.218 81.8127 56.675C81.8316 56.4323 81.7154 56.267 81.6442 56.19C81.573 56.1131 81.4173 55.9839 81.1734 55.9839H64.3686C63.9828 55.9839 63.8266 56.2601 63.7775 56.3788C63.7283 56.4978 63.6433 56.8035 63.9161 57.0762Z" fill="#D58A9C"/>
<path d="M44.4813 71.1816C44.4465 71.1816 44.4118 71.1809 44.377 71.1796C43.6366 71.1505 42.9363 70.8114 42.4563 70.2492C39.2096 66.4471 37.2869 61.8083 36.8963 56.8344C36.8381 56.0935 37.0944 55.3554 37.5989 54.8095C38.1039 54.2633 38.8199 53.9502 39.5633 53.9502H56.3681C57.4535 53.9502 58.4232 54.5982 58.8384 55.6008C59.2538 56.6036 59.0264 57.7473 58.2588 58.5147L46.3763 70.3973C45.8746 70.8991 45.189 71.1816 44.4813 71.1816ZM38.9242 56.675C39.281 61.2179 41.0373 65.455 44.0031 68.9281C44.1576 69.1092 44.3538 69.143 44.4569 69.147C44.5601 69.1517 44.7645 69.1324 44.9383 68.9587L56.8208 57.0761C57.0936 56.8031 57.0087 56.4976 56.9595 56.3788C56.9103 56.2601 56.7543 55.9838 56.3683 55.9838H39.5635C39.3196 55.9838 39.1639 56.1129 39.0927 56.1899C39.0216 56.267 38.9052 56.4323 38.9242 56.675Z" fill="#D58A9C"/>
<path d="M62.0285 78.4469C61.3588 78.4469 60.7059 78.1936 60.2109 77.7361C59.6648 77.2312 59.3516 76.5153 59.3516 75.7717V58.9669C59.3516 57.8817 59.9994 56.912 61.0022 56.4966C62.0051 56.081 63.149 56.3088 63.9163 57.0762L75.7987 68.9589C76.3253 69.4854 76.6105 70.2143 76.5811 70.9585C76.5521 71.6989 76.2128 72.3989 75.6507 72.8791C71.8486 76.1259 67.2098 78.0485 62.2358 78.439C62.1665 78.4442 62.0975 78.4469 62.0285 78.4469ZM62.0389 58.3236C61.9279 58.3236 61.8348 58.3535 61.7807 58.3758C61.662 58.425 61.3858 58.5811 61.3858 58.9669V75.7717C61.3858 76.0156 61.515 76.1713 61.5919 76.2425C61.6689 76.3137 61.8357 76.4294 62.0767 76.411C66.6197 76.0544 70.8568 74.2981 74.33 71.3321C74.5109 71.1776 74.5448 70.9815 74.5489 70.8784C74.5531 70.7731 74.5341 70.5705 74.3607 70.397L62.4783 58.5146C62.3295 58.3661 62.1713 58.3236 62.0389 58.3236Z" fill="#D58A9C"/>
<path d="M58.7087 78.4469C58.6395 78.4471 58.5704 78.4442 58.5011 78.4388C53.527 78.0483 48.8884 76.1258 45.0862 72.8789C44.524 72.3989 44.1849 71.6988 44.1559 70.9582C44.1266 70.2139 44.4117 69.4853 44.9383 68.9589L56.8207 57.0762C57.5881 56.3088 58.7318 56.0815 59.7348 56.4966C60.7374 56.912 61.3853 57.8817 61.3853 58.9669V75.7717C61.3853 76.5151 61.072 77.2312 60.5259 77.7361C60.0311 78.1936 59.3782 78.4469 58.7087 78.4469ZM58.6979 58.3236C58.5656 58.3236 58.4073 58.3661 58.2588 58.5146L46.3764 70.3972C46.2031 70.5705 46.1841 70.7731 46.1881 70.8782C46.1923 70.9814 46.2261 71.1776 46.4071 71.3321C49.8802 74.2981 54.1174 76.0544 58.6603 76.411C58.9001 76.4294 59.0683 76.3135 59.1451 76.2425C59.222 76.1713 59.3511 76.0156 59.3511 75.7717V58.9669C59.3511 58.5811 59.0748 58.425 58.9562 58.3758C58.9022 58.3533 58.8091 58.3236 58.6979 58.3236Z" fill="#D58A9C"/>
<path d="M26.9497 65.5405C26.388 65.5405 25.9326 65.0852 25.9326 64.5235V62.703C25.9326 62.1414 26.388 61.686 26.9497 61.686C27.5114 61.686 27.9667 62.1414 27.9667 62.703V64.5235C27.9667 65.0852 27.5114 65.5405 26.9497 65.5405Z" fill="#BE545E"/>
<path d="M21.6787 59.8049C21.117 59.8049 20.6616 59.3495 20.6616 58.7878V56.9674C20.6616 56.4057 21.117 55.9503 21.6787 55.9503C22.2404 55.9503 22.6957 56.4057 22.6957 56.9674V58.7877C22.6957 59.3495 22.2404 59.8049 21.6787 59.8049Z" fill="#BE545E"/>
<path d="M26.3706 55.6577C25.8089 55.6577 25.3535 55.2024 25.3535 54.6407V52.8204C25.3535 52.2587 25.8089 51.8034 26.3706 51.8034C26.9323 51.8034 27.3876 52.2587 27.3876 52.8204V54.6407C27.3876 55.2024 26.9321 55.6577 26.3706 55.6577Z" fill="#BE545E"/>
<path d="M24.2119 0.437517L25.6803 4.56652C25.7431 4.74323 25.8676 4.88331 26.0246 4.9542L29.6932 6.60701C30.2116 6.84049 30.2116 7.66622 29.6932 7.89986L26.0246 9.55268C25.8676 9.62339 25.7431 9.76348 25.6803 9.94035L24.2119 14.0694C24.0044 14.6527 23.2708 14.6527 23.0633 14.0694L21.5949 9.94035C21.5321 9.76365 21.4077 9.62339 21.2506 9.55268L17.582 7.89986C17.0638 7.66639 17.0638 6.84065 17.582 6.60701L21.2506 4.9542C21.4077 4.88348 21.5321 4.7434 21.5949 4.56652L23.0633 0.437517C23.2708 -0.145839 24.0044 -0.145839 24.2119 0.437517Z" fill="#FFDCB6"/>
<path d="M7.48708 17.4433L8.57636 20.5063C8.62305 20.6374 8.71527 20.7412 8.83184 20.7938L11.5531 22.0198C11.9376 22.193 11.9376 22.8056 11.5531 22.9788L8.83184 24.2048C8.71527 24.2572 8.62305 24.3611 8.57636 24.4923L7.48708 27.5552C7.33322 27.9879 6.789 27.9879 6.63514 27.5552L5.54586 24.4923C5.49917 24.3611 5.40695 24.2573 5.29038 24.2048L2.56912 22.9788C2.18464 22.8056 2.18464 22.193 2.56912 22.0198L5.29038 20.7938C5.40695 20.7414 5.49917 20.6374 5.54586 20.5063L6.63514 17.4433C6.789 17.0107 7.33322 17.0107 7.48708 17.4433Z" fill="#FFDCB6"/>
<path d="M11.8418 4.92984C11.8418 5.97377 10.9955 6.82016 9.95152 6.82016C8.9076 6.82016 8.06104 5.97377 8.06104 4.92984C8.06104 3.88575 8.90743 3.03935 9.95152 3.03935C10.9956 3.03935 11.8418 3.88575 11.8418 4.92984Z" fill="#FFC7B6"/>
</svg>
