<svg width="113" height="113" viewBox="0 0 113 113" fill="none" xmlns="http://www.w3.org/2000/svg">
<g clip-path="url(#clip0)">
<path d="M105.853 111.974H5.3644C2.40169 111.974 0 109.573 0 106.61C0 103.648 2.40169 101.246 5.3644 101.246H105.853C108.816 101.246 111.218 103.648 111.218 106.61C111.218 109.573 108.816 111.974 105.853 111.974Z" fill="#D49C8D"/>
<path d="M40.1056 101.246H25.4476C21.8895 101.246 18.9545 98.4597 18.7692 94.9065L17.313 66.9565C17.1541 63.905 19.5855 61.3435 22.6411 61.3435H42.9117C45.9672 61.3435 48.3989 63.9048 48.2397 66.9565L46.7835 94.9065C46.5987 98.4597 43.6637 101.246 40.1056 101.246V101.246Z" fill="#B2E7F1"/>
<path d="M18.5244 90.207L18.7691 94.9065C18.9544 98.4597 21.8894 101.246 25.4475 101.246H40.1055C43.6636 101.246 46.5986 98.4597 46.7838 94.9065L47.0286 90.207H18.5244Z" fill="#FFE266"/>
<path d="M30.4859 34.3253C31.9089 50.0839 26.5937 63.4428 26.5937 63.4428C26.5937 63.4428 18.9713 51.2521 17.5482 35.4935C16.4419 23.242 19.4083 12.4409 20.7836 8.24018C21.0283 7.49275 22.046 7.40081 22.4207 8.0922C24.5262 11.9789 29.3796 22.0737 30.4859 34.3253Z" fill="#78EAC4"/>
<path d="M48.0055 35.4935C49.1117 23.242 46.1454 12.4409 44.7701 8.24018C44.5254 7.49275 43.5076 7.40081 43.133 8.0922C41.0275 11.9787 36.174 22.0737 35.0678 34.325C33.6447 50.0836 38.96 63.4426 38.96 63.4426C38.96 63.4426 46.5824 51.2521 48.0055 35.4935V35.4935Z" fill="#78EAC4"/>
<path d="M38.1072 41.8263C38.1072 52.9235 35.4853 62.5472 33.9193 67.3055C33.5568 68.4072 31.9972 68.4072 31.6347 67.3055C30.0687 62.5472 27.4468 52.9235 27.4468 41.8263C27.4468 30.729 30.0687 21.1053 31.6347 16.347C31.9972 15.2453 33.5568 15.2453 33.9193 16.347C35.4853 21.1053 38.1072 30.729 38.1072 41.8263V41.8263Z" fill="#78EAC4"/>
<path d="M44.7698 8.24017C44.525 7.49275 43.5073 7.40081 43.1327 8.09243C42.8834 8.55259 42.5957 9.09967 42.2803 9.72725C43.3831 13.5742 44.9187 20.6562 44.2067 28.5416C43.1386 40.3694 37.4174 49.5192 37.4174 49.5192C37.4174 49.5192 38.2511 47.3361 37.4451 43.9078C36.7862 47.5017 35.6614 50.3082 34.2974 52.0919C33.7686 52.7833 32.4034 53.456 31.2546 52.0919C30.1858 50.823 28.1391 47.6065 27.4804 44.0125C26.6744 47.4406 28.1361 49.5192 28.1361 49.5192C28.1361 49.5192 22.4149 40.3694 21.3469 28.5416C20.6347 20.6559 22.1702 13.5742 23.2733 9.72725C22.9579 9.09967 22.67 8.55259 22.4209 8.09243C22.0463 7.40104 21.0285 7.49275 20.7836 8.24017C19.4083 12.4409 16.4419 23.2422 17.5482 35.4935C18.9713 51.2521 26.5937 63.4428 26.5937 63.4428C26.5937 63.4428 30.7997 64.7686 31.6345 67.3055C31.997 68.407 33.5566 68.407 33.9191 67.3055C34.7539 64.7686 38.9598 63.4428 38.9598 63.4428C38.9598 63.4428 46.5823 51.2521 48.0053 35.4935C49.1114 23.2422 46.1448 12.4409 44.7698 8.24017V8.24017Z" fill="#71AFC4"/>
<path d="M32.7766 69.5039C31.6447 69.5039 30.6846 68.8093 30.331 67.7346C28.7412 62.9042 26.0742 53.1152 26.0742 41.8263C26.0742 36.7647 26.6094 31.4899 27.6649 26.1482C27.8117 25.4044 28.5333 24.92 29.2771 25.068C30.0206 25.2148 30.5041 25.9366 30.3573 26.6802C29.3363 31.847 28.8187 36.9428 28.8187 41.8263C28.8187 52.3597 31.2261 61.5532 32.7768 66.3804C34.3275 61.5532 36.7349 52.3595 36.7349 41.8263C36.7349 37.0261 36.2342 32.0169 35.2469 26.9379C35.1023 26.1941 35.5881 25.4737 36.3321 25.3292C37.0768 25.1839 37.7963 25.6702 37.9411 26.4144C38.9618 31.6654 39.4796 36.8507 39.4796 41.8263C39.4796 53.1152 36.8126 62.9042 35.2229 67.7346C34.8686 68.8093 33.9085 69.5039 32.7766 69.5039V69.5039Z" fill="#518699"/>
<path d="M42.9115 61.3437H35.3439C37.4966 61.3437 39.2094 63.4767 39.0973 66.0176L38.0715 89.2921C37.9412 92.2509 35.8734 94.571 33.367 94.571H23.0409C20.9427 94.571 19.1531 92.9448 18.5488 90.6795L18.7691 94.9065C18.9543 98.4597 21.8894 101.246 25.4474 101.246H40.1055C43.6635 101.246 46.5985 98.4597 46.7838 94.9065L48.24 66.9565C48.3987 63.905 45.9673 61.3437 42.9115 61.3437V61.3437Z" fill="#A7ADF1"/>
<path d="M37.9661 90.207C37.498 92.7152 35.6088 94.5712 33.3675 94.5712H23.0414C20.9432 94.5712 19.1536 92.9451 18.5493 90.6797L18.7696 94.9067C18.9548 98.46 21.8899 101.246 25.4479 101.246H40.1059C43.664 101.246 46.599 98.46 46.7843 94.9067L47.029 90.2072H37.9661V90.207Z" fill="#EFAA66"/>
<path d="M47.4203 70.402H17.3859C15.3945 70.402 13.7803 68.7875 13.7803 66.7962V63.0874C13.7803 61.096 15.3945 59.4816 17.3859 59.4816H47.4203C49.4117 59.4816 51.0262 61.096 51.0262 63.0874V66.7962C51.026 68.7875 49.4117 70.402 47.4203 70.402Z" fill="#8BB6EF"/>
<path d="M97.2001 52.6879C95.1571 52.7607 93.5675 54.5016 93.5675 56.5461V60.9162H87.4413V51.7857C87.4413 47.818 84.2249 44.6014 80.2573 44.6014C76.2896 44.6014 73.0732 47.8178 73.0732 51.7857V86.293H87.4415V69.1471H94.905C98.3309 69.1471 101.108 66.3699 101.108 62.944V56.4557C101.108 54.3278 99.345 52.6116 97.2001 52.6879V52.6879Z" fill="#BDF4E3"/>
<path d="M68.6906 78.1036C67.145 80.457 66.2432 83.2711 66.2432 86.2972C66.2432 94.5531 72.9359 101.246 81.1921 101.246C89.4481 101.246 96.1411 94.5531 96.1411 86.2972C96.1411 83.2711 95.2393 80.457 93.6936 78.1036H68.6906Z" fill="#FFE266"/>
<path d="M93.6932 78.1036H86.3047C87.4343 79.8235 88.0934 81.8801 88.0934 84.0917C88.0934 90.1255 83.202 95.017 77.1682 95.017C71.4754 95.017 66.8017 90.6621 66.2914 85.1024C66.2601 85.4967 66.2432 85.8949 66.2432 86.2972C66.2432 94.5531 72.9359 101.246 81.1921 101.246C89.4481 101.246 96.1411 94.5534 96.1411 86.2972C96.1406 83.2709 95.2388 80.457 93.6932 78.1036V78.1036Z" fill="#EFAA66"/>
<path d="M95.3221 87.4576C93.7834 87.4576 92.9415 86.688 92.3843 86.1785C91.9212 85.7549 91.7533 85.6211 91.3051 85.6211C90.857 85.6211 90.6891 85.7549 90.226 86.1785C89.6689 86.6878 88.8272 87.4576 87.288 87.4576C85.749 87.4576 84.9073 86.6878 84.3502 86.1785C83.8875 85.7549 83.7194 85.6211 83.2716 85.6211C82.8238 85.6211 82.6559 85.7549 82.193 86.1785C81.6359 86.6878 80.7942 87.4576 79.2552 87.4576C77.7165 87.4576 76.8753 86.6878 76.3184 86.1782C75.8557 85.7549 75.6878 85.6211 75.2405 85.6211C74.7926 85.6211 74.625 85.7549 74.1621 86.1785C73.6052 86.6878 72.7633 87.4576 71.2243 87.4576C69.6855 87.4576 68.8439 86.6878 68.287 86.1782C67.8243 85.7549 67.6564 85.6211 67.2088 85.6211C66.4481 85.6211 65.8315 85.0045 65.8315 84.2438C65.8315 83.4831 66.4481 82.8665 67.2088 82.8665C68.7476 82.8665 69.5893 83.6364 70.1462 84.1459C70.6088 84.5693 70.7767 84.7031 71.2243 84.7031C71.6721 84.7031 71.84 84.5693 72.3029 84.1459C72.86 83.6366 73.7017 82.8667 75.2405 82.8667C76.7792 82.8667 77.6206 83.6366 78.1776 84.1461C78.6402 84.5695 78.8079 84.7033 79.2552 84.7033C79.703 84.7033 79.8709 84.5695 80.3338 84.1461C80.8907 83.6368 81.7326 82.867 83.2716 82.867C84.8106 82.867 85.6523 83.6368 86.2094 84.1461C86.6721 84.5697 86.8402 84.7033 87.288 84.7033C87.7363 84.7033 87.9039 84.5695 88.3673 84.1461C88.9244 83.6366 89.7661 82.867 91.3051 82.867C92.844 82.867 93.6859 83.6368 94.2431 84.1461C94.7062 84.5697 94.8741 84.7033 95.3221 84.7033C96.0828 84.7033 96.6994 85.3199 96.6994 86.0806C96.6996 86.841 96.0828 87.4576 95.3221 87.4576V87.4576Z" fill="#D0844B"/>
<path d="M95.3221 94.7809C93.7834 94.7809 92.9415 94.0111 92.3843 93.5017C91.9212 93.0782 91.7531 92.9441 91.3051 92.9441C90.857 92.9441 90.6894 93.0779 90.2262 93.5015C89.6689 94.0111 88.8272 94.7809 87.288 94.7809C85.749 94.7809 84.9073 94.0111 84.3502 93.5015C83.8873 93.0779 83.7194 92.9441 83.2716 92.9441C82.8238 92.9441 82.6562 93.0779 82.193 93.5015C81.6359 94.0111 80.7942 94.7809 79.2552 94.7809C77.7165 94.7809 76.8753 94.0109 76.3181 93.5013C75.8555 93.0782 75.6878 92.9441 75.2405 92.9441C74.7929 92.9441 74.625 93.0779 74.1621 93.5015C73.6052 94.0111 72.7633 94.7809 71.2243 94.7809C69.6855 94.7809 68.8439 94.0111 68.287 93.5015C67.8243 93.0779 67.6564 92.9441 67.2088 92.9441C66.4481 92.9441 65.8315 92.3275 65.8315 91.5669C65.8315 90.8062 66.4481 90.1896 67.2088 90.1896C68.7478 90.1896 69.5893 90.9594 70.1462 91.469C70.6088 91.8925 70.7767 92.0261 71.2243 92.0261C71.6721 92.0261 71.8398 91.8923 72.3029 91.469C72.86 90.9594 73.7015 90.1896 75.2405 90.1896C76.7794 90.1896 77.6206 90.9596 78.1778 91.4692C78.6402 91.8925 78.8081 92.0263 79.2552 92.0263C79.703 92.0263 79.8707 91.8925 80.3338 91.4692C80.8907 90.9596 81.7326 90.1898 83.2716 90.1898C84.8106 90.1898 85.6523 90.9596 86.2094 91.4692C86.6723 91.8928 86.8402 92.0263 87.288 92.0263C87.736 92.0263 87.9039 91.8925 88.3673 91.4687C88.9244 90.9594 89.7661 90.1896 91.3051 90.1896C92.844 90.1896 93.6859 90.9594 94.2433 91.469C94.7062 91.8925 94.8741 92.0261 95.3221 92.0261C96.0828 92.0261 96.6994 92.6427 96.6994 93.4034C96.6994 94.1641 96.0828 94.7809 95.3221 94.7809V94.7809Z" fill="#D0844B"/>
<path d="M73.0732 69.8776H87.4266V78.1034H73.0732V69.8776Z" fill="#B1B7E3"/>
<path d="M26.44 85.8057C25.2244 85.8057 24.2124 84.8485 24.1571 83.6215L23.9203 78.3717C23.8634 77.1099 24.8402 76.0409 26.102 75.9839C27.3647 75.924 28.433 76.9038 28.4897 78.1658L28.7265 83.4156C28.7834 84.6774 27.8066 85.7464 26.5448 85.8034C26.5098 85.805 26.4748 85.8057 26.44 85.8057Z" fill="white"/>
<path d="M80.2145 58.6232C78.9468 58.6232 77.9189 57.5954 77.9189 56.3276V52.9846C77.9189 51.7169 78.9468 50.689 80.2145 50.689C81.4822 50.689 82.5101 51.7169 82.5101 52.9846V56.3276C82.5101 57.5954 81.4822 58.6232 80.2145 58.6232Z" fill="white"/>
<path d="M81.266 77.3765C80.5053 77.3765 79.8887 76.7599 79.8887 75.9992V73.3984C79.8887 72.6377 80.5053 72.0211 81.266 72.0211C82.0267 72.0211 82.6433 72.6377 82.6433 73.3984V75.9992C82.6435 76.7599 82.0267 77.3765 81.266 77.3765Z" fill="#90E0C5"/>
<path d="M78.9139 68.4712C78.1532 68.4712 77.5366 67.8546 77.5366 67.094V64.4931C77.5366 63.7324 78.1532 63.1158 78.9139 63.1158C79.6746 63.1158 80.2912 63.7324 80.2912 64.4931V67.094C80.2912 67.8546 79.6746 68.4712 78.9139 68.4712Z" fill="#90E0C5"/>
<path d="M80.2142 44.5255C79.4535 44.5255 78.8369 43.9089 78.8369 43.148V40.5471C78.8369 39.7864 79.4535 39.1696 80.2142 39.1696C80.9749 39.1696 81.5915 39.7862 81.5915 40.5471V43.148C81.5915 43.9087 80.9749 44.5255 80.2142 44.5255Z" fill="#90E0C5"/>
<path d="M74.5836 46.4702C74.1516 46.4702 73.7264 46.2676 73.4581 45.8882L71.9562 43.7648C71.5168 43.1439 71.6641 42.2841 72.2853 41.845C72.9058 41.4054 73.7662 41.5532 74.2048 42.1739L75.7068 44.2972C76.1461 44.9182 75.9988 45.7779 75.3777 46.217C75.1364 46.3881 74.8587 46.4702 74.5836 46.4702V46.4702Z" fill="#90E0C5"/>
<path d="M85.7714 46.4702C85.4963 46.4702 85.2186 46.3884 84.9771 46.2173C84.3559 45.7782 84.2088 44.9184 84.648 44.2975L86.1499 42.1742C86.589 41.5527 87.4494 41.4057 88.0697 41.8453C88.6909 42.2844 88.8379 43.1441 88.3986 43.7651L86.8966 45.8884C86.6288 46.2678 86.2032 46.4702 85.7714 46.4702V46.4702Z" fill="#90E0C5"/>
<path d="M105.462 21.0871L107.348 26.3893C107.429 26.6164 107.588 26.7961 107.79 26.8872L112.501 29.0096C113.166 29.3094 113.166 30.3697 112.501 30.6696L107.79 32.792C107.588 32.8828 107.429 33.0628 107.348 33.2897L105.462 38.5919C105.196 39.3409 104.254 39.3409 103.987 38.5919L102.101 33.2897C102.021 33.0626 101.861 32.8828 101.659 32.792L96.9484 30.6696C96.2828 30.3697 96.2828 29.3094 96.9484 29.0096L101.659 26.8872C101.861 26.7964 102.021 26.6164 102.101 26.3893L103.987 21.0871C104.254 20.338 105.196 20.338 105.462 21.0871V21.0871Z" fill="#BDF4E3"/>
<path d="M63.6352 1.44064L65.0288 5.35913C65.0884 5.52701 65.2065 5.65989 65.3556 5.72713L68.837 7.29562C69.329 7.51724 69.329 8.3008 68.837 8.52242L65.3556 10.0909C65.2065 10.1582 65.0884 10.291 65.0288 10.4589L63.6352 14.3774C63.4383 14.9311 62.7421 14.9311 62.5452 14.3774L61.1517 10.4589C61.092 10.291 60.9739 10.1582 60.8248 10.0909L57.3434 8.52242C56.8517 8.3008 56.8517 7.51724 57.3434 7.29562L60.8248 5.72713C60.9739 5.65989 61.092 5.52701 61.1517 5.35913L62.5452 1.44064C62.7421 0.886933 63.4383 0.886933 63.6352 1.44064V1.44064Z" fill="#BDF4E3"/>
<path d="M95.749 11.6595C96.2701 9.45495 94.9055 7.2454 92.701 6.7243C90.4965 6.20319 88.2869 7.56786 87.7658 9.77236C87.2447 11.9769 88.6094 14.1864 90.8139 14.7075C93.0184 15.2286 95.2279 13.864 95.749 11.6595Z" fill="#78EAC4"/>
<path d="M70.04 33.3444C71.0173 33.3444 71.8096 32.5521 71.8096 31.5748C71.8096 30.5975 71.0173 29.8053 70.04 29.8053C69.0628 29.8053 68.2705 30.5975 68.2705 31.5748C68.2705 32.5521 69.0628 33.3444 70.04 33.3444Z" fill="#78EAC4"/>
</g>
<defs>
<clipPath id="clip0">
<rect width="113" height="113" fill="white"/>
</clipPath>
</defs>
</svg>
