<svg width="156" height="156" viewBox="0 0 156 156" fill="none" xmlns="http://www.w3.org/2000/svg">
<g clip-path="url(#clip0)">
<path d="M119.23 35.7825H42.3433V18.144C42.3433 14.0347 45.6744 10.7036 49.7837 10.7036H111.79C115.899 10.7036 119.23 14.0347 119.23 18.144V35.7825H119.23Z" fill="#E7EFFA"/>
<path d="M112.012 10.7036H93.0571C97.0502 10.7036 100.288 14.1524 100.288 18.4068V35.7825H119.242V18.4068C119.242 14.1524 116.005 10.7036 112.012 10.7036Z" fill="#C9AEEB"/>
<path d="M119.242 28.1761L102.224 56.989L94.4404 152.881H127.929C132.186 152.881 135.638 149.43 135.638 145.172V56.989L119.242 28.1761Z" fill="#A7ADF1"/>
<path d="M112.408 34.6214L100.287 28.1761H42.3434L22.2476 56.989V145.172C22.2476 149.43 25.6992 152.882 29.9572 152.882L93.0567 150.916C97.3144 150.916 100.156 148.729 100.156 144.471L100.586 57.446L112.408 34.6214Z" fill="#E7EFFA"/>
<path d="M102.15 117.422V81.8247C101.523 82.5509 88.258 97.7802 78.2929 97.7802C72.4644 97.7802 67.2027 94.6157 61.0739 91.8995V97.3752C61.0739 99.5867 59.2813 101.379 57.0698 101.379C54.8582 101.379 53.0656 99.5867 53.0656 97.3752V89.0534C50.9131 88.5198 48.6275 88.1624 46.1661 88.0859V102.303C46.1661 104.515 44.3735 106.308 42.1619 106.308C39.9504 106.308 38.1578 104.515 38.1578 102.303V89.1963C29.9438 91.8798 24.1267 99.036 22.248 101.603V141.141C24.6083 137.91 33.2098 126.798 45.4267 126.798C59.868 126.798 68.0847 134.268 78.2932 134.268C88.258 134.268 101.523 118.189 102.15 117.422Z" fill="#96B4EB"/>
<path d="M100.287 28.1761L86.78 56.804V128.66C86.78 132.317 83.9923 135.282 80.5536 135.282H28.4745C25.0358 135.282 22.248 132.318 22.248 128.66V145.172C22.248 149.43 25.6996 152.882 29.9577 152.882H94.4405C98.6982 152.882 102.15 149.43 102.15 145.172V56.9887L119.242 28.1761H100.287Z" fill="#C9AEEB"/>
<path d="M22.2476 141.635C22.7593 140.825 24.6364 137.965 27.3971 135.183C25.0633 134.754 22.4486 132.761 22.2476 128.66V141.635Z" fill="#8388EF"/>
<path d="M102.15 117.422V81.8247C101.692 82.3545 94.5048 90.6069 86.7796 95.0299V128.66C86.7796 129.796 86.51 130.865 86.0361 131.799C94.0377 127.259 101.678 117.999 102.15 117.422Z" fill="#8388EF"/>
<path d="M134.716 59.2896H23.238C22.2198 59.2896 21.394 58.4638 21.394 57.4456C21.394 56.4272 22.2198 55.6017 23.238 55.6017H134.716C135.734 55.6017 136.56 56.4272 136.56 57.4456C136.56 58.4641 135.734 59.2896 134.716 59.2896Z" fill="#AD99C9"/>
<path d="M82.0842 120.782C81.0657 120.782 80.2402 119.957 80.2402 118.938V115.019C80.2402 114 81.0657 113.175 82.0842 113.175C83.1027 113.175 83.9282 114 83.9282 115.019V118.938C83.9282 119.957 83.1027 120.782 82.0842 120.782Z" fill="#6280CC"/>
<path d="M89.3112 112.421C88.2928 112.421 87.4673 111.595 87.4673 110.577V106.657C87.4673 105.638 88.2928 104.813 89.3112 104.813C90.3297 104.813 91.1552 105.638 91.1552 106.657V110.577C91.1552 111.595 90.3297 112.421 89.3112 112.421Z" fill="#6280CC"/>
<path d="M73.4894 43.3593C73.4894 48.2778 66.6433 52.265 58.1983 52.265C49.7532 52.265 42.9072 48.2778 42.9072 43.3593L42.9088 34.6521L73.5047 34.7212L73.4894 43.3593Z" fill="#C1E5EF"/>
<path d="M73.4894 43.3593C73.4894 48.2778 66.6433 52.265 58.1983 52.265C49.7532 52.265 42.9072 48.2778 42.9072 43.3593L42.9088 34.6521L73.5047 34.7212L73.4894 43.3593Z" fill="#A7ADF1"/>
<path d="M58.1983 43.5271C66.6433 43.5271 73.4894 39.5399 73.4894 34.6214C73.4894 29.7029 66.6433 25.7156 58.1983 25.7156C49.7533 25.7156 42.9072 29.7029 42.9072 34.6214C42.9072 39.5399 49.7533 43.5271 58.1983 43.5271Z" fill="#C1E5EF"/>
<path d="M40.9563 81.6065C40.0264 81.6065 39.204 81.0155 38.9077 80.1332C38.9006 80.1117 38.8936 80.0901 38.8874 80.0683L36.6992 72.651L35.3762 79.9807C35.1952 80.9829 34.2369 81.648 33.2341 81.4679C32.2316 81.2869 31.5659 80.3277 31.747 79.3258L34.2145 65.6531C34.4044 64.6678 35.2179 63.9493 36.1968 63.8842C37.182 63.8178 38.077 64.4229 38.3892 65.3523C38.3963 65.3738 38.4034 65.3959 38.4098 65.4177L40.9311 73.9639L43.3618 65.4362C43.3682 65.4146 43.3747 65.3928 43.3815 65.3713C43.6848 64.4389 44.5776 63.8239 45.5592 63.882C46.5383 63.9376 47.3583 64.6473 47.5543 65.6076L50.1728 79.3071C50.3639 80.3074 49.7078 81.2734 48.7074 81.4645C47.7108 81.6544 46.7418 80.9998 46.55 79.9995L45.1434 72.6387L43.0311 80.0493C43.025 80.0708 43.0182 80.0923 43.0114 80.1138C42.7225 81.0026 41.9008 81.6025 40.9662 81.6068C40.9634 81.6065 40.9597 81.6065 40.9563 81.6065Z" fill="#AD99C9"/>
<path d="M69.0058 81.6077C67.4486 81.6077 67.3518 81.5911 67.2197 81.5684C66.3342 81.4169 65.687 80.6492 65.687 79.7509V65.7223C65.687 64.7041 66.5125 63.8783 67.531 63.8783C68.5492 63.8783 69.3749 64.7041 69.3749 65.7223V77.9183C70.3289 77.9167 71.502 77.9121 72.4372 77.9069H72.4476C73.4612 77.9069 74.2854 78.7256 74.2913 79.7404C74.2968 80.7589 73.4759 81.589 72.4574 81.5948C70.8532 81.6037 69.7588 81.6077 69.0058 81.6077Z" fill="#AD99C9"/>
<path d="M82.031 81.6068C81.0128 81.6068 80.187 80.7813 80.187 79.7628V65.7226C80.187 64.7044 81.0128 63.8786 82.031 63.8786C83.0495 63.8786 83.8749 64.7044 83.8749 65.7226V79.7628C83.8749 80.781 83.0491 81.6068 82.031 81.6068Z" fill="#AD99C9"/>
<path d="M90.0819 81.6068C89.6213 81.6068 89.1596 81.435 88.8019 81.0899L81.2005 73.7558C80.8348 73.403 80.631 72.9147 80.6368 72.4066C80.643 71.8983 80.8587 71.4152 81.2327 71.0713L88.336 64.5418C89.0856 63.8522 90.2525 63.902 90.9412 64.6515C91.6306 65.4014 91.5814 66.5677 90.8318 67.2571L85.1699 72.4613L91.3623 78.4358C92.0952 79.1429 92.1161 80.3102 91.409 81.0432C91.0472 81.4181 90.5651 81.6068 90.0819 81.6068Z" fill="#AD99C9"/>
<path d="M57.946 81.6068C56.9278 81.6068 56.1021 80.7813 56.1021 79.7628V65.7226C56.1021 64.7044 56.9278 63.8786 57.946 63.8786C58.9645 63.8786 59.79 64.7044 59.79 65.7226V79.7628C59.79 80.781 58.9645 81.6068 57.946 81.6068Z" fill="#AD99C9"/>
<path d="M145.552 7.75483L148.166 15.1043C148.277 15.419 148.499 15.6682 148.779 15.7942L155.308 18.7359C156.231 19.1514 156.231 20.6214 155.308 21.0369L148.779 23.9786C148.499 24.1046 148.278 24.3539 148.166 24.6686L145.552 32.018C145.182 33.0565 143.877 33.0565 143.507 32.018L140.894 24.6686C140.782 24.3539 140.56 24.1046 140.281 23.9786L133.751 21.0369C132.828 20.6214 132.828 19.1514 133.751 18.7359L140.281 15.7942C140.56 15.6682 140.782 15.419 140.894 15.1043L143.507 7.75483C143.877 6.71667 145.182 6.71667 145.552 7.75483Z" fill="#C1E5EF"/>
<path d="M27.3522 11.0118C28.5594 8.09939 27.1769 4.75977 24.2644 3.55251C21.3518 2.34526 18.0121 3.72754 16.8049 6.63992C15.5978 9.5523 16.9802 12.8919 19.8928 14.0992C22.8053 15.3064 26.145 13.9242 27.3522 11.0118Z" fill="#96B4EB"/>
<path d="M154.763 48.1017C154.763 49.4613 153.661 50.5637 152.301 50.5637C150.941 50.5637 149.839 49.4613 149.839 48.1017C149.839 46.7421 150.941 45.6397 152.301 45.6397C153.66 45.6397 154.763 46.7421 154.763 48.1017Z" fill="#96B4EB"/>
<path d="M9.26692 27.3079L11.2058 32.7596C11.2888 32.9929 11.4532 33.1779 11.6607 33.2713L16.5042 35.4536C17.1883 35.7619 17.1883 36.8523 16.5042 37.1605L11.6607 39.3429C11.4532 39.4363 11.2888 39.6213 11.2058 39.8546L9.26692 45.3062C8.99309 46.0764 8.02439 46.0764 7.75057 45.3062L5.81164 39.8546C5.72866 39.621 5.56424 39.4363 5.35679 39.3429L0.513314 37.1605C-0.171105 36.8523 -0.171105 35.7619 0.513314 35.4536L5.35679 33.2713C5.56424 33.1779 5.72835 32.9929 5.81164 32.7596L7.75057 27.3079C8.02439 26.5378 8.99309 26.5378 9.26692 27.3079Z" fill="#C1E5EF"/>
</g>
<defs>
<clipPath id="clip0">
<rect width="156" height="156" fill="white"/>
</clipPath>
</defs>
</svg>
