<svg width="249" height="180" viewBox="0 0 249 180" fill="none" xmlns="http://www.w3.org/2000/svg">
<path d="M54.559 149.866H9.75775C5.29413 149.866 1.67529 146.247 1.67529 141.783V28.242H62.6409V141.783C62.6412 146.247 59.0226 149.866 54.559 149.866Z" fill="#FFE266"/>
<path d="M10.5032 63.1812C7.79804 63.1812 5.22257 63.7382 2.88579 64.743L1.67529 65.4064V99.6356L3.06455 100.289C5.3538 101.246 7.86676 101.775 10.5027 101.775C21.16 101.775 29.7993 93.1347 29.7993 82.4779C29.7999 71.8211 21.1605 63.1812 10.5032 63.1812V63.1812Z" fill="#B2E7F1"/>
<path d="M45.4963 28.242V121.458C45.4963 124.879 42.7225 127.653 39.3012 127.653H7.87036C4.44903 127.653 1.67529 124.879 1.67529 121.458V141.783C1.67529 146.247 5.29382 149.866 9.75775 149.866H54.5587C59.0223 149.866 62.6412 146.247 62.6412 141.783V28.242H45.4963Z" fill="#EFAA66"/>
<path d="M80.8599 59.4131H127.856V106.409H80.8599V59.4131Z" fill="#8BB6EF"/>
<path d="M98.5654 72.5914H110.151V106.409H98.5654V72.5914Z" fill="#EF8BBD"/>
<path d="M115.803 59.4131V89.4448C115.803 92.8352 113.368 95.6571 110.151 96.2571C110.151 96.2571 105.471 100.164 105.034 100.164L98.565 96.3748H80.8599V106.409H127.856V59.4131H115.803Z" fill="#8388EF"/>
<path d="M110.151 96.255C109.737 96.3321 109.31 96.3742 108.873 96.3742H98.5654V106.409H110.151V96.255Z" fill="#E068BD"/>
<path d="M128.59 72.5914H80.1267C79.0901 72.5914 78.2495 71.7511 78.2495 70.7142V59.8258C78.2495 58.7893 79.0898 57.9487 80.1267 57.9487H128.59C129.627 57.9487 130.468 58.7893 130.468 59.8258V70.7142C130.468 71.7508 129.627 72.5914 128.59 72.5914Z" fill="#8BB6EF"/>
<path d="M126.394 75.6021H83.0761C81.4136 75.6021 80.0654 74.2539 80.0654 72.5914C80.0654 70.9289 81.4136 69.5807 83.0761 69.5807H126.394C128.057 69.5807 129.405 70.9289 129.405 72.5914C129.405 74.2539 128.057 75.6021 126.394 75.6021Z" fill="#6280CC"/>
<path d="M127.083 146.537L120.286 149.72H105.034L94.8327 145.417L88.907 149.72H74.8117C69.5258 149.72 65.2407 145.434 65.2407 140.149V126.053L69.064 119.728C69.064 118.118 65.6381 112.359 66.3405 111.027C67.944 107.988 71.1359 105.915 74.8117 105.915H76.482L86.9898 109.885L92.6087 105.915H107.861L119.881 109.405L123.988 105.915H133.904C139.19 105.915 143.475 110.2 143.475 115.486V125.402L139.887 131.652C139.887 132.09 143.445 141.018 143.388 141.44C142.858 145.37 139.942 148.544 136.146 149.455C135.427 149.628 127.856 146.537 127.083 146.537V146.537Z" fill="#78EAC4"/>
<path d="M133.905 105.915H123.061C127.266 105.915 130.675 109.324 130.675 113.529V131.448C130.675 135.653 127.266 139.062 123.061 139.062H72.8555C68.6502 139.062 65.2412 135.653 65.2412 131.448V140.148C65.2412 145.434 69.5263 149.719 74.8122 149.719H88.9075L94.2729 146.297L105.034 149.719H120.287L124.763 144.391C125.535 144.391 135.428 149.628 136.147 149.455C139.943 148.544 142.859 145.37 143.389 141.44C143.446 141.018 140.288 130.249 140.288 129.811L143.475 125.402V115.486C143.475 110.2 139.19 105.915 133.905 105.915V105.915Z" fill="#71AFC4"/>
<path d="M61.3058 46.9522H3.01068C1.34788 46.9522 0 45.604 0 43.9415C0 42.2787 1.34788 40.9308 3.01068 40.9308H61.3058C62.9686 40.9308 64.3165 42.2787 64.3165 43.9415C64.3165 45.604 62.9686 46.9522 61.3058 46.9522Z" fill="#D0844B"/>
<path d="M123.989 105.915H107.862L143.386 141.44C143.443 141.017 143.475 140.586 143.475 140.148V125.402L123.989 105.915Z" fill="#F7C4DB"/>
<path d="M143.387 141.44C143.443 141.017 143.476 140.586 143.476 140.148V125.402L130.611 112.538C130.654 112.813 130.675 113.232 130.675 113.53V128.728L143.387 141.44Z" fill="#E893DB"/>
<path d="M92.6091 105.915H76.4824L120.287 149.719H133.904C134.677 149.719 135.427 149.625 136.146 149.452L92.6091 105.915Z" fill="#F7C4DB"/>
<path d="M125.392 138.697C124.657 138.933 123.874 139.062 123.061 139.062H109.63L120.287 149.719H133.905C134.677 149.719 135.427 149.625 136.147 149.452L125.392 138.697Z" fill="#E893DB"/>
<path d="M88.9075 149.719H105.034L66.3431 111.028C65.6407 112.36 65.2412 113.876 65.2412 115.486V126.053L88.9075 149.719Z" fill="#F7C4DB"/>
<path d="M88.908 149.719H105.034L94.3772 139.062H78.2505L88.908 149.719Z" fill="#E893DB"/>
<path d="M137.114 0.736787L139.587 7.69085C139.693 7.9886 139.903 8.22464 140.167 8.34356L146.346 11.1269C147.218 11.5201 147.218 12.9111 146.346 13.3042L140.167 16.0879C139.903 16.2071 139.693 16.4432 139.587 16.7406L137.114 23.6947C136.765 24.6771 135.529 24.6771 135.18 23.6947L132.707 16.7406C132.601 16.4429 132.391 16.2068 132.127 16.0879L125.949 13.3042C125.076 12.9111 125.076 11.5204 125.949 11.1269L132.127 8.34356C132.391 8.22434 132.601 7.9883 132.707 7.69085L135.18 0.736787C135.529 -0.245596 136.765 -0.245596 137.114 0.736787V0.736787Z" fill="#B2E7F1"/>
<path d="M83.7932 15.6484L85.6276 20.8065C85.7062 21.0275 85.8616 21.2024 86.0579 21.291L90.641 23.3557C91.2886 23.6474 91.2886 24.6789 90.641 24.9706L86.0579 27.0353C85.8616 27.1238 85.7062 27.2988 85.6276 27.5197L83.7932 32.6779C83.534 33.4068 82.6176 33.4068 82.3583 32.6779L80.5239 27.5197C80.4454 27.2988 80.29 27.1238 80.0937 27.0353L75.5109 24.9706C74.8636 24.6789 74.8636 23.6474 75.5109 23.3557L80.0937 21.291C80.29 21.2024 80.4454 21.0275 80.5239 20.8065L82.3583 15.6484C82.6176 14.9198 83.534 14.9198 83.7932 15.6484Z" fill="#B2E7F1"/>
<path d="M107.119 14.5483C109.875 13.4061 111.183 10.246 110.041 7.49021C108.898 4.73441 105.738 3.42639 102.983 4.56868C100.227 5.71097 98.9187 8.871 100.061 11.6268C101.203 14.3826 104.363 15.6906 107.119 14.5483Z" fill="#8BB6EF"/>
<path d="M72.6721 9.59118C73.9586 9.59118 75.0015 8.54829 75.0015 7.26182C75.0015 5.97535 73.9586 4.93246 72.6721 4.93246C71.3857 4.93246 70.3428 5.97535 70.3428 7.26182C70.3428 8.54829 71.3857 9.59118 72.6721 9.59118Z" fill="#8BB6EF"/>
<g clip-path="url(#clip0)">
<path d="M168.77 61.035C158.507 61.035 149.024 66.51 143.893 75.3977L108.378 136.911C97.3211 156.062 111.142 180 133.255 180H204.285C226.398 180 240.218 156.062 229.162 136.911L193.647 75.3977C188.516 66.51 179.033 61.035 168.77 61.035V61.035Z" fill="#B2E7F1"/>
<path d="M167.237 61.035H170.303C174.265 61.035 177.925 58.9216 179.906 55.4907L193.658 31.6711C198.911 22.5742 189.747 11.9527 179.978 15.8153L172.848 18.6351C170.228 19.6709 167.312 19.6709 164.693 18.6351L157.562 15.8153C147.793 11.9527 138.629 22.5739 143.882 31.6711L157.634 55.4907C159.615 58.9216 163.275 61.035 167.237 61.035V61.035Z" fill="#B2E7F1"/>
<path d="M229.162 136.911L193.647 75.3977C188.516 66.51 179.033 61.035 168.77 61.035C165.878 61.035 163.048 61.4701 160.36 62.2931C165.277 64.0965 169.514 67.7552 172.191 72.7249L199.159 122.792C207.555 138.379 197.061 157.862 180.269 157.862H126.332C116.518 157.862 108.857 151.206 105.86 142.563C100.068 160.459 113.276 180 133.255 180H204.285C226.398 180 240.219 156.062 229.162 136.911V136.911Z" fill="#A7ADF1"/>
<path d="M169.369 59.9058C168.204 62.5068 168.77 65.5567 170.79 67.567L192.643 89.3141C197.257 93.9061 205.073 90.085 204.284 83.6232L203.74 79.176C203.432 76.6523 204.546 74.1651 206.634 72.7142L210.313 70.158C215.66 66.4439 213.305 58.0685 206.807 57.6841L176.03 55.8639C173.186 55.6957 170.534 57.3048 169.369 59.9058V59.9058Z" fill="#EF8BBD"/>
<path d="M168.171 59.9058C169.335 62.5068 168.77 65.5567 166.75 67.567L144.897 89.3141C140.283 93.9061 132.467 90.085 133.256 83.6232L133.8 79.176C134.108 76.6523 132.994 74.1651 130.906 72.7142L127.226 70.158C121.88 66.4439 124.235 58.0685 130.733 57.6841L161.51 55.8639C164.354 55.6957 167.006 57.3048 168.171 59.9058V59.9058Z" fill="#EF8BBD"/>
<path d="M149.694 69.15C148.832 69.15 148.033 68.5982 147.757 67.7336C147.416 66.6637 148.006 65.52 149.076 65.1787L168.152 59.0975C169.22 58.7563 170.366 59.3466 170.707 60.4172C171.048 61.4871 170.457 62.6308 169.387 62.9721L150.312 69.0533C150.107 69.1187 149.898 69.15 149.694 69.15V69.15Z" fill="#B74A96"/>
<path d="M188.622 69.15C188.417 69.15 188.208 69.119 188.004 69.0533L168.928 62.9721C167.858 62.6309 167.267 61.4871 167.608 60.4172C167.95 59.3473 169.095 58.7563 170.163 59.0975L189.239 65.1787C190.309 65.52 190.899 66.6637 190.558 67.7336C190.283 68.5979 189.483 69.15 188.622 69.15Z" fill="#B74A96"/>
<path d="M166.556 48.5008C165.373 48.5008 164.223 47.8791 163.6 46.7744L160.642 41.5218C159.723 39.8911 160.301 37.8245 161.932 36.906C163.562 35.9872 165.629 36.565 166.548 38.1957L169.506 43.4483C170.425 45.079 169.847 47.1457 168.216 48.0641C167.691 48.36 167.12 48.5008 166.556 48.5008Z" fill="white"/>
<path d="M158.366 33.9579C157.181 33.9579 156.031 33.3356 155.41 32.2293L154.873 31.277C153.954 29.6463 154.531 27.58 156.162 26.6612C157.792 25.7421 159.86 26.3192 160.778 27.9502L161.317 28.9074C162.235 30.5387 161.656 32.6047 160.025 33.5219C159.499 33.8177 158.929 33.9579 158.366 33.9579V33.9579Z" fill="white"/>
<path d="M173.961 88.0483C164.713 85.4511 154.37 88.085 151.014 98.0469C147.658 108.009 157.299 123.627 167.024 126.562C176.749 129.496 189.014 123.447 191.59 112.769C194.167 102.09 183.208 90.6454 173.961 88.0483V88.0483Z" fill="#D49C8D"/>
<path d="M183.265 93.2838L191.97 109.446C191.938 103.42 188.138 97.4658 183.265 93.2838V93.2838Z" fill="#C7758D"/>
<path d="M168.769 100.542C168.769 102.801 166.938 104.632 164.679 104.632C162.42 104.632 160.588 102.801 160.588 100.542C160.588 98.2828 162.42 96.4513 164.679 96.4513C166.938 96.4513 168.769 98.2828 168.769 100.542Z" fill="#913C5D"/>
<path d="M183.094 104.441C183.456 102.211 181.941 100.11 179.712 99.7489C177.482 99.3875 175.381 100.902 175.02 103.132C174.658 105.362 176.173 107.462 178.403 107.824C180.632 108.185 182.733 106.671 183.094 104.441Z" fill="#913C5D"/>
<path d="M176.95 116.427C176.95 118.686 175.119 120.518 172.86 120.518C170.6 120.518 168.769 118.686 168.769 116.427C168.769 114.168 170.6 112.336 172.86 112.336C175.119 112.336 176.95 114.168 176.95 116.427Z" fill="#913C5D"/>
<path d="M215.095 151.989C218.377 142.962 216.524 132.451 206.841 128.359C197.159 124.267 180.863 132.712 177.209 142.19C173.555 151.669 178.67 164.351 189.126 167.72C199.581 171.088 211.814 161.016 215.095 151.989V151.989Z" fill="#D49C8D"/>
<path d="M206.842 128.359C205.089 127.618 203.118 127.29 201.046 127.303C205.512 141.893 195.472 157.863 180.269 157.863H178.168C180.351 162.365 184.125 166.109 189.126 167.72C199.581 171.088 211.814 161.016 215.096 151.989C218.377 142.962 216.524 132.451 206.842 128.359V128.359Z" fill="#C7758D"/>
<path d="M202.114 139.416C202.114 141.676 200.283 143.507 198.024 143.507C195.765 143.507 193.933 141.676 193.933 139.416C193.933 137.157 195.765 135.326 198.024 135.326C200.283 135.326 202.114 137.157 202.114 139.416Z" fill="#913C5D"/>
<path d="M192.548 153.737C193.068 151.539 191.707 149.336 189.509 148.816C187.311 148.296 185.107 149.657 184.588 151.855C184.068 154.053 185.429 156.257 187.627 156.776C189.825 157.296 192.028 155.935 192.548 153.737Z" fill="#913C5D"/>
<path d="M207.525 152.573C207.887 150.343 206.372 148.243 204.142 147.881C201.912 147.52 199.812 149.034 199.45 151.264C199.089 153.494 200.603 155.594 202.833 155.956C205.063 156.317 207.164 154.803 207.525 152.573Z" fill="#913C5D"/>
<path d="M126.35 136.261C119.558 143.053 116.791 153.362 123.834 161.165C130.878 168.968 149.216 168.208 156.536 161.165C163.856 154.121 164.586 140.465 156.536 132.991C148.487 125.517 133.142 129.469 126.35 136.261Z" fill="#D49C8D"/>
<path d="M156.536 161.165C157.557 160.182 158.445 159.068 159.203 157.863H126.332C124.534 157.863 122.81 157.637 121.172 157.219C121.822 158.582 122.699 159.906 123.835 161.165C130.878 168.968 149.216 168.208 156.536 161.165V161.165Z" fill="#C7758D"/>
<path d="M137.933 153.946C137.933 156.205 136.102 158.037 133.842 158.037C131.583 158.037 129.752 156.205 129.752 153.946C129.752 151.687 131.583 149.856 133.842 149.856C136.102 149.856 137.933 151.687 137.933 153.946Z" fill="#913C5D"/>
<path d="M146.114 140.937C146.114 143.196 144.282 145.027 142.023 145.027C139.764 145.027 137.933 143.196 137.933 140.937C137.933 138.677 139.764 136.846 142.023 136.846C144.283 136.846 146.114 138.677 146.114 140.937Z" fill="#913C5D"/>
<path d="M153.482 154.818C155.079 153.22 155.079 150.631 153.482 149.034C151.884 147.436 149.295 147.436 147.698 149.034C146.1 150.631 146.1 153.22 147.698 154.818C149.295 156.415 151.884 156.415 153.482 154.818Z" fill="#913C5D"/>
<path d="M225.156 15.9117L227.939 23.7392C228.059 24.0743 228.295 24.3399 228.592 24.474L235.547 27.607C236.529 28.0498 236.529 29.6151 235.547 30.0579L228.592 33.1909C228.295 33.325 228.059 33.5905 227.939 33.9257L225.156 41.7532C224.763 42.8592 223.372 42.8592 222.978 41.7532L220.194 33.9257C220.075 33.5905 219.839 33.325 219.542 33.1909L212.587 30.0579C211.604 29.6154 211.604 28.0498 212.587 27.607L219.542 24.474C219.839 24.3399 220.075 24.0743 220.194 23.7392L222.978 15.9117C223.372 14.806 224.762 14.806 225.156 15.9117V15.9117Z" fill="#F7C4DB"/>
<path d="M98.9433 74.1902L101.727 82.0177C101.846 82.3528 102.082 82.6184 102.38 82.7525L109.334 85.8855C110.317 86.3283 110.317 87.8936 109.334 88.3364L102.38 91.4694C102.082 91.6035 101.846 91.8694 101.727 92.2042L98.9433 100.032C98.5502 101.138 97.1593 101.138 96.7658 100.032L93.982 92.2042C93.8628 91.869 93.6269 91.6035 93.3291 91.4694L86.3746 88.3364C85.392 87.8936 85.392 86.3283 86.3746 85.8855L93.3291 82.7525C93.6269 82.6184 93.8628 82.3528 93.982 82.0177L96.7658 74.1902C97.1593 73.0845 98.5498 73.0845 98.9433 74.1902V74.1902Z" fill="#F7C4DB"/>
<path d="M116.017 24.7624L118.082 30.5686C118.17 30.8171 118.345 31.0143 118.567 31.1139L123.725 33.4381C124.454 33.7665 124.454 34.9276 123.725 35.256L118.567 37.5802C118.346 37.6798 118.17 37.8767 118.082 38.1251L116.017 43.9314C115.725 44.7516 114.694 44.7516 114.402 43.9314L112.337 38.1251C112.249 37.8767 112.074 37.6794 111.852 37.5802L106.694 35.256C105.965 34.9276 105.965 33.7665 106.694 33.4381L111.852 31.1139C112.073 31.0143 112.248 30.8174 112.337 30.5686L114.402 24.7624C114.694 23.9419 115.725 23.9419 116.017 24.7624V24.7624Z" fill="#F7C4DB"/>
<path d="M242.225 76.8821C243.991 74.0252 243.107 70.2777 240.25 68.5119C237.393 66.746 233.645 67.6305 231.879 70.4874C230.114 73.3443 230.998 77.0918 233.855 78.8576C236.712 80.6234 240.459 79.739 242.225 76.8821Z" fill="#EF8BBD"/>
<path d="M247.362 48.0535C247.362 49.5018 246.188 50.6754 244.74 50.6754C243.292 50.6754 242.118 49.5014 242.118 48.0535C242.118 46.6052 243.292 45.4315 244.74 45.4315C246.189 45.4315 247.362 46.6052 247.362 48.0535Z" fill="#EF8BBD"/>
</g>
<defs>
<clipPath id="clip0">
<rect width="165" height="165" fill="white" transform="translate(84 15)"/>
</clipPath>
</defs>
</svg>
