<svg width="113" height="128" viewBox="0 0 113 128" fill="none" xmlns="http://www.w3.org/2000/svg">
<path d="M88.0294 68.9569C87.0365 69.1167 86.0668 68.4973 85.8095 67.5043C85.5363 66.4502 86.1696 65.3741 87.2239 65.1011C87.309 65.079 95.7919 62.8764 99.0751 61.5762C100.088 61.1759 101.233 61.671 101.634 62.6835C102.035 63.696 101.54 64.8417 100.527 65.2428C97.0178 66.6326 88.5706 68.826 88.2127 68.9188C88.1516 68.9343 88.0905 68.947 88.0294 68.9569Z" fill="#518699"/>
<path d="M103.381 49.4708C101.062 47.3094 97.0561 47.0503 97.0561 47.0503C97.0561 47.0503 99.7492 43.4247 99.8645 41.6441C99.9796 39.8634 90.9016 25.1241 86.5609 23.7621C84.1177 22.9956 81.3886 25.0373 78.9116 27.9293C77.8774 27.1108 76.6894 26.4481 75.3646 25.9973L71.6422 24.7304C71.8282 21.9005 71.3971 19.5247 69.8698 18.3165C64.1741 13.8114 48.2051 17.0603 40.6041 18.9619C36.8579 19.8992 36.8622 25.7204 37.8293 31.3837L37.7327 31.4071C33.9449 32.3195 31.2855 35.7221 31.315 39.6182L29.1738 91.7105L23.6798 100.061C22.3347 102.105 22.8327 104.845 24.811 106.286L28.7173 109.13C30.8565 110.676 33.8438 110.195 35.3896 108.056L43.4886 96.8483L91.0224 74.4601C94.3888 72.6345 96.2256 68.9185 95.6966 65.184C99.689 64.1083 103.88 62.671 104.859 61.1892C106.841 58.1882 105.7 51.6325 103.381 49.4708Z" fill="#78EAC4"/>
<path d="M103.381 49.4709C101.763 47.9626 99.3245 47.3813 97.9977 47.1672L91.885 50.4103C90.6529 48.2257 88.5802 46.685 86.2249 46.0749L88.3681 55.166C89.1559 58.5079 87.6079 61.9631 84.5896 63.5998L49.9209 82.6934C47.6902 83.9219 45.5858 85.3671 43.6382 87.008L38.0997 91.6744C36.8079 93.4619 34.3115 93.8639 32.524 92.5721L29.2597 90.1953C29.2515 90.1892 29.2444 90.1824 29.236 90.1763L29.1731 91.7106L23.679 100.061C22.3339 102.105 22.8321 104.846 24.8104 106.286L28.7167 109.13C30.8559 110.676 33.8431 110.195 35.389 108.056L43.488 96.8483L58.0692 89.9808C75.9991 86.8065 100.762 82.1375 101.861 80.382C102.956 78.6317 102.648 69.7661 101.643 63.2418C103.197 62.5905 104.392 61.895 104.858 61.1895C106.84 58.1883 105.7 51.6326 103.381 49.4709Z" fill="#71AFC4"/>
<path d="M62.0632 90.1938C61.2178 90.33 60.35 89.9002 59.9668 89.0868C59.5031 88.1017 59.9252 86.927 60.9106 86.463L90.1281 72.7017C92.9201 71.1609 94.3569 67.928 93.6241 64.8201L90.8979 53.2546C90.4203 51.228 89.0857 49.5162 87.237 48.5583C85.3882 47.6002 83.2205 47.497 81.289 48.2755C80.5514 48.573 79.7055 48.3975 79.1468 47.8299C78.5881 47.2623 78.426 46.4146 78.7351 45.6809L80.6676 41.0968C81.748 38.5341 81.7159 35.7253 80.5769 33.1881C79.4379 30.6509 77.361 28.7601 74.7284 27.864L68.1516 25.6255C63.2542 23.9587 57.9839 26.2699 55.8926 31.0019L53.8369 35.6534C53.5247 36.3605 52.8277 36.8196 52.055 36.8281C51.2821 36.8367 50.5757 36.3926 50.2477 35.6928C48.962 32.9472 45.8905 31.4705 42.9422 32.1799L38.1937 33.3241C37.131 33.5788 36.0697 32.9276 35.8149 31.8691C35.5598 30.8106 36.2114 29.7455 37.2699 29.4905L42.0189 28.3462C45.5126 27.5047 49.1158 28.5661 51.6068 30.9438L52.2855 29.408C53.6891 26.2319 56.2133 23.7148 59.3931 22.3201C62.5737 20.9255 66.1349 20.7737 69.4217 21.8926L75.9984 24.1311C79.6255 25.3655 82.6054 28.0781 84.1742 31.5733C85.7432 35.0687 85.7893 39.0983 84.3011 42.6287L83.801 43.815C85.6054 43.7898 87.4092 44.2065 89.051 45.0571C91.9218 46.5447 93.9937 49.2028 94.7357 52.3498L97.4621 63.9153C98.6061 68.768 96.3443 73.817 91.9615 76.1936C91.9287 76.2113 91.8954 76.2281 91.8616 76.2441L62.5904 90.0306C62.4191 90.1113 62.2418 90.1651 62.0632 90.1938Z" fill="#518699"/>
<path d="M51.1023 86.5532C50.6377 86.628 50.1536 86.4197 49.8978 85.9909C49.563 85.4298 49.7469 84.7034 50.308 84.369C51.9895 83.3664 57.4284 79.7721 62.2271 76.6008C65.8525 74.2049 69.277 71.9419 70.699 71.0482C71.2531 70.7002 71.9824 70.8672 72.3303 71.4203C72.6779 71.9735 72.5113 72.7039 71.9582 73.0515C70.5591 73.9308 67.1455 76.1865 63.5317 78.5747C58.476 81.9158 53.2482 85.3705 51.5201 86.401C51.3873 86.4801 51.2456 86.5302 51.1023 86.5532Z" fill="#518699"/>
<path d="M77.3866 69.0244C76.9769 69.0903 76.5449 68.9386 76.2694 68.5901C75.864 68.0776 75.9512 67.3336 76.4637 66.9283C77.4226 66.1702 78.4297 65.5392 79.4034 64.9291C80.0537 64.5216 80.7265 64.1003 81.3889 63.6391C81.9253 63.2661 82.6624 63.3979 83.0356 63.9343C83.409 64.4707 83.2771 65.208 82.7407 65.5812C82.0312 66.0751 81.3339 66.5119 80.6598 66.9343C79.6975 67.5372 78.7884 68.1067 77.9312 68.7844C77.7671 68.9139 77.5792 68.9934 77.3866 69.0244Z" fill="#518699"/>
<path d="M60.9686 67.5226C60.6084 67.5806 60.2261 67.4718 59.947 67.1951C59.4828 66.7352 59.4793 65.9862 59.9392 65.522L73.6951 51.6363C74.1554 51.1719 74.9042 51.1686 75.3682 51.6285C75.8323 52.0884 75.8358 52.8374 75.3759 53.3015L61.62 67.1873C61.4366 67.3724 61.2074 67.4841 60.9686 67.5226Z" fill="#518699"/>
<path d="M54.1794 74.8669C53.8293 74.9233 53.4577 74.8223 53.1794 74.5602C52.7037 74.1123 52.6814 73.3634 53.1294 72.8879L56.2497 69.5751C56.6974 69.0997 57.4462 69.0769 57.9219 69.5251C58.3976 69.973 58.4199 70.7218 57.972 71.1973L54.8517 74.5101C54.6658 74.7075 54.4279 74.8269 54.1794 74.8669Z" fill="#518699"/>
<path d="M37.8849 69.7777C37.7692 69.7963 37.6504 69.8048 37.5293 69.8025C36.4405 69.7804 35.5757 68.8799 35.5978 67.7912C35.7255 61.4949 36.7445 53.6178 38.2575 47.2337C38.5085 46.174 39.5718 45.5186 40.6308 45.7699C41.6905 46.0211 42.3458 47.0836 42.0948 48.1431C40.6416 54.2745 39.6629 61.834 39.5407 67.8709C39.5209 68.8385 38.8075 69.6292 37.8849 69.7777Z" fill="white"/>
<path d="M43.1569 42.8915C42.5279 42.9928 41.8617 42.7879 41.3959 42.2855C40.6555 41.487 40.7026 40.2396 41.5012 39.4992C41.9202 39.1106 43.0327 38.0789 44.0941 37.2217C44.9415 36.5374 46.1829 36.6693 46.8668 37.5164C47.5512 38.3635 47.4191 39.6049 46.572 40.2891C45.6154 41.062 44.5742 42.0274 44.1823 42.3908C43.8861 42.6654 43.5279 42.8318 43.1569 42.8915Z" fill="white"/>
<path d="M8.42693 31.8127L10.15 34.9569C10.2238 35.0915 10.3425 35.1885 10.4787 35.2253L13.657 36.0833C14.1059 36.2045 14.2133 36.8716 13.8251 37.1276L11.0768 38.9398C10.9592 39.0173 10.8767 39.1467 10.8489 39.2978L10.1998 42.824C10.1081 43.3222 9.51553 43.4176 9.27208 42.9733L7.54898 39.8291C7.47519 39.6945 7.3565 39.5975 7.22028 39.5607L4.04203 38.7027C3.5931 38.5815 3.48569 37.9144 3.87388 37.6584L6.62221 35.8462C6.73981 35.7685 6.82225 35.6392 6.85007 35.4882L7.49919 31.962C7.59089 31.4638 8.18348 31.3684 8.42693 31.8127Z" fill="#BDF4E3"/>
<path d="M27.3853 16.8589C28.9115 16.6131 29.9496 15.1767 29.7039 13.6505C29.4581 12.1242 28.0217 11.0862 26.4954 11.3319C24.9692 11.5776 23.9311 13.0141 24.1769 14.5403C24.4226 16.0666 25.8591 17.1046 27.3853 16.8589Z" fill="#78EAC4"/>
<path d="M19.8632 52.9742C20.6949 52.8403 21.2607 52.0575 21.1268 51.2257C20.9928 50.3939 20.21 49.8281 19.3782 49.962C18.5464 50.096 17.9806 50.8788 18.1146 51.7106C18.2485 52.5424 19.0314 53.1082 19.8632 52.9742Z" fill="#78EAC4"/>
<path d="M37.5717 106.6L34.4205 107.549C23.7232 110.771 13.5043 107.218 7.93063 95.8315C2.35695 84.4451 3.72773 71.5239 5.2341 64.8592C6.74034 58.1945 10.4055 48.6772 19.3516 45.9834C29.7745 42.8449 40.6473 49.313 42.863 59.9702L44.9311 69.917C45.1535 70.9865 45.4699 72.0344 45.8766 73.0482L49.44 81.9299C53.4973 92.0431 48.0056 103.459 37.5717 106.6Z" fill="#D49C8D"/>
<path d="M34.4203 107.549C37.9523 106.59 41.7318 105.332 44.4362 102.809C49.6859 98.2136 52.0661 90.8611 50.0898 83.8392C49.9096 83.1993 49.6934 82.5622 49.4398 81.9301L45.8764 73.0483C45.1848 71.4333 44.7971 69.2786 44.4393 67.5525L42.8629 59.9704C42.6883 59.1458 42.4654 58.3323 42.1844 57.5383C40.7918 53.5959 38.1558 50.3767 34.8413 48.2143C37.0163 49.9449 38.6104 52.3176 39.2195 55.2523L39.4595 65.7852C39.4603 67.2009 39.7081 68.6099 40.2333 69.9246C40.2367 69.933 40.6004 70.6572 40.6037 70.6655L42.9622 75.8088C46.3256 84.1836 41.7499 93.6463 33.0734 96.2589L30.4528 97.048C21.5573 99.7267 12.7816 97.5367 8.15875 88.1084C3.53603 78.6802 4.97171 67.23 6.22999 61.707C6.38506 61.0262 6.56762 60.3095 6.78217 59.5718C6.12226 61.3725 5.64555 63.0499 5.23348 64.8594C3.95378 70.5214 2.77291 80.6993 5.86397 90.6153C6.42351 92.4071 7.09838 94.1303 7.93001 95.8316C10.3685 100.813 13.6961 104.295 17.5639 106.367C18.5593 106.9 19.5965 107.344 20.6679 107.692C24.9037 109.075 29.6135 108.997 34.4203 107.549Z" fill="#C7758D"/>
<path d="M12.6117 75.6542C11.9205 75.6542 11.3384 75.1177 11.2918 74.4178C10.9538 69.3264 11.7855 64.2315 13.6971 59.6841C13.9806 59.0099 14.7571 58.6934 15.4308 58.9766C16.1051 59.26 16.4217 60.0362 16.1383 60.7103C14.3854 64.8803 13.6232 69.5595 13.9341 74.2425C13.9825 74.9721 13.4302 75.6028 12.7006 75.6512C12.671 75.6532 12.6412 75.6542 12.6117 75.6542Z" fill="white"/>
<path d="M17.9697 56.3531C17.6468 56.3531 17.3232 56.2358 17.0683 55.9985C16.5329 55.5004 16.5025 54.6626 17.0006 54.1273C17.2124 53.8996 17.412 53.6494 17.6233 53.3844C18.0883 52.8016 18.6153 52.141 19.3686 51.6427C19.9789 51.2394 20.8002 51.407 21.2034 52.0169C21.6067 52.627 21.4391 53.4484 20.8292 53.8517C20.4246 54.1192 20.0858 54.5439 19.6935 55.0357C19.4608 55.3277 19.22 55.6294 18.9397 55.9307C18.6787 56.2113 18.3245 56.3531 17.9697 56.3531Z" fill="white"/>
<path d="M27.8706 76.3904C27.4319 76.3904 27.0762 76.0347 27.0762 75.596V74.0115C27.0762 73.5728 27.4319 73.2171 27.8706 73.2171C28.3093 73.2171 28.6651 73.5728 28.6651 74.0115V75.596C28.665 76.0347 28.3093 76.3904 27.8706 76.3904Z" fill="#B3586B"/>
<path d="M35.6621 73.2319C35.2234 73.2319 34.8677 72.8762 34.8677 72.4374V70.853C34.8677 70.4142 35.2234 70.0585 35.6621 70.0585C36.1009 70.0585 36.4566 70.4142 36.4566 70.853V72.4374C36.4566 72.8762 36.1009 73.2319 35.6621 73.2319Z" fill="#B3586B"/>
<path d="M33.3985 79.6016C32.9598 79.6016 32.604 79.2459 32.604 78.8071V77.2227C32.604 76.7839 32.9597 76.4282 33.3985 76.4282C33.8373 76.4282 34.193 76.7839 34.193 77.2227V78.8071C34.193 79.2459 33.8373 79.6016 33.3985 79.6016Z" fill="#B3586B"/>
<path d="M21.0274 85.9716C20.5886 85.9716 20.2329 85.6159 20.2329 85.1771V83.5927C20.2329 83.1539 20.5886 82.7982 21.0274 82.7982C21.466 82.7982 21.8219 83.1539 21.8219 83.5927V85.1771C21.8219 85.6158 21.4662 85.9716 21.0274 85.9716Z" fill="#B3586B"/>
<path d="M30.6607 88.7089C30.222 88.7089 29.8662 88.3532 29.8662 87.9144V86.33C29.8662 85.8913 30.2219 85.5355 30.6607 85.5355C31.0995 85.5355 31.4552 85.8912 31.4552 86.33V87.9144C31.4552 88.3532 31.0995 88.7089 30.6607 88.7089Z" fill="#B3586B"/>
<path d="M22.7505 64.3985C22.3117 64.3985 21.9561 64.0428 21.9561 63.6041V62.0198C21.9561 61.581 22.3117 61.2253 22.7505 61.2253C23.1893 61.2253 23.545 61.581 23.545 62.0198V63.6042C23.5449 64.0428 23.1892 64.3985 22.7505 64.3985Z" fill="#B3586B"/>
<path d="M34.0291 100.125C33.7396 100.125 33.4605 99.9667 33.3204 99.691C33.1215 99.2999 33.2772 98.8217 33.6684 98.6229C38.4527 96.1894 41.3552 92.6263 42.2949 88.0324C43.0091 84.5405 42.2832 81.631 42.1244 81.2253C41.9314 80.8867 42.0121 80.4492 42.3291 80.2041C42.6764 79.9358 43.1751 79.9995 43.4435 80.3467C43.7947 80.8011 44.7307 84.4529 43.7848 88.6611C43.0209 92.06 40.7705 96.793 34.3885 100.039C34.2732 100.098 34.1502 100.125 34.0291 100.125ZM42.1859 81.3176C42.1862 81.3179 42.1863 81.3183 42.1866 81.3185C42.1863 81.3183 42.1862 81.318 42.1859 81.3176ZM42.1166 81.2062V81.2063C42.1166 81.2063 42.1166 81.2063 42.1166 81.2062Z" fill="#B3586B"/>
<path d="M27.7373 102.345C27.3498 102.345 27.0106 102.061 26.9524 101.666C26.8886 101.232 27.1886 100.828 27.6229 100.764C29.1284 100.543 30.4336 100.062 30.4466 100.058C30.8577 99.9046 31.315 100.115 31.4678 100.526C31.6205 100.937 31.4106 101.395 30.9993 101.547C30.9399 101.569 29.5229 102.091 27.8541 102.336C27.8149 102.342 27.7759 102.345 27.7373 102.345Z" fill="#B3586B"/>
<path d="M52.4424 42.953L53.53 46.0111C53.5766 46.1421 53.6688 46.2458 53.7851 46.2982L56.5021 47.5224C56.8859 47.6954 56.8859 48.3069 56.5021 48.4799L53.7851 49.7042C53.6687 49.7565 53.5766 49.8603 53.53 49.9912L52.4424 53.0494C52.2888 53.4815 51.7454 53.4815 51.5917 53.0494L50.5041 49.9912C50.4575 49.8603 50.3654 49.7565 50.249 49.7042L47.532 48.4799C47.1482 48.3069 47.1482 47.6954 47.532 47.5224L50.249 46.2982C50.3654 46.2458 50.4575 46.1421 50.5041 46.0111L51.5917 42.953C51.7454 42.5209 52.2888 42.5209 52.4424 42.953Z" fill="#F0C6B5"/>
<path d="M63.5993 63.1254C63.8091 61.8308 62.9298 60.6112 61.6352 60.4014C60.3407 60.1915 59.1211 61.0708 58.9112 62.3654C58.7014 63.66 59.5807 64.8796 60.8753 65.0894C62.1698 65.2993 63.3894 64.4199 63.5993 63.1254Z" fill="#E9A385"/>
<path d="M49.7397 127.46L45.5881 126.38C43.9553 125.955 42.9761 124.287 43.4009 122.654L44.1411 119.81C44.5659 118.177 46.234 117.198 47.8669 117.622L52.0185 118.703C53.6513 119.128 54.6305 120.796 54.2057 122.429L53.4655 125.273C53.0405 126.906 51.3724 127.885 49.7397 127.46Z" fill="#78EAC4"/>
<path d="M75.8663 96.2387C70.2696 117.747 59.7351 123.443 49.2767 120.722C38.8185 118 32.397 107.891 37.9937 86.3835C43.5907 64.8756 59.0865 40.1135 69.5447 42.8349C80.0028 45.5563 81.4633 74.731 75.8663 96.2387Z" fill="#FEF2A8"/>
<path d="M69.5447 42.8349C69.1368 42.7287 68.7206 42.6692 68.2982 42.6449C74.2263 45.7416 75.522 61.0736 72.5753 72.3972C69.4639 84.3538 62.7318 89.6636 57.5647 88.319C51.3034 86.6897 48.3235 76.6401 41.7713 74.935C39.9568 79.2907 39.124 82.0403 37.9937 86.3837C32.397 107.892 38.8185 118 49.2767 120.722C59.7349 123.443 70.2694 117.747 75.8663 96.2389C81.4633 74.731 80.0028 45.5563 69.5447 42.8349Z" fill="#EEB6A8"/>
<path d="M63.1335 52.466C62.6129 52.466 62.0985 52.2319 61.7583 51.7862C61.2419 51.1096 61.3018 50.1739 61.8588 49.5686C62.0536 49.1421 62.3734 48.8123 62.8294 48.5629C63.6671 48.1049 64.7169 48.4122 65.1753 49.2496C65.5507 49.936 65.412 50.7652 64.8883 51.2944C64.7553 51.551 64.5418 51.8358 64.1808 52.1113C63.8676 52.3504 63.4991 52.466 63.1335 52.466Z" fill="white"/>
<path d="M48.9978 72.8254C48.7397 72.8254 48.478 72.7675 48.2313 72.6449C47.376 72.2207 47.0268 71.1838 47.4508 70.3287C50.1356 64.9159 55.571 55.8038 58.3239 53.2596C59.0251 52.6116 60.1185 52.6549 60.7661 53.3559C61.4141 54.0569 61.3709 55.1504 60.6699 55.7982C58.4675 57.8335 53.3316 66.2517 50.5476 71.8648C50.2457 72.4729 49.6336 72.8254 48.9978 72.8254Z" fill="white"/>
<path d="M75.3154 102.645C69.274 119.113 60.1703 123.556 49.7714 120.85C39.4215 118.157 32.4685 109.6 35.1166 92.4391C35.4296 90.4101 23.6953 69.0649 30.2039 70.0937C49.2327 73.1014 52.2891 103.175 53.6095 103.519C54.8723 103.847 74.26 78.4867 90.5133 85.9504C96.5017 88.7002 75.9979 100.785 75.3154 102.645Z" fill="#BDF4E3"/>
<path d="M90.5132 85.9504C88.3074 84.9374 86.0438 84.5301 83.7757 84.5801H83.7755C88.1111 86.2397 70.2474 96.7973 69.6894 98.3185C64.6511 112.052 54.9527 114.6 46.2807 112.343C37.6501 110.097 33.3542 104.216 35.1162 92.4413C32.4691 109.601 39.4219 118.157 49.7713 120.85C60.1704 123.556 69.274 119.113 75.3154 102.645C75.9978 100.785 96.5015 88.7002 90.5132 85.9504Z" fill="#B1B7E3"/>
<path d="M69.5086 64.1721C69.0343 64.186 68.4868 64.0399 68.022 63.913C67.0257 63.6537 66.1898 63.0221 65.6687 62.1343C65.1475 61.2465 65.0033 60.2087 65.2626 59.2125L65.6972 57.5424C65.9565 56.5461 66.5881 55.7104 67.4759 55.1892C68.3639 54.668 69.4013 54.5237 70.3977 54.783L70.9141 54.9174C72.9708 55.4527 74.2086 57.5613 73.6737 59.6179L73.2391 61.2881C72.7882 63.0206 71.2208 64.1721 69.5086 64.1721ZM68.5442 61.9059L69.0609 62.0402C70.0104 62.2875 70.9848 61.7158 71.2321 60.7658L71.6667 59.0957C71.9138 58.1459 71.3421 57.1718 70.3921 56.9245L69.8759 56.7901C69.4155 56.6704 68.9361 56.7369 68.5261 56.9777C68.116 57.2184 67.8241 57.6044 67.7045 58.0646L67.2699 59.7348C67.1501 60.195 67.2168 60.6742 67.4573 61.0843C67.6982 61.4943 68.0842 61.7861 68.5442 61.9059Z" fill="#D08372"/>
<path d="M58.8847 74.4872C58.4027 74.5004 57.8597 74.3544 57.391 74.2269C56.3947 73.9676 55.559 73.3359 55.0378 72.4482C54.5166 71.5604 54.3724 70.5226 54.6317 69.5264L55.0663 67.8563C55.3256 66.86 55.9571 66.0243 56.845 65.5031C57.7328 64.9821 58.7706 64.8376 59.7668 65.0969L60.2836 65.2312C61.2798 65.4905 62.1155 66.1222 62.6367 67.01C63.1579 67.8978 63.3021 68.9355 63.0428 69.9318L62.6082 71.6018C62.3489 72.5981 61.7174 73.4338 60.8295 73.955C60.23 74.307 59.562 74.4872 58.8847 74.4872ZM58.7933 67.046C58.4806 67.046 58.1721 67.1292 57.8951 67.2916C57.4852 67.5323 57.1932 67.9183 57.0736 68.3785L56.639 70.0487C56.5193 70.5089 56.5859 70.9881 56.8265 71.3981C57.0672 71.8082 57.4532 72.1 57.9135 72.2197C58.5181 72.413 59.2135 72.5331 59.7796 72.1667C60.1895 71.926 60.4815 71.54 60.6011 71.0798L61.0357 69.4096C61.1554 68.9494 61.0887 68.4702 60.8482 68.0602C60.6075 67.6501 60.2215 67.3583 59.7612 67.2386C59.49 67.1725 59.0708 67.034 58.7933 67.046Z" fill="#D08372"/>
<path d="M64.9712 85.9706C64.4969 85.9846 63.9494 85.8384 63.4846 85.7115C61.428 85.1764 60.1902 83.0677 60.7252 81.011L61.1598 79.3408C61.6951 77.284 63.8039 76.0466 65.8603 76.5815L66.3768 76.7159C68.4334 77.251 69.6712 79.3597 69.1362 81.4163L68.7016 83.0865C68.2506 84.8191 66.6832 85.9706 64.9712 85.9706ZM64.0068 83.7044L64.5233 83.8388C65.4728 84.0861 66.4472 83.5143 66.6945 82.5643L67.1291 80.8942C67.3763 79.9442 66.8045 78.9704 65.8546 78.7232L65.3379 78.5888C64.3884 78.3415 63.4141 78.9133 63.1667 79.8633L62.7321 81.5334C62.4851 82.4832 63.0568 83.4572 64.0068 83.7044Z" fill="#D08372"/>
<path d="M55.4485 84.24C55.3621 84.24 55.2743 84.2291 55.1868 84.2064C54.6326 84.0622 54.3001 83.4959 54.4443 82.9417L54.9331 81.0633C55.0773 80.5091 55.6436 80.1768 56.1978 80.3208C56.752 80.4649 57.0844 81.0313 56.9403 81.5855L56.4514 83.4639C56.3302 83.9307 55.9093 84.24 55.4485 84.24Z" fill="#D08372"/>
<path d="M67.3216 72.974C67.2351 72.974 67.1474 72.963 67.0598 72.9403C66.5056 72.7962 66.1732 72.2299 66.3173 71.6757L66.8062 69.7971C66.9503 69.2429 67.516 68.9104 68.0708 69.0546C68.625 69.1987 68.9575 69.7651 68.8133 70.3193L68.3245 72.1978C68.203 72.6645 67.7824 72.974 67.3216 72.974Z" fill="#D08372"/>
<path d="M72.8689 78.6157C72.7825 78.6157 72.6948 78.6048 72.6072 78.582C72.053 78.4379 71.7205 77.8716 71.8647 77.3174L72.3535 75.439C72.4977 74.8848 73.0637 74.5523 73.6182 74.6965C74.1724 74.8406 74.5048 75.4069 74.3607 75.9611L73.8718 77.8396C73.7506 78.3062 73.3297 78.6157 72.8689 78.6157Z" fill="#D08372"/>
<path d="M43.6652 118.672C43.3718 118.672 43.0744 118.597 42.802 118.439C41.9756 117.961 41.6931 116.905 42.1708 116.078C42.3916 115.696 47.6361 106.669 52.4391 102.247C53.1413 101.601 54.2349 101.646 54.8812 102.348C55.5276 103.05 55.4823 104.144 54.7802 104.79C50.3664 108.853 45.2149 117.719 45.1633 117.808C44.8428 118.362 44.2622 118.672 43.6652 118.672Z" fill="#90E0C5"/>
<path d="M44.5617 115.395C44.1593 115.395 43.7766 115.159 43.6081 114.766L39.3654 104.866C39.1398 104.339 39.3836 103.73 39.9099 103.504C40.4369 103.278 41.0461 103.522 41.2715 104.049L45.5142 113.949C45.7398 114.475 45.4959 115.085 44.9696 115.31C44.8366 115.368 44.6979 115.395 44.5617 115.395Z" fill="#90E0C5"/>
<path d="M48.2027 109.831C47.788 109.831 47.3965 109.581 47.2364 109.171L42.7662 97.7267C42.5578 97.1932 42.8214 96.5917 43.3549 96.3834C43.8885 96.175 44.4898 96.4386 44.698 96.9719L49.1683 108.416C49.3766 108.95 49.113 109.551 48.5796 109.76C48.4556 109.808 48.3281 109.831 48.2027 109.831Z" fill="#90E0C5"/>
<path d="M34.165 46.6166L35.5847 50.6085C35.6455 50.7793 35.7659 50.9149 35.9177 50.9832L39.4643 52.5811C39.9654 52.8069 39.9654 53.6053 39.4643 53.831L35.9177 55.4289C35.7659 55.4973 35.6455 55.6328 35.5847 55.8037L34.165 59.7955C33.9644 60.3595 33.2551 60.3595 33.0546 59.7955L31.6348 55.8037C31.5741 55.6328 31.4537 55.4973 31.3019 55.4289L27.7552 53.831C27.2541 53.6053 27.2541 52.8069 27.7552 52.5811L31.3019 50.9832C31.4538 50.9149 31.5741 50.7793 31.6348 50.6085L33.0546 46.6166C33.2551 46.0526 33.9644 46.0526 34.165 46.6166Z" fill="#FBF2AA"/>
<path d="M91.9276 62.437L92.9808 65.3981C93.0259 65.5249 93.1151 65.6254 93.2278 65.6761L95.8586 66.8615C96.2304 67.029 96.2304 67.6212 95.8586 67.7886L93.2278 68.974C93.1151 69.0247 93.0259 69.1253 92.9808 69.252L91.9276 72.2131C91.7788 72.6315 91.2526 72.6315 91.1039 72.2131L90.0507 69.252C90.0056 69.1253 89.9163 69.0247 89.8037 68.974L87.1728 67.7886C86.8011 67.6212 86.8011 67.0289 87.1728 66.8615L89.8037 65.6761C89.9163 65.6254 90.0056 65.5249 90.0507 65.3981L91.1039 62.437C91.2526 62.0187 91.7788 62.0187 91.9276 62.437Z" fill="#FBF2AA"/>
<path d="M21.2474 50.2565C22.4107 50.2565 23.3538 49.3134 23.3538 48.1501C23.3538 46.9868 22.4107 46.0438 21.2474 46.0438C20.0842 46.0438 19.1411 46.9868 19.1411 48.1501C19.1411 49.3134 20.0842 50.2565 21.2474 50.2565Z" fill="#F7E16E"/>
<path d="M27.223 90.9145C27.223 91.8181 26.4905 92.5504 25.5871 92.5504C24.6835 92.5504 23.9512 91.8181 23.9512 90.9145C23.9512 90.011 24.6835 89.2786 25.5871 89.2786C26.4905 89.2786 27.223 90.011 27.223 90.9145Z" fill="#F7E16E"/>
</svg>
