<svg id="Capa_1" enable-background="new 0 0 512 512" height="512" viewBox="0 0 512 512" width="512" xmlns="http://www.w3.org/2000/svg"><g><g><g><g><g><path d="m120.387 89.851 21.374-2.131c14.89-1.484 28.164 9.383 29.648 24.272l9.404 94.321c1.484 14.889-9.383 28.164-24.272 29.648l-21.374 2.131c-14.89 1.485-28.164-9.382-29.648-24.272l-9.404-94.321c-1.485-14.889 9.382-28.163 24.272-29.648z" fill="#ffa585"/></g></g><g><g><path d="m397.12 89.851-21.374-2.131c-14.89-1.484-28.164 9.383-29.648 24.272l-9.404 94.321c-1.484 14.889 9.383 28.164 24.272 29.648l21.374 2.131c14.89 1.485 28.164-9.382 29.648-24.272l9.404-94.321c1.485-14.889-9.382-28.163-24.272-29.648z" fill="#ffa585"/></g></g><g><g><path d="m258.753 43.637c-41.678 0-75.586 36.142-75.586 80.568s33.908 80.569 75.586 80.569 75.586-36.142 75.586-80.569c0-44.426-33.908-80.568-75.586-80.568zm0 129.966c-24.491 0-44.415-22.16-44.415-49.398s19.924-49.398 44.415-49.398 44.416 22.16 44.416 49.398-19.925 49.398-44.416 49.398z" fill="#ffa585"/></g></g><g><g><path d="m258.754 111.888c-89.992 0-162.944 72.952-162.944 162.944v167.402c0 37.655 30.525 68.18 68.18 68.18h189.528c37.655 0 68.18-30.525 68.18-68.18v-167.403c-.001-89.991-72.953-162.943-162.944-162.943z" fill="#ffc7b6"/></g></g><g><g><path d="m160.848 269.09c-.943 0-1.902-.131-2.853-.407-5.44-1.573-8.575-7.258-7.002-12.698 3.929-13.585 10.923-26.829 20.227-38.301 3.568-4.398 10.026-5.072 14.422-1.505 4.398 3.567 5.072 10.024 1.505 14.422-7.591 9.36-13.281 20.108-16.454 31.081-1.299 4.488-5.396 7.408-9.845 7.408z" fill="#fff"/></g></g><g><g><path d="m205.752 211.055c-3.437 0-6.793-1.726-8.732-4.865-2.976-4.817-1.484-11.135 3.334-14.112 2.514-1.553 5.116-3.025 7.732-4.374 5.033-2.596 11.216-.619 13.812 4.414 2.595 5.032.619 11.216-4.414 13.812-2.149 1.108-4.286 2.317-6.353 3.595-1.679 1.035-3.54 1.53-5.379 1.53z" fill="#fff"/></g></g><g><g><path d="m357.837 311.15h-198.168c-38.01 0-68.823 30.813-68.823 68.823v61.617c0 38.01 30.813 68.823 68.823 68.823h198.168c38.01 0 68.823-30.813 68.823-68.823v-61.617c0-38.01-30.813-68.823-68.823-68.823z" fill="#ffc7b6"/></g></g><g><g><path d="m421.697 354.315v-79.483c0-89.991-72.952-162.944-162.944-162.944-4.17 0-8.302.158-12.393.466 71.891 5.809 128.424 65.986 128.424 139.373v68.213c2.738 6.807 4.259 14.234 4.259 22.02v52.88c0 32.62-26.444 59.064-59.064 59.064h-3.708-162.653-3.707c-32.62 0-59.064-26.443-59.064-59.064v46.751c0 38.01 30.813 68.822 68.823 68.822h4.32 189.528 4.32c38.01 0 68.823-30.813 68.823-68.822v-61.617c-.001-9.074-1.774-17.728-4.964-25.659z" fill="#ef95b6"/></g></g><path d="m422.972 342.819c-6.661-11.654-16.223-21.102-27.472-27.641v-33.137c0-75.403-61.345-136.747-136.748-136.747-75.402 0-136.747 61.344-136.747 136.747v33.081c-11.952 6.939-21.972 17.178-28.691 29.915-1.585 3.006-.434 6.727 2.571 8.312.916.484 1.897.712 2.865.712 2.209 0 4.344-1.193 5.446-3.282 10.892-20.649 32.148-33.476 55.471-33.476h198.168c22.44 0 43.305 12.116 54.453 31.623 1.686 2.95 5.445 3.974 8.393 2.288 2.953-1.687 3.977-5.445 2.291-8.395zm-263.303-37.821c-8.804 0-17.36 1.531-25.359 4.398v-27.354c0-68.618 55.825-124.443 124.443-124.443 68.619 0 124.443 55.825 124.443 124.443v27.408c-8.027-2.896-16.591-4.452-25.359-4.452z" fill="#d07297"/><g><g><path d="m355.804 284.395c-3.397 0-6.152-2.754-6.152-6.152v-11.791c0-3.397 2.754-6.152 6.152-6.152s6.152 2.755 6.152 6.152v11.791c0 3.397-2.754 6.152-6.152 6.152z" fill="#d07297"/></g></g></g><g><g><g><g><path d="m159.621 343.058c-23.232 3.863-38.933 25.827-35.07 49.059s25.827 38.933 49.059 35.07 38.933-25.827 35.07-49.059c-3.863-23.231-25.828-38.933-49.059-35.07zm6.159 74.768s-4.94-.103-9.862-1.785-8.936-4.755-8.936-4.755l14.992-16.345zm-6.327-38.055-20.675 22.54-.002.001c-2.171-3.513-3.708-7.499-4.428-11.824-2.593-15.593 6.305-30.442 20.508-35.896l.386-.143zm27.569 31.03c-3.557 2.809-9.285 5.088-9.285 5.088l-3.814-22.934 19.641 10.704c.001 0-2.985 4.333-6.542 7.142zm11.458-18.259-27.078-14.757-4.219-25.371v-.002c15.488.251 29.068 11.521 31.7 27.346.729 4.384.55 8.71-.401 12.785z" fill="#78eac4"/></g></g></g></g><g><g><g><g><path d="m341.001 356.539c0 11.697-9.483 31.522-21.18 31.522s-21.18-19.824-21.18-31.522c0-11.697 9.482-21.18 21.18-21.18s21.18 9.483 21.18 21.18z" fill="#8bb6ef"/></g></g><g><g><path d="m341.001 465.024c0-11.697-9.483-31.522-21.18-31.522s-21.18 19.824-21.18 31.522c0 11.697 9.482 21.18 21.18 21.18s21.18-9.482 21.18-21.18z" fill="#8bb6ef"/></g></g><g><g><path d="m373.153 387.403c-8.271 8.271-28.994 15.584-37.266 7.313-8.271-8.271-.959-28.994 7.313-37.266 8.271-8.271 21.682-8.271 29.953 0s8.271 21.682 0 29.953z" fill="#8bb6ef"/></g></g><g><g><path d="m296.442 464.113c8.271-8.271 15.584-28.994 7.313-37.265s-28.994-.959-37.266 7.313c-8.271 8.271-8.271 21.682 0 29.953 8.272 8.271 21.682 8.271 29.953-.001z" fill="#8bb6ef"/></g></g><g><g><path d="m374.064 431.962c-11.697 0-31.521-9.483-31.521-21.18s19.824-21.18 31.521-21.18c11.698 0 21.18 9.483 21.18 21.18s-9.483 21.18-21.18 21.18z" fill="#8bb6ef"/></g></g><g><g><path d="m265.579 431.962c11.697 0 31.522-9.483 31.522-21.18s-19.824-21.18-31.522-21.18c-11.697 0-21.18 9.483-21.18 21.18s9.482 21.18 21.18 21.18z" fill="#8bb6ef"/></g></g><g><g><path d="m343.2 464.113c-8.271-8.271-15.584-28.994-7.313-37.265s28.994-.959 37.266 7.313c8.271 8.271 8.271 21.682 0 29.953s-21.682 8.271-29.953-.001z" fill="#8bb6ef"/></g></g><g><g><path d="m266.489 387.403c8.271 8.271 28.994 15.584 37.266 7.313 8.271-8.271.959-28.994-7.313-37.266-8.271-8.271-21.682-8.271-29.953 0s-8.271 21.682 0 29.953z" fill="#8bb6ef"/></g></g></g><g><g><ellipse cx="319.821" cy="410.782" fill="#fef2a8" rx="51.839" ry="51.839" transform="matrix(.173 -.985 .985 .173 -140.162 654.59)"/></g></g><g><g><g><path d="m350.383 400.224c-.375-8.403-7.304-15.101-15.799-15.101-6.734 0-12.48 4.209-14.763 10.139-2.283-5.929-8.029-10.138-14.763-10.138-8.344 0-15.175 6.463-15.77 14.655-2.805 16.295 29.967 42.742 29.967 42.742s33.707-26.385 31.128-42.297z" fill="#ef8bbd"/></g></g></g></g><g><g><g><circle cx="283.838" cy="233.541" fill="#ffe266" r="39.957"/></g></g><g><g><g><path d="m283.627 257.417c-11.671 0-21.166-8.593-21.166-19.155 0-3.397 2.755-6.152 6.152-6.152s6.152 2.755 6.152 6.152c0 3.714 4.059 6.851 8.862 6.851 4.804 0 8.863-3.137 8.863-6.851 0-3.397 2.755-6.152 6.152-6.152s6.152 2.755 6.152 6.152c-.001 10.562-9.496 19.155-21.167 19.155z" fill="#d0844b"/></g></g><g><g><path d="m273.252 221.894c0 3.002-2.434 5.435-5.435 5.435-3.002 0-5.435-2.433-5.435-5.435s2.433-5.435 5.435-5.435c3.001 0 5.435 2.434 5.435 5.435z" fill="#d0844b"/></g></g><g><g><path d="m305.206 221.894c0 3.002-2.434 5.435-5.435 5.435s-5.435-2.433-5.435-5.435 2.433-5.435 5.435-5.435 5.435 2.434 5.435 5.435z" fill="#d0844b"/></g></g></g></g><g><g><path d="m222.388 466.421c-3.397 0-6.152-2.755-6.152-6.152v-13.504c0-3.397 2.755-6.152 6.152-6.152s6.152 2.755 6.152 6.152v13.504c0 3.398-2.754 6.152-6.152 6.152z" fill="#d07297"/></g></g></g><g><g><path d="m33.668 4.096-8.422 23.683c-.361 1.014-1.074 1.818-1.975 2.223l-21.041 9.48c-2.973 1.339-2.973 6.076 0 7.415l21.041 9.48c.901.406 1.615 1.209 1.975 2.223l8.422 23.683c1.19 3.346 5.398 3.346 6.588 0l8.423-23.683c.361-1.014 1.074-1.818 1.975-2.223l21.041-9.48c2.973-1.339 2.973-6.076 0-7.415l-21.041-9.48c-.901-.406-1.615-1.209-1.975-2.223l-8.423-23.683c-1.19-3.345-5.398-3.345-6.588 0z" fill="#ffc7b6"/></g></g><g><g><path d="m482.139 179.219-6.248 17.567c-.267.752-.797 1.348-1.465 1.649l-15.608 7.032c-2.205.994-2.205 4.507 0 5.5l15.608 7.033c.668.301 1.198.897 1.465 1.649l6.248 17.567c.883 2.482 4.004 2.482 4.887 0l6.248-17.567c.268-.752.797-1.348 1.465-1.649l15.608-7.032c2.205-.993 2.205-4.507 0-5.5l-15.608-7.032c-.668-.301-1.198-.897-1.465-1.649l-6.248-17.567c-.883-2.483-4.005-2.483-4.887-.001z" fill="#ffc7b6"/></g></g><g><g><ellipse cx="457.164" cy="43.637" fill="#ffa585" rx="18.391" ry="18.391" transform="matrix(.924 -.383 .383 .924 18.1 178.271)"/></g></g><g><g><path d="m140.07 29.659c0 4.382 3.552 7.933 7.933 7.933 4.382 0 7.933-3.552 7.933-7.933s-3.552-7.933-7.933-7.933c-4.382 0-7.933 3.552-7.933 7.933z" fill="#ffa585"/></g></g></g></svg>