<svg width="512" height="512" viewBox="0 0 512 512" fill="none" xmlns="http://www.w3.org/2000/svg">
<g clip-path="url(#clip0)">
<path d="M140.387 305.548H206.452V470.709H140.387V305.548Z" fill="#D3E080"/>
<path d="M222.968 305.548H289.033V470.709H222.968V305.548Z" fill="#A4CCFF"/>
<path d="M305.548 305.548H371.613V470.709H305.548V305.548Z" fill="#A183E2"/>
<path d="M388.129 305.548H454.194V470.709H388.129V305.548Z" fill="#FFC269"/>
<path d="M57.8062 305.548H123.871V470.709H57.8062V305.548Z" fill="#FFE266"/>
<path d="M181.677 148.645H247.742V264.258H181.677V148.645Z" fill="#A4CCFF"/>
<path d="M264.258 165.161H330.323V280.774H264.258V165.161Z" fill="#A183E2"/>
<path d="M89.375 87.25C89.75 91.982 86.633 122.543 85 127C79.976 140.711 61.758 164.44 68.016 192.295L82.581 247.742L148.646 280.774L107.894 88.438L89.375 87.25Z" fill="#FFE266"/>
<path d="M93.1489 91.434L84.9999 87.125L78.3149 94.42L79.0309 103.459C79.4059 108.191 78.7719 112.908 77.1389 117.365C72.1149 131.076 61.7579 164.44 68.0159 192.295L115.613 247.742L93.1489 91.434Z" fill="#FFD064"/>
<path d="M103.942 68.927C102.298 60.695 93.5888 55.495 85.0918 58.829C79.4128 61.057 76.1498 67.111 76.6318 73.191L78.3148 94.42L107.894 88.439L103.942 68.927Z" fill="#C38C66"/>
<path d="M55.046 129.088L31.667 122.667L61 239.484H107.355L55.046 129.088Z" fill="#FFE266"/>
<path d="M33 133.25L27.77 142L30.638 150.604C32.139 155.107 32.657 159.838 32.143 164.557C30.561 179.073 28.524 213.949 41.291 239.484H84.083L41.537 135.485L33 133.25Z" fill="#FFD064"/>
<path d="M46.521 111.097C42.947 103.502 33.244 100.547 25.797 105.824C20.82 109.351 19.106 116.012 21.035 121.798L27.769 142.001L55.044 129.088L46.521 111.097Z" fill="#C38C66"/>
<path d="M159 173.419H123.871C119.31 173.419 115.613 177.116 115.613 181.677V231.225H198.194V214.71L159 173.419Z" fill="#D3E080"/>
<path d="M198.194 214.71H148.646C139.524 214.71 132.13 207.315 132.13 198.194V181.678L143 176.667H188.333L198.193 181.678V214.71H198.194Z" fill="#CCF49F"/>
<path d="M132.129 115.613H189.935C194.496 115.613 198.193 119.31 198.193 123.871V181.677H132.128L123.87 123.871C123.871 119.31 127.568 115.613 132.129 115.613V115.613Z" fill="#DAD8DB"/>
<path d="M123.871 115.613C119.31 115.613 115.613 119.31 115.613 123.871V181.677H132.129V115.612H123.871V115.613Z" fill="#C8C5C9"/>
<path d="M430.538 170.633C429.611 170.633 428.675 170.476 427.748 170.145C423.458 168.605 421.224 163.875 422.764 159.585L447.853 89.625C449.393 85.323 454.095 83.097 458.418 84.637C462.708 86.177 464.942 90.907 463.402 95.197L438.313 165.157C437.103 168.532 433.925 170.633 430.538 170.633Z" fill="#95D6A4"/>
<path d="M422.756 167.843C418.337 167.843 414.675 164.339 414.514 159.883L412.909 115.439C412.74 110.883 416.304 107.052 420.861 106.887C425.546 106.669 429.248 110.282 429.409 114.843L431.014 159.287C431.183 163.843 427.619 167.674 423.062 167.839C422.957 167.843 422.861 167.843 422.756 167.843V167.843Z" fill="#95D6A4"/>
<path d="M438.312 173.419C436.36 173.419 434.409 172.734 432.836 171.342C429.425 168.318 429.102 163.1 432.126 159.685L461.61 126.391C464.658 122.976 469.86 122.673 473.271 125.685C476.682 128.709 477.005 133.927 473.981 137.342L444.497 170.636C442.861 172.48 440.595 173.419 438.312 173.419Z" fill="#D3E080"/>
<path d="M433.266 157.889C416.094 151.73 397.18 160.659 391.022 177.832L371.613 231.227H442.058L453.209 200.134C459.366 182.96 450.438 164.047 433.266 157.889V157.889Z" fill="#FFA95F"/>
<path d="M24.9839 264.258V471.65C24.9839 480.772 32.3789 488.166 41.4999 488.166H478.968L495.484 478.967V264.257H24.9839V264.258ZM107.355 437.677C107.355 446.798 99.9599 454.193 90.8389 454.193C81.7179 454.193 74.3229 446.798 74.3229 437.677V338.58C74.3229 329.458 81.7179 322.064 90.8389 322.064C99.9599 322.064 107.355 329.458 107.355 338.58V437.677ZM189.935 437.677C189.935 446.798 182.54 454.193 173.419 454.193C164.298 454.193 156.903 446.798 156.903 437.677V338.58C156.903 329.458 164.298 322.064 173.419 322.064C182.54 322.064 189.935 329.458 189.935 338.58V437.677ZM272.516 437.677C272.516 446.798 265.121 454.193 256 454.193C246.879 454.193 239.484 446.798 239.484 437.677V338.58C239.484 329.458 246.879 322.064 256 322.064C265.121 322.064 272.516 329.458 272.516 338.58V437.677ZM355.097 437.677C355.097 446.798 347.702 454.193 338.581 454.193C329.459 454.193 322.065 446.798 322.065 437.677V338.58C322.065 329.458 329.46 322.064 338.581 322.064C347.702 322.064 355.097 329.458 355.097 338.58V437.677ZM437.677 437.677C437.677 446.798 430.282 454.193 421.161 454.193C412.04 454.193 404.645 446.798 404.645 437.677V338.58C404.645 329.458 412.04 322.064 421.161 322.064C430.282 322.064 437.677 329.458 437.677 338.58V437.677Z" fill="#FF8086"/>
<path d="M33.0321 462.452V264.258H16.5161V478.968C16.5161 488.089 23.9111 495.484 33.0321 495.484H478.967C488.088 495.484 495.483 488.089 495.483 478.968H49.5481C40.4271 478.968 33.0321 471.573 33.0321 462.452V462.452Z" fill="#E5646E"/>
<path d="M503.742 272.516H16.5158C11.9548 272.516 8.25781 268.819 8.25781 264.258V239.484C8.25781 234.923 11.9548 231.226 16.5158 231.226H503.742C508.303 231.226 512 234.923 512 239.484V264.258C512 268.819 508.303 272.516 503.742 272.516Z" fill="#FF8086"/>
<path d="M165.161 156.903H148.645C144.08 156.903 140.387 153.205 140.387 148.645C140.387 144.085 144.081 140.387 148.645 140.387H165.161C169.726 140.387 173.419 144.085 173.419 148.645C173.419 153.205 169.726 156.903 165.161 156.903Z" fill="#CCF49F"/>
<path d="M24.774 264.258C20.213 264.258 16.516 260.56 16.516 256V231.226H8.258C3.697 231.226 0 234.923 0 239.484V272.516C0 277.076 3.697 280.774 8.258 280.774H503.742C508.303 280.774 512 277.076 512 272.516V264.258H24.774Z" fill="#E5646E"/>
<path d="M272.516 16.516H247.742C243.181 16.516 239.484 20.213 239.484 24.774V231.226C239.484 235.786 243.181 239.484 247.742 239.484H272.516C277.077 239.484 280.774 235.786 280.774 231.226V24.774C280.774 20.213 277.077 16.516 272.516 16.516V16.516Z" fill="#5D5360"/>
<path d="M256 231.226C251.439 231.226 247.742 227.528 247.742 222.968V16.516H239.484C234.923 16.516 231.226 20.213 231.226 24.774V239.484C231.226 244.044 234.923 247.742 239.484 247.742H272.516C277.077 247.742 280.774 244.044 280.774 239.484V231.226H256Z" fill="#4B3F4E"/>
<path d="M375.033 143.807L368.192 136.966C365.094 133.869 363.354 129.668 363.354 125.288V99.097C363.354 94.536 359.657 90.839 355.096 90.839H346.838L343 95.667V231.226H379.871V155.486C379.871 151.106 378.131 146.905 375.033 143.807V143.807Z" fill="#DBEAFF"/>
<path d="M346.839 123.871H330.323V125.288C330.323 129.668 328.583 133.869 325.485 136.966L318.644 143.807C315.546 146.904 313.806 151.105 313.806 155.486V181.677L346.838 231.225V123.871H346.839Z" fill="#C3DDFF"/>
<path d="M346.839 123.871H330.323V99.097C330.323 94.536 334.02 90.839 338.581 90.839H346.839C351.4 90.839 355.097 94.536 355.097 99.097L346.839 123.871Z" fill="#B6B1B7"/>
<path d="M313.806 181.677H330.322C339.444 181.677 346.838 189.072 346.838 198.193V231.225H313.806V181.677Z" fill="#B6B1B7"/>
<path d="M355.097 90.839H346.839V123.871H363.355V99.097C363.355 94.536 359.658 90.839 355.097 90.839V90.839Z" fill="#C8C5C9"/>
<path d="M440.452 186.782C436.137 185.238 431.428 187.472 429.887 191.77C428.347 196.06 430.581 200.79 434.871 202.33L450.419 207.907H450.42L453.208 200.132C454.177 197.43 454.767 194.735 455.016 192.003L440.452 186.782Z" fill="#FF8B5A"/>
<path d="M385.444 193.379L400.992 198.956C401.919 199.287 402.855 199.444 403.782 199.444C407.169 199.444 410.347 197.343 411.556 193.968C413.096 189.678 410.862 184.948 406.572 183.408L391.024 177.831L391.022 177.83C391.022 177.831 391.021 177.831 391.021 177.831L385.382 193.343C385.406 193.351 385.42 193.371 385.444 193.379V193.379Z" fill="#FF8B5A"/>
</g>
<defs>
<clipPath id="clip0">
<rect width="512" height="512" fill="white"/>
</clipPath>
</defs>
</svg>
