<svg width="512" height="512" viewBox="0 0 512 512" fill="none" xmlns="http://www.w3.org/2000/svg">
<g clip-path="url(#clip0)">
<path d="M24.9839 264.258V471.65C24.9839 480.772 32.3789 488.166 41.4999 488.166H478.968L495.484 478.967V264.257H24.9839V264.258ZM107.355 437.677C107.355 446.798 99.9599 454.193 90.8389 454.193C81.7179 454.193 74.3229 446.798 74.3229 437.677V338.58C74.3229 329.458 81.7179 322.064 90.8389 322.064C99.9599 322.064 107.355 329.458 107.355 338.58V437.677ZM189.935 437.677C189.935 446.798 182.54 454.193 173.419 454.193C164.298 454.193 156.903 446.798 156.903 437.677V338.58C156.903 329.458 164.298 322.064 173.419 322.064C182.54 322.064 189.935 329.458 189.935 338.58V437.677ZM272.516 437.677C272.516 446.798 265.121 454.193 256 454.193C246.879 454.193 239.484 446.798 239.484 437.677V338.58C239.484 329.458 246.879 322.064 256 322.064C265.121 322.064 272.516 329.458 272.516 338.58V437.677ZM355.097 437.677C355.097 446.798 347.702 454.193 338.581 454.193C329.459 454.193 322.065 446.798 322.065 437.677V338.58C322.065 329.458 329.46 322.064 338.581 322.064C347.702 322.064 355.097 329.458 355.097 338.58V437.677ZM437.677 437.677C437.677 446.798 430.282 454.193 421.161 454.193C412.04 454.193 404.645 446.798 404.645 437.677V338.58C404.645 329.458 412.04 322.064 421.161 322.064C430.282 322.064 437.677 329.458 437.677 338.58V437.677Z" fill="#FF8086"/>
<path d="M33.0321 462.452V264.258H16.5161V478.968C16.5161 488.089 23.9111 495.484 33.0321 495.484H478.967C488.088 495.484 495.483 488.089 495.483 478.968H49.5481C40.4271 478.968 33.0321 471.573 33.0321 462.452V462.452Z" fill="#E5646E"/>
<path d="M503.742 272.516H16.5158C11.9548 272.516 8.25781 268.819 8.25781 264.258V239.484C8.25781 234.923 11.9548 231.226 16.5158 231.226H503.742C508.303 231.226 512 234.923 512 239.484V264.258C512 268.819 508.303 272.516 503.742 272.516Z" fill="#FF8086"/>
<path d="M24.774 264.258C20.213 264.258 16.516 260.56 16.516 256V231.226H8.258C3.697 231.226 0 234.923 0 239.484V272.516C0 277.076 3.697 280.774 8.258 280.774H503.742C508.303 280.774 512 277.076 512 272.516V264.258H24.774Z" fill="#E5646E"/>
<path d="M54.167 176.165L50.4672 200.662C49.786 205.171 52.8894 209.379 57.3993 210.06L261.536 240.893C266.045 241.574 270.253 238.471 270.935 233.961L274.634 209.465C275.316 204.955 272.211 200.747 267.702 200.066L63.5657 169.233C59.0559 168.552 54.8482 171.656 54.167 176.165V176.165Z" fill="#5D5360"/>
<path d="M264.002 224.562C263.321 229.072 259.112 232.175 254.603 231.494L50.4666 200.662L49.2333 208.827C48.5521 213.337 51.6555 217.544 56.1654 218.226L268.467 250.291C272.976 250.972 277.185 247.869 277.866 243.359L282.799 210.698C283.48 206.188 280.376 201.98 275.867 201.299L267.702 200.066L264.002 224.562Z" fill="#4B3F4E"/>
</g>
<defs>
<clipPath id="clip0">
<rect width="512" height="512" fill="white"/>
</clipPath>
</defs>
</svg>
