<svg id="Capa_1" enable-background="new 0 0 512 512" height="512" viewBox="0 0 512 512" width="512" xmlns="http://www.w3.org/2000/svg"><g><g><g><g><path d="m119.109 39.71c-8.763 43.81-7.369 89.027 2.543 135.421l4.811 90.503c2.687 61.02-2.93 115.984-16.992 167.827l-14.829 56.909h144.15l-22.562-139.503 9.196-150.248c.842-13.765 12.251-24.496 26.041-24.496h12.079c13.796 0 25.208 10.741 26.042 24.511l9.108 150.233-21.083 139.503h142.671l-14.576-55.887c-14.45-55.405-20.156-112.726-16.913-169.892l5.075-89.46c9.384-46.345 10.712-91.513 2.437-135.279-1.278-6.759-7.206-11.643-14.084-11.643h-249.057c-6.824 0-12.719 4.809-14.057 11.501z" fill="#b2e7f1"/></g></g><g><g><g><path d="m221.647 384.356-5.417-33.489 9.196-150.248c.842-13.765 12.251-24.496 26.042-24.496h10.929l-1.298-26.782-45.678.172c-5.744.022-10.485 4.5-10.833 10.235l-13.521 219.971c-1.581 25.721-22.901 45.773-48.671 45.775l-30.852.002c-.674 2.662-1.354 5.32-2.072 7.965l-14.83 56.909h144.15l-17.146-106.016z" fill="#a7adf1"/></g></g><g><g><path d="m405.708 434.483c-14.45-55.404-20.156-112.726-16.913-169.892l5.075-89.461c9.384-46.345 10.712-91.513 2.437-135.279-1.278-6.759-7.206-11.643-14.084-11.643h-37.708c6.096 0 11.349 4.198 12.482 10.009 7.334 37.623 6.157 76.451-2.16 116.29l-4.498 76.903c-2.874 49.142 2.183 98.417 14.99 146.044 6.515 24.23-11.74 48.042-36.83 48.042h-41.082l-9.804 64.874h142.671z" fill="#a7adf1"/></g></g></g><g><g><path d="m399.357 59.43c-.81-6.556-1.822-13.083-3.05-19.578-1.278-6.759-7.206-11.643-14.084-11.643h-249.057c-6.824 0-12.718 4.809-14.057 11.5-1.308 6.542-2.386 13.117-3.247 19.721z" fill="#b07676"/></g></g><g><g><path d="m194.136 133.566h-80.764c-3.445 0-6.238-2.793-6.238-6.238s2.793-6.238 6.238-6.238h79.169v-14.69h-77.55c-3.445 0-6.238-2.793-6.238-6.238s2.793-6.238 6.238-6.238h79.145c5.999 0 10.881 4.881 10.881 10.881v17.881c0 5.999-4.882 10.88-10.881 10.88zm0-27.166h.01z" fill="#95cde6"/></g></g><g><g><path d="m399.612 133.566h-79.145c-5.999 0-10.881-4.881-10.881-10.881v-17.881c0-5.999 4.881-10.881 10.881-10.881h80.764c3.445 0 6.238 2.793 6.238 6.238s-2.793 6.238-6.238 6.238h-79.169v14.691h77.55c3.445 0 6.238 2.793 6.238 6.238-.001 3.445-2.794 6.238-6.238 6.238z" fill="#95cde6"/></g></g><g><g><path d="m268.137 161.801c-3.136 0-6.255-.961-8.924-2.856h-.001l-17.267-12.247c-6.266-4.445-10.008-11.686-10.008-19.369v-77.959c0-3.445 2.793-6.238 6.238-6.238h39.172c3.445 0 6.238 2.793 6.238 6.238v96.983c0 5.798-3.2 11.054-8.352 13.716-2.244 1.159-4.676 1.732-7.096 1.732zm-1.707-13.031c1.33.941 2.593.464 3.076.215.482-.249 1.603-1.004 1.603-2.633v-90.744h-26.697v71.721c0 3.647 1.776 7.083 4.751 9.193l17.268 12.248z" fill="#95cde6"/></g></g><g><g><ellipse cx="257.761" cy="48.978" fill="#ffe266" rx="42.062" ry="27.348"/></g></g><g><g><path d="m158.938 288.303c-5.496 0-10.088-4.309-10.373-9.861-.343-6.645-.7-13.203-1.056-19.749-.536-9.865-1.09-20.068-1.582-30.35-.274-5.735 4.152-10.606 9.888-10.881 5.764-.261 10.607 4.153 10.881 9.888.488 10.214 1.042 20.382 1.576 30.214.357 6.565.715 13.142 1.058 19.807.296 5.734-4.113 10.622-9.847 10.917-.183.011-.365.015-.545.015z" fill="#fff"/></g></g><g><g><path d="m154.291 200.017c-5.492 0-10.082-4.303-10.373-9.85l-.641-12.168c-.301-5.734 4.103-10.627 9.836-10.928 5.748-.277 10.628 4.103 10.928 9.836l.641 12.168c.302 5.734-4.103 10.627-9.836 10.928-.185.008-.371.014-.555.014z" fill="#fff"/></g></g><g><g><path d="m329.946 431.578c-3.445 0-6.238-2.793-6.238-6.238v-13.316c0-3.445 2.793-6.238 6.238-6.238s6.238 2.793 6.238 6.238v13.316c0 3.445-2.793 6.238-6.238 6.238z" fill="#95cde6"/></g></g><g><g><path d="m358.527 387.017c-3.445 0-6.238-2.793-6.238-6.238v-13.316c0-3.445 2.793-6.238 6.238-6.238s6.238 2.793 6.238 6.238v13.316c-.001 3.445-2.794 6.238-6.238 6.238z" fill="#95cde6"/></g></g></g><g><g><path d="m477.862 238.268 8.54 24.013c.366 1.028 1.09 1.843 2.003 2.254l21.335 9.612c3.014 1.358 3.014 6.161 0 7.518l-21.335 9.612c-.913.412-1.637 1.226-2.003 2.254l-8.54 24.013c-1.206 3.393-5.473 3.393-6.68 0l-8.54-24.013c-.366-1.028-1.089-1.843-2.003-2.254l-21.335-9.612c-3.014-1.358-3.014-6.16 0-7.518l21.335-9.612c.914-.412 1.637-1.226 2.003-2.254l8.54-24.013c1.206-3.392 5.473-3.392 6.68 0z" fill="#b2e7f1"/></g></g><g><g><path d="m30.278 132.627 6.335 17.812c.271.763.808 1.367 1.486 1.672l15.826 7.13c2.236 1.007 2.236 4.57 0 5.577l-15.826 7.13c-.677.305-1.215.91-1.486 1.672l-6.335 17.812c-.895 2.516-4.06 2.516-4.955 0l-6.335-17.812c-.271-.763-.808-1.367-1.486-1.672l-15.826-7.13c-2.236-1.007-2.236-4.57 0-5.577l15.826-7.13c.678-.305 1.214-.91 1.486-1.672l6.335-17.812c.895-2.516 4.06-2.516 4.955 0z" fill="#b2e7f1"/></g></g><g><g><circle cx="55.601" cy="283.524" fill="#8bb6ef" r="18.648"/></g></g><g><g><ellipse cx="450.445" cy="357.545" fill="#8bb6ef" rx="8.044" ry="8.044" transform="matrix(.924 -.383 .383 .924 -102.539 199.595)"/></g></g></g></svg>
