<svg id="Capa_1" enable-background="new 0 0 489.376 489.376" height="512" viewBox="0 0 489.376 489.376" width="512" xmlns="http://www.w3.org/2000/svg"><g><g><path d="m228.535 111.116h38.133v222.881h-38.133z" fill="#a1e8c3"/><g><path d="m304.931 467.789c.571-12.479-23.917-23.058-36.396-23.628l28.611-.291c13.561-.023 24.535-11.036 24.512-24.597-.023-13.561-11.036-24.536-24.597-24.512l-42.766.072 68.288-.217c14.15-.025 25.602-11.516 25.577-25.666-.025-14.15-11.516-25.602-25.666-25.577l-66.517.214.002-1.434 47.394-4.338c14.2-.686 25.155-12.754 24.469-26.954-.695-14.388-13.062-25.406-27.435-24.441l-63.612 8.126-7.221 1.137-39.938 10.559-12.586-54.077-54.557 17.699c-22.927 5.374-42.063 24.863-45.177 48.637l-60.222.971.598 124.62 61.893-.342c6.917 21.659 27.22 37.329 51.169 37.288l125.223 6.918 25.324 1.399c12.48.567 23.059-9.087 23.63-21.566z" fill="#efc5b4"/><g fill="#d994b3"><path d="m268.535 444.161-7.234-.017 2.628 8.482-106.753-1.822c-14.963.026-28.289-7.004-36.834-17.951-7.245-9.281-18.58-14.433-30.354-14.402l-72.409.183.002 2.129.112 23.327 61.893-.342c6.917 21.659 27.22 37.329 51.169 37.288l125.223 6.918 25.324 1.399c12.479.57 23.058-9.083 23.628-21.562.571-12.481-23.916-23.06-36.395-23.63z"/><path d="m321.658 419.272c-.023-13.561-11.036-24.536-24.597-24.512l-41.784.076c8.398 4.481 28.343 16.079 26.707 24.371-3.097 15.693-21.116 23.539-21.116 23.539l.385 1.242 35.894-.118c13.56-.024 24.535-11.037 24.511-24.598z"/><path d="m348.161 368.949c-.024-14.15-11.516-25.602-25.666-25.578l-18.161.059c-.074 1.603 1.358 3.533 4.928 5.859 10.88 7.09 10.625 20.722 2.962 24.458-18.013 8.781-60.582 19.213-60.582 19.213s1.417.691 3.623 1.868l67.319-.214c14.15-.024 25.601-11.514 25.577-25.665z"/></g><g><path d="m255.977 353.586c-5.499 0-9.972-4.444-9.999-9.95-.027-5.523 4.428-10.022 9.951-10.05l43.19-.214h.05c5.5 0 9.972 4.444 9.999 9.95.027 5.523-4.428 10.022-9.951 10.05l-43.19.214c-.016 0-.033 0-.05 0z" fill="#d07297"/></g><g><path d="m271.675 404.903-17.421-.071c-5.523-.022-9.981-4.519-9.959-10.041.023-5.509 4.496-9.959 9.999-9.959h.042l17.324.071 25.345-.144h.058c5.497 0 9.968 4.44 9.999 9.943.031 5.523-4.421 10.025-9.943 10.057z" fill="#d07297"/></g><g><path d="m273.014 454.144c-.006 0-.011 0-.017 0l-39.715-.064c-5.523-.009-9.993-4.493-9.984-10.017.009-5.517 4.485-9.983 9.999-9.983h.017l39.715.064c5.523.009 9.993 4.493 9.984 10.017-.008 5.516-4.484 9.983-9.999 9.983z" fill="#d07297"/></g><path d="m182.611 251.244 19.29-.033c15.026-.026 27.342 12.247 27.368 27.274l.106 61.611c.027 15.718-12.811 28.6-28.529 28.628l-7.248.013c-15.615.027-28.296-12.61-28.322-28.225l-.124-71.747c-.016-9.661 7.8-17.504 17.459-17.521z" fill="#efc5b4"/></g><g><path d="m115.509 335.581c-1.329 0-2.678-.267-3.975-.829-5.067-2.197-7.393-8.087-5.194-13.153 3.016-6.953 7.063-14.901 14.217-21.142 4.162-3.63 10.479-3.199 14.109.963 3.631 4.162 3.2 10.478-.962 14.109-4.143 3.614-6.782 8.878-9.016 14.028-1.636 3.771-5.316 6.024-9.179 6.024z" fill="#fff"/></g><g><path d="m156.846 301.979c-4.333 0-8.326-2.839-9.598-7.209-1.542-5.303 1.505-10.853 6.808-12.396 3.559-1.036 7.225-1.864 10.896-2.463 5.451-.891 10.59 2.81 11.479 8.262.889 5.45-2.81 10.59-8.261 11.479-2.874.468-5.743 1.116-8.526 1.926-.932.272-1.873.401-2.798.401z" fill="#fff"/></g><g><path d="m257.397 192.729c-12.154-17.872-9.588-83.694-9.588-83.694s62.156 21.81 74.31 39.682 7.517 42.214-10.355 54.367c-17.872 12.154-42.213 7.518-54.367-10.355z" fill="#e7effa"/><path d="m322.119 148.717c-12.154-17.873-74.31-39.682-74.31-39.682.001.001 51.557 18.091 61.637 32.915 10.081 14.825 6.235 35.014-8.589 45.095s-35.014 6.236-45.095-8.589c-9.747-14.333-8.081-65.839-7.96-69.24-.135 3.767-2.191 66.182 9.594 83.513 12.154 17.873 36.495 22.508 54.367 10.355 17.874-12.153 22.51-36.494 10.356-54.367z" fill="#d1b5f2"/><path d="m286.742 39.134c0 21.613-39.134 74.6-39.134 74.6s-39.134-52.987-39.134-74.6 17.521-39.134 39.134-39.134 39.134 17.521 39.134 39.134z" fill="#e7effa"/><path d="m331.393 124.101c-20.006 8.18-83.862-7.991-83.862-7.991s34.235-56.277 54.24-64.456 42.854 1.407 51.034 21.413c8.18 20.005-1.407 42.854-21.412 51.034z" fill="#e7effa"/><path d="m352.805 73.067c-8.18-20.006-31.028-29.593-51.034-21.413-1.31.536-2.682 1.282-4.1 2.201 15.05-3.309 30.747 4.565 36.778 19.315 6.748 16.503-1.161 35.351-17.664 42.099-13.747 5.621-52.585-2.695-65.178-5.63-2.565 3.989-4.076 6.471-4.076 6.471s63.856 16.17 83.862 7.991c20.005-8.18 29.592-31.029 21.412-51.034z" fill="#d1b5f2"/><path d="m172.911 147.733c12.261-17.799 74.548-39.234 74.548-39.234s2.169 65.836-10.092 83.635-36.63 22.288-54.428 10.027c-17.799-12.261-22.289-36.629-10.028-54.428z" fill="#e7effa"/><path d="m247.459 108.499s-2.691.926-7.057 2.55c.208 11.993.315 55.659-8.744 68.81-10.538 15.298-31.482 19.156-46.78 8.618-13.407-9.235-18.026-26.462-11.87-40.877-.031.044-.066.088-.096.132-12.261 17.799-7.772 42.167 10.027 54.428s42.167 7.772 54.428-10.027c12.261-17.798 10.092-83.634 10.092-83.634z" fill="#d1b5f2"/><path d="m193.61 51.158c19.965 8.278 53.922 64.723 53.922 64.723s-63.935 15.855-83.9 7.577-29.439-31.174-21.161-51.139 31.174-29.44 51.139-21.161z" fill="#e7effa"/><ellipse cx="247.608" cy="110.471" fill="#f6e06e" rx="41.357" ry="41.357" transform="matrix(.234 -.972 .972 .234 82.288 325.373)"/><path d="m247.607 69.048c-1.245 0-2.476.058-3.693.166 17.382 1.699 30.966 16.354 30.966 34.182 0 18.97-15.378 34.348-34.348 34.348-17.828 0-32.483-13.584-34.182-30.966-.107 1.217-.166 2.449-.166 3.693 0 22.878 18.546 41.423 41.423 41.423 22.878 0 41.423-18.546 41.423-41.423.001-22.877-18.545-41.423-41.423-41.423z" fill="#dda86a"/></g></g><path d="m419.227 200.813 8.264 23.238c.354.995 1.054 1.783 1.938 2.182l20.646 9.302c2.917 1.314 2.917 5.962 0 7.276l-20.646 9.302c-.884.398-1.585 1.187-1.938 2.182l-8.264 23.238c-1.167 3.283-5.297 3.283-6.464 0l-8.264-23.238c-.354-.995-1.054-1.783-1.938-2.182l-20.646-9.302c-2.917-1.314-2.917-5.961 0-7.276l20.646-9.302c.884-.398 1.584-1.187 1.938-2.182l8.264-23.238c1.167-3.283 5.297-3.283 6.464 0z" fill="#fbf2aa"/><path d="m66.694 126.946 6.13 17.237c.262.738.782 1.323 1.438 1.618l15.315 6.9c2.164.975 2.164 4.422 0 5.397l-15.315 6.9c-.656.295-1.175.88-1.438 1.618l-6.13 17.238c-.866 2.435-3.929 2.435-4.795 0l-6.13-17.238c-.263-.738-.782-1.323-1.438-1.618l-15.315-6.9c-2.164-.975-2.164-4.422 0-5.397l15.315-6.9c.656-.295 1.175-.88 1.438-1.618l6.13-17.237c.866-2.436 3.929-2.436 4.795 0z" fill="#fbf2aa"/><g fill="#f7e16e"><ellipse cx="78.442" cy="89.367" rx="12.143" ry="12.143" transform="matrix(.231 -.973 .973 .231 -26.625 145.049)"/><ellipse cx="454.344" cy="111.886" rx="17.937" ry="17.937" transform="matrix(.161 -.987 .987 .161 270.732 542.274)"/></g></g></svg>