<svg id="Capa_1" enable-background="new 0 0 512 512" height="512" viewBox="0 0 512 512" width="512" xmlns="http://www.w3.org/2000/svg"><g><g><path d="m151.74 155.006-40.763-8.474-14.806 5.563-2.27-1.784v192.023l-38.481-14.758.322.734-9.235 15.262v115.686h109.427v-305.449z" fill="#78eac4"/><path d="m315.434 155.006-87.044-21.877-4.983 1.422v324.707h194.803v-304.252z" fill="#78eac4"/><g fill="#8bb6ef"><path d="m317.519 407.61v94.274h90.591l16.005-6.778 16.735 6.778h26.163c8.127 0 14.714-6.588 14.714-14.714v-79.56z"/><path d="m406.307 316.775-89.969-1.216-87.948-17.073v58.961l85.202 16.324 35.11 1.216z"/><path d="m81.224 140.347-17.008-3.536c-9.136-1.899-17.709 5.075-17.709 14.406v156.065l34.738 22.996z"/></g><path d="m440.85 501.884-.836-94.344h41.713v-34.3h-91.25l55.664-55.733h35.586v-37.303h-99.759l.008-66.589v-37.881l-32.374 2.495.192 101.975h-34.36l-87.044-18.652v37.303l87.044 18.652h88.852l-56.386 55.733h-32.466l-87.044-17.15-76.651 17.15-41.89-24.423.631-111.314 41.259 8.637v-35.343l-41.065-8.752.303-55.513-29.753-6.185.021 189.93-34.738-22.995v36.29l105.232 63.968 76.651-17.15 87.044 17.15h92.676v94.344z" fill="#fef2a8"/><g><g fill="none"><path d="m315.434 407.54-87.044-17.15v38.675l41.555 10.444h125.94c6.751 0 12.225-5.473 12.225-12.224v-19.745z"/><path d="m408.11 373.24v-17.655l-17.633 17.655z"/><path d="m347.9 373.24 56.386-55.733h-88.852l-87.044-18.652v57.235l87.044 17.15z"/></g><path d="m316.158 439.509h-46.213l-41.555-10.444v-38.675l-76.651 17.15v26.889l-17.8 5.08-77.696-16.152c-5.671-1.179-9.737-6.176-9.737-11.969v56.649c0 6.972 4.893 12.987 11.719 14.406l93.513 19.441 76.65-21.877 87.044 21.877h.724v-62.375z" fill="#71afc4"/><path d="m395.885 439.509h-81.109v62.209l.658.165h92.676v-74.599c0 6.752-5.473 12.225-12.225 12.225z" fill="#8388ef"/><path d="m467.013 155.006h-62.375c2.146 2.203 3.472 5.207 3.472 8.525v116.673h73.617v37.303h-35.586l-38.031 38.078v17.655h73.617v34.3h-41.714l.836 94.344h26.163c8.126 0 14.714-6.588 14.714-14.714v-317.449c.002-8.127-6.586-14.715-14.713-14.715z" fill="#71afc4"/><path d="m228.39 298.855v-37.303-128.423l-76.65 21.877-.001 218.234 76.651-17.15z" fill="#71afc4"/><path d="m446.141 317.507h35.586v-37.303h-73.617v75.381z" fill="#eeb6a8"/><path d="m481.727 407.54v-34.3h-73.617v54.044.001 74.599h32.74l-.836-94.344z" fill="#eeb6a8"/><path d="m228.39 356.09-76.651 17.15v34.3l76.651-17.15z" fill="#eeb6a8"/></g><path d="m228.39 490.122c-5.587 0-10.116-4.529-10.116-10.116v-50.941c0-5.587 4.53-10.116 10.116-10.116s10.116 4.529 10.116 10.116v50.941c0 5.587-4.529 10.116-10.116 10.116z" fill="#518699"/><path d="m151.739 512c-5.587 0-10.116-4.529-10.116-10.116v-67.782c0-5.587 4.53-10.116 10.116-10.116s10.116 4.529 10.116 10.116v67.782c.001 5.587-4.529 10.116-10.116 10.116z" fill="#518699"/><path d="m315.434 512c-5.587 0-10.116-4.529-10.116-10.116v-346.878c0-5.587 4.53-10.116 10.116-10.116s10.116 4.529 10.116 10.116v346.877c0 5.588-4.53 10.117-10.116 10.117z" fill="#518699"/><path d="m456.753 108.917c0 37.636-49.071 107.615-68.146 107.615s-68.146-69.979-68.146-107.615 30.51-68.146 68.146-68.146 68.146 30.51 68.146 68.146z" fill="#ef8bbd"/><ellipse cx="388.826" cy="108.11" fill="#fff" rx="31.184" ry="31.183" transform="matrix(.16 -.987 .987 .16 219.829 474.597)"/><path d="m103.498 459.683-17.962-4.035c-6.548-1.471-11.2-7.285-11.2-13.996v-15.077c0-9.191 8.522-16.011 17.489-13.996l17.962 4.035c6.548 1.471 11.201 7.285 11.201 13.996v15.077c-.001 9.191-8.523 16.011-17.49 13.996z" fill="#b2e7f1"/><path d="m281.574 248.445c-5.587 0-10.116-4.529-10.116-10.116v-18.947c0-5.587 4.53-10.116 10.116-10.116s10.116 4.529 10.116 10.116v18.947c0 5.587-4.53 10.116-10.116 10.116z" fill="#fff"/><path d="m281.574 194.711c-5.587 0-10.116-4.529-10.116-10.116v-4.995c0-5.587 4.53-10.116 10.116-10.116s10.116 4.529 10.116 10.116v4.995c0 5.587-4.53 10.116-10.116 10.116z" fill="#fff"/></g><g><path d="m148.489 28.492-8.31 23.366c-.356 1-1.06 1.793-1.949 2.194l-20.76 9.353c-2.933 1.322-2.933 5.994 0 7.316l20.76 9.353c.889.401 1.593 1.193 1.949 2.194l8.31 23.366c1.174 3.301 5.326 3.301 6.5 0l8.31-23.366c.356-1 1.06-1.793 1.949-2.194l20.76-9.353c2.933-1.321 2.933-5.994 0-7.316l-20.76-9.353c-.889-.401-1.593-1.193-1.949-2.194l-8.31-23.366c-1.174-3.301-5.326-3.301-6.5 0z" fill="#bdf4e3"/><path d="m34.237 1.837-6.164 17.333c-.264.742-.786 1.33-1.446 1.627l-15.399 6.938c-2.176.98-2.176 4.447 0 5.427l15.399 6.938c.659.297 1.182.885 1.446 1.627l6.164 17.333c.871 2.449 3.95 2.449 4.821 0l6.164-17.333c.264-.742.786-1.33 1.446-1.627l15.399-6.938c2.175-.98 2.175-4.447 0-5.427l-15.399-6.938c-.659-.297-1.182-.885-1.446-1.627l-6.164-17.333c-.871-2.449-3.951-2.449-4.821 0z" fill="#bdf4e3"/><g fill="#78eac4"><ellipse cx="252.688" cy="22.62" rx="18.145" ry="18.145" transform="matrix(.987 -.16 .16 .987 -.361 40.768)"/><circle cx="494.577" cy="30.448" r="7.827"/></g></g></g></svg>