<svg id="Capa_1" enable-background="new 0 0 512 512" height="512" viewBox="0 0 512 512" width="512" xmlns="http://www.w3.org/2000/svg"><g><g><ellipse cx="73.529" cy="384.724" fill="#eaa585" rx="40.992" ry="32.017" transform="matrix(.388 -.922 .922 .388 -309.624 303.407)"/><ellipse cx="40.38" cy="458.194" fill="#eaa585" rx="36.215" ry="28.286" transform="matrix(.388 -.922 .922 .388 -397.654 317.841)"/><path d="m339.297 511.353v-32.906c0-67.223-54.495-121.719-121.719-121.719-67.223 0-121.719 54.495-121.719 121.719v32.906z" fill="#bdf4e3"/><path d="m298.828 511.353v-31.092c0-44.873-36.377-81.25-81.249-81.25-44.873 0-81.249 36.377-81.249 81.25v31.092z" fill="#fff"/><path d="m226.105 399.459c23.501 10.57 40.032 35.656 40.032 64.932v7.044c0 10.965-8.889 19.854-19.854 19.854h-109.954v20.065h162.499v-31.092c0-41.994-31.859-76.541-72.723-80.803z" fill="#eebdfa"/><ellipse cx="394.418" cy="308.294" fill="#f4d6d4" rx="40.309" ry="40.309" transform="matrix(.23 -.973 .973 .23 3.752 621.33)"/><ellipse cx="40.739" cy="308.294" fill="#f4d6d4" rx="40.309" ry="40.309" transform="matrix(.29 -.957 .957 .29 -266.132 257.947)"/><path d="m251.927 407.91h-68.697c-85.366 0-154.569-69.203-154.569-154.568 0-85.366 69.203-154.569 154.569-154.569h68.697c85.366 0 154.569 69.203 154.569 154.569 0 85.365-69.203 154.568-154.569 154.568z" fill="#f4d6d4"/><path d="m251.927 98.681h-19.821c69.207 0 125.311 56.103 125.311 125.31v10.642c0 69.207-56.103 125.311-125.311 125.311h-78.134c-66.229 0-120.451-51.381-124.995-116.455-.201 3.229-.316 6.481-.316 9.76 0 85.366 69.203 154.569 154.569 154.569h68.697c85.366 0 154.569-69.203 154.569-154.569 0-85.366-69.203-154.568-154.569-154.568z" fill="#e69fd5"/><ellipse cx="125.362" cy="317.163" fill="#e383b9" rx="17.255" ry="17.255" transform="matrix(.23 -.973 .973 .23 -212.118 366.303)"/><ellipse cx="309.795" cy="317.163" fill="#e383b9" rx="17.255" ry="17.255" transform="matrix(.383 -.924 .924 .383 -101.779 482.003)"/><path d="m217.579 340.594c-12.92 0-23.431-10.511-23.431-23.431 0-3.411 2.765-6.176 6.176-6.176s6.176 2.765 6.176 6.176c0 6.109 4.97 11.079 11.079 11.079 6.11 0 11.08-4.97 11.08-11.079 0-3.411 2.765-6.176 6.176-6.176s6.176 2.765 6.176 6.176c-.001 12.919-10.512 23.431-23.432 23.431z" fill="#e383b9"/><path d="m15.737 280.444c-3.223-9.887-3.522-30.014-3.522-30.014 1.954-91.457 76.697-164.997 168.623-164.997h74.965c91.926 0 166.668 73.54 168.623 164.997 0 0 .418 17.742-5.601 27.774l-19.581-15.221c-39.059 12.58-89.489 2.071-130.64-31.165-23.909-19.31-40.975-43.298-50.283-68.018-9.308 24.72-26.374 48.708-50.283 68.018-41.173 33.253-91.635 43.756-130.703 31.145" fill="#eaa585"/><path d="m89.882 246.344c-4.86 0-9.183-3.457-10.107-8.407-1.042-5.589 2.643-10.964 8.231-12.006 2.995-.559 6.004-1.245 8.945-2.042 5.487-1.485 11.14 1.761 12.624 7.248 1.485 5.487-1.76 11.139-7.248 12.624-3.466.938-7.015 1.747-10.546 2.405-.638.121-1.273.178-1.899.178z" fill="#fff"/><path d="m128.556 232.124c-3.547 0-6.999-1.835-8.909-5.124-2.856-4.915-1.187-11.215 3.729-14.07 10.282-5.974 19.146-13.436 26.346-22.178 3.614-4.388 10.099-5.018 14.489-1.401 4.388 3.614 5.015 10.101 1.402 14.489-8.76 10.637-19.491 19.683-31.895 26.89-1.627.944-3.407 1.394-5.162 1.394z" fill="#fff"/><path d="m399.303 348.009c11.417 16.506 14.333 34.271 6.514 39.679s-23.413-3.588-34.829-20.094c-11.417-16.506-14.333-34.271-6.514-39.679s23.413 3.588 34.829 20.094z" fill="#84eac4"/><path d="m468.267 343.973c14.081-4.213 27.705-.245 30.43 8.863s-6.48 19.908-20.56 24.121c-14.081 4.213-27.705.245-30.43-8.863-2.726-9.108 6.479-19.907 20.56-24.121z" fill="#84eac4"/><path d="m413.183 420.003c.522 0 1.051-.038 1.583-.118 5.77-.867 9.745-6.248 8.878-12.018-7.182-47.785 21.021-80.842 21.307-81.17 3.831-4.402 3.367-11.075-1.034-14.905-4.401-3.831-11.075-3.368-14.905 1.034-1.428 1.641-34.879 40.852-26.263 98.182.787 5.237 5.294 8.995 10.434 8.995z" fill="#84eac4"/><path d="m402.741 417.184c-3.004 0-5.639-2.197-6.099-5.259-3.71-24.688-.319-50.053 9.809-73.353 1.36-3.128 4.997-4.559 8.126-3.202 3.128 1.36 4.561 4.998 3.202 8.126-9.334 21.475-12.336 43.88-8.922 66.594.507 3.372-1.816 6.517-5.19 7.025-.311.046-.621.069-.926.069z" fill="#508497"/><g fill="#f7e266"><path d="m472.134 303.155c-5.465 7.863-33.1 17.246-33.1 17.246s-.84-29.172 4.625-37.036c5.465-7.863 16.269-9.808 24.133-4.343 7.862 5.465 9.807 16.27 4.342 24.133z"/><path d="m466.895 345.357c-9.347-2.082-28.49-24.111-28.49-24.111s26.685-11.818 36.031-9.736c9.347 2.082 15.235 11.348 13.153 20.694-2.083 9.346-11.348 15.235-20.694 13.153z"/><path d="m422.622 351.615c.097-9.575 17.674-32.874 17.674-32.874s17.099 23.651 17.002 33.226c-.097 9.576-7.939 17.259-17.514 17.161-9.576-.096-17.259-7.937-17.162-17.513z"/><path d="m403.262 313.883c8.961-3.375 37.042 4.575 37.042 4.575s-15.857 24.5-24.818 27.876c-8.961 3.375-18.962-1.153-22.337-10.114s1.151-18.961 10.113-22.337z"/><path d="m435.211 283.981c5.171 8.06 3.253 37.181 3.253 37.181s-27.27-10.397-32.44-18.457c-5.171-8.06-2.828-18.785 5.232-23.956s18.784-2.828 23.955 5.232z"/></g><path d="m452.87 328.256c-4.994 7.185-14.867 8.962-22.053 3.969-7.186-4.994-8.962-14.868-3.969-22.053 4.994-7.186 14.867-8.963 22.053-3.969s8.963 14.867 3.969 22.053z" fill="#fff"/><path d="m433.152 512h-74.487c-23.252 0-42.649-17.77-44.68-40.933l-5.356-41.549h174.68l-5.485 41.637c-2.074 23.125-21.454 40.845-44.672 40.845z" fill="#f5dbb6"/><ellipse cx="315.503" cy="433.501" fill="#84eac4" rx="26.612" ry="17.214" transform="matrix(.958 -.287 .287 .958 -111.029 108.638)"/><ellipse cx="398.86" cy="441.108" fill="#84eac4" rx="26.612" ry="17.214" transform="matrix(.388 -.922 .922 .388 -162.353 637.843)"/><path d="m327.973 386.595c5.465 7.863 33.1 17.246 33.1 17.246s.84-29.172-4.624-37.035c-5.465-7.863-16.27-9.808-24.133-4.343-7.863 5.464-9.808 16.269-4.343 24.132z" fill="#e5ecf8"/><path d="m333.212 428.797c9.347-2.082 28.49-24.111 28.49-24.111s-26.685-11.818-36.031-9.736-15.235 11.348-13.153 20.694c2.082 9.347 11.347 15.235 20.694 13.153z" fill="#e5ecf8"/><path d="m377.485 435.056c-.097-9.575-17.673-32.874-17.673-32.874s-17.099 23.651-17.002 33.226 7.938 17.259 17.514 17.161c9.575-.097 17.258-7.938 17.161-17.513z" fill="#e5ecf8"/><path d="m396.845 397.324c-8.961-3.376-37.042 4.575-37.042 4.575s15.857 24.501 24.818 27.876 18.962-1.153 22.337-10.114c3.377-8.961-1.152-18.962-10.113-22.337z" fill="#e5ecf8"/><path d="m364.896 367.421c-5.171 8.06-3.253 37.181-3.253 37.181s27.27-10.397 32.44-18.457 2.828-18.785-5.232-23.956c-8.059-5.17-18.785-2.827-23.955 5.232z" fill="#e5ecf8"/><path d="m347.237 411.696c4.994 7.186 14.867 8.962 22.053 3.968s8.962-14.867 3.968-22.053-14.867-8.963-22.053-3.968c-7.185 4.994-8.962 14.867-3.968 22.053z" fill="#f7e266"/><path d="m451.425 378.375c4.528 10.982 3.814 21.674-1.594 23.881-5.408 2.208-13.463-4.905-17.99-15.887-4.528-10.982-3.814-21.674 1.594-23.881s13.462 4.905 17.99 15.887z" fill="#e58bbd"/><path d="m472.589 429.706c4.528 10.982 3.814 21.673-1.594 23.881s-13.462-4.905-17.99-15.887-3.814-21.674 1.594-23.881c5.407-2.207 13.462 4.906 17.99 15.887z" fill="#e58bbd"/><ellipse cx="477.976" cy="397.522" fill="#e58bbd" rx="21.557" ry="10.552" transform="matrix(.926 -.377 .377 .926 -114.58 209.474)"/><path d="m430.475 428.31c-11.023 4.5-21.759 3.779-23.981-1.608-2.221-5.388 4.913-13.403 15.936-17.903s21.759-3.779 23.981 1.608c2.222 5.388-4.913 13.403-15.936 17.903z" fill="#e58bbd"/><path d="m472.717 386.525c-4.593 10.947-12.689 17.998-18.084 15.749s-6.045-12.946-1.453-23.893c4.593-10.947 12.689-17.998 18.084-15.749s6.045 12.946 1.453 23.893z" fill="#e58bbd"/><path d="m456.815 408.885c-1.555 0-3.084-.296-4.559-.911-3.038-1.267-5.388-3.749-6.796-7.18-2.594-6.325-1.837-15.596 2.025-24.803 1.319-3.145 4.936-4.622 8.085-3.306 3.145 1.32 4.625 4.94 3.306 8.085-3.444 8.207-2.759 14.217-1.825 15.713 1.728-.379 6.516-4.109 9.971-12.348 1.319-3.144 4.936-4.625 8.085-3.306 3.145 1.32 4.625 4.939 3.306 8.085-5.179 12.344-13.709 19.971-21.598 19.971z" fill="#b54a94"/><path d="m451.249 437.694c-4.593 10.947-12.689 17.998-18.084 15.749s-6.045-12.946-1.452-23.893 12.689-17.998 18.084-15.749 6.045 12.946 1.452 23.893z" fill="#e58bbd"/><path d="m451.246 443.872c-.796 0-1.605-.156-2.386-.482-3.145-1.32-4.625-4.939-3.306-8.085 3.444-8.207 2.759-14.217 1.825-15.713-1.727.379-6.516 4.109-9.971 12.348-1.32 3.146-4.941 4.622-8.085 3.306-3.145-1.32-4.625-4.939-3.306-8.085 6.201-14.778 17.202-22.787 26.156-19.06 3.038 1.267 5.388 3.749 6.796 7.18 2.594 6.325 1.837 15.596-2.024 24.803-.992 2.364-3.285 3.787-5.699 3.788z" fill="#b54a94"/><path d="m473.834 428.475c-10.996-4.584-18.083-12.653-15.83-18.024s12.994-6.009 23.99-1.426 18.083 12.653 15.83 18.024c-2.254 5.371-12.995 6.01-23.99 1.426z" fill="#e58bbd"/><path d="m473.831 434.653c-.791 0-1.596-.154-2.373-.477-9.266-3.863-16.348-9.947-18.945-16.276-1.4-3.416-1.47-6.817-.203-9.838 3.743-8.926 17.227-10.919 32.059-4.737 3.149 1.312 4.638 4.927 3.325 8.076-1.312 3.147-4.925 4.641-8.076 3.325-8.219-3.425-14.262-2.766-15.813-1.844.436 1.745 4.216 6.48 12.405 9.894 3.148 1.313 4.637 4.928 3.324 8.077-.989 2.37-3.285 3.8-5.703 3.8z" fill="#b54a94"/><path d="m422.436 407.05c-10.996-4.583-18.083-12.653-15.83-18.024s12.994-6.009 23.99-1.426 18.083 12.653 15.829 18.024c-2.253 5.372-12.993 6.01-23.989 1.426z" fill="#e58bbd"/><path d="m436.286 416.328c-4.873 0-10.447-1.168-16.227-3.576-3.148-1.312-4.637-4.927-3.324-8.077 1.311-3.146 4.923-4.637 8.077-3.324 8.218 3.426 14.261 2.769 15.812 1.844-.437-1.745-4.216-6.48-12.405-9.894-3.148-1.313-4.637-4.928-3.324-8.077 1.313-3.147 4.922-4.637 8.077-3.324 9.265 3.862 16.347 9.946 18.944 16.275 1.401 3.416 1.471 6.817.205 9.838-2.286 5.449-8.2 8.315-15.835 8.315zm4.381-12.834h.011z" fill="#b54a94"/><path d="m465.857 402.469c3.095 7.507-.504 16.085-8.039 19.161s-16.152-.516-19.247-8.023.504-16.085 8.039-19.161c7.535-3.075 16.152.516 19.247 8.023z" fill="#f7e266"/><path d="m318.997 35.949h-214.897c-16.556 0-29.978 13.422-29.978 29.978v80.834h274.853v-80.834c.001-16.557-13.421-29.978-29.978-29.978z" fill="#f5dbb6"/><path d="m356.567 71.538h-282.445v46.036h282.445l-5.244-23.018z" fill="#bdf4e3"/><path d="m303.1 57.671v13.867l3.534 5.865 45.278-.938 4.655-4.927v-5.611c0-16.556-13.422-29.978-29.978-29.978h-45.21c11.996 0 21.721 9.725 21.721 21.722z" fill="#eaa5b6"/><path d="m303.1 84.056c0 13.063-10.59 23.654-23.654 23.654h-205.324v9.864h282.445v-46.036h-53.467z" fill="#b1b7e3"/><path d="m372.397 161.597h-314.104c-7.706 0-13.953-6.247-13.953-13.953v-20.398c0-7.706 6.247-13.953 13.953-13.953h314.104c7.706 0 13.953 6.247 13.953 13.953v20.398c0 7.705-6.247 13.953-13.953 13.953z" fill="#f5dbb6"/><ellipse cx="217.579" cy="437.987" fill="#cd9fc5" rx="10.09" ry="10.09" transform="matrix(.707 -.707 .707 .707 -245.976 282.135)"/><path d="m227.668 471.921c0 5.572-4.517 10.09-10.09 10.09s-10.09-4.517-10.09-10.09 4.517-10.09 10.09-10.09 10.09 4.517 10.09 10.09z" fill="#cd9fc5"/><path d="m327.811 213.602c-3.41 0-6.176-2.765-6.176-6.176v-11.759c0-3.411 2.765-6.176 6.176-6.176s6.176 2.765 6.176 6.176v11.759c0 3.41-2.766 6.176-6.176 6.176z" fill="#bc545e"/><path d="m367.745 232.07c-3.411 0-6.176-2.765-6.176-6.176v-11.76c0-3.411 2.765-6.176 6.176-6.176s6.176 2.765 6.176 6.176v11.76c0 3.41-2.765 6.176-6.176 6.176z" fill="#bc545e"/></g><g><path d="m476.621 72.282 8.743 24.583c.374 1.053 1.115 1.887 2.051 2.308l21.841 9.84c3.086 1.39 3.086 6.307 0 7.697l-21.841 9.84c-.935.421-1.676 1.255-2.051 2.308l-8.743 24.583c-1.235 3.473-5.603 3.473-6.838 0l-8.743-24.583c-.374-1.053-1.115-1.887-2.051-2.308l-21.841-9.84c-3.086-1.39-3.086-6.307 0-7.697l21.841-9.84c.935-.421 1.676-1.255 2.051-2.308l8.743-24.583c1.235-3.473 5.603-3.473 6.838 0z" fill="#f1c7b6"/><ellipse cx="486.2" cy="32.034" fill="#eaa585" rx="8.084" ry="8.085" transform="matrix(.973 -.23 .23 .973 5.647 112.564)"/><path d="m417.763 1.932 6.485 18.236c.278.781.827 1.399 1.521 1.712l16.202 7.299c2.289 1.031 2.289 4.678 0 5.709l-16.202 7.299c-.694.312-1.243.931-1.521 1.712l-6.485 18.236c-.916 2.576-4.156 2.576-5.073 0l-6.485-18.235c-.278-.781-.827-1.4-1.521-1.712l-16.201-7.299c-2.289-1.031-2.289-4.678 0-5.709l16.201-7.299c.694-.313 1.243-.931 1.521-1.712l6.485-18.236c.916-2.577 4.157-2.577 5.073-.001z" fill="#f1c7b6"/></g></g></svg>