<svg width="826" height="140" viewBox="0 0 826 140" fill="none" xmlns="http://www.w3.org/2000/svg">
<g filter="url(#filter0_d)">
<path d="M534.088 1.04321H582.717V107.125C582.717 120.554 571.831 131.44 558.403 131.44V131.44C544.974 131.44 534.088 120.554 534.088 107.125V1.04321Z" fill="white"/>
</g>
<g filter="url(#filter1_d)">
<path d="M582.717 1.04321H630.429V107.584C630.429 120.759 619.748 131.44 606.573 131.44V131.44C593.397 131.44 582.717 120.759 582.717 107.584V1.04321Z" fill="#FF8DA9"/>
</g>
<g filter="url(#filter2_d)">
<path d="M630.429 1.04321H679.058V107.125C679.058 120.554 668.172 131.44 654.743 131.44V131.44C641.315 131.44 630.429 120.554 630.429 107.125V1.04321Z" fill="white"/>
</g>
<g filter="url(#filter3_d)">
<path d="M679.058 1.04321H727.687V107.125C727.687 120.554 716.801 131.44 703.373 131.44V131.44C689.944 131.44 679.058 120.554 679.058 107.125V1.04321Z" fill="#FF8DA9"/>
</g>
<g filter="url(#filter4_d)">
<path d="M727.688 1.04321H776.317V107.125C776.317 120.554 765.431 131.44 752.002 131.44V131.44C738.574 131.44 727.688 120.554 727.688 107.125V1.04321Z" fill="white"/>
</g>
<g filter="url(#filter5_d)">
<path d="M534.088 1.04321H582.717V107.125C582.717 120.554 571.831 131.44 558.403 131.44V131.44C544.974 131.44 534.088 120.554 534.088 107.125V1.04321Z" fill="white"/>
</g>
<g filter="url(#filter6_d)">
<path d="M582.717 1.04321H630.429V107.584C630.429 120.759 619.748 131.44 606.573 131.44V131.44C593.397 131.44 582.717 120.759 582.717 107.584V1.04321Z" fill="#FF8DA9"/>
</g>
<g filter="url(#filter7_d)">
<path d="M630.429 1.04321H679.058V107.125C679.058 120.554 668.172 131.44 654.743 131.44V131.44C641.315 131.44 630.429 120.554 630.429 107.125V1.04321Z" fill="white"/>
</g>
<g filter="url(#filter8_d)">
<path d="M679.058 1.04321H727.687V107.125C727.687 120.554 716.801 131.44 703.373 131.44V131.44C689.944 131.44 679.058 120.554 679.058 107.125V1.04321Z" fill="#FF8DA9"/>
</g>
<g filter="url(#filter9_d)">
<path d="M727.688 1.04321H776.317V107.125C776.317 120.554 765.431 131.44 752.002 131.44V131.44C738.574 131.44 727.688 120.554 727.688 107.125V1.04321Z" fill="white"/>
</g>
<g filter="url(#filter10_d)">
<path d="M243.229 1.04321H291.858V107.125C291.858 120.554 280.972 131.44 267.544 131.44V131.44C254.115 131.44 243.229 120.554 243.229 107.125V1.04321Z" fill="white"/>
</g>
<g filter="url(#filter11_d)">
<path d="M291.858 1.04321H340.488V107.125C340.488 120.554 329.602 131.44 316.173 131.44V131.44C302.744 131.44 291.858 120.554 291.858 107.125V1.04321Z" fill="#FF8DA9"/>
</g>
<g filter="url(#filter12_d)">
<path d="M340.488 1.04321H389.117V107.125C389.117 120.554 378.231 131.44 364.802 131.44V131.44C351.374 131.44 340.488 120.554 340.488 107.125V1.04321Z" fill="white"/>
</g>
<g filter="url(#filter13_d)">
<path d="M389.117 1.04321H437.747V107.125C437.747 120.554 426.86 131.44 413.432 131.44V131.44C400.003 131.44 389.117 120.554 389.117 107.125V1.04321Z" fill="#FF8DA9"/>
</g>
<g filter="url(#filter14_d)">
<path d="M437.747 1.04321H486.376V107.125C486.376 120.554 475.49 131.44 462.061 131.44V131.44C448.633 131.44 437.747 120.554 437.747 107.125V1.04321Z" fill="white"/>
</g>
<g filter="url(#filter15_d)">
<path d="M486.376 1.04321H535.005V107.125C535.005 120.554 524.119 131.44 510.691 131.44V131.44C497.262 131.44 486.376 120.554 486.376 107.125V1.04321Z" fill="#FF8DA9"/>
</g>
<g filter="url(#filter16_d)">
<path d="M806.137 1.04321H776.317V108.87C776.317 121.335 786.422 131.44 798.887 131.44V131.44C812.634 131.44 823.189 119.254 821.226 105.647L806.137 1.04321Z" fill="#FF8DA9"/>
</g>
<g filter="url(#filter17_d)">
<path d="M98.2588 1.04321H146.888V107.125C146.888 120.554 136.002 131.44 122.573 131.44V131.44C109.145 131.44 98.2588 120.554 98.2588 107.125V1.04321Z" fill="#FF8DA9"/>
</g>
<g filter="url(#filter18_d)">
<path d="M146.888 1.04321H195.518V107.125C195.518 120.554 184.631 131.44 171.203 131.44V131.44C157.774 131.44 146.888 120.554 146.888 107.125V1.04321Z" fill="white"/>
</g>
<g filter="url(#filter19_d)">
<path d="M195.518 1.04321H243.229V107.584C243.229 120.759 232.549 131.44 219.373 131.44V131.44C206.198 131.44 195.518 120.759 195.518 107.584V1.04321Z" fill="#FF8DA9"/>
</g>
<g filter="url(#filter20_d)">
<path d="M19.8095 1.04321H49.6293V108.87C49.6293 121.335 39.5244 131.44 27.0593 131.44V131.44C13.3119 131.44 2.75778 119.254 4.7205 105.647L19.8095 1.04321Z" fill="#FF8DA9"/>
</g>
<g filter="url(#filter21_d)">
<path d="M49.6294 1.04321H98.2587V107.125C98.2587 120.554 87.3727 131.44 73.9441 131.44V131.44C60.5154 131.44 49.6294 120.554 49.6294 107.125V1.04321Z" fill="white"/>
</g>
<path d="M534.088 1.04315H582.717V79.2811H534.088V1.04315Z" fill="#FFFCEC"/>
<path d="M582.717 1.04315H630.429V79.2811H582.717V1.04315Z" fill="#FF809E"/>
<path d="M630.429 1.04315H679.059V79.2811H630.429V1.04315Z" fill="#FFFCEC"/>
<path d="M679.059 1.04315H727.688V79.2811H679.059V1.04315Z" fill="#FF809E"/>
<path d="M727.688 1.04315H776.317V79.2811H727.688V1.04315Z" fill="#FFFCEC"/>
<path d="M534.088 1.04315H582.717V79.2811H534.088V1.04315Z" fill="#FFFCEC"/>
<path d="M582.717 1.04315H630.429V79.2811H582.717V1.04315Z" fill="#FF809E"/>
<path d="M630.429 1.04315H679.059V79.2811H630.429V1.04315Z" fill="#FFFCEC"/>
<path d="M679.059 1.04315H727.688V79.2811H679.059V1.04315Z" fill="#FF809E"/>
<path d="M727.688 1.04315H776.317V79.2811H727.688V1.04315Z" fill="#FFFCEC"/>
<path d="M243.229 1.04315H291.859V79.2811H243.229V1.04315Z" fill="#FFFCEC"/>
<path d="M291.859 1.04315H340.488V79.2811H291.859V1.04315Z" fill="#FF809E"/>
<path d="M340.488 1.04315H389.118V79.2811H340.488V1.04315Z" fill="#FFFCEC"/>
<path d="M389.117 1.04315H437.747V79.2811H389.117V1.04315Z" fill="#FF809E"/>
<path d="M437.747 1.04315H486.376V79.2811H437.747V1.04315Z" fill="#FFFCEC"/>
<path d="M486.376 1.04315H535.005V79.2811H486.376V1.04315Z" fill="#FF809E"/>
<path d="M98.2588 1.04315H146.888V79.2811H98.2588V1.04315Z" fill="#FF809E"/>
<path d="M146.888 1.04315H195.518V79.2811H146.888V1.04315Z" fill="#FFFCEC"/>
<path d="M195.518 1.04315H243.229V79.2811H195.518V1.04315Z" fill="#FF809E"/>
<path d="M49.6294 1.04315H98.2587V79.2811H49.6294V1.04315Z" fill="#FFFCEC"/>
<g filter="url(#filter22_d)">
<path d="M19.8097 1.04315H49.6296V79.8027H9.7168L19.8097 1.04315Z" fill="#FF809E"/>
</g>
<g filter="url(#filter23_d)">
<path d="M806.137 0H776.317V78.7595H816.23L806.137 0Z" fill="#FF809E"/>
</g>
<defs>
<filter id="filter0_d" x="530.088" y="1.04321" width="56.6293" height="138.397" filterUnits="userSpaceOnUse" color-interpolation-filters="sRGB">
<feFlood flood-opacity="0" result="BackgroundImageFix"/>
<feColorMatrix in="SourceAlpha" type="matrix" values="0 0 0 0 0 0 0 0 0 0 0 0 0 0 0 0 0 0 127 0" result="hardAlpha"/>
<feOffset dy="4"/>
<feGaussianBlur stdDeviation="2"/>
<feColorMatrix type="matrix" values="0 0 0 0 1 0 0 0 0 0.554167 0 0 0 0 0.661167 0 0 0 0.1 0"/>
<feBlend mode="normal" in2="BackgroundImageFix" result="effect1_dropShadow"/>
<feBlend mode="normal" in="SourceGraphic" in2="effect1_dropShadow" result="shape"/>
</filter>
<filter id="filter1_d" x="578.717" y="1.04321" width="55.7118" height="138.397" filterUnits="userSpaceOnUse" color-interpolation-filters="sRGB">
<feFlood flood-opacity="0" result="BackgroundImageFix"/>
<feColorMatrix in="SourceAlpha" type="matrix" values="0 0 0 0 0 0 0 0 0 0 0 0 0 0 0 0 0 0 127 0" result="hardAlpha"/>
<feOffset dy="4"/>
<feGaussianBlur stdDeviation="2"/>
<feColorMatrix type="matrix" values="0 0 0 0 1 0 0 0 0 0.554167 0 0 0 0 0.661167 0 0 0 0.1 0"/>
<feBlend mode="normal" in2="BackgroundImageFix" result="effect1_dropShadow"/>
<feBlend mode="normal" in="SourceGraphic" in2="effect1_dropShadow" result="shape"/>
</filter>
<filter id="filter2_d" x="626.429" y="1.04321" width="56.6293" height="138.397" filterUnits="userSpaceOnUse" color-interpolation-filters="sRGB">
<feFlood flood-opacity="0" result="BackgroundImageFix"/>
<feColorMatrix in="SourceAlpha" type="matrix" values="0 0 0 0 0 0 0 0 0 0 0 0 0 0 0 0 0 0 127 0" result="hardAlpha"/>
<feOffset dy="4"/>
<feGaussianBlur stdDeviation="2"/>
<feColorMatrix type="matrix" values="0 0 0 0 1 0 0 0 0 0.554167 0 0 0 0 0.661167 0 0 0 0.1 0"/>
<feBlend mode="normal" in2="BackgroundImageFix" result="effect1_dropShadow"/>
<feBlend mode="normal" in="SourceGraphic" in2="effect1_dropShadow" result="shape"/>
</filter>
<filter id="filter3_d" x="675.058" y="1.04321" width="56.6293" height="138.397" filterUnits="userSpaceOnUse" color-interpolation-filters="sRGB">
<feFlood flood-opacity="0" result="BackgroundImageFix"/>
<feColorMatrix in="SourceAlpha" type="matrix" values="0 0 0 0 0 0 0 0 0 0 0 0 0 0 0 0 0 0 127 0" result="hardAlpha"/>
<feOffset dy="4"/>
<feGaussianBlur stdDeviation="2"/>
<feColorMatrix type="matrix" values="0 0 0 0 1 0 0 0 0 0.554167 0 0 0 0 0.661167 0 0 0 0.1 0"/>
<feBlend mode="normal" in2="BackgroundImageFix" result="effect1_dropShadow"/>
<feBlend mode="normal" in="SourceGraphic" in2="effect1_dropShadow" result="shape"/>
</filter>
<filter id="filter4_d" x="723.688" y="1.04321" width="56.6293" height="138.397" filterUnits="userSpaceOnUse" color-interpolation-filters="sRGB">
<feFlood flood-opacity="0" result="BackgroundImageFix"/>
<feColorMatrix in="SourceAlpha" type="matrix" values="0 0 0 0 0 0 0 0 0 0 0 0 0 0 0 0 0 0 127 0" result="hardAlpha"/>
<feOffset dy="4"/>
<feGaussianBlur stdDeviation="2"/>
<feColorMatrix type="matrix" values="0 0 0 0 1 0 0 0 0 0.554167 0 0 0 0 0.661167 0 0 0 0.1 0"/>
<feBlend mode="normal" in2="BackgroundImageFix" result="effect1_dropShadow"/>
<feBlend mode="normal" in="SourceGraphic" in2="effect1_dropShadow" result="shape"/>
</filter>
<filter id="filter5_d" x="530.088" y="1.04321" width="56.6293" height="138.397" filterUnits="userSpaceOnUse" color-interpolation-filters="sRGB">
<feFlood flood-opacity="0" result="BackgroundImageFix"/>
<feColorMatrix in="SourceAlpha" type="matrix" values="0 0 0 0 0 0 0 0 0 0 0 0 0 0 0 0 0 0 127 0" result="hardAlpha"/>
<feOffset dy="4"/>
<feGaussianBlur stdDeviation="2"/>
<feColorMatrix type="matrix" values="0 0 0 0 1 0 0 0 0 0.554167 0 0 0 0 0.661167 0 0 0 0.1 0"/>
<feBlend mode="normal" in2="BackgroundImageFix" result="effect1_dropShadow"/>
<feBlend mode="normal" in="SourceGraphic" in2="effect1_dropShadow" result="shape"/>
</filter>
<filter id="filter6_d" x="578.717" y="1.04321" width="55.7118" height="138.397" filterUnits="userSpaceOnUse" color-interpolation-filters="sRGB">
<feFlood flood-opacity="0" result="BackgroundImageFix"/>
<feColorMatrix in="SourceAlpha" type="matrix" values="0 0 0 0 0 0 0 0 0 0 0 0 0 0 0 0 0 0 127 0" result="hardAlpha"/>
<feOffset dy="4"/>
<feGaussianBlur stdDeviation="2"/>
<feColorMatrix type="matrix" values="0 0 0 0 1 0 0 0 0 0.554167 0 0 0 0 0.661167 0 0 0 0.1 0"/>
<feBlend mode="normal" in2="BackgroundImageFix" result="effect1_dropShadow"/>
<feBlend mode="normal" in="SourceGraphic" in2="effect1_dropShadow" result="shape"/>
</filter>
<filter id="filter7_d" x="626.429" y="1.04321" width="56.6293" height="138.397" filterUnits="userSpaceOnUse" color-interpolation-filters="sRGB">
<feFlood flood-opacity="0" result="BackgroundImageFix"/>
<feColorMatrix in="SourceAlpha" type="matrix" values="0 0 0 0 0 0 0 0 0 0 0 0 0 0 0 0 0 0 127 0" result="hardAlpha"/>
<feOffset dy="4"/>
<feGaussianBlur stdDeviation="2"/>
<feColorMatrix type="matrix" values="0 0 0 0 1 0 0 0 0 0.554167 0 0 0 0 0.661167 0 0 0 0.1 0"/>
<feBlend mode="normal" in2="BackgroundImageFix" result="effect1_dropShadow"/>
<feBlend mode="normal" in="SourceGraphic" in2="effect1_dropShadow" result="shape"/>
</filter>
<filter id="filter8_d" x="675.058" y="1.04321" width="56.6293" height="138.397" filterUnits="userSpaceOnUse" color-interpolation-filters="sRGB">
<feFlood flood-opacity="0" result="BackgroundImageFix"/>
<feColorMatrix in="SourceAlpha" type="matrix" values="0 0 0 0 0 0 0 0 0 0 0 0 0 0 0 0 0 0 127 0" result="hardAlpha"/>
<feOffset dy="4"/>
<feGaussianBlur stdDeviation="2"/>
<feColorMatrix type="matrix" values="0 0 0 0 1 0 0 0 0 0.554167 0 0 0 0 0.661167 0 0 0 0.1 0"/>
<feBlend mode="normal" in2="BackgroundImageFix" result="effect1_dropShadow"/>
<feBlend mode="normal" in="SourceGraphic" in2="effect1_dropShadow" result="shape"/>
</filter>
<filter id="filter9_d" x="723.688" y="1.04321" width="56.6293" height="138.397" filterUnits="userSpaceOnUse" color-interpolation-filters="sRGB">
<feFlood flood-opacity="0" result="BackgroundImageFix"/>
<feColorMatrix in="SourceAlpha" type="matrix" values="0 0 0 0 0 0 0 0 0 0 0 0 0 0 0 0 0 0 127 0" result="hardAlpha"/>
<feOffset dy="4"/>
<feGaussianBlur stdDeviation="2"/>
<feColorMatrix type="matrix" values="0 0 0 0 1 0 0 0 0 0.554167 0 0 0 0 0.661167 0 0 0 0.1 0"/>
<feBlend mode="normal" in2="BackgroundImageFix" result="effect1_dropShadow"/>
<feBlend mode="normal" in="SourceGraphic" in2="effect1_dropShadow" result="shape"/>
</filter>
<filter id="filter10_d" x="239.229" y="1.04321" width="56.6293" height="138.397" filterUnits="userSpaceOnUse" color-interpolation-filters="sRGB">
<feFlood flood-opacity="0" result="BackgroundImageFix"/>
<feColorMatrix in="SourceAlpha" type="matrix" values="0 0 0 0 0 0 0 0 0 0 0 0 0 0 0 0 0 0 127 0" result="hardAlpha"/>
<feOffset dy="4"/>
<feGaussianBlur stdDeviation="2"/>
<feColorMatrix type="matrix" values="0 0 0 0 1 0 0 0 0 0.554167 0 0 0 0 0.661167 0 0 0 0.1 0"/>
<feBlend mode="normal" in2="BackgroundImageFix" result="effect1_dropShadow"/>
<feBlend mode="normal" in="SourceGraphic" in2="effect1_dropShadow" result="shape"/>
</filter>
<filter id="filter11_d" x="287.858" y="1.04321" width="56.6293" height="138.397" filterUnits="userSpaceOnUse" color-interpolation-filters="sRGB">
<feFlood flood-opacity="0" result="BackgroundImageFix"/>
<feColorMatrix in="SourceAlpha" type="matrix" values="0 0 0 0 0 0 0 0 0 0 0 0 0 0 0 0 0 0 127 0" result="hardAlpha"/>
<feOffset dy="4"/>
<feGaussianBlur stdDeviation="2"/>
<feColorMatrix type="matrix" values="0 0 0 0 1 0 0 0 0 0.554167 0 0 0 0 0.661167 0 0 0 0.1 0"/>
<feBlend mode="normal" in2="BackgroundImageFix" result="effect1_dropShadow"/>
<feBlend mode="normal" in="SourceGraphic" in2="effect1_dropShadow" result="shape"/>
</filter>
<filter id="filter12_d" x="336.488" y="1.04321" width="56.6293" height="138.397" filterUnits="userSpaceOnUse" color-interpolation-filters="sRGB">
<feFlood flood-opacity="0" result="BackgroundImageFix"/>
<feColorMatrix in="SourceAlpha" type="matrix" values="0 0 0 0 0 0 0 0 0 0 0 0 0 0 0 0 0 0 127 0" result="hardAlpha"/>
<feOffset dy="4"/>
<feGaussianBlur stdDeviation="2"/>
<feColorMatrix type="matrix" values="0 0 0 0 1 0 0 0 0 0.554167 0 0 0 0 0.661167 0 0 0 0.1 0"/>
<feBlend mode="normal" in2="BackgroundImageFix" result="effect1_dropShadow"/>
<feBlend mode="normal" in="SourceGraphic" in2="effect1_dropShadow" result="shape"/>
</filter>
<filter id="filter13_d" x="385.117" y="1.04321" width="56.6293" height="138.397" filterUnits="userSpaceOnUse" color-interpolation-filters="sRGB">
<feFlood flood-opacity="0" result="BackgroundImageFix"/>
<feColorMatrix in="SourceAlpha" type="matrix" values="0 0 0 0 0 0 0 0 0 0 0 0 0 0 0 0 0 0 127 0" result="hardAlpha"/>
<feOffset dy="4"/>
<feGaussianBlur stdDeviation="2"/>
<feColorMatrix type="matrix" values="0 0 0 0 1 0 0 0 0 0.554167 0 0 0 0 0.661167 0 0 0 0.1 0"/>
<feBlend mode="normal" in2="BackgroundImageFix" result="effect1_dropShadow"/>
<feBlend mode="normal" in="SourceGraphic" in2="effect1_dropShadow" result="shape"/>
</filter>
<filter id="filter14_d" x="433.747" y="1.04321" width="56.6293" height="138.397" filterUnits="userSpaceOnUse" color-interpolation-filters="sRGB">
<feFlood flood-opacity="0" result="BackgroundImageFix"/>
<feColorMatrix in="SourceAlpha" type="matrix" values="0 0 0 0 0 0 0 0 0 0 0 0 0 0 0 0 0 0 127 0" result="hardAlpha"/>
<feOffset dy="4"/>
<feGaussianBlur stdDeviation="2"/>
<feColorMatrix type="matrix" values="0 0 0 0 1 0 0 0 0 0.554167 0 0 0 0 0.661167 0 0 0 0.1 0"/>
<feBlend mode="normal" in2="BackgroundImageFix" result="effect1_dropShadow"/>
<feBlend mode="normal" in="SourceGraphic" in2="effect1_dropShadow" result="shape"/>
</filter>
<filter id="filter15_d" x="482.376" y="1.04321" width="56.6293" height="138.397" filterUnits="userSpaceOnUse" color-interpolation-filters="sRGB">
<feFlood flood-opacity="0" result="BackgroundImageFix"/>
<feColorMatrix in="SourceAlpha" type="matrix" values="0 0 0 0 0 0 0 0 0 0 0 0 0 0 0 0 0 0 127 0" result="hardAlpha"/>
<feOffset dy="4"/>
<feGaussianBlur stdDeviation="2"/>
<feColorMatrix type="matrix" values="0 0 0 0 1 0 0 0 0 0.554167 0 0 0 0 0.661167 0 0 0 0.1 0"/>
<feBlend mode="normal" in2="BackgroundImageFix" result="effect1_dropShadow"/>
<feBlend mode="normal" in="SourceGraphic" in2="effect1_dropShadow" result="shape"/>
</filter>
<filter id="filter16_d" x="772.317" y="1.04321" width="53.1444" height="138.397" filterUnits="userSpaceOnUse" color-interpolation-filters="sRGB">
<feFlood flood-opacity="0" result="BackgroundImageFix"/>
<feColorMatrix in="SourceAlpha" type="matrix" values="0 0 0 0 0 0 0 0 0 0 0 0 0 0 0 0 0 0 127 0" result="hardAlpha"/>
<feOffset dy="4"/>
<feGaussianBlur stdDeviation="2"/>
<feColorMatrix type="matrix" values="0 0 0 0 1 0 0 0 0 0.554167 0 0 0 0 0.661167 0 0 0 0.1 0"/>
<feBlend mode="normal" in2="BackgroundImageFix" result="effect1_dropShadow"/>
<feBlend mode="normal" in="SourceGraphic" in2="effect1_dropShadow" result="shape"/>
</filter>
<filter id="filter17_d" x="94.2588" y="1.04321" width="56.6293" height="138.397" filterUnits="userSpaceOnUse" color-interpolation-filters="sRGB">
<feFlood flood-opacity="0" result="BackgroundImageFix"/>
<feColorMatrix in="SourceAlpha" type="matrix" values="0 0 0 0 0 0 0 0 0 0 0 0 0 0 0 0 0 0 127 0" result="hardAlpha"/>
<feOffset dy="4"/>
<feGaussianBlur stdDeviation="2"/>
<feColorMatrix type="matrix" values="0 0 0 0 1 0 0 0 0 0.554167 0 0 0 0 0.661167 0 0 0 0.1 0"/>
<feBlend mode="normal" in2="BackgroundImageFix" result="effect1_dropShadow"/>
<feBlend mode="normal" in="SourceGraphic" in2="effect1_dropShadow" result="shape"/>
</filter>
<filter id="filter18_d" x="142.888" y="1.04321" width="56.6293" height="138.397" filterUnits="userSpaceOnUse" color-interpolation-filters="sRGB">
<feFlood flood-opacity="0" result="BackgroundImageFix"/>
<feColorMatrix in="SourceAlpha" type="matrix" values="0 0 0 0 0 0 0 0 0 0 0 0 0 0 0 0 0 0 127 0" result="hardAlpha"/>
<feOffset dy="4"/>
<feGaussianBlur stdDeviation="2"/>
<feColorMatrix type="matrix" values="0 0 0 0 1 0 0 0 0 0.554167 0 0 0 0 0.661167 0 0 0 0.1 0"/>
<feBlend mode="normal" in2="BackgroundImageFix" result="effect1_dropShadow"/>
<feBlend mode="normal" in="SourceGraphic" in2="effect1_dropShadow" result="shape"/>
</filter>
<filter id="filter19_d" x="191.518" y="1.04321" width="55.7118" height="138.397" filterUnits="userSpaceOnUse" color-interpolation-filters="sRGB">
<feFlood flood-opacity="0" result="BackgroundImageFix"/>
<feColorMatrix in="SourceAlpha" type="matrix" values="0 0 0 0 0 0 0 0 0 0 0 0 0 0 0 0 0 0 127 0" result="hardAlpha"/>
<feOffset dy="4"/>
<feGaussianBlur stdDeviation="2"/>
<feColorMatrix type="matrix" values="0 0 0 0 1 0 0 0 0 0.554167 0 0 0 0 0.661167 0 0 0 0.1 0"/>
<feBlend mode="normal" in2="BackgroundImageFix" result="effect1_dropShadow"/>
<feBlend mode="normal" in="SourceGraphic" in2="effect1_dropShadow" result="shape"/>
</filter>
<filter id="filter20_d" x="0.484863" y="1.04321" width="53.1444" height="138.397" filterUnits="userSpaceOnUse" color-interpolation-filters="sRGB">
<feFlood flood-opacity="0" result="BackgroundImageFix"/>
<feColorMatrix in="SourceAlpha" type="matrix" values="0 0 0 0 0 0 0 0 0 0 0 0 0 0 0 0 0 0 127 0" result="hardAlpha"/>
<feOffset dy="4"/>
<feGaussianBlur stdDeviation="2"/>
<feColorMatrix type="matrix" values="0 0 0 0 1 0 0 0 0 0.554167 0 0 0 0 0.661167 0 0 0 0.1 0"/>
<feBlend mode="normal" in2="BackgroundImageFix" result="effect1_dropShadow"/>
<feBlend mode="normal" in="SourceGraphic" in2="effect1_dropShadow" result="shape"/>
</filter>
<filter id="filter21_d" x="45.6294" y="1.04321" width="56.6293" height="138.397" filterUnits="userSpaceOnUse" color-interpolation-filters="sRGB">
<feFlood flood-opacity="0" result="BackgroundImageFix"/>
<feColorMatrix in="SourceAlpha" type="matrix" values="0 0 0 0 0 0 0 0 0 0 0 0 0 0 0 0 0 0 127 0" result="hardAlpha"/>
<feOffset dy="4"/>
<feGaussianBlur stdDeviation="2"/>
<feColorMatrix type="matrix" values="0 0 0 0 1 0 0 0 0 0.554167 0 0 0 0 0.661167 0 0 0 0.1 0"/>
<feBlend mode="normal" in2="BackgroundImageFix" result="effect1_dropShadow"/>
<feBlend mode="normal" in="SourceGraphic" in2="effect1_dropShadow" result="shape"/>
</filter>
<filter id="filter22_d" x="5.7168" y="1.04315" width="47.9128" height="86.7595" filterUnits="userSpaceOnUse" color-interpolation-filters="sRGB">
<feFlood flood-opacity="0" result="BackgroundImageFix"/>
<feColorMatrix in="SourceAlpha" type="matrix" values="0 0 0 0 0 0 0 0 0 0 0 0 0 0 0 0 0 0 127 0" result="hardAlpha"/>
<feOffset dy="4"/>
<feGaussianBlur stdDeviation="2"/>
<feColorMatrix type="matrix" values="0 0 0 0 1 0 0 0 0 0.554167 0 0 0 0 0.661167 0 0 0 0.1 0"/>
<feBlend mode="normal" in2="BackgroundImageFix" result="effect1_dropShadow"/>
<feBlend mode="normal" in="SourceGraphic" in2="effect1_dropShadow" result="shape"/>
</filter>
<filter id="filter23_d" x="772.317" y="0" width="47.9128" height="86.7595" filterUnits="userSpaceOnUse" color-interpolation-filters="sRGB">
<feFlood flood-opacity="0" result="BackgroundImageFix"/>
<feColorMatrix in="SourceAlpha" type="matrix" values="0 0 0 0 0 0 0 0 0 0 0 0 0 0 0 0 0 0 127 0" result="hardAlpha"/>
<feOffset dy="4"/>
<feGaussianBlur stdDeviation="2"/>
<feColorMatrix type="matrix" values="0 0 0 0 1 0 0 0 0 0.554167 0 0 0 0 0.661167 0 0 0 0.1 0"/>
<feBlend mode="normal" in2="BackgroundImageFix" result="effect1_dropShadow"/>
<feBlend mode="normal" in="SourceGraphic" in2="effect1_dropShadow" result="shape"/>
</filter>
</defs>
</svg>
