<svg id="Capa_1" enable-background="new 0 0 512 512" height="512" viewBox="0 0 512 512" width="512" xmlns="http://www.w3.org/2000/svg"><g><g><path d="m508.923 86.68-497.878 165.426c-8.346 2.773-9.21 14.236-1.374 18.229l112.889 57.519 67.555 174.908c2.471 6.404 10.5 8.49 15.775 4.097l112.553-79.2 120.995 61.649c6.065 3.09 13.368-.716 14.309-7.457z" fill="#b2e7f1"/><path d="m150.033 398.985 39.518 102.317c1.64 3.864 9.512 11.288 21.173 2.148l107.72-75.791-65.782-38.582 256.261-302.397z" fill="#a7adf1"/><g><path d="m199.843 509.542c-1.5 0-3.023-.327-4.466-1.019-5.151-2.47-7.324-8.649-4.854-13.8l52.811-110.119c2.471-5.152 8.651-7.324 13.8-4.854 5.151 2.47 7.324 8.649 4.854 13.8l-52.812 110.119c-1.777 3.708-5.478 5.873-9.333 5.873z" fill="#95cde6"/></g><g><path d="m122.569 334.852c-3.501 0-6.917-1.779-8.861-4.993-2.956-4.889-1.39-11.248 3.499-14.204l379.094-229.249c4.89-2.958 11.249-1.389 14.204 3.498 2.957 4.889 1.39 11.248-3.498 14.204l-379.094 229.249c-1.674 1.012-3.521 1.495-5.344 1.495z" fill="#95cde6"/></g><g><path d="m405.406 422.295c-3.428 0-6.207-2.779-6.207-6.207v-13.548c0-3.428 2.779-6.207 6.207-6.207 3.427 0 6.207 2.779 6.207 6.207v13.548c0 3.428-2.779 6.207-6.207 6.207z" fill="#95cde6"/></g><g><path d="m427.906 369.316c-3.427 0-6.206-2.779-6.206-6.207v-13.549c0-3.428 2.779-6.207 6.206-6.207 3.428 0 6.207 2.779 6.207 6.207v13.549c0 3.428-2.779 6.207-6.207 6.207z" fill="#95cde6"/></g><g><path d="m363.673 387.446c-3.428 0-6.207-2.779-6.207-6.207v-13.548c0-3.428 2.779-6.207 6.207-6.207s6.207 2.779 6.207 6.207v13.548c-.001 3.428-2.78 6.207-6.207 6.207z" fill="#95cde6"/></g><g><path d="m161.671 252.09c-4.316 0-8.343-2.723-9.8-7.039-1.827-5.413 1.08-11.283 6.493-13.109l4.464-1.507c5.413-1.825 11.282 1.082 13.108 6.495s-1.081 11.283-6.494 13.109l-4.462 1.505c-1.096.37-2.212.546-3.309.546z" fill="#fff"/></g><g><path d="m95.173 274.519c-4.317 0-8.344-2.723-9.801-7.041-1.826-5.413 1.082-11.282 6.495-13.108l27.292-9.206c5.413-1.825 11.281 1.082 13.108 6.495 1.826 5.413-1.082 11.282-6.495 13.108l-27.292 9.206c-1.095.37-2.211.546-3.307.546z" fill="#fff"/></g></g><g><path d="m338.929 26.673c0 10.596-8.59 19.185-19.185 19.185-10.596 0-19.186-8.589-19.186-19.185s8.59-19.185 19.186-19.185c10.595-.001 19.185 8.589 19.185 19.185z" fill="#8bb6ef"/><ellipse cx="104.175" cy="118.463" fill="#8bb6ef" rx="8.125" ry="8.125" transform="matrix(.23 -.973 .973 .23 -35.054 192.633)"/><g fill="#b2e7f1"><path d="m237.22 59.006 6.518 18.326c.279.785.831 1.406 1.528 1.72l16.282 7.336c2.3 1.036 2.3 4.701 0 5.738l-16.282 7.336c-.697.314-1.25.936-1.528 1.72l-6.518 18.326c-.921 2.589-4.177 2.589-5.098 0l-6.518-18.326c-.279-.785-.831-1.406-1.529-1.72l-16.282-7.336c-2.3-1.036-2.3-4.701 0-5.738l16.282-7.336c.697-.314 1.25-.936 1.529-1.72l6.518-18.326c.92-2.589 4.177-2.589 5.098 0z"/><path d="m42.805 5.076 8.956 24.706c.383 1.058 1.142 1.896 2.1 2.319l22.373 9.889c3.161 1.397 3.161 6.338 0 7.735l-22.373 9.889c-.958.423-1.717 1.262-2.1 2.319l-8.956 24.707c-1.265 3.491-5.74 3.491-7.005 0l-8.956-24.706c-.383-1.058-1.142-1.896-2.101-2.319l-22.372-9.89c-3.161-1.397-3.161-6.338 0-7.735l22.373-9.889c.958-.424 1.717-1.262 2.101-2.319l8.955-24.706c1.265-3.49 5.74-3.49 7.005 0z"/></g></g></g></svg>