<svg id="Capa_1" enable-background="new 0 0 512 512" height="512" viewBox="0 0 512 512" width="512" xmlns="http://www.w3.org/2000/svg"><g><g><path d="m117.638 425.427h276.724c3.574 0 6.471-2.897 6.471-6.471v-259.938c0-11.429-10.68-20.728-23.806-20.728h-242.053c-13.127 0-23.807 9.299-23.807 20.728v259.938c0 3.574 2.897 6.471 6.471 6.471z" fill="#b2e7f1"/><path d="m186.546 206.39c0-13.107-15.854-23.733-35.411-23.733s-35.411 10.626-35.411 23.733h-4.556v27.124h94.968c7.49 0 13.562-6.072 13.562-13.562 0-7.49-6.072-13.562-13.562-13.562z" fill="#fff"/><path d="m397.006 352.861c.701-2.584 1.081-5.299 1.081-8.105 0-17.067-13.836-30.902-30.902-30.902-17.067 0-30.902 13.836-30.902 30.902 0 2.806.381 5.521 1.081 8.105h-13.471c-8.72 0-15.788 7.069-15.788 15.788 0 8.72 7.069 15.788 15.788 15.788h74.421c8.72 0 15.788-7.069 15.788-15.788 0-8.719-7.069-15.788-15.788-15.788z" fill="#fff"/><path d="m256.078 270.202c-8.61 0-15.59 6.98-15.59 15.59s6.98 15.59 15.59 15.59 15.59-6.98 15.59-15.59-6.98-15.59-15.59-15.59z" fill="#78eac4"/><path d="m428.317 178.966c0-23.652-17.174-42.826-40.826-42.826s-42.826 19.174-42.826 42.826c0 12.428 5.299 23.614 13.755 31.438-3.6 2.255-6.793 5.097-9.447 8.393-3.198-13.34-15.195-23.259-29.516-23.259-16.767 0-30.359 13.592-30.359 30.359 0 4.01.785 7.834 2.197 11.338-2.858-1.429-6.08-2.238-9.492-2.238-11.741 0-21.258 9.518-21.258 21.258s9.518 21.258 21.258 21.258c4.49 0 8.651-1.395 12.082-3.771 1.686 10.054 10.426 17.717 20.959 17.717 11.74 0 21.258-9.517 21.258-21.258 0-6.159-2.622-11.703-6.807-15.586 4.425-1.516 8.392-4.017 11.629-7.253 2.373 18.649 18.287 33.07 37.58 33.07 20.93 0 37.897-16.967 37.897-37.897 0-9.726-3.668-18.593-9.691-25.303 13.999-7.043 21.607-21.528 21.607-38.266zm-125.906 72.052c.489.333.99.649 1.499.954-.391.235-.773.484-1.147.743-.096-.574-.211-1.14-.352-1.697z" fill="#78eac4"/><path d="m329.297 254.616s-3.534-2.767-3.534-2.75c0 7.076-10.645 12.619-20.346 12.619-4.974 0-9.463-2.068-12.658-5.39-3.798-3.95-8.968-6.196-14.447-6.135-.066.001-.132.001-.198.001-6.034 0-11.355-3.045-14.517-7.679-1.991 3.297-3.113 7.178-3.046 11.327.189 11.602 9.943 21.058 21.545 20.903 4.379-.059 8.435-1.445 11.792-3.769 1.759 10.484 11.185 18.367 22.318 17.675 10.573-.658 19.173-9.238 19.854-19.81.432-6.718-6.763-16.992-6.763-16.992z" fill="#71afc4"/><path d="m430.261 176.752c-1.047-20.793-17.224-37.998-37.911-40.337-5.735-.648-11.257-.125-16.399 1.311.57.177 1.131.373 1.688.577-.204-.005-.407-.014-.612-.014h-27.231c11.782 0 21.368 8.347 21.368 18.605v85.231c0 7.221-5.781 13.215-13.002 13.247-.047 0-.094 0-.141 0-6.144 0-11.315-.005-15.469-.888 4.254 12.811 15.152 22.585 28.613 25.231v110.491c0 3.208-2.6 5.808-5.808 5.808h-248.38c-3.208 0-5.808-2.6-5.808-5.808v28.748c0 3.574 2.897 6.471 6.471 6.471h276.725c3.574 0 6.471-2.897 6.471-6.471v-145.803c9.436-6.893 15.57-18.035 15.57-30.615 0-9.726-3.668-18.593-9.691-25.303 14.607-7.353 24.436-22.814 23.546-40.481z" fill="#a7adf1"/><path d="m428.317 178.966c0-23.652-17.174-42.826-40.826-42.826-8.639 0-16.674 2.567-23.401 6.966 4.331 3.408 7.073 8.319 7.073 13.789v85.231c0 7.221-5.781 13.215-13.002 13.247-.047 0-.094 0-.141 0-6.144 0-11.316-.005-15.469-.888v.001c5.005 15.071 19.203 25.946 35.955 25.946 20.93 0 37.897-16.967 37.897-37.897 0-9.726-3.668-18.593-9.691-25.303 13.997-7.043 21.605-21.529 21.605-38.266z" fill="#71afc4"/><path d="m400.833 384.218v-31.137c-.822-.132-1.66-.22-2.519-.22h-1.307c.701-2.584 1.081-5.299 1.081-8.105 0-15.718-11.738-28.685-26.924-30.639v70.32h27.15c.859 0 1.697-.087 2.519-.219z" fill="#ffbffc"/><path d="m377.027 107.522h-242.053c-29.385 0-53.291 23.101-53.291 51.496v297.177h348.634v-297.176c0-28.396-23.906-51.497-53.29-51.497zm23.806 311.434c0 3.574-2.897 6.471-6.471 6.471h-276.724c-3.574 0-6.471-2.897-6.471-6.471v-259.937c0-11.43 10.68-20.728 23.807-20.728h242.053c13.127 0 23.806 9.299 23.806 20.728z" fill="#ffdcb6"/><path d="m441.281 504.656h-370.562c-7.713 0-13.965-6.253-13.965-13.965v-20.53c0-7.713 6.252-13.965 13.965-13.965h370.561c7.713 0 13.965 6.253 13.965 13.965v20.53c.001 7.713-6.252 13.965-13.964 13.965z" fill="#d49c8d"/><path d="m441.28 456.195h-46.782c5.089 0 9.215 4.125 9.215 9.215v5.802c0 5.089-4.125 9.214-9.215 9.214h-328.53c-5.089 0-9.214-4.125-9.214-9.214v19.479c0 7.713 6.252 13.965 13.965 13.965h370.561c7.713 0 13.965-6.253 13.965-13.965v-20.53c.001-7.713-6.252-13.966-13.965-13.966z" fill="#c7758d"/><path d="m98.48 364.491c18.137 13.794 25.727 34.329 25.727 34.329s-21.816-1.83-39.953-15.625c-18.137-13.794-27.551-31.586-25.727-34.329s21.816 1.831 39.953 15.625z" fill="#78eac4"/><path d="m186.288 364.491c-18.137 13.794-25.727 34.329-25.727 34.329s21.816-1.83 39.953-15.625c18.137-13.794 27.551-31.586 25.727-34.329-1.823-2.743-21.816 1.831-39.953 15.625z" fill="#78eac4"/><path d="m186.288 364.491c-18.137 13.794-25.727 34.329-25.727 34.329s21.816-1.83 39.953-15.625c18.137-13.794 27.551-31.586 25.727-34.329-1.823-2.743-21.816 1.831-39.953 15.625z" fill="#71afc4"/><path d="m149.709 341.614c-14.701 25.462-6.904 57.485-6.904 57.485s31.63-9.26 46.331-34.722 12.285-54.066 6.905-57.485c-5.382-3.418-31.631 9.26-46.332 34.722z" fill="#78eac4"/><path d="m196.04 306.892c-1.53-.972-4.749-.639-8.908.915 2.399 4.92 1.697 22.72-7.907 39.357-10.654 18.452-31.56 26.327-31.56 26.327s-6.168-12.234.294-28.599c-12.298 24.848-5.154 54.206-5.154 54.206s31.63-9.26 46.331-34.722c14.7-25.462 12.284-54.066 6.904-57.484z" fill="#71afc4"/><g><path d="m142.802 405.1c-2.596 0-4.989-1.698-5.756-4.316-.93-3.178.891-6.508 4.066-7.442.41-.122 29.574-9.012 42.826-31.965 1.656-2.869 5.325-3.853 8.196-2.196 2.87 1.657 3.853 5.327 2.196 8.196-15.722 27.231-48.455 37.074-49.841 37.48-.561.164-1.129.243-1.687.243z" fill="#518699"/></g><path d="m135.13 341.614c14.701 25.462 6.905 57.485 6.905 57.485s-31.63-9.26-46.331-34.722-12.285-54.066-6.905-57.485c5.381-3.418 31.631 9.26 46.331 34.722z" fill="#78eac4"/><path d="m135.13 341.614c-14.701-25.462-40.95-38.14-46.331-34.722-.634.403-1.225 1.167-1.754 2.224 4.48-1.142 21.509 8.887 31.909 26.899 7.095 12.29 7.862 26.206 7.541 34.379-.139 3.545-3.944 5.742-7.084 4.09-7.239-3.809-18.907-11.431-26.003-23.72-5.339-9.246-7.93-18.869-8.776-26.535.083 11.193 2.984 26.142 11.071 40.148 14.701 25.462 46.331 34.722 46.331 34.722s7.797-32.023-6.904-57.485z" fill="#71afc4"/><g><path d="m142.039 405.1c-.47 0-.947-.056-1.425-.172-3.219-.784-5.193-4.029-4.41-7.249.035-.143 3.606-15.334.84-32.339-.532-3.271 1.688-6.353 4.958-6.886 3.278-.534 6.355 1.688 6.886 4.958 3.173 19.496-.851 36.396-1.023 37.105-.669 2.743-3.123 4.583-5.826 4.583z" fill="#518699"/></g><path d="m155.135 456.195h-25.431c-23.788 0-43.706-18.026-46.073-41.696l-1.18-8.542c-.609-7.693 5.47-14.271 13.187-14.271h93.562c7.717 0 13.796 6.578 13.187 14.271l-1.18 8.542c-2.366 23.67-22.284 41.696-46.072 41.696z" fill="#ffa585"/><path d="m189.201 391.686h-23.62c6.01 0 10.744 4.531 10.27 9.83l-.919 5.883c-1.843 16.303-17.356 28.719-35.883 28.719h-19.806c-18.527 0-34.039-12.416-35.883-28.719l-.742-4.752c-.185 1.069-.257 2.175-.167 3.311l1.18 8.542c2.367 23.67 22.285 41.696 46.073 41.696h25.431c23.788 0 43.706-18.026 46.073-41.696l1.18-8.542c.608-7.694-5.47-14.272-13.187-14.272z" fill="#ef7c85"/><g><path d="m256 431.427c-3.313 0-6-2.686-6-6v-287.137c0-3.313 2.686-6 6-6 3.313 0 6 2.687 6 6v287.137c0 3.313-2.687 6-6 6z" fill="#95cde6"/></g><path d="m193.458 411.492h-102.625c-5.898 0-10.679-4.781-10.679-10.679 0-5.898 4.781-10.679 10.679-10.679h102.625c5.898 0 10.679 4.781 10.679 10.679 0 5.898-4.781 10.679-10.679 10.679z" fill="#ffa585"/><g><path d="m199.758 417.492h-112.209c-3.313 0-6-2.686-6-6s2.687-6 6-6h112.209c3.314 0 6 2.686 6 6s-2.687 6-6 6z" fill="#be545e"/></g><g><path d="m140.739 298.207c-5.522 0-10-4.477-10-10v-24.894c0-5.523 4.478-10 10-10 5.523 0 10 4.477 10 10v24.894c0 5.523-4.477 10-10 10z" fill="#fff"/></g></g><path d="m479.163 9.791 8.215 23.098c.352.989 1.048 1.773 1.926 2.168l20.521 9.246c2.899 1.306 2.899 5.925 0 7.232l-20.521 9.246c-.878.396-1.575 1.18-1.926 2.168l-8.215 23.098c-1.16 3.263-5.264 3.263-6.425 0l-8.214-23.098c-.352-.989-1.048-1.773-1.927-2.168l-20.521-9.246c-2.899-1.306-2.899-5.925 0-7.232l20.521-9.246c.879-.396 1.575-1.18 1.927-2.168l8.214-23.098c1.161-3.263 5.265-3.263 6.425 0z" fill="#b2e7f1"/><path d="m29.124 79.832 6.093 17.133c.261.734.777 1.315 1.429 1.609l15.222 6.858c2.151.969 2.151 4.395 0 5.364l-15.222 6.858c-.652.294-1.168.875-1.429 1.609l-6.093 17.133c-.861 2.421-3.905 2.421-4.766 0l-6.093-17.133c-.261-.734-.777-1.315-1.429-1.609l-15.222-6.858c-2.151-.969-2.151-4.395 0-5.364l15.222-6.858c.652-.294 1.168-.875 1.429-1.609l6.093-17.133c.861-2.421 3.905-2.421 4.766 0z" fill="#b2e7f1"/><g fill="#8bb6ef"><ellipse cx="188.414" cy="38.398" rx="17.937" ry="17.937" transform="matrix(.23 -.973 .973 .23 107.755 212.95)"/><circle cx="336.078" cy="58.175" r="7.737"/></g></g></svg>
